<svg width="21" height="21" viewBox="0 0 21 21" fill="none" xmlns="http://www.w3.org/2000/svg">
<g clip-path="url(#clip0_49_1296)">
<path d="M7.46721 1.2945C5.4689 1.98773 3.74556 3.30351 2.55032 5.04856C1.35508 6.79362 0.750946 8.87597 0.826651 10.9898C0.902355 13.1035 1.65391 15.1373 2.97092 16.7924C4.28794 18.4475 6.10099 19.6366 8.14377 20.1851C9.7999 20.6125 11.535 20.6312 13.2 20.2398C14.7083 19.901 16.1028 19.1763 17.2469 18.1367C18.4376 17.0216 19.302 15.6031 19.7469 14.0336C20.2305 12.3268 20.3166 10.5319 19.9985 8.78668H10.6985V12.6445H16.0844C15.9768 13.2598 15.7461 13.847 15.4062 14.3711C15.0663 14.8952 14.6242 15.3453 14.1063 15.6945C13.4486 16.1295 12.7072 16.4223 11.9297 16.5539C11.1499 16.6989 10.3501 16.6989 9.57033 16.5539C8.78 16.3905 8.03236 16.0643 7.37502 15.5961C6.319 14.8485 5.52608 13.7866 5.1094 12.5617C4.68567 11.3139 4.68567 9.96107 5.1094 8.71325C5.406 7.83859 5.89632 7.04221 6.54377 6.38356C7.2847 5.61598 8.22273 5.06731 9.25495 4.79774C10.2872 4.52818 11.3737 4.54814 12.3953 4.85544C13.1934 5.10042 13.9232 5.52846 14.5266 6.10544C15.1339 5.50127 15.7401 4.89554 16.3453 4.28825C16.6578 3.96169 16.9985 3.65075 17.3063 3.31637C16.3853 2.4593 15.3042 1.7924 14.125 1.35387C11.9777 0.574169 9.62811 0.553216 7.46721 1.2945Z" fill="white"/>
<path d="M7.46709 1.29477C9.62781 0.552983 11.9774 0.573385 14.1249 1.35258C15.3043 1.79409 16.3849 2.4642 17.3046 3.32446C16.9921 3.65883 16.6624 3.97133 16.3437 4.29633C15.7374 4.90154 15.1317 5.50466 14.5265 6.10571C13.9231 5.52873 13.1933 5.10069 12.3952 4.85571C11.3739 4.54733 10.2874 4.52622 9.25493 4.79468C8.22243 5.06314 7.28383 5.6108 6.54209 6.37758C5.89464 7.03623 5.40432 7.83261 5.10771 8.70727L1.86865 6.19946C3.02804 3.90033 5.03545 2.14168 7.46709 1.29477Z" fill="#E33629"/>
<path d="M1.00942 8.68359C1.18352 7.82077 1.47255 6.9852 1.86879 6.19922L5.10786 8.71328C4.68413 9.9611 4.68413 11.3139 5.10786 12.5617C4.02869 13.3951 2.949 14.2326 1.86879 15.0742C0.876842 13.0997 0.574314 10.85 1.00942 8.68359Z" fill="#F8BD00"/>
<path d="M10.6984 8.78516H19.9984C20.3166 10.5304 20.2305 12.3253 19.7469 14.032C19.3019 15.6015 18.4376 17.0201 17.2469 18.1352C16.2016 17.3195 15.1516 16.5102 14.1063 15.6945C14.6245 15.345 15.0668 14.8944 15.4067 14.3697C15.7467 13.8451 15.9771 13.2573 16.0844 12.6414H10.6984C10.6969 11.357 10.6984 10.0711 10.6984 8.78516Z" fill="#587DBD"/>
<path d="M1.86719 15.074C2.9474 14.2407 4.02708 13.4032 5.10625 12.5615C5.52376 13.7868 6.31782 14.8489 7.375 15.5959C8.03439 16.0619 8.78364 16.3855 9.575 16.5459C10.3548 16.6909 11.1546 16.6909 11.9344 16.5459C12.7119 16.4143 13.4533 16.1216 14.1109 15.6865C15.1562 16.5021 16.2063 17.3115 17.2516 18.1271C16.1076 19.1673 14.7132 19.8926 13.2047 20.2318C11.5397 20.6233 9.80457 20.6045 8.14844 20.1771C6.8386 19.8274 5.61512 19.2109 4.55469 18.3662C3.43228 17.4751 2.51556 16.3521 1.86719 15.074Z" fill="#319F43"/>
</g>
<defs>
<clipPath id="clip0_49_1296">
<rect width="20" height="20" fill="white" transform="translate(0.5 0.636719)"/>
</clipPath>
</defs>
</svg>
