<svg width="512" height="512" viewBox="0 0 512 512" fill="none" xmlns="http://www.w3.org/2000/svg">
<g clip-path="url(#clip0_10_2)">
<path d="M99.455 120.85H227.545C228.764 120.85 229.932 121.332 230.794 122.191C231.656 123.049 232.14 124.213 232.14 125.428V193.174C232.14 194.388 231.655 195.552 230.794 196.41C229.932 197.268 228.764 197.751 227.545 197.751H168.082C167.479 197.751 166.881 197.869 166.324 198.099C165.766 198.329 165.26 198.666 164.833 199.091C164.407 199.516 164.068 200.021 163.837 200.577C163.606 201.132 163.488 201.727 163.488 202.328V308.601C163.488 309.815 163.972 310.979 164.833 311.838C165.695 312.696 166.864 313.179 168.082 313.179H227.548C228.151 313.179 228.748 313.297 229.306 313.527C229.863 313.757 230.37 314.094 230.796 314.519C231.223 314.944 231.562 315.448 231.792 316.004C232.023 316.559 232.142 317.154 232.142 317.755V385.572C232.142 386.787 231.658 387.951 230.796 388.809C229.935 389.668 228.766 390.15 227.548 390.15H99.455C98.2364 390.15 97.0678 389.668 96.2061 388.809C95.3444 387.951 94.8604 386.787 94.8604 385.572V125.428C94.8604 124.213 95.3444 123.049 96.2061 122.191C97.0678 121.332 98.2364 120.85 99.455 120.85Z" fill="#FFE7A5" stroke="#1E1E1E" stroke-width="5" stroke-miterlimit="10"/>
</g>
<g clip-path="url(#clip1_10_2)">
<path d="M412.545 120.85H284.455C283.236 120.85 282.068 121.332 281.206 122.191C280.344 123.049 279.86 124.213 279.86 125.428V193.174C279.861 194.388 280.345 195.552 281.207 196.41C282.068 197.268 283.237 197.751 284.455 197.751H343.92C344.524 197.751 345.121 197.869 345.679 198.099C346.236 198.329 346.743 198.666 347.169 199.091C347.596 199.516 347.934 200.021 348.165 200.577C348.396 201.132 348.515 201.727 348.515 202.328V308.601C348.515 309.815 348.031 310.979 347.169 311.838C346.308 312.696 345.139 313.179 343.92 313.179H284.455C283.852 313.179 283.254 313.297 282.697 313.527C282.139 313.757 281.633 314.094 281.206 314.519C280.779 314.944 280.441 315.448 280.21 316.004C279.979 316.559 279.86 317.154 279.86 317.755V385.572C279.86 386.787 280.344 387.951 281.206 388.809C282.068 389.668 283.236 390.15 284.455 390.15H412.545C413.764 390.15 414.932 389.668 415.794 388.809C416.656 387.951 417.14 386.787 417.14 385.572V125.428C417.14 124.213 416.656 123.049 415.794 122.191C414.932 121.332 413.764 120.85 412.545 120.85Z" fill="#FFE7A5" stroke="#1E1E1E" stroke-width="5" stroke-miterlimit="10"/>
</g>
<defs>
<clipPath id="clip0_10_2">
<rect width="143" height="275" fill="white" transform="translate(92 118)"/>
</clipPath>
<clipPath id="clip1_10_2">
<rect width="143" height="275" fill="white" transform="translate(277 118)"/>
</clipPath>
</defs>
</svg>
