<svg width="1689" height="479" viewBox="0 0 1689 479" fill="none" xmlns="http://www.w3.org/2000/svg">
<path d="M7.9999 282.4H27.7999C34.8999 282.4 40.5999 288.1 40.5999 295.2V412.9C40.5999 448.2 69.2999 476.9 104.6 476.9H155.8C158.6 476.9 160.9 474.6 160.9 471.8V400C160.9 397.2 158.6 394.9 155.8 394.9H116.5C109.4 394.9 103.7 389.2 103.7 382.1V97.6001C103.7 90.5001 109.4 84.8 116.5 84.8H155.8C158.6 84.8 160.9 82.5 160.9 79.7V7.90004C160.9 5.10004 158.6 2.80005 155.8 2.80005H104.6C69.2999 2.80005 40.5999 31.5 40.5999 66.8V184.4C40.5999 191.5 34.8999 197.2 27.7999 197.2H7.9999C5.1999 197.2 2.8999 199.5 2.8999 202.3V277.3C2.8999 280.1 5.1999 282.4 7.9999 282.4Z" fill="#F9AB00" stroke="#1E1E1E" stroke-width="4" stroke-miterlimit="10"/>
<path d="M1681.7 197.3H1661.9C1654.8 197.3 1649.1 191.6 1649.1 184.5V66.8C1649.1 31.5 1620.4 2.80005 1585.1 2.80005H1534C1531.2 2.80005 1528.9 5.10004 1528.9 7.90004V79.7C1528.9 82.5 1531.2 84.8 1534 84.8H1573.3C1580.4 84.8 1586.1 90.5001 1586.1 97.6001V382C1586.1 389.1 1580.4 394.8 1573.3 394.8H1534C1531.2 394.8 1528.9 397.1 1528.9 399.9V471.7C1528.9 474.5 1531.2 476.8 1534 476.8H1585.2C1620.5 476.8 1649.2 448.1 1649.2 412.8V295.3C1649.2 288.2 1654.9 282.5 1662 282.5H1681.8C1684.6 282.5 1686.9 280.2 1686.9 277.4V202.4C1686.9 199.5 1684.6 197.2 1681.7 197.3C1681.8 197.2 1681.8 197.2 1681.7 197.3Z" fill="#F9AB00"/>
<path d="M1681.7 197.3H1661.9C1654.8 197.3 1649.1 191.6 1649.1 184.5V66.8C1649.1 31.5 1620.4 2.80005 1585.1 2.80005H1534C1531.2 2.80005 1528.9 5.10004 1528.9 7.90004V79.7C1528.9 82.5 1531.2 84.8 1534 84.8H1573.3C1580.4 84.8 1586.1 90.5001 1586.1 97.6001V382C1586.1 389.1 1580.4 394.8 1573.3 394.8H1534C1531.2 394.8 1528.9 397.1 1528.9 399.9V471.7C1528.9 474.5 1531.2 476.8 1534 476.8H1585.2C1620.5 476.8 1649.2 448.1 1649.2 412.8V295.3C1649.2 288.2 1654.9 282.5 1662 282.5H1681.8C1684.6 282.5 1686.9 280.2 1686.9 277.4V202.4C1686.9 199.5 1684.6 197.2 1681.7 197.3ZM1681.7 197.3C1681.8 197.2 1681.8 197.2 1681.7 197.3Z" stroke="#1E1E1E" stroke-width="4" stroke-miterlimit="10"/>
<path d="M378.6 17.8C360.4 7.80005 338.8 2.80005 313.7 2.80005H233.9V239.1H313.8C338.9 239.1 360.5 234.1 378.7 224.2C396.4 214.7 411 200.3 420.6 182.6C430.4 164.8 435.3 144.2 435.3 120.9C435.3 97.6 430.4 77.1 420.6 59.4C410.8 41.8 396.3 27.4 378.6 17.8ZM381.6 160.9C375.8 172.3 366.7 181.6 355.4 187.5C343.7 193.8 329.2 196.9 311.8 196.9H278.4V45.1001H311.7C329.1 45.1001 343.6 48.2 355.3 54.5C366.6 60.4 375.7 69.6 381.5 80.9C387.3 92.2 390.2 105.6 390.2 121C390.3 136.1 387.4 149.4 381.6 160.9Z" fill="#1E1E1E"/>
<path d="M588.6 77.1C576.3 69.4 561.1 65.6 543.1 65.5C526.4 65.5 511.5 69.6 498.6 77.9C485.7 86 475.2 97.3 467.9 110.7C460.4 124.3 456.6 139.7 456.7 155.2C456.7 172.4 460.5 187.6 468.1 201.1C475.5 214.3 486.3 225.3 499.4 232.8C512.7 240.5 527.9 244.3 544.8 244.3C563.5 244.3 579.2 240.3 592 232.3C604.9 224.1 615.6 212.8 623 199.5L588 182.3C584 189.2 578.3 195 571.5 199.3C564.5 203.8 555.8 206.1 545.4 206.1C537 206.2 528.8 204.1 521.5 200C514.2 195.8 508.3 189.6 504.5 182.2C501.7 176.9 499.9 171.1 499.1 165.2H625.3C625.5 164.1 625.7 162.3 626 159.8C626.3 157.3 626.3 154.2 626.3 150.7C626.3 135.1 623.1 120.8 616.7 108C610.4 95.2 600.7 84.5 588.6 77.1ZM500.8 134.5C501.7 131.5 502.8 128.6 504.2 125.8C507.9 118.3 513.5 112 520.5 107.5C527.3 103.1 535.3 100.8 543.4 100.9C549.2 100.8 555 101.9 560.4 104C565.1 105.9 569.4 108.7 573.1 112.1C576.5 115.2 579.3 118.9 581.4 123C583.3 126.6 584.4 130.5 584.7 134.5H500.8Z" fill="#1E1E1E"/>
<path d="M721.8 180.3H719.2L676.6 70.8H627.5L698.7 239.1H741.6L813.6 70.8H765L721.8 180.3Z" fill="#1E1E1E"/>
<path d="M834.8 239.1H879.4V144.7H974.1V102.5H879.4V45.1001H984.7V2.80005H834.8V239.1Z" fill="#1E1E1E"/>
<path d="M1129.7 77.1C1117.4 69.4 1102.2 65.6 1084.2 65.5C1067.5 65.5 1052.6 69.6 1039.6 77.9C1026.7 86 1016.2 97.3 1008.9 110.7C1001.4 124.3 997.6 139.7 997.7 155.2C997.7 172.4 1001.5 187.6 1009.1 201.1C1016.5 214.3 1027.3 225.3 1040.4 232.8C1053.7 240.5 1068.9 244.3 1085.8 244.3C1104.5 244.3 1120.2 240.3 1133 232.3C1145.9 224.1 1156.6 212.8 1164 199.5L1129 182.3C1125 189.2 1119.3 195 1112.5 199.3C1105.5 203.8 1096.8 206.1 1086.4 206.1C1078 206.2 1069.8 204.1 1062.5 200C1055.2 195.8 1049.3 189.6 1045.5 182.2C1042.7 176.9 1040.9 171.1 1040.1 165.2H1166.3C1166.5 164.1 1166.7 162.3 1167 159.8C1167.3 157.3 1167.3 154.2 1167.3 150.7C1167.3 135.1 1164.1 120.8 1157.7 108C1151.5 95.2 1141.7 84.5 1129.7 77.1ZM1041.8 134.5C1042.7 131.5 1043.8 128.6 1045.2 125.8C1048.9 118.3 1054.5 112 1061.5 107.5C1068.3 103.1 1076.3 100.8 1084.4 100.9C1090.2 100.8 1096 101.9 1101.4 104C1106.1 105.9 1110.4 108.7 1114.1 112.1C1117.5 115.2 1120.3 118.9 1122.4 123C1124.3 126.6 1125.4 130.5 1125.7 134.5H1041.8Z" fill="#1E1E1E"/>
<path d="M1278.8 138.8L1254 132.9C1248.3 131.6 1243 129.2 1238.2 126C1233.8 122.9 1231.6 119.3 1231.6 115.1C1231.6 111.1 1233.8 107.7 1238.2 104.9C1242.6 102.1 1248.5 100.6 1256 100.6C1262.2 100.6 1268.4 101.9 1274 104.6C1279.6 107.3 1284.2 111.9 1287.7 118.5L1324.7 102.3C1321 94.2999 1315.6 87.2999 1308.9 81.6999C1302 76.1999 1294 72.0999 1285.5 69.6999C1275.6 66.8999 1265.4 65.5999 1255.1 65.6999C1243.7 65.5999 1232.5 67.6999 1221.9 71.9999C1211.9 76.1999 1204 81.9999 1198.1 89.4999C1192.3 96.9999 1189.2 106.4 1189.4 115.9C1189.2 124.4 1191.6 132.7 1196.2 139.8C1200.7 146.8 1206.8 152.6 1213.9 157C1221 161.4 1228.8 164.6 1237 166.4L1256.8 170.7C1261.4 171.6 1265.9 172.7 1270.3 174.2C1274.3 175.4 1278.1 177.5 1281.3 180.1C1284.3 182.7 1285.9 186.5 1285.8 190.5C1285.8 196.7 1282.9 200.9 1277.2 203.2C1271.1 205.6 1264.6 206.8 1258.1 206.7C1249.5 206.7 1242 204.7 1235.7 200.6C1229.3 196.5 1224.3 190.5 1220.5 182.6L1181.9 199.4C1185.1 207.7 1189.9 215.4 1196.1 221.8C1202.5 228.6 1210.8 234.1 1221 238.3C1231.2 242.5 1243.6 244.6 1258.1 244.6C1270.4 244.8 1282.7 242.5 1294.1 237.8C1304.9 233.3 1313.5 226.9 1319.8 218.7C1326.2 210.4 1329.6 200.3 1329.4 189.8C1329.6 178 1325 166.5 1316.7 158.1C1308.1 149.1 1295.5 142.7 1278.8 138.8Z" fill="#1E1E1E"/>
<path d="M1445.7 199.6C1442.5 200.6 1439.2 201.1 1435.8 201.1C1428.3 201.1 1422.9 199.2 1419.6 195.3C1416.3 191.5 1414.7 185.5 1414.7 177.3V107.7H1455.9V70.7H1414.7V23.2H1371.5V70.7H1342.1V107.7H1371.5V185.3C1371.5 202.9 1376.4 216.7 1386.3 226.7C1396.2 236.7 1409.8 241.7 1427.2 241.7C1432.4 241.7 1437.5 241.2 1442.5 240.2C1447.5 239.2 1452.4 237.8 1457.2 236.1V193.8C1453.6 196.2 1449.7 198.2 1445.7 199.6Z" fill="#1E1E1E"/>
<path d="M320.5 476.8H1367.6C1415.8 476.8 1454.9 437.7 1454.9 389.5C1454.9 341.3 1415.8 302.2 1367.6 302.2H320.5C272.3 302.2 233.2 341.3 233.2 389.5C233.2 437.8 272.2 476.8 320.5 476.8Z" fill="white" stroke="#1E1E1E" stroke-width="4" stroke-linejoin="round"/>
<path d="M610.5 417.2C605.8 417.2 601.5 416.1 597.7 413.9C593.9 411.7 590.7 408.6 588.4 404.6C586.1 400.6 584.9 396 584.9 390.8C584.9 385.6 586.1 381 588.4 377C590.7 373 593.8 369.9 597.7 367.7C601.6 365.5 605.9 364.4 610.5 364.4C614.3 364.4 617.6 365.1 620.5 366.5C623.4 367.9 626.1 370 628.5 373L634 367.7C631.1 364.3 627.6 361.7 623.6 359.9C619.6 358.1 615.2 357.2 610.4 357.2C604.2 357.2 598.5 358.7 593.4 361.6C588.3 364.5 584.3 368.6 581.4 373.7C578.5 378.8 577 384.5 577 390.8C577 397.1 578.5 402.8 581.4 407.9C584.3 413 588.3 417 593.4 420C598.5 423 604.2 424.4 610.4 424.4C615.6 424.4 620.4 423.4 624.8 421.3C629.2 419.2 632.9 416.4 635.8 412.9L630.2 407.5C624.9 414 618.3 417.2 610.5 417.2Z" fill="#4285F4"/>
<path d="M652.1 358.8H644.5V423.1H652.1V358.8Z" fill="#4285F4"/>
<path d="M696.2 379.1C692.6 376.9 688.6 375.9 684.1 375.9C679.6 375.9 675.6 377 672 379.1C668.4 381.2 665.6 384.2 663.6 387.9C661.6 391.6 660.6 395.7 660.6 400.2C660.6 404.7 661.6 408.8 663.6 412.5C665.6 416.2 668.4 419.1 672 421.3C675.6 423.5 679.6 424.5 684.1 424.5C688.6 424.5 692.6 423.4 696.2 421.3C699.8 419.2 702.6 416.2 704.6 412.5C706.6 408.8 707.6 404.7 707.6 400.2C707.6 395.7 706.6 391.6 704.6 387.9C702.6 384.2 699.8 381.2 696.2 379.1ZM697.8 409.4C696.3 412 694.4 414.1 692 415.5C689.6 416.9 687 417.6 684.1 417.6C681.2 417.6 678.6 416.9 676.2 415.5C673.8 414.1 671.8 412.1 670.3 409.4C668.8 406.7 668.1 403.7 668.1 400.1C668.1 396.5 668.8 393.5 670.3 390.8C671.8 388.1 673.7 386.1 676.2 384.7C678.7 383.3 681.3 382.6 684.1 382.6C686.9 382.6 689.5 383.3 692 384.7C694.5 386.1 696.4 388.1 697.8 390.8C699.2 393.5 700 396.5 700 400.1C700 403.7 699.3 406.8 697.8 409.4Z" fill="#4285F4"/>
<path d="M747.5 403.1C747.5 405.6 746.9 407.9 745.8 410.1C744.7 412.3 743.1 414.1 741.1 415.5C739.1 416.9 736.8 417.6 734.2 417.6C730.8 417.6 728.2 416.6 726.2 414.5C724.2 412.4 723.2 409.3 723.2 404.9V377.2H715.6V406C715.6 411.8 717.1 416.3 720 419.6C722.9 422.9 727.1 424.5 732.6 424.5C735.7 424.5 738.6 423.7 741.4 422.2C744.2 420.7 746.2 418.7 747.4 416.4H747.8V423H755.1V377.2H747.5V403.1Z" fill="#4285F4"/>
<path d="M801.2 358.8V377.8L801.6 384.2H801.2C799.8 381.9 797.7 379.9 794.9 378.3C792.1 376.7 789 375.9 785.6 375.9C781.5 375.9 777.7 376.9 774.4 379C771.1 381.1 768.5 384 766.5 387.7C764.5 391.4 763.6 395.6 763.6 400.2C763.6 404.9 764.6 409 766.5 412.7C768.4 416.4 771 419.3 774.4 421.4C777.8 423.5 781.5 424.5 785.6 424.5C789.1 424.5 792.2 423.7 794.9 422.1C797.6 420.5 799.8 418.6 801.2 416.3H801.6V423H808.9V358.7H801.2V358.8ZM799.4 409.3C798 411.9 796.1 414 793.8 415.4C791.5 416.8 789 417.6 786.3 417.6C783.7 417.6 781.2 416.9 778.8 415.4C776.4 413.9 774.6 411.9 773.2 409.2C771.8 406.5 771.1 403.5 771.1 400.1C771.1 396.7 771.8 393.6 773.2 391C774.6 388.4 776.5 386.3 778.8 384.8C781.1 383.3 783.6 382.6 786.3 382.6C789 382.6 791.5 383.3 793.8 384.8C796.1 386.3 798 388.3 799.4 390.9C800.8 393.5 801.5 396.6 801.5 400.1C801.5 403.6 800.8 406.7 799.4 409.3Z" fill="#4285F4"/>
<path d="M934.3 386.5H901.2V358.8H893.6V423.1H901.2V393.8H934.3V423.1H941.9V358.8H934.3V386.5Z" fill="#0F0F0F"/>
<path d="M970.6 375.8C966.8 375.8 963.3 376.6 960.1 378.1C956.9 379.7 954.4 381.8 952.6 384.6L958.4 388.9C959.7 386.9 961.4 385.4 963.6 384.3C965.8 383.2 968.1 382.6 970.7 382.6C974.4 382.6 977.4 383.6 979.8 385.7C982.2 387.8 983.4 390.5 983.4 393.9V396.7C982.1 395.9 980.3 395.2 978 394.6C975.6 394 973.1 393.7 970.3 393.7C964.7 393.7 960.1 395.1 956.5 397.8C952.8 400.5 951 404.3 951 409.2C951 412.1 951.7 414.8 953.2 417.1C954.7 419.4 956.7 421.2 959.3 422.5C961.9 423.8 964.9 424.5 968.3 424.5C971.6 424.5 974.6 423.7 977.2 422.2C979.8 420.6 981.8 418.8 983.1 416.5H983.5V423.1H990.8V394.1C990.8 388.5 989 384 985.5 380.8C981.7 377.5 976.8 375.8 970.6 375.8ZM981.3 410.5C980 412.7 978.2 414.5 976 415.8C973.8 417.1 971.4 417.8 968.8 417.8C965.9 417.8 963.4 417 961.5 415.5C959.6 413.9 958.6 411.9 958.6 409.4C958.6 406.6 959.7 404.4 961.8 402.7C963.9 401 967.1 400.1 971.3 400.1C973.6 400.1 975.9 400.4 977.9 401C980 401.6 981.8 402.4 983.2 403.3C983.3 405.9 982.6 408.3 981.3 410.5Z" fill="#0F0F0F"/>
<path d="M1023.6 375.8C1020.5 375.8 1017.6 376.6 1014.8 378.2C1012 379.8 1010 381.7 1008.8 384H1008.4V377.3H1001.1V423.1H1008.7V397.3C1008.7 394.8 1009.2 392.5 1010.3 390.2C1011.4 387.9 1012.9 386.1 1014.8 384.8C1016.7 383.5 1018.9 382.7 1021.4 382.7C1024.9 382.7 1027.7 383.7 1029.8 385.6C1031.9 387.5 1032.9 390.6 1032.9 394.9V423.1H1040.5V393.7C1040.5 388.2 1039 383.8 1036.1 380.6C1033.2 377.4 1029.1 375.8 1023.6 375.8Z" fill="#0F0F0F"/>
<path d="M1084.8 379.1C1081.2 376.9 1077.2 375.9 1072.7 375.9C1068.2 375.9 1064.2 377 1060.6 379.1C1057 381.2 1054.2 384.2 1052.2 387.9C1050.2 391.6 1049.2 395.7 1049.2 400.2C1049.2 404.7 1050.2 408.8 1052.2 412.5C1054.2 416.2 1057 419.1 1060.6 421.3C1064.2 423.5 1068.2 424.5 1072.7 424.5C1077.2 424.5 1081.2 423.4 1084.8 421.3C1088.4 419.2 1091.2 416.2 1093.2 412.5C1095.2 408.8 1096.2 404.7 1096.2 400.2C1096.2 395.7 1095.2 391.6 1093.2 387.9C1091.2 384.1 1088.4 381.2 1084.8 379.1ZM1086.4 409.4C1084.9 412 1083 414.1 1080.6 415.5C1078.2 416.9 1075.6 417.6 1072.7 417.6C1069.9 417.6 1067.2 416.9 1064.8 415.5C1062.3 414.1 1060.4 412.1 1058.9 409.4C1057.4 406.8 1056.7 403.7 1056.7 400.1C1056.7 396.5 1057.4 393.5 1058.9 390.8C1060.4 388.2 1062.3 386.1 1064.8 384.7C1067.3 383.3 1069.9 382.6 1072.7 382.6C1075.5 382.6 1078.1 383.3 1080.6 384.7C1083.1 386.1 1085 388.1 1086.4 390.8C1087.9 393.4 1088.6 396.5 1088.6 400.1C1088.6 403.7 1087.8 406.8 1086.4 409.4Z" fill="#0F0F0F"/>
<path d="M1112.6 359.4C1111.6 358.4 1110.2 357.8 1108.7 357.8C1107.2 357.8 1105.9 358.3 1104.8 359.4C1103.7 360.5 1103.2 361.8 1103.2 363.3C1103.2 364.8 1103.7 366.1 1104.8 367.2C1105.9 368.3 1107.2 368.8 1108.7 368.8C1110.3 368.8 1111.6 368.3 1112.6 367.2C1113.6 366.1 1114.2 364.8 1114.2 363.3C1114.2 361.8 1113.6 360.5 1112.6 359.4Z" fill="#0F0F0F"/>
<path d="M1112.5 377.3H1104.9V423.1H1112.5V377.3Z" fill="#0F0F0F"/>
<path d="M850.5 405.9C855.415 405.9 859.4 401.915 859.4 397C859.4 392.085 855.415 388.1 850.5 388.1C845.585 388.1 841.6 392.085 841.6 397C841.6 401.915 845.585 405.9 850.5 405.9Z" fill="#0F0F0F"/>
</svg>
