<svg width="1700" height="1150" viewBox="0 0 1700 1150" fill="none" xmlns="http://www.w3.org/2000/svg">
<path d="M1635.6 627.3H1197.3V1065.6H1635.6V627.3Z" fill="#4285F4" stroke="#1E1E1E" stroke-width="5" stroke-linejoin="round"/>
<path d="M1502.8 769.4H1330.1V1065.7H1502.8V769.4Z" fill="#F0F0F0" stroke="#1E1E1E" stroke-width="5" stroke-linecap="round" stroke-linejoin="round"/>
<path d="M1527.3 892.6H1305.6V915.3H1527.3V892.6Z" fill="#FFE7A5" stroke="#1E1E1E" stroke-width="5" stroke-linecap="round" stroke-linejoin="round"/>
<path d="M1305.6 892.6V915.2" stroke="#1E1E1E" stroke-width="5" stroke-linecap="round" stroke-linejoin="round"/>
<path d="M1366.1 892.6V915.2" stroke="#1E1E1E" stroke-width="5" stroke-linecap="round" stroke-linejoin="round"/>
<path d="M1325.8 892.6V915.2" stroke="#1E1E1E" stroke-width="5" stroke-linecap="round" stroke-linejoin="round"/>
<path d="M1345.9 892.6V915.2" stroke="#1E1E1E" stroke-width="5" stroke-linecap="round" stroke-linejoin="round"/>
<path d="M1386.3 892.6V915.2" stroke="#1E1E1E" stroke-width="5" stroke-linecap="round" stroke-linejoin="round"/>
<path d="M1406.4 892.6V915.2" stroke="#1E1E1E" stroke-width="5" stroke-linecap="round" stroke-linejoin="round"/>
<path d="M1426.6 892.6V915.2" stroke="#1E1E1E" stroke-width="5" stroke-linecap="round" stroke-linejoin="round"/>
<path d="M1446.7 892.6V915.2" stroke="#1E1E1E" stroke-width="5" stroke-linecap="round" stroke-linejoin="round"/>
<path d="M1466.9 892.6V915.2" stroke="#1E1E1E" stroke-width="5" stroke-linecap="round" stroke-linejoin="round"/>
<path d="M1487.1 892.6V915.2" stroke="#1E1E1E" stroke-width="5" stroke-linecap="round" stroke-linejoin="round"/>
<path d="M1507.2 892.6V915.2" stroke="#1E1E1E" stroke-width="5" stroke-linecap="round" stroke-linejoin="round"/>
<path d="M1527.4 892.6V915.2" stroke="#1E1E1E" stroke-width="5" stroke-linecap="round" stroke-linejoin="round"/>
<path d="M1534.7 915.6H1298.3V929.9H1534.7V915.6Z" fill="#FF7DAF" stroke="#1E1E1E" stroke-width="5" stroke-linecap="round" stroke-linejoin="round"/>
<path d="M1531.7 717C1531.7 717 1530.6 738.6 1501.4 738.6H1331.8C1302.6 738.6 1301.5 717 1301.5 717C1331.8 739.1 1355.4 686.2 1355.4 686.2H1477.9C1477.8 686.3 1501.4 739.1 1531.7 717Z" fill="#EA4335" stroke="#1E1E1E" stroke-width="5" stroke-linecap="round" stroke-linejoin="round"/>
<path d="M1377.2 836.1H1387.6C1388.6 842 1391.5 847.5 1395.7 851.7L1396.2 852.2C1397.3 853.2 1398.4 854.1 1399.6 855C1403.1 857.5 1407.1 859.1 1411.3 859.8C1413 860.1 1414.7 860.2 1416.4 860.3C1418.1 860.3 1419.8 860.1 1421.5 859.8V892.5H1411.2V870.2C1409.6 870 1408 869.7 1406.4 869.3C1405.9 869.2 1405.3 869 1404.8 868.9C1404 868.6 1403.2 868.4 1402.4 868.1C1402 867.9 1401.6 867.8 1401.2 867.6C1400.4 867.3 1399.5 866.9 1398.7 866.5L1397.7 866C1396.9 865.6 1396.2 865.2 1395.4 864.7C1394.3 864 1393.2 863.3 1392.2 862.4L1362 892.6H1354.7V885.3L1384.9 855.1C1382 851.3 1379.8 847 1378.4 842.5C1378.2 842 1378.1 841.5 1378 840.9C1377.8 839.3 1377.4 837.7 1377.2 836.1Z" fill="#4285F4" stroke="#1E1E1E" stroke-width="5" stroke-linecap="round" stroke-linejoin="round"/>
<path d="M1362.2 769.4L1392.4 799.6C1393.6 798.6 1394.9 797.8 1396.3 796.9L1397.7 796.1C1398.3 795.8 1398.8 795.5 1399.4 795.2C1400 794.9 1400.6 794.7 1401.2 794.4L1401.7 794.2L1402.6 793.8C1403 793.6 1403.4 793.5 1403.8 793.4C1404.2 793.3 1404.7 793.1 1405.2 792.9C1407.2 792.3 1409.3 791.9 1411.4 791.6V802C1407.2 802.7 1403.2 804.4 1399.7 806.8C1398.3 807.8 1397 808.9 1395.8 810.1C1394.6 811.3 1393.5 812.7 1392.5 814.1C1390 817.6 1388.4 821.6 1387.7 825.8C1387.4 827.5 1387.2 829.2 1387.3 830.9C1387.3 832.6 1387.5 834.3 1387.8 836H1355.1V825.7H1377.4C1377.6 824.1 1377.9 822.5 1378.3 820.9C1378.4 820.4 1378.6 819.9 1378.7 819.3C1379.3 817.2 1380.1 815.2 1381.1 813.3C1381.3 812.9 1381.5 812.5 1381.7 812.1C1382.1 811.3 1382.5 810.6 1383 809.9C1383.2 809.5 1383.5 809.2 1383.7 808.8C1383.9 808.4 1384.2 808.1 1384.4 807.7C1384.6 807.3 1384.9 807 1385.2 806.7L1355 776.5V769.2L1362.2 769.4Z" fill="#EA4335" stroke="#1E1E1E" stroke-width="5" stroke-linecap="round" stroke-linejoin="round"/>
<path d="M1445.4 825.8H1478.1V836.1H1455.8C1455.6 837.7 1455.3 839.3 1454.9 840.9C1454.8 841.4 1454.6 841.9 1454.5 842.5C1454.1 843.7 1453.7 845 1453.2 846.2C1452.9 847 1452.5 847.9 1452.1 848.7L1451.6 849.7C1451.3 850.2 1451.1 850.7 1450.8 851.1C1450 852.5 1449 853.8 1448.1 855.1L1478.3 885.3V892.6H1471L1440.8 862.4C1440.5 862.7 1440.1 862.9 1439.8 863.2C1439.5 863.5 1439.1 863.7 1438.7 864C1438.3 864.3 1438 864.5 1437.6 864.7L1436.5 865.4C1435.9 865.8 1435.2 866.1 1434.6 866.4L1433.9 866.7C1433.2 867 1432.6 867.3 1431.9 867.6L1430.7 868.1L1430.4 868.2C1429.8 868.4 1429.2 868.6 1428.6 868.8L1428.3 868.9C1427.8 869.1 1427.3 869.2 1426.7 869.3C1425.1 869.7 1423.5 870 1421.9 870.2V859.8C1427.8 858.8 1433.3 855.9 1437.5 851.6C1438.7 850.4 1439.8 849.1 1440.8 847.7C1444.2 842.8 1446.1 836.9 1446.1 830.9C1445.9 829.2 1445.7 827.5 1445.4 825.8Z" fill="#F9AB00" stroke="#1E1E1E" stroke-width="5" stroke-linecap="round" stroke-linejoin="round"/>
<path d="M1411.4 769.4H1421.7V791.7L1423 791.9C1424.3 792.1 1425.6 792.4 1426.8 792.7L1427.8 793L1429.3 793.5C1429.7 793.6 1430.1 793.8 1430.5 793.9L1431.4 794.3C1432.3 794.7 1433.2 795.1 1434 795.5C1434.4 795.7 1434.8 795.9 1435.2 796.1L1435.4 796.2L1436.8 797C1438.1 797.8 1439.4 798.7 1440.7 799.7L1470.9 769.5H1478.2V776.8L1448 807C1449 808.2 1449.8 809.5 1450.7 810.9C1451 811.4 1451.2 811.8 1451.5 812.3C1451.5 812.4 1451.6 812.4 1451.6 812.5C1451.8 812.9 1452 813.3 1452.2 813.7C1452.6 814.5 1453 815.3 1453.3 816.2C1453.5 816.6 1453.6 817 1453.7 817.3C1453.8 817.6 1454 818.1 1454.1 818.5C1454.2 818.9 1454.3 819.1 1454.4 819.5C1454.4 819.6 1454.5 819.8 1454.5 819.9C1455.1 821.9 1455.5 824 1455.8 826.1H1445.4C1442.9 812.1 1430.7 801.9 1416.5 801.9C1414.8 801.9 1413.1 802.1 1411.4 802.4V769.4Z" fill="#34A853" stroke="#1E1E1E" stroke-width="5" stroke-linecap="round" stroke-linejoin="round"/>
<path d="M1354.9 769.4H1330.1V892.6H1354.9V769.4Z" fill="#FFD427" stroke="#1E1E1E" stroke-width="5" stroke-linecap="round" stroke-linejoin="round"/>
<path d="M1502.9 769.4H1478.1V892.6H1502.9V769.4Z" fill="#FFD427" stroke="#1E1E1E" stroke-width="5" stroke-linecap="round" stroke-linejoin="round"/>
<path d="M1354.9 929.9H1305.6V1065.4H1354.9V929.9Z" fill="#F8D8D8" stroke="#1E1E1E" stroke-width="5" stroke-linecap="round" stroke-linejoin="round"/>
<path d="M1527.4 929.9H1478.1V1065.4H1527.4V929.9Z" fill="#F8D8D8" stroke="#1E1E1E" stroke-width="5" stroke-linecap="round" stroke-linejoin="round"/>
<path d="M1554.9 741.8C1554.9 741.8 1553.6 769.4 1518.5 769.4H1314.7C1279.6 769.4 1278.3 741.8 1278.3 741.8C1314.7 763.9 1331.2 738.6 1331.2 738.6H1502.1C1501.9 738.6 1518.5 763.9 1554.9 741.8Z" fill="#F9AB00" stroke="#1E1E1E" stroke-width="5" stroke-linecap="round" stroke-linejoin="round"/>
<path d="M1244.3 576.9C1244.3 587.5 1237.3 596.1 1228.6 596.1C1219.9 596.1 1212.9 587.5 1212.9 576.9" stroke="#1E1E1E" stroke-width="5" stroke-linejoin="round"/>
<path d="M1166 577.6V570.8H1197.3V577.8" stroke="#1E1E1E" stroke-width="5" stroke-linejoin="round"/>
<path d="M1260 577.6V570.8H1291.3V577.8" stroke="#1E1E1E" stroke-width="5" stroke-linejoin="round"/>
<path d="M1338.2 576.9C1338.2 587.5 1331.2 596.1 1322.5 596.1C1313.8 596.1 1306.8 587.5 1306.8 576.9" stroke="#1E1E1E" stroke-width="5" stroke-linejoin="round"/>
<path d="M1353.9 577.6V570.8H1385.2V577.8" stroke="#1E1E1E" stroke-width="5" stroke-linejoin="round"/>
<path d="M1432.2 576.9C1432.2 587.5 1425.2 596.1 1416.5 596.1C1407.8 596.1 1400.8 587.5 1400.8 576.9" stroke="#1E1E1E" stroke-width="5" stroke-linejoin="round"/>
<path d="M1447.8 577.6V570.8H1479.1V577.8" stroke="#1E1E1E" stroke-width="5" stroke-linejoin="round"/>
<path d="M1526.1 576.9C1526.1 587.5 1519.1 596.1 1510.4 596.1C1501.7 596.1 1494.7 587.5 1494.7 576.9" stroke="#1E1E1E" stroke-width="5" stroke-linejoin="round"/>
<path d="M1541.7 577.6V570.8H1573V577.8" stroke="#1E1E1E" stroke-width="5" stroke-linejoin="round"/>
<path d="M1620 576.9C1620 587.5 1613 596.1 1604.3 596.1C1595.6 596.1 1588.6 587.5 1588.6 576.9" stroke="#1E1E1E" stroke-width="5" stroke-linejoin="round"/>
<path d="M1635.7 577.6V570.8H1667V577.8" stroke="#1E1E1E" stroke-width="5" stroke-linejoin="round"/>
<path d="M1146.9 1018.7C1157.5 1018.7 1166.1 1025.7 1166.1 1034.4C1166.1 1043.1 1157.5 1050.1 1146.9 1050.1" stroke="#1E1E1E" stroke-width="5" stroke-linejoin="round"/>
<path d="M1147.6 1096.9H1140.9V1065.6H1147.9" stroke="#1E1E1E" stroke-width="5" stroke-linejoin="round"/>
<path d="M1147.6 1003H1140.9V971.7H1147.9" stroke="#1E1E1E" stroke-width="5" stroke-linejoin="round"/>
<path d="M1146.9 924.8C1157.5 924.8 1166.1 931.8 1166.1 940.5C1166.1 949.2 1157.5 956.2 1146.9 956.2" stroke="#1E1E1E" stroke-width="5" stroke-linejoin="round"/>
<path d="M1147.6 909.1H1140.9V877.8H1147.9" stroke="#1E1E1E" stroke-width="5" stroke-linejoin="round"/>
<path d="M1146.9 830.8C1157.5 830.8 1166.1 837.8 1166.1 846.5C1166.1 855.2 1157.5 862.2 1146.9 862.2" stroke="#1E1E1E" stroke-width="5" stroke-linejoin="round"/>
<path d="M1147.6 815.2H1140.9V783.9H1147.9" stroke="#1E1E1E" stroke-width="5" stroke-linejoin="round"/>
<path d="M1146.9 736.9C1157.5 736.9 1166.1 743.9 1166.1 752.6C1166.1 761.3 1157.5 768.3 1146.9 768.3" stroke="#1E1E1E" stroke-width="5" stroke-linejoin="round"/>
<path d="M1147.6 721.3H1140.9V689.9H1147.9" stroke="#1E1E1E" stroke-width="5" stroke-linejoin="round"/>
<path d="M1146.9 643C1157.5 643 1166.1 650 1166.1 658.7C1166.1 667.4 1157.5 674.4 1146.9 674.4" stroke="#1E1E1E" stroke-width="5" stroke-linejoin="round"/>
<path d="M1147.6 627.3H1140.9V596H1147.9" stroke="#1E1E1E" stroke-width="5" stroke-linejoin="round"/>
<path d="M1686.1 674.3C1675.5 674.3 1666.9 667.3 1666.9 658.6C1666.9 649.9 1675.5 642.9 1686.1 642.9" stroke="#1E1E1E" stroke-width="5" stroke-linejoin="round"/>
<path d="M1685.4 596H1692.1V627.3H1685.1" stroke="#1E1E1E" stroke-width="5" stroke-linejoin="round"/>
<path d="M1685.4 689.9H1692.1V721.3H1685.1" stroke="#1E1E1E" stroke-width="5" stroke-linejoin="round"/>
<path d="M1686.1 768.2C1675.5 768.2 1666.9 761.2 1666.9 752.5C1666.9 743.8 1675.5 736.8 1686.1 736.8" stroke="#1E1E1E" stroke-width="5" stroke-linejoin="round"/>
<path d="M1685.4 783.9H1692.1V815.2H1685.1" stroke="#1E1E1E" stroke-width="5" stroke-linejoin="round"/>
<path d="M1686.1 862.1C1675.5 862.1 1666.9 855.1 1666.9 846.4C1666.9 837.7 1675.5 830.7 1686.1 830.7" stroke="#1E1E1E" stroke-width="5" stroke-linejoin="round"/>
<path d="M1685.4 877.8H1692.1V909.1H1685.1" stroke="#1E1E1E" stroke-width="5" stroke-linejoin="round"/>
<path d="M1686.1 956.1C1675.5 956.1 1666.9 949.1 1666.9 940.4C1666.9 931.7 1675.5 924.7 1686.1 924.7" stroke="#1E1E1E" stroke-width="5" stroke-linejoin="round"/>
<path d="M1685.4 971.7H1692.1V1003H1685.1" stroke="#1E1E1E" stroke-width="5" stroke-linejoin="round"/>
<path d="M1686.1 1050C1675.5 1050 1666.9 1043 1666.9 1034.3C1666.9 1025.6 1675.5 1018.6 1686.1 1018.6" stroke="#1E1E1E" stroke-width="5" stroke-linejoin="round"/>
<path d="M1685.4 1065.6H1692.1V1096.9H1685.1" stroke="#1E1E1E" stroke-width="5" stroke-linejoin="round"/>
<path d="M1588.7 1116.1C1588.7 1105.5 1595.7 1096.9 1604.4 1096.9C1613.1 1096.9 1620.1 1105.5 1620.1 1116.1" stroke="#1E1E1E" stroke-width="5" stroke-linejoin="round"/>
<path d="M1667 1115.3V1122.1H1635.7V1115.1" stroke="#1E1E1E" stroke-width="5" stroke-linejoin="round"/>
<path d="M1573 1115.3V1122.1H1541.7V1115.1" stroke="#1E1E1E" stroke-width="5" stroke-linejoin="round"/>
<path d="M1494.8 1116.1C1494.8 1105.5 1501.8 1096.9 1510.5 1096.9C1519.2 1096.9 1526.2 1105.5 1526.2 1116.1" stroke="#1E1E1E" stroke-width="5" stroke-linejoin="round"/>
<path d="M1479.1 1115.3V1122.1H1447.8V1115.1" stroke="#1E1E1E" stroke-width="5" stroke-linejoin="round"/>
<path d="M1400.8 1116.1C1400.8 1105.5 1407.8 1096.9 1416.5 1096.9C1425.2 1096.9 1432.2 1105.5 1432.2 1116.1" stroke="#1E1E1E" stroke-width="5" stroke-linejoin="round"/>
<path d="M1385.2 1115.3V1122.1H1353.9V1115.1" stroke="#1E1E1E" stroke-width="5" stroke-linejoin="round"/>
<path d="M1306.9 1116.1C1306.9 1105.5 1313.9 1096.9 1322.6 1096.9C1331.3 1096.9 1338.3 1105.5 1338.3 1116.1" stroke="#1E1E1E" stroke-width="5" stroke-linejoin="round"/>
<path d="M1291.3 1115.3V1122.1H1260V1115.1" stroke="#1E1E1E" stroke-width="5" stroke-linejoin="round"/>
<path d="M1213 1116.1C1213 1105.5 1220 1096.9 1228.7 1096.9C1237.4 1096.9 1244.4 1105.5 1244.4 1116.1" stroke="#1E1E1E" stroke-width="5" stroke-linejoin="round"/>
<path d="M1197.3 1115.3V1122.1H1166V1115.1" stroke="#1E1E1E" stroke-width="5" stroke-linejoin="round"/>
<path d="M616 1045.2L688.9 1118.1" stroke="#1E1E1E" stroke-width="5" stroke-linejoin="round"/>
<path d="M688.9 1045.2L616 1118.1" stroke="#1E1E1E" stroke-width="5" stroke-linejoin="round"/>
<path d="M652.4 1030.1V1133.2" stroke="#1E1E1E" stroke-width="5" stroke-linejoin="round"/>
<path d="M704 1081.7H600.9" stroke="#1E1E1E" stroke-width="5" stroke-linejoin="round"/>
<path d="M819.1 1133.2C837.9 1133.7 855.4 1124 865 1107.9C865.6 1106.9 866.9 1106.6 867.8 1107.2C868.1 1107.4 868.3 1107.6 868.5 1107.9C883.3 1132.6 915.3 1140.6 939.9 1125.8C947.2 1121.4 953.4 1115.3 957.8 1107.9C958.3 1106.9 959.5 1106.6 960.5 1107.1C960.8 1107.3 961.1 1107.6 961.3 1107.9C970.9 1124 988.5 1133.6 1007.2 1133.2C1034.3 1132.5 1057.4 1109.4 1057.8 1082.4C1058 1053.7 1034.9 1030.3 1006.2 1030.1C987.8 1030 970.7 1039.6 961.2 1055.4C960.7 1056.4 959.4 1056.7 958.5 1056.2C958.2 1056 957.9 1055.8 957.7 1055.4C942.9 1030.7 910.9 1022.7 886.3 1037.5C879 1041.9 872.8 1048 868.4 1055.4C867.9 1056.4 866.6 1056.7 865.7 1056.2C865.4 1056 865.1 1055.7 864.9 1055.4C850.2 1030.8 818.3 1022.7 793.7 1037.4C777.9 1046.8 768.3 1063.9 768.4 1082.4C769 1109.3 792 1132.5 819.1 1133.2Z" fill="#F8D8D8" stroke="#1E1E1E" stroke-width="5" stroke-miterlimit="10"/>
<path d="M13 296.4H32.8C39.9 296.4 45.6 302.1 45.6 309.2V426.9C45.6 462.2 74.3 490.9 109.6 490.9H160.8C163.6 490.9 165.9 488.6 165.9 485.8V414C165.9 411.2 163.6 408.9 160.8 408.9H121.5C114.4 408.9 108.7 403.2 108.7 396.1V111.6C108.7 104.5 114.4 98.8 121.5 98.8H160.8C163.6 98.8 165.9 96.5 165.9 93.7V21.9C165.9 19.1 163.6 16.8 160.8 16.8H109.6C74.3 16.8 45.6 45.5 45.6 80.8V198.4C45.6 205.5 39.9 211.2 32.8 211.2H13C10.2 211.2 7.90002 213.5 7.90002 216.3V291.3C7.90002 294.1 10.2 296.4 13 296.4Z" fill="#F9AB00" stroke="#1E1E1E" stroke-width="4" stroke-miterlimit="10"/>
<path d="M1686.7 211.3H1666.9C1659.8 211.3 1654.1 205.6 1654.1 198.5V80.8C1654.1 45.5 1625.4 16.8 1590.1 16.8H1539C1536.2 16.8 1533.9 19.1 1533.9 21.9V93.7C1533.9 96.5 1536.2 98.8 1539 98.8H1578.3C1585.4 98.8 1591.1 104.5 1591.1 111.6V396C1591.1 403.1 1585.4 408.8 1578.3 408.8H1539C1536.2 408.8 1533.9 411.1 1533.9 413.9V485.7C1533.9 488.5 1536.2 490.8 1539 490.8H1590.2C1625.5 490.8 1654.2 462.1 1654.2 426.8V309.3C1654.2 302.2 1659.9 296.5 1667 296.5H1686.8C1689.6 296.5 1691.9 294.2 1691.9 291.4V216.4C1691.9 213.5 1689.6 211.2 1686.7 211.3C1686.8 211.2 1686.8 211.2 1686.7 211.3Z" fill="#F9AB00"/>
<path d="M1686.7 211.3H1666.9C1659.8 211.3 1654.1 205.6 1654.1 198.5V80.8C1654.1 45.5 1625.4 16.8 1590.1 16.8H1539C1536.2 16.8 1533.9 19.1 1533.9 21.9V93.7C1533.9 96.5 1536.2 98.8 1539 98.8H1578.3C1585.4 98.8 1591.1 104.5 1591.1 111.6V396C1591.1 403.1 1585.4 408.8 1578.3 408.8H1539C1536.2 408.8 1533.9 411.1 1533.9 413.9V485.7C1533.9 488.5 1536.2 490.8 1539 490.8H1590.2C1625.5 490.8 1654.2 462.1 1654.2 426.8V309.3C1654.2 302.2 1659.9 296.5 1667 296.5H1686.8C1689.6 296.5 1691.9 294.2 1691.9 291.4V216.4C1691.9 213.5 1689.6 211.2 1686.7 211.3ZM1686.7 211.3C1686.8 211.2 1686.8 211.2 1686.7 211.3Z" stroke="#1E1E1E" stroke-width="4" stroke-miterlimit="10"/>
<path d="M383.6 31.8C365.4 21.8 343.8 16.8 318.7 16.8H238.9V253.1H318.8C343.9 253.1 365.5 248.1 383.7 238.2C401.4 228.7 416 214.3 425.6 196.6C435.4 178.8 440.3 158.2 440.3 134.9C440.3 111.6 435.4 91.1 425.6 73.4C415.8 55.8 401.3 41.4 383.6 31.8ZM386.6 174.9C380.8 186.3 371.7 195.6 360.4 201.5C348.7 207.8 334.2 210.9 316.8 210.9H283.4V59.1H316.7C334.1 59.1 348.6 62.2 360.3 68.5C371.6 74.4 380.7 83.6 386.5 94.9C392.3 106.2 395.2 119.6 395.2 135C395.3 150.1 392.4 163.4 386.6 174.9Z" fill="#1E1E1E"/>
<path d="M593.6 91.1C581.3 83.4 566.1 79.6 548.1 79.5C531.4 79.5 516.5 83.6 503.6 91.9C490.7 100 480.2 111.3 472.9 124.7C465.4 138.3 461.6 153.7 461.7 169.2C461.7 186.4 465.5 201.6 473.1 215.1C480.5 228.3 491.3 239.3 504.4 246.8C517.7 254.5 532.9 258.3 549.8 258.3C568.5 258.3 584.2 254.3 597 246.3C609.9 238.1 620.6 226.8 628 213.5L593 196.3C589 203.2 583.3 209 576.5 213.3C569.5 217.8 560.8 220.1 550.4 220.1C542 220.2 533.8 218.1 526.5 214C519.2 209.8 513.3 203.6 509.5 196.2C506.7 190.9 504.9 185.1 504.1 179.2H630.3C630.5 178.1 630.7 176.3 631 173.8C631.3 171.3 631.3 168.2 631.3 164.7C631.3 149.1 628.1 134.8 621.7 122C615.4 109.2 605.7 98.5 593.6 91.1ZM505.8 148.5C506.7 145.5 507.8 142.6 509.2 139.8C512.9 132.3 518.5 126 525.5 121.5C532.3 117.1 540.3 114.8 548.4 114.9C554.2 114.8 560 115.9 565.4 118C570.1 119.9 574.4 122.7 578.1 126.1C581.5 129.2 584.3 132.9 586.4 137C588.3 140.6 589.4 144.5 589.7 148.5H505.8Z" fill="#1E1E1E"/>
<path d="M726.8 194.3H724.2L681.6 84.8H632.5L703.7 253.1H746.6L818.6 84.8H770L726.8 194.3Z" fill="#1E1E1E"/>
<path d="M839.8 253.1H884.4V158.7H979.1V116.5H884.4V59.1H989.7V16.8H839.8V253.1Z" fill="#1E1E1E"/>
<path d="M1134.7 91.1C1122.4 83.4 1107.2 79.6 1089.2 79.5C1072.5 79.5 1057.6 83.6 1044.6 91.9C1031.7 100 1021.2 111.3 1013.9 124.7C1006.4 138.3 1002.6 153.7 1002.7 169.2C1002.7 186.4 1006.5 201.6 1014.1 215.1C1021.5 228.3 1032.3 239.3 1045.4 246.8C1058.7 254.5 1073.9 258.3 1090.8 258.3C1109.5 258.3 1125.2 254.3 1138 246.3C1150.9 238.1 1161.6 226.8 1169 213.5L1134 196.3C1130 203.2 1124.3 209 1117.5 213.3C1110.5 217.8 1101.8 220.1 1091.4 220.1C1083 220.2 1074.8 218.1 1067.5 214C1060.2 209.8 1054.3 203.6 1050.5 196.2C1047.7 190.9 1045.9 185.1 1045.1 179.2H1171.3C1171.5 178.1 1171.7 176.3 1172 173.8C1172.3 171.3 1172.3 168.2 1172.3 164.7C1172.3 149.1 1169.1 134.8 1162.7 122C1156.5 109.2 1146.7 98.5 1134.7 91.1ZM1046.8 148.5C1047.7 145.5 1048.8 142.6 1050.2 139.8C1053.9 132.3 1059.5 126 1066.5 121.5C1073.3 117.1 1081.3 114.8 1089.4 114.9C1095.2 114.8 1101 115.9 1106.4 118C1111.1 119.9 1115.4 122.7 1119.1 126.1C1122.5 129.2 1125.3 132.9 1127.4 137C1129.3 140.6 1130.4 144.5 1130.7 148.5H1046.8Z" fill="#1E1E1E"/>
<path d="M1283.8 152.8L1259 146.9C1253.3 145.6 1248 143.2 1243.2 140C1238.8 136.9 1236.6 133.3 1236.6 129.1C1236.6 125.1 1238.8 121.7 1243.2 118.9C1247.6 116.1 1253.5 114.6 1261 114.6C1267.2 114.6 1273.4 115.9 1279 118.6C1284.6 121.3 1289.2 125.9 1292.7 132.5L1329.7 116.3C1326 108.3 1320.6 101.3 1313.9 95.7C1307 90.2 1299 86.1 1290.5 83.7C1280.6 80.9 1270.4 79.6 1260.1 79.7C1248.7 79.6 1237.5 81.7 1226.9 86C1216.9 90.2 1209 96 1203.1 103.5C1197.3 111 1194.2 120.4 1194.4 129.9C1194.2 138.4 1196.6 146.7 1201.2 153.8C1205.7 160.8 1211.8 166.6 1218.9 171C1226 175.4 1233.8 178.6 1242 180.4L1261.8 184.7C1266.4 185.6 1270.9 186.7 1275.3 188.2C1279.3 189.4 1283.1 191.5 1286.3 194.1C1289.3 196.7 1290.9 200.5 1290.8 204.5C1290.8 210.7 1287.9 214.9 1282.2 217.2C1276.1 219.6 1269.6 220.8 1263.1 220.7C1254.5 220.7 1247 218.7 1240.7 214.6C1234.3 210.5 1229.3 204.5 1225.5 196.6L1186.9 213.4C1190.1 221.7 1194.9 229.4 1201.1 235.8C1207.5 242.6 1215.8 248.1 1226 252.3C1236.2 256.5 1248.6 258.6 1263.1 258.6C1275.4 258.8 1287.7 256.5 1299.1 251.8C1309.9 247.3 1318.5 240.9 1324.8 232.7C1331.2 224.4 1334.6 214.3 1334.4 203.8C1334.6 192 1330 180.5 1321.7 172.1C1313.1 163.1 1300.5 156.7 1283.8 152.8Z" fill="#1E1E1E"/>
<path d="M1450.7 213.6C1447.5 214.6 1444.2 215.1 1440.8 215.1C1433.3 215.1 1427.9 213.2 1424.6 209.3C1421.3 205.5 1419.7 199.5 1419.7 191.3V121.7H1460.9V84.7H1419.7V37.2H1376.5V84.7H1347.1V121.7H1376.5V199.3C1376.5 216.9 1381.4 230.7 1391.3 240.7C1401.2 250.7 1414.8 255.7 1432.2 255.7C1437.4 255.7 1442.5 255.2 1447.5 254.2C1452.5 253.2 1457.4 251.8 1462.2 250.1V207.8C1458.6 210.2 1454.7 212.2 1450.7 213.6Z" fill="#1E1E1E"/>
<path d="M325.5 490.8H1372.6C1420.8 490.8 1459.9 451.7 1459.9 403.5C1459.9 355.3 1420.8 316.2 1372.6 316.2H325.5C277.3 316.2 238.2 355.3 238.2 403.5C238.2 451.8 277.2 490.8 325.5 490.8Z" fill="white" stroke="#1E1E1E" stroke-width="4" stroke-linejoin="round"/>
<path d="M615.5 431.2C610.8 431.2 606.5 430.1 602.7 427.9C598.9 425.7 595.7 422.6 593.4 418.6C591.1 414.6 589.9 410 589.9 404.8C589.9 399.6 591.1 395 593.4 391C595.7 387 598.8 383.9 602.7 381.7C606.6 379.5 610.9 378.4 615.5 378.4C619.3 378.4 622.6 379.1 625.5 380.5C628.4 381.9 631.1 384 633.5 387L639 381.7C636.1 378.3 632.6 375.7 628.6 373.9C624.6 372.1 620.2 371.2 615.4 371.2C609.2 371.2 603.5 372.7 598.4 375.6C593.3 378.5 589.3 382.6 586.4 387.7C583.5 392.8 582 398.5 582 404.8C582 411.1 583.5 416.8 586.4 421.9C589.3 427 593.3 431 598.4 434C603.5 437 609.2 438.4 615.4 438.4C620.6 438.4 625.4 437.4 629.8 435.3C634.2 433.2 637.9 430.4 640.8 426.9L635.2 421.5C629.9 428 623.3 431.2 615.5 431.2Z" fill="#4285F4"/>
<path d="M657.1 372.8H649.5V437.1H657.1V372.8Z" fill="#4285F4"/>
<path d="M701.2 393.1C697.6 390.9 693.6 389.9 689.1 389.9C684.6 389.9 680.6 391 677 393.1C673.4 395.2 670.6 398.2 668.6 401.9C666.6 405.6 665.6 409.7 665.6 414.2C665.6 418.7 666.6 422.8 668.6 426.5C670.6 430.2 673.4 433.1 677 435.3C680.6 437.5 684.6 438.5 689.1 438.5C693.6 438.5 697.6 437.4 701.2 435.3C704.8 433.2 707.6 430.2 709.6 426.5C711.6 422.8 712.6 418.7 712.6 414.2C712.6 409.7 711.6 405.6 709.6 401.9C707.6 398.2 704.8 395.2 701.2 393.1ZM702.8 423.4C701.3 426 699.4 428.1 697 429.5C694.6 430.9 692 431.6 689.1 431.6C686.2 431.6 683.6 430.9 681.2 429.5C678.8 428.1 676.8 426.1 675.3 423.4C673.8 420.7 673.1 417.7 673.1 414.1C673.1 410.5 673.8 407.5 675.3 404.8C676.8 402.1 678.7 400.1 681.2 398.7C683.7 397.3 686.3 396.6 689.1 396.6C691.9 396.6 694.5 397.3 697 398.7C699.5 400.1 701.4 402.1 702.8 404.8C704.2 407.5 705 410.5 705 414.1C705 417.7 704.3 420.8 702.8 423.4Z" fill="#4285F4"/>
<path d="M752.5 417.1C752.5 419.6 751.9 421.9 750.8 424.1C749.7 426.3 748.1 428.1 746.1 429.5C744.1 430.9 741.8 431.6 739.2 431.6C735.8 431.6 733.2 430.6 731.2 428.5C729.2 426.4 728.2 423.3 728.2 418.9V391.2H720.6V420C720.6 425.8 722.1 430.3 725 433.6C727.9 436.9 732.1 438.5 737.6 438.5C740.7 438.5 743.6 437.7 746.4 436.2C749.2 434.7 751.2 432.7 752.4 430.4H752.8V437H760.1V391.2H752.5V417.1Z" fill="#4285F4"/>
<path d="M806.2 372.8V391.8L806.6 398.2H806.2C804.8 395.9 802.7 393.9 799.9 392.3C797.1 390.7 794 389.9 790.6 389.9C786.5 389.9 782.7 390.9 779.4 393C776.1 395.1 773.5 398 771.5 401.7C769.5 405.4 768.6 409.6 768.6 414.2C768.6 418.9 769.6 423 771.5 426.7C773.4 430.4 776 433.3 779.4 435.4C782.8 437.5 786.5 438.5 790.6 438.5C794.1 438.5 797.2 437.7 799.9 436.1C802.6 434.5 804.8 432.6 806.2 430.3H806.6V437H813.9V372.7H806.2V372.8ZM804.4 423.3C803 425.9 801.1 428 798.8 429.4C796.5 430.8 794 431.6 791.3 431.6C788.7 431.6 786.2 430.9 783.8 429.4C781.4 427.9 779.6 425.9 778.2 423.2C776.8 420.5 776.1 417.5 776.1 414.1C776.1 410.7 776.8 407.6 778.2 405C779.6 402.4 781.5 400.3 783.8 398.8C786.1 397.3 788.6 396.6 791.3 396.6C794 396.6 796.5 397.3 798.8 398.8C801.1 400.3 803 402.3 804.4 404.9C805.8 407.5 806.5 410.6 806.5 414.1C806.5 417.6 805.8 420.7 804.4 423.3Z" fill="#4285F4"/>
<path d="M939.3 400.5H906.2V372.8H898.6V437.1H906.2V407.8H939.3V437.1H946.9V372.8H939.3V400.5Z" fill="#0F0F0F"/>
<path d="M975.6 389.8C971.8 389.8 968.3 390.6 965.1 392.1C961.9 393.7 959.4 395.8 957.6 398.6L963.4 402.9C964.7 400.9 966.4 399.4 968.6 398.3C970.8 397.2 973.1 396.6 975.7 396.6C979.4 396.6 982.4 397.6 984.8 399.7C987.2 401.8 988.4 404.5 988.4 407.9V410.7C987.1 409.9 985.3 409.2 983 408.6C980.6 408 978.1 407.7 975.3 407.7C969.7 407.7 965.1 409.1 961.5 411.8C957.8 414.5 956 418.3 956 423.2C956 426.1 956.7 428.8 958.2 431.1C959.7 433.4 961.7 435.2 964.3 436.5C966.9 437.8 969.9 438.5 973.3 438.5C976.6 438.5 979.6 437.7 982.2 436.2C984.8 434.6 986.8 432.8 988.1 430.5H988.5V437.1H995.8V408.1C995.8 402.5 994 398 990.5 394.8C986.7 391.5 981.8 389.8 975.6 389.8ZM986.3 424.5C985 426.7 983.2 428.5 981 429.8C978.8 431.1 976.4 431.8 973.8 431.8C970.9 431.8 968.4 431 966.5 429.5C964.6 427.9 963.6 425.9 963.6 423.4C963.6 420.6 964.7 418.4 966.8 416.7C968.9 415 972.1 414.1 976.3 414.1C978.6 414.1 980.9 414.4 982.9 415C985 415.6 986.8 416.4 988.2 417.3C988.3 419.9 987.6 422.3 986.3 424.5Z" fill="#0F0F0F"/>
<path d="M1028.6 389.8C1025.5 389.8 1022.6 390.6 1019.8 392.2C1017 393.8 1015 395.7 1013.8 398H1013.4V391.3H1006.1V437.1H1013.7V411.3C1013.7 408.8 1014.2 406.5 1015.3 404.2C1016.4 401.9 1017.9 400.1 1019.8 398.8C1021.7 397.5 1023.9 396.7 1026.4 396.7C1029.9 396.7 1032.7 397.7 1034.8 399.6C1036.9 401.5 1037.9 404.6 1037.9 408.9V437.1H1045.5V407.7C1045.5 402.2 1044 397.8 1041.1 394.6C1038.2 391.4 1034.1 389.8 1028.6 389.8Z" fill="#0F0F0F"/>
<path d="M1089.8 393.1C1086.2 390.9 1082.2 389.9 1077.7 389.9C1073.2 389.9 1069.2 391 1065.6 393.1C1062 395.2 1059.2 398.2 1057.2 401.9C1055.2 405.6 1054.2 409.7 1054.2 414.2C1054.2 418.7 1055.2 422.8 1057.2 426.5C1059.2 430.2 1062 433.1 1065.6 435.3C1069.2 437.5 1073.2 438.5 1077.7 438.5C1082.2 438.5 1086.2 437.4 1089.8 435.3C1093.4 433.2 1096.2 430.2 1098.2 426.5C1100.2 422.8 1101.2 418.7 1101.2 414.2C1101.2 409.7 1100.2 405.6 1098.2 401.9C1096.2 398.1 1093.4 395.2 1089.8 393.1ZM1091.4 423.4C1089.9 426 1088 428.1 1085.6 429.5C1083.2 430.9 1080.6 431.6 1077.7 431.6C1074.9 431.6 1072.2 430.9 1069.8 429.5C1067.3 428.1 1065.4 426.1 1063.9 423.4C1062.4 420.8 1061.7 417.7 1061.7 414.1C1061.7 410.5 1062.4 407.5 1063.9 404.8C1065.4 402.2 1067.3 400.1 1069.8 398.7C1072.3 397.3 1074.9 396.6 1077.7 396.6C1080.5 396.6 1083.1 397.3 1085.6 398.7C1088.1 400.1 1090 402.1 1091.4 404.8C1092.9 407.4 1093.6 410.5 1093.6 414.1C1093.6 417.7 1092.8 420.8 1091.4 423.4Z" fill="#0F0F0F"/>
<path d="M1117.6 373.4C1116.6 372.4 1115.2 371.8 1113.7 371.8C1112.2 371.8 1110.9 372.3 1109.8 373.4C1108.7 374.5 1108.2 375.8 1108.2 377.3C1108.2 378.8 1108.7 380.1 1109.8 381.2C1110.9 382.3 1112.2 382.8 1113.7 382.8C1115.3 382.8 1116.6 382.3 1117.6 381.2C1118.6 380.1 1119.2 378.8 1119.2 377.3C1119.2 375.8 1118.6 374.5 1117.6 373.4Z" fill="#0F0F0F"/>
<path d="M1117.5 391.3H1109.9V437.1H1117.5V391.3Z" fill="#0F0F0F"/>
<path d="M855.5 419.9C860.415 419.9 864.4 415.915 864.4 411C864.4 406.085 860.415 402.1 855.5 402.1C850.585 402.1 846.6 406.085 846.6 411C846.6 415.915 850.585 419.9 855.5 419.9Z" fill="#0F0F0F"/>
<path d="M19.1 656.8C16.3 655.2 14.1 653 12.5 650.2C10.9 647.4 10.1 644.3 10.1 640.9C10.1 637.5 10.9 634.4 12.5 631.6C14.1 628.8 16.3 626.6 19.1 625C21.9 623.4 24.9 622.6 28.2 622.6C30.8 622.6 33.2 623.1 35.5 624C37.8 624.9 39.6 626.2 41.1 627.9L38.2 630.9C37.1 629.5 35.6 628.5 33.9 627.7C32.2 627 30.3 626.6 28.3 626.6C25.9 626.6 23.6 627.2 21.4 628.4C19.2 629.6 17.5 631.3 16.2 633.4C14.9 635.6 14.3 638.1 14.3 640.9C14.3 643.7 14.9 646.2 16.2 648.4C17.5 650.6 19.2 652.2 21.4 653.4C23.6 654.6 25.8 655.2 28.3 655.2C30.6 655.2 32.6 654.8 34.2 654.1C35.8 653.4 37.1 652.4 38.3 651.2C39.1 650.3 39.8 649.2 40.4 647.9C40.9 646.6 41.2 645.2 41.4 643.6H28.4V639.7H45.2C45.4 640.6 45.4 641.5 45.4 642.2C45.4 644.4 45.1 646.4 44.4 648.5C43.7 650.5 42.6 652.3 41.1 653.9C37.9 657.4 33.6 659.1 28.2 659.1C24.9 659.2 21.9 658.4 19.1 656.8Z" fill="#1E1E1E"/>
<path d="M55.1 657.5C53.1 656.3 51.6 654.7 50.5 652.7C49.4 650.7 48.9 648.4 48.9 646C48.9 643.6 49.4 641.3 50.5 639.3C51.6 637.3 53.1 635.7 55.1 634.5C57.1 633.3 59.3 632.7 61.7 632.7C64.1 632.7 66.3 633.3 68.3 634.5C70.3 635.7 71.8 637.3 72.9 639.3C74 641.3 74.5 643.6 74.5 646C74.5 648.4 74 650.7 72.9 652.7C71.8 654.7 70.3 656.3 68.3 657.5C66.3 658.7 64.1 659.3 61.7 659.3C59.3 659.2 57.1 658.7 55.1 657.5ZM66 654.3C67.3 653.5 68.4 652.4 69.2 651C70 649.6 70.4 647.9 70.4 646C70.4 644.1 70 642.4 69.2 641C68.4 639.6 67.3 638.5 66 637.7C64.7 636.9 63.3 636.6 61.7 636.6C60.1 636.6 58.7 637 57.4 637.7C56.1 638.5 55 639.6 54.2 641C53.4 642.4 53 644.1 53 646C53 647.9 53.4 649.6 54.2 651C55 652.4 56.1 653.5 57.4 654.3C58.7 655.1 60.2 655.4 61.7 655.4C63.2 655.4 64.7 655.1 66 654.3Z" fill="#1E1E1E"/>
<path d="M83.7 657.5C81.7 656.3 80.2 654.7 79.1 652.7C78 650.7 77.5 648.4 77.5 646C77.5 643.6 78 641.3 79.1 639.3C80.2 637.3 81.7 635.7 83.7 634.5C85.7 633.3 87.9 632.7 90.3 632.7C92.7 632.7 94.9 633.3 96.9 634.5C98.9 635.7 100.4 637.3 101.5 639.3C102.6 641.3 103.1 643.6 103.1 646C103.1 648.4 102.6 650.7 101.5 652.7C100.4 654.7 98.9 656.3 96.9 657.5C94.9 658.7 92.7 659.3 90.3 659.3C87.9 659.3 85.7 658.7 83.7 657.5ZM94.6 654.3C95.9 653.5 97 652.4 97.8 651C98.6 649.6 99 647.9 99 646C99 644.1 98.6 642.4 97.8 641C97 639.6 95.9 638.5 94.6 637.7C93.3 636.9 91.9 636.6 90.3 636.6C88.8 636.6 87.3 637 86 637.7C84.7 638.5 83.6 639.6 82.8 641C82 642.4 81.6 644.1 81.6 646C81.6 647.9 82 649.6 82.8 651C83.6 652.4 84.7 653.5 86 654.3C87.3 655.1 88.8 655.4 90.3 655.4C91.9 655.5 93.3 655.1 94.6 654.3Z" fill="#1E1E1E"/>
<path d="M111.3 667.7C109.4 666.3 108.1 664.7 107.5 662.8L111.3 661.2C111.8 662.6 112.7 663.8 114 664.7C115.3 665.6 116.8 666 118.6 666C121.2 666 123.2 665.2 124.6 663.8C126 662.3 126.7 660.2 126.7 657.4V654.6H126.5C125.7 655.9 124.5 656.9 123.1 657.7C121.7 658.5 119.9 658.9 118 658.9C115.8 658.9 113.9 658.3 112.1 657.2C110.3 656.1 108.9 654.5 107.9 652.6C106.9 650.6 106.3 648.3 106.3 645.8C106.3 643.3 106.8 641 107.9 639C108.9 637 110.4 635.4 112.1 634.3C113.8 633.2 115.8 632.6 118 632.6C119.9 632.6 121.6 633 123.1 633.8C124.6 634.6 125.7 635.6 126.5 637H126.7V633.4H130.7V657.4C130.7 661.4 129.6 664.5 127.4 666.6C125.2 668.7 122.3 669.8 118.6 669.8C115.6 669.8 113.2 669.1 111.3 667.7ZM122.6 654.1C123.8 653.4 124.8 652.3 125.5 650.9C126.2 649.5 126.6 647.8 126.6 645.9C126.6 643.9 126.2 642.3 125.5 640.9C124.8 639.5 123.8 638.4 122.6 637.7C121.4 637 120 636.6 118.5 636.6C117 636.6 115.6 637 114.4 637.7C113.2 638.5 112.2 639.5 111.4 640.9C110.7 642.3 110.3 644 110.3 645.9C110.3 647.8 110.7 649.5 111.4 650.9C112.1 652.3 113.1 653.4 114.4 654.1C115.6 654.8 117 655.2 118.5 655.2C120 655.2 121.4 654.8 122.6 654.1Z" fill="#1E1E1E"/>
<path d="M140.5 623.5V658.5H136.3V623.5H140.5Z" fill="#1E1E1E"/>
<path d="M150.9 657.5C149 656.4 147.5 654.8 146.5 652.8C145.4 650.8 144.9 648.5 144.9 646C144.9 643.6 145.4 641.4 146.4 639.4C147.4 637.4 148.8 635.7 150.7 634.5C152.5 633.3 154.7 632.7 157 632.7C159.4 632.7 161.6 633.2 163.4 634.3C165.2 635.4 166.6 636.9 167.5 638.8C168.4 640.7 168.9 642.9 168.9 645.4C168.9 645.8 168.9 646.2 168.8 646.7H149C149.1 648.6 149.6 650.2 150.4 651.5C151.2 652.8 152.2 653.8 153.5 654.4C154.8 655.1 156.1 655.4 157.4 655.4C160.7 655.4 163.1 653.9 164.8 650.9L168.3 652.6C167.3 654.6 165.8 656.2 163.9 657.4C162 658.6 159.8 659.2 157.2 659.2C154.9 659.2 152.8 658.7 150.9 657.5ZM163.6 640.2C163.1 639.2 162.3 638.3 161.2 637.6C160.1 636.9 158.7 636.5 157 636.5C155 636.5 153.4 637.1 152 638.4C150.6 639.7 149.7 641.3 149.3 643.4H164.5C164.4 642.3 164.1 641.3 163.6 640.2Z" fill="#1E1E1E"/>
<path d="M61.1 670.7C64.7 670.7 67.8 671.4 70.5 672.9C73.2 674.4 75.2 676.4 76.7 679.1C78.2 681.8 78.9 684.8 78.9 688.2C78.9 691.6 78.2 694.7 76.7 697.3C75.3 699.9 73.2 702 70.5 703.5C67.8 705 64.7 705.7 61.1 705.7H50.5V670.7H61.1ZM71 698.2C73.4 695.8 74.6 692.5 74.6 688.2C74.6 683.9 73.4 680.6 71 678.2C68.6 675.8 65.3 674.6 61.1 674.6H54.7V701.7H61.1C65.3 701.8 68.5 700.6 71 698.2Z" fill="#1E1E1E"/>
<path d="M88.5 704.8C86.6 703.7 85.1 702.1 84.1 700.1C83 698.1 82.5 695.8 82.5 693.3C82.5 690.9 83 688.7 84 686.7C85 684.7 86.4 683 88.3 681.8C90.1 680.6 92.3 680 94.6 680C97 680 99.2 680.5 101 681.6C102.8 682.7 104.2 684.2 105.1 686.1C106 688 106.5 690.2 106.5 692.7C106.5 693.1 106.5 693.5 106.4 694H86.6C86.7 695.9 87.2 697.5 88 698.8C88.8 700.1 89.8 701.1 91.1 701.7C92.4 702.4 93.7 702.7 95 702.7C98.3 702.7 100.7 701.2 102.4 698.2L105.9 699.9C104.9 701.9 103.4 703.5 101.5 704.7C99.6 705.9 97.4 706.5 94.8 706.5C92.5 706.5 90.3 706 88.5 704.8ZM101.2 687.5C100.7 686.5 99.9 685.6 98.8 684.9C97.7 684.2 96.3 683.8 94.6 683.8C92.6 683.8 91 684.4 89.6 685.7C88.2 687 87.3 688.6 86.9 690.7H102C102 689.6 101.7 688.5 101.2 687.5Z" fill="#1E1E1E"/>
<path d="M111.6 680.8L119.3 700.8H119.4L127.2 680.8H131.6L121.4 705.7H117.2L107.1 680.8H111.6Z" fill="#1E1E1E"/>
<path d="M138.1 704.8C136.2 703.7 134.7 702.1 133.7 700.1C132.6 698.1 132.1 695.8 132.1 693.3C132.1 690.9 132.6 688.7 133.6 686.7C134.6 684.7 136 683 137.9 681.8C139.7 680.6 141.9 680 144.2 680C146.6 680 148.8 680.5 150.6 681.6C152.4 682.7 153.8 684.2 154.7 686.1C155.6 688 156.1 690.2 156.1 692.7C156.1 693.1 156.1 693.5 156 694H136.2C136.3 695.9 136.8 697.5 137.6 698.8C138.4 700.1 139.4 701.1 140.7 701.7C142 702.4 143.3 702.7 144.6 702.7C147.9 702.7 150.3 701.2 152 698.2L155.5 699.9C154.5 701.9 153 703.5 151.1 704.7C149.2 705.9 147 706.5 144.4 706.5C142.1 706.5 140 706 138.1 704.8ZM150.8 687.5C150.3 686.5 149.5 685.6 148.4 684.9C147.3 684.2 145.9 683.8 144.2 683.8C142.2 683.8 140.6 684.4 139.2 685.7C137.8 687 136.9 688.6 136.5 690.7H151.7C151.6 689.6 151.3 688.5 150.8 687.5Z" fill="#1E1E1E"/>
<path d="M164.6 670.7V705.7H160.4V670.7H164.6Z" fill="#1E1E1E"/>
<path d="M175.2 704.8C173.2 703.6 171.7 702 170.6 700C169.5 698 169 695.7 169 693.3C169 690.9 169.5 688.6 170.6 686.6C171.7 684.6 173.2 683 175.2 681.8C177.2 680.6 179.4 680 181.8 680C184.2 680 186.4 680.6 188.4 681.8C190.4 683 191.9 684.6 193 686.6C194.1 688.6 194.6 690.9 194.6 693.3C194.6 695.7 194.1 698 193 700C191.9 702 190.4 703.6 188.4 704.8C186.4 706 184.2 706.6 181.8 706.6C179.4 706.5 177.2 705.9 175.2 704.8ZM186.1 701.6C187.4 700.8 188.5 699.7 189.3 698.3C190.1 696.9 190.5 695.2 190.5 693.3C190.5 691.4 190.1 689.7 189.3 688.3C188.5 686.9 187.4 685.8 186.1 685C184.8 684.2 183.4 683.9 181.8 683.9C180.2 683.9 178.8 684.3 177.5 685C176.2 685.8 175.1 686.9 174.3 688.3C173.5 689.7 173.1 691.4 173.1 693.3C173.1 695.2 173.5 696.9 174.3 698.3C175.1 699.7 176.2 700.8 177.5 701.6C178.8 702.4 180.3 702.7 181.8 702.7C183.3 702.7 184.8 702.4 186.1 701.6Z" fill="#1E1E1E"/>
<path d="M202.9 680.8V684.5H203.1C203.9 683.2 205 682.2 206.5 681.3C208 680.4 209.7 680 211.6 680C213.8 680 215.9 680.6 217.7 681.7C219.5 682.8 220.9 684.4 222 686.4C223 688.4 223.6 690.7 223.6 693.2C223.6 695.7 223.1 698 222 700C221 702 219.5 703.6 217.7 704.7C215.9 705.8 213.9 706.4 211.6 706.4C209.7 706.4 208 706 206.5 705.1C205 704.2 203.9 703.2 203.1 701.9H202.9L203.1 705.3V716.1H198.9V680.6H202.9V680.8ZM215.2 701.6C216.5 700.8 217.5 699.7 218.2 698.3C218.9 696.9 219.3 695.2 219.3 693.3C219.3 691.4 218.9 689.7 218.2 688.3C217.4 686.9 216.4 685.8 215.2 685C213.9 684.2 212.6 683.8 211.1 683.8C209.6 683.8 208.3 684.2 207 685C205.7 685.8 204.7 686.9 204 688.3C203.2 689.7 202.9 691.4 202.9 693.3C202.9 695.2 203.3 696.9 204 698.3C204.8 699.7 205.8 700.8 207 701.6C208.2 702.4 209.6 702.8 211.1 702.8C212.6 702.8 213.9 702.4 215.2 701.6Z" fill="#1E1E1E"/>
<path d="M232.6 704.8C230.7 703.7 229.2 702.1 228.2 700.1C227.1 698.1 226.6 695.8 226.6 693.3C226.6 690.9 227.1 688.7 228.1 686.7C229.1 684.7 230.5 683 232.4 681.8C234.2 680.6 236.4 680 238.7 680C241.1 680 243.3 680.5 245.1 681.6C246.9 682.7 248.3 684.2 249.2 686.1C250.1 688 250.6 690.2 250.6 692.7C250.6 693.1 250.6 693.5 250.5 694H230.7C230.8 695.9 231.3 697.5 232.1 698.8C232.9 700.1 233.9 701.1 235.2 701.7C236.5 702.4 237.8 702.7 239.1 702.7C242.4 702.7 244.8 701.2 246.5 698.2L250 699.9C249 701.9 247.5 703.5 245.6 704.7C243.7 705.9 241.5 706.5 238.9 706.5C236.6 706.5 234.5 706 232.6 704.8ZM245.3 687.5C244.8 686.5 244 685.6 242.9 684.9C241.8 684.2 240.4 683.8 238.7 683.8C236.7 683.8 235.1 684.4 233.7 685.7C232.3 687 231.4 688.6 231 690.7H246.2C246.1 689.6 245.9 688.5 245.3 687.5Z" fill="#1E1E1E"/>
<path d="M258.9 680.8V684.8H259.1C259.6 683.4 260.5 682.3 261.9 681.4C263.3 680.5 264.8 680.1 266.3 680.1C267.4 680.1 268.4 680.3 269.2 680.6V685.1C268.2 684.6 267 684.3 265.7 684.3C264.5 684.3 263.4 684.6 262.4 685.3C261.4 686 260.6 686.9 260 688.1C259.4 689.3 259.1 690.5 259.1 691.8V705.7H255V680.8H258.9Z" fill="#1E1E1E"/>
<path d="M172.2 752.1C169.4 750.5 167.2 748.3 165.6 745.5C164 742.7 163.2 739.6 163.2 736.2C163.2 732.8 164 729.7 165.6 726.9C167.2 724.1 169.4 721.9 172.2 720.3C175 718.7 178 717.9 181.3 717.9C183.9 717.9 186.3 718.4 188.6 719.3C190.9 720.2 192.7 721.5 194.2 723.2L191.3 726.2C190.2 724.8 188.7 723.8 187 723C185.3 722.3 183.4 721.9 181.4 721.9C179 721.9 176.7 722.5 174.5 723.7C172.3 724.9 170.6 726.6 169.3 728.7C168 730.9 167.4 733.4 167.4 736.2C167.4 739 168 741.5 169.3 743.7C170.6 745.9 172.3 747.5 174.5 748.7C176.7 749.9 178.9 750.5 181.4 750.5C183.7 750.5 185.7 750.1 187.3 749.4C188.9 748.7 190.2 747.7 191.4 746.5C192.2 745.6 192.9 744.5 193.5 743.2C194 741.9 194.3 740.5 194.5 738.9H181.5V735H198.3C198.5 735.9 198.5 736.8 198.5 737.5C198.5 739.7 198.2 741.7 197.5 743.8C196.8 745.8 195.7 747.6 194.2 749.2C191 752.7 186.7 754.4 181.3 754.4C178 754.5 174.9 753.7 172.2 752.1Z" fill="#1E1E1E"/>
<path d="M207.4 728.8V732.8H207.6C208.1 731.4 209 730.3 210.4 729.4C211.8 728.5 213.3 728.1 214.8 728.1C215.9 728.1 216.9 728.3 217.7 728.6V733.1C216.7 732.6 215.5 732.3 214.2 732.3C213 732.3 211.9 732.6 210.9 733.3C209.9 734 209.1 734.9 208.5 736.1C207.9 737.3 207.6 738.5 207.6 739.8V753.7H203.4V728.8H207.4Z" fill="#1E1E1E"/>
<path d="M225.4 752.7C223.4 751.5 221.9 749.9 220.8 747.9C219.7 745.9 219.2 743.6 219.2 741.2C219.2 738.8 219.7 736.5 220.8 734.5C221.9 732.5 223.4 730.9 225.4 729.7C227.4 728.5 229.6 727.9 232 727.9C234.4 727.9 236.6 728.5 238.6 729.7C240.6 730.9 242.1 732.5 243.2 734.5C244.3 736.5 244.8 738.8 244.8 741.2C244.8 743.6 244.3 745.9 243.2 747.9C242.1 749.9 240.6 751.5 238.6 752.7C236.6 753.9 234.4 754.5 232 754.5C229.6 754.5 227.4 753.9 225.4 752.7ZM236.3 749.6C237.6 748.8 238.7 747.7 239.5 746.3C240.3 744.9 240.7 743.2 240.7 741.3C240.7 739.4 240.3 737.7 239.5 736.3C238.7 734.9 237.6 733.8 236.3 733C235 732.2 233.6 731.9 232 731.9C230.4 731.9 229 732.3 227.7 733C226.4 733.8 225.3 734.9 224.5 736.3C223.7 737.7 223.3 739.4 223.3 741.3C223.3 743.2 223.7 744.9 224.5 746.3C225.3 747.7 226.4 748.8 227.7 749.6C229 750.4 230.5 750.7 232 750.7C233.5 750.7 235 750.3 236.3 749.6Z" fill="#1E1E1E"/>
<path d="M251.4 751.9C249.8 750.1 249 747.7 249 744.5V728.8H253.2V743.9C253.2 746.3 253.7 748 254.8 749.1C255.9 750.2 257.3 750.8 259.2 750.8C260.6 750.8 261.8 750.4 262.9 749.7C264 748.9 264.8 748 265.4 746.8C266 745.6 266.3 744.3 266.3 743V728.9H270.5V753.8H266.5V750.2H266.3C265.6 751.4 264.5 752.5 263 753.3C261.5 754.1 259.9 754.6 258.2 754.6C255.3 754.5 253 753.6 251.4 751.9Z" fill="#1E1E1E"/>
<path d="M280.1 728.8V732.5H280.3C281 731.2 282.2 730.2 283.7 729.3C285.2 728.4 286.9 728 288.8 728C291 728 293.1 728.6 294.9 729.7C296.7 730.8 298.1 732.4 299.2 734.4C300.2 736.4 300.8 738.7 300.8 741.2C300.8 743.7 300.3 746 299.2 748C298.2 750 296.7 751.6 294.9 752.7C293.1 753.8 291.1 754.4 288.8 754.4C286.9 754.4 285.2 754 283.7 753.1C282.2 752.2 281.1 751.2 280.3 749.9H280.1L280.3 753.3V764.1H276.1V728.6H280.1V728.8ZM292.4 749.6C293.7 748.8 294.7 747.7 295.4 746.3C296.2 744.9 296.5 743.2 296.5 741.3C296.5 739.4 296.1 737.7 295.4 736.3C294.7 734.9 293.6 733.8 292.4 733C291.1 732.2 289.8 731.8 288.3 731.8C286.8 731.8 285.5 732.2 284.2 733C282.9 733.8 281.9 734.9 281.2 736.3C280.4 737.7 280.1 739.4 280.1 741.3C280.1 743.2 280.5 744.9 281.2 746.3C282 747.7 283 748.8 284.2 749.6C285.4 750.4 286.8 750.8 288.3 750.8C289.8 750.7 291.1 750.3 292.4 749.6Z" fill="#1E1E1E"/>
<path d="M306.9 752.6C305.1 751.3 303.8 749.7 303.1 747.8L306.8 746.1C307.4 747.6 308.3 748.8 309.6 749.6C310.8 750.4 312.2 750.8 313.6 750.8C315.2 750.8 316.5 750.5 317.6 749.8C318.7 749.2 319.3 748.3 319.3 747.1C319.3 746.1 318.9 745.2 318 744.6C317.1 744 315.7 743.4 313.8 743L310.8 742.2C308.8 741.7 307.2 740.9 305.9 739.7C304.6 738.5 304 737 304 735.2C304 733.8 304.4 732.5 305.3 731.4C306.2 730.3 307.3 729.5 308.7 728.9C310.1 728.3 311.7 728 313.3 728C315.5 728 317.4 728.5 319.1 729.4C320.8 730.3 322 731.7 322.7 733.4L319.1 735.1C318 732.9 316 731.8 313.2 731.8C311.8 731.8 310.6 732.1 309.6 732.8C308.6 733.4 308.1 734.2 308.1 735.2C308.1 736.1 308.5 736.9 309.2 737.4C309.9 737.9 311 738.4 312.4 738.8L316 739.7C318.4 740.3 320.3 741.2 321.5 742.5C322.7 743.7 323.4 745.2 323.4 747C323.4 748.5 323 749.9 322.1 751C321.2 752.2 320 753 318.5 753.7C317 754.3 315.3 754.6 313.5 754.6C310.9 754.5 308.7 753.9 306.9 752.6Z" fill="#1E1E1E"/>
<path d="M378.3 662.1L454.1 607.6C470 596.2 492.2 599.8 503.6 615.7C515 631.6 511.4 653.8 495.5 665.2L419.7 719.7C403.8 731.1 381.6 727.5 370.2 711.6C358.7 695.7 362.3 673.5 378.3 662.1Z" fill="#EA4335" stroke="#1E1E1E" stroke-width="5" stroke-miterlimit="10"/>
<path d="M370.2 670.1C381.6 654.2 403.8 650.5 419.7 662L495.5 716.5C511.4 727.9 515.1 750.1 503.6 766C492.2 781.9 470 785.6 454.1 774.1L378.3 719.6C362.4 708.2 358.7 686 370.2 670.1Z" fill="#4285F4" stroke="#1E1E1E" stroke-width="5" stroke-miterlimit="10"/>
<path d="M561.5 716.6L637.3 662.1C653.2 650.7 675.4 654.3 686.8 670.2C698.2 686.1 694.6 708.3 678.7 719.7L602.9 774.2C587 785.6 564.8 782 553.4 766.1C541.9 750.2 545.6 728 561.5 716.6Z" fill="#F9AB00" stroke="#0D0D0D" stroke-width="5" stroke-miterlimit="10"/>
<path d="M553.4 615.6C564.8 599.7 587 596 602.9 607.5L678.7 662C694.6 673.4 698.3 695.6 686.8 711.5C675.4 727.4 653.2 731.1 637.3 719.6L561.5 665.1C545.6 653.7 542 631.5 553.4 615.6Z" fill="#34A853" stroke="#0D0D0D" stroke-width="5" stroke-miterlimit="10"/>
<path d="M787.1 765.4H753.7V611.2H788.2" stroke="#1E1E1E" stroke-width="5" stroke-linejoin="round"/>
<path d="M1023.4 611.2H1057.9V765.4H1023.4" stroke="#1E1E1E" stroke-width="5" stroke-linejoin="round"/>
<path d="M905.8 764.7C951.805 764.7 989.1 730.495 989.1 688.3C989.1 646.105 951.805 611.9 905.8 611.9C859.795 611.9 822.5 646.105 822.5 688.3C822.5 730.495 859.795 764.7 905.8 764.7Z" stroke="#1E1E1E" stroke-width="5" stroke-linejoin="round"/>
<path d="M905.8 764.7C925.627 764.7 941.7 730.495 941.7 688.3C941.7 646.105 925.627 611.9 905.8 611.9C885.973 611.9 869.9 646.105 869.9 688.3C869.9 730.495 885.973 764.7 905.8 764.7Z" stroke="#1E1E1E" stroke-width="5" stroke-linejoin="round"/>
<path d="M828.4 660H983.2" stroke="#1E1E1E" stroke-width="5" stroke-linejoin="round"/>
<path d="M828.4 716.5H983.2" stroke="#1E1E1E" stroke-width="5" stroke-linejoin="round"/>
<path d="M8.90002 904.8H363.2" stroke="#1E1E1E" stroke-width="5" stroke-miterlimit="10"/>
<path d="M363.2 904.8C329.9 904.8 284.3 878 283.7 844.8" stroke="#1E1E1E" stroke-width="5" stroke-miterlimit="10"/>
<path d="M363.2 904.8C329.9 904.8 284.2 931.6 283.7 964.8" stroke="#1E1E1E" stroke-width="5" stroke-miterlimit="10"/>
<path d="M441.5 845.4L1036.2 844.8C1048.2 844.8 1057.9 854.5 1057.9 866.4L1058 942.5C1058 954.5 1048.3 964.2 1036.4 964.2L441.7 964.8C429.7 964.8 420 955.1 420 943.2L419.9 867.1C419.8 855.1 429.5 845.4 441.5 845.4Z" fill="#CEE5C1" stroke="#1E1E1E" stroke-width="5" stroke-miterlimit="10"/>
<path d="M518 884.3L536.5 913.7H536.7L536.5 906.6V884.3H540.9V921.2H536.4L517 890.4H516.8L517 897.5V921.2H512.6V884.3H518Z" fill="#1E1E1E"/>
<path d="M553 920.2C550.9 919 549.3 917.3 548.2 915.2C547.1 913.1 546.5 910.7 546.5 908.1C546.5 905.5 547.1 903.2 548.2 901C549.3 898.9 551 897.2 553 895.9C555.1 894.7 557.4 894 560 894C562.6 894 564.9 894.6 567 895.8C569.1 897 570.7 898.7 571.8 900.8C573 902.9 573.5 905.3 573.5 907.9C573.5 910.5 572.9 912.8 571.8 915C570.6 917.1 569 918.8 567 920.1C564.9 921.3 562.6 922 560 922C557.4 922 555.1 921.4 553 920.2ZM564.5 916.8C565.9 916 567 914.8 567.8 913.3C568.6 911.8 569.1 910 569.1 908C569.1 906 568.7 904.2 567.8 902.7C566.9 901.2 565.8 900 564.4 899.2C563 898.4 561.5 898 559.9 898C558.3 898 556.8 898.4 555.4 899.2C554 900 552.9 901.2 552 902.7C551.1 904.2 550.7 906 550.7 908C550.7 910 551.1 911.8 552 913.3C552.8 914.8 554 916 555.4 916.8C556.8 917.6 558.3 918 559.9 918C561.6 918 563.1 917.6 564.5 916.8Z" fill="#1E1E1E"/>
<path d="M579.6 894.9L587.8 916H587.9L596.1 894.8H600.7L590 921.1H585.6L574.9 894.8L579.6 894.9Z" fill="#1E1E1E"/>
<path d="M608.5 920.2C606.5 919 604.9 917.3 603.8 915.2C602.7 913.1 602.1 910.7 602.1 908.1C602.1 905.6 602.6 903.3 603.7 901.1C604.7 898.9 606.2 897.2 608.2 896C610.2 894.8 612.4 894.1 614.9 894.1C617.5 894.1 619.7 894.7 621.6 895.8C623.5 896.9 624.9 898.5 626 900.6C627.1 902.7 627.5 904.9 627.5 907.6C627.5 908 627.5 908.5 627.4 908.9H606.6C606.7 910.9 607.2 912.6 608 914C608.9 915.4 610 916.4 611.3 917.1C612.6 917.8 614 918.1 615.5 918.1C618.9 918.1 621.5 916.5 623.3 913.3L627 915.1C625.9 917.2 624.4 918.9 622.4 920.1C620.4 921.3 618.1 922 615.3 922C612.7 922 610.5 921.4 608.5 920.2ZM621.9 901.9C621.3 900.8 620.5 899.9 619.3 899.1C618.1 898.3 616.7 898 614.9 898C612.8 898 611.1 898.7 609.6 900C608.2 901.3 607.2 903.1 606.8 905.2H622.8C622.8 904.1 622.4 903 621.9 901.9Z" fill="#1E1E1E"/>
<path d="M636.7 894.8V898.7H636.9C637.7 897.4 638.8 896.2 640.3 895.3C641.8 894.4 643.4 894 645.1 894C647 894 648.7 894.5 650.1 895.4C651.5 896.3 652.6 897.6 653.2 899.1C654.1 897.6 655.4 896.3 656.9 895.4C658.4 894.5 660.2 894 662.2 894C665.2 894 667.5 894.9 669 896.8C670.5 898.7 671.3 901.1 671.3 904.3V921.2H667V905C667 902.6 666.5 900.8 665.5 899.7C664.5 898.6 663 898.1 661.1 898.1C659.8 898.1 658.6 898.5 657.5 899.2C656.4 900 655.6 901 655 902.2C654.4 903.5 654.1 904.8 654.1 906.3V921.2H649.7V905.1C649.7 902.6 649.2 900.8 648.2 899.7C647.2 898.6 645.7 898.1 643.8 898.1C642.5 898.1 641.3 898.5 640.2 899.3C639.1 900.1 638.3 901.1 637.7 902.4C637.1 903.7 636.8 905.1 636.8 906.6V921.4H632.4V895.1L636.7 894.8Z" fill="#1E1E1E"/>
<path d="M685.7 920.5C684.1 919.6 682.9 918.5 682.1 917.2H681.9V921.1H677.7V884.2H682.1V895.1L681.9 898.8H682.1C682.9 897.5 684.1 896.3 685.7 895.4C687.3 894.5 689.1 894 691.1 894C693.5 894 695.6 894.6 697.5 895.8C699.4 897 700.9 898.7 702 900.8C703.1 902.9 703.7 905.3 703.7 908C703.7 910.7 703.2 913.1 702.1 915.2C701 917.3 699.5 919 697.6 920.2C695.7 921.4 693.6 922 691.2 922C689.1 921.9 687.3 921.4 685.7 920.5ZM694.9 916.7C696.2 915.9 697.3 914.7 698.1 913.2C698.9 911.7 699.3 909.9 699.3 907.9C699.3 905.9 698.9 904.2 698.1 902.6C697.3 901.1 696.2 899.9 694.9 899.1C693.6 898.3 692.1 897.9 690.6 897.9C689.1 897.9 687.6 898.3 686.3 899.1C685 899.9 683.9 901.1 683.1 902.6C682.3 904.1 681.9 905.9 681.9 907.9C681.9 909.9 682.3 911.6 683.1 913.2C683.9 914.8 685 915.9 686.3 916.7C687.6 917.5 689.1 917.9 690.6 917.9C692.2 917.9 693.6 917.5 694.9 916.7Z" fill="#1E1E1E"/>
<path d="M713.8 920.1C711.8 918.9 710.2 917.2 709.1 915.1C708 913 707.4 910.6 707.4 908C707.4 905.5 707.9 903.2 709 901C710 898.8 711.5 897.1 713.5 895.9C715.4 894.6 717.7 894 720.2 894C722.8 894 725 894.6 726.9 895.7C728.8 896.8 730.2 898.4 731.3 900.5C732.3 902.5 732.8 904.8 732.8 907.5C732.8 907.9 732.8 908.4 732.7 908.8H711.9C712 910.8 712.5 912.5 713.3 913.9C714.2 915.3 715.3 916.3 716.6 917C717.9 917.7 719.3 918 720.8 918C724.2 918 726.8 916.4 728.6 913.2L732.3 915C731.2 917.1 729.7 918.8 727.7 920C725.7 921.3 723.4 921.9 720.6 921.9C718 921.9 715.8 921.3 713.8 920.1ZM727.2 901.8C726.6 900.7 725.8 899.8 724.6 899C723.4 898.2 722 897.9 720.2 897.9C718.1 897.9 716.4 898.6 714.9 899.9C713.5 901.2 712.5 903 712.1 905.1H728.1C728 904 727.7 902.9 727.2 901.8Z" fill="#1E1E1E"/>
<path d="M742 894.7V898.9H742.2C742.7 897.5 743.7 896.3 745.2 895.3C746.7 894.4 748.2 893.9 749.8 893.9C751 893.9 752 894.1 752.9 894.4V899.1C751.8 898.6 750.6 898.3 749.2 898.3C747.9 898.3 746.8 898.7 745.7 899.4C744.6 900.1 743.8 901.1 743.2 902.3C742.6 903.5 742.2 904.8 742.2 906.2V920.9H737.8V894.6L742 894.7Z" fill="#1E1E1E"/>
<path d="M774.8 920.9C773.3 920.3 771.8 919.3 770.6 918C769.3 916.7 768.4 915 767.9 913L771.9 911.3C772.5 913.3 773.4 914.8 774.7 915.9C776 917 777.6 917.5 779.4 917.5C780.7 917.5 781.9 917.2 783.1 916.6C784.2 916 785.1 915.2 785.8 914.2C786.5 913.2 786.8 912.1 786.8 910.8C786.8 909.6 786.5 908.5 785.8 907.5C785.1 906.5 784.2 905.7 783.1 905.2C782 904.7 780.7 904.4 779.3 904.4H776.3V900.3H779C780.9 900.3 782.5 899.8 783.7 898.7C785 897.6 785.6 896.2 785.6 894.4C785.6 892.7 785 891.4 783.7 890.4C782.5 889.4 780.9 888.9 779.1 888.9C777.3 888.9 775.9 889.4 774.9 890.3C773.9 891.2 773.2 892.4 772.7 893.7L768.7 892C769.3 890.1 770.5 888.5 772.3 887C774.1 885.5 776.3 884.8 779.1 884.7C781.2 884.7 783 885.1 784.7 885.9C786.4 886.7 787.7 887.9 788.6 889.4C789.5 890.9 790 892.5 790 894.3C790 896.1 789.5 897.7 788.6 898.9C787.7 900.2 786.5 901.2 785.1 901.9V902.1C786.9 902.8 788.3 903.9 789.4 905.4C790.5 906.9 791.1 908.7 791.1 910.7C791.1 912.8 790.6 914.6 789.5 916.3C788.4 918 787 919.2 785.2 920.2C783.4 921.1 781.4 921.6 779.2 921.6C777.9 921.8 776.4 921.5 774.8 920.9Z" fill="#1E1E1E"/>
<path d="M802.7 919.3C800.5 917.7 798.9 915.5 797.7 912.7C796.5 909.9 796 906.8 796 903.3C796 899.9 796.6 896.7 797.7 893.9C798.8 891.1 800.5 888.9 802.6 887.2C804.7 885.6 807.2 884.7 810 884.7C812.8 884.7 815.3 885.5 817.4 887.1C819.5 888.7 821.2 890.9 822.4 893.7C823.6 896.5 824.2 899.6 824.2 903.1C824.2 906.5 823.6 909.7 822.5 912.5C821.3 915.3 819.7 917.5 817.5 919.2C815.4 920.8 812.9 921.7 810.1 921.7C807.3 921.7 804.9 920.9 802.7 919.3ZM815.2 915.7C816.6 914.4 817.8 912.7 818.5 910.6C819.3 908.4 819.7 906 819.7 903.3C819.7 900.6 819.3 898.2 818.5 896C817.7 893.8 816.6 892.1 815.1 890.9C813.7 889.6 812 889 810 889C808 889 806.3 889.6 804.9 890.9C803.5 892.2 802.4 893.9 801.6 896C800.8 898.2 800.4 900.6 800.4 903.3C800.4 906 800.8 908.4 801.6 910.6C802.4 912.8 803.5 914.5 804.9 915.7C806.3 916.9 808 917.6 810 917.6C812.1 917.6 813.8 917 815.2 915.7Z" fill="#1E1E1E"/>
<path d="M832.2 920.9C831.6 920.8 831 920.5 830.5 919.9C830 919.3 829.8 918.7 829.7 917.9C829.7 917 830 916.2 830.7 915.6C831.3 915 832.1 914.6 833 914.6C833.9 914.6 834.7 914.9 835.3 915.6C835.9 916.2 836.3 917 836.3 917.9C836.3 918.5 836.2 919 835.9 919.6C835.7 920.1 835.3 920.7 834.8 921.4L831.4 926.6L829.3 925.2L832.2 920.9Z" fill="#1E1E1E"/>
<path d="M866.4 903.2C868.2 901.3 869.3 899.8 870 898.8C870.6 897.7 870.9 896.4 870.9 894.9C870.9 893.9 870.6 892.9 870.1 892C869.6 891.1 868.8 890.3 867.8 889.8C866.8 889.2 865.6 889 864.2 889C862.3 889 860.8 889.5 859.7 890.6C858.6 891.7 857.8 892.9 857.5 894.1L853.5 892.5C853.8 891.4 854.4 890.3 855.3 889.1C856.2 887.9 857.4 886.9 858.9 886.1C860.4 885.3 862.2 884.8 864.3 884.8C866.5 884.8 868.4 885.3 870.1 886.2C871.8 887.1 873.1 888.4 874 889.9C874.9 891.4 875.4 893.1 875.4 894.9C875.4 898.5 873.5 902.2 869.7 906.1L859.1 916.7H875.8V920.9H853.5V916.5C860.2 909.7 864.5 905.3 866.4 903.2Z" fill="#1E1E1E"/>
<path d="M887.5 919.2C885.3 917.6 883.7 915.4 882.5 912.6C881.3 909.8 880.8 906.7 880.8 903.2C880.8 899.8 881.4 896.6 882.5 893.8C883.6 891 885.3 888.8 887.4 887.1C889.5 885.5 892 884.6 894.8 884.6C897.6 884.6 900.1 885.4 902.2 887C904.3 888.6 906 890.8 907.2 893.6C908.4 896.4 909 899.5 909 903C909 906.4 908.4 909.6 907.3 912.4C906.1 915.2 904.5 917.4 902.3 919.1C900.2 920.7 897.7 921.6 894.9 921.6C892.1 921.6 889.7 920.9 887.5 919.2ZM900 915.6C901.4 914.3 902.6 912.6 903.3 910.5C904.1 908.3 904.5 905.9 904.5 903.2C904.5 900.5 904.1 898.1 903.3 895.9C902.5 893.7 901.4 892 899.9 890.8C898.5 889.5 896.8 888.9 894.8 888.9C892.8 888.9 891.1 889.5 889.7 890.8C888.3 892.1 887.2 893.8 886.4 895.9C885.6 898.1 885.2 900.5 885.2 903.2C885.2 905.9 885.6 908.3 886.4 910.5C887.2 912.7 888.3 914.4 889.7 915.6C891.1 916.9 892.8 917.5 894.8 917.5C896.9 917.5 898.6 916.9 900 915.6Z" fill="#1E1E1E"/>
<path d="M926.3 903.2C928.1 901.3 929.2 899.8 929.9 898.8C930.5 897.7 930.8 896.4 930.8 894.9C930.8 893.9 930.5 892.9 930 892C929.5 891.1 928.7 890.3 927.7 889.8C926.7 889.2 925.5 889 924.1 889C922.2 889 920.7 889.5 919.6 890.6C918.5 891.7 917.7 892.9 917.4 894.1L913.4 892.5C913.7 891.4 914.3 890.3 915.2 889.1C916.1 887.9 917.3 886.9 918.8 886.1C920.3 885.3 922.1 884.8 924.2 884.8C926.4 884.8 928.3 885.3 930 886.2C931.7 887.1 933 888.4 933.9 889.9C934.8 891.4 935.3 893.1 935.3 894.9C935.3 898.5 933.4 902.2 929.6 906.1L919 916.7H935.7V920.9H913.4V916.5C920.1 909.7 924.4 905.2 926.3 903.2Z" fill="#1E1E1E"/>
<path d="M940.5 913.2V909.9L957 885.5H961.7V909.1H966.2V913.2H961.7V920.8H957.4V913.2H940.5ZM957.4 891.9H957.2L945.5 909.1H957.4V891.9Z" fill="#1E1E1E"/>
<path d="M272.4 1041.2C272.4 1085.9 242.8 1122.2 206.3 1122.2C169.8 1122.2 140.2 1086 140.2 1041.2" stroke="#1E1E1E" stroke-width="5" stroke-linejoin="round"/>
<path d="M140.1 1041.2C140.1 1085.9 110.5 1122.2 74 1122.2C37.5 1122.2 7.90002 1086 7.90002 1041.2" stroke="#1E1E1E" stroke-width="5" stroke-linejoin="round"/>
<path d="M404.7 1041.2C404.7 1085.9 375.1 1122.2 338.6 1122.2C302.1 1122.2 272.5 1086 272.5 1041.2" stroke="#1E1E1E" stroke-width="5" stroke-linejoin="round"/>
<path d="M537 1041.2C537 1085.9 507.4 1122.2 470.9 1122.2C434.4 1122.2 404.8 1086 404.8 1041.2" stroke="#1E1E1E" stroke-width="5" stroke-linejoin="round"/>
</svg>
