<svg width="557" height="557" viewBox="0 0 557 557" fill="none" xmlns="http://www.w3.org/2000/svg">
<path d="M497.6 59.3H59.2998V497.6H497.6V59.3Z" fill="#4285F4" stroke="#1E1E1E" stroke-width="5" stroke-linejoin="round"/>
<path d="M364.8 201.4H192.1V497.7H364.8V201.4Z" fill="#F0F0F0" stroke="#1E1E1E" stroke-width="5" stroke-linecap="round" stroke-linejoin="round"/>
<path d="M389.3 324.6H167.6V347.3H389.3V324.6Z" fill="#FFE7A5" stroke="#1E1E1E" stroke-width="5" stroke-linecap="round" stroke-linejoin="round"/>
<path d="M167.6 324.6V347.2" stroke="#1E1E1E" stroke-width="5" stroke-linecap="round" stroke-linejoin="round"/>
<path d="M228.1 324.6V347.2" stroke="#1E1E1E" stroke-width="5" stroke-linecap="round" stroke-linejoin="round"/>
<path d="M187.8 324.6V347.2" stroke="#1E1E1E" stroke-width="5" stroke-linecap="round" stroke-linejoin="round"/>
<path d="M207.9 324.6V347.2" stroke="#1E1E1E" stroke-width="5" stroke-linecap="round" stroke-linejoin="round"/>
<path d="M248.3 324.6V347.2" stroke="#1E1E1E" stroke-width="5" stroke-linecap="round" stroke-linejoin="round"/>
<path d="M268.4 324.6V347.2" stroke="#1E1E1E" stroke-width="5" stroke-linecap="round" stroke-linejoin="round"/>
<path d="M288.6 324.6V347.2" stroke="#1E1E1E" stroke-width="5" stroke-linecap="round" stroke-linejoin="round"/>
<path d="M308.7 324.6V347.2" stroke="#1E1E1E" stroke-width="5" stroke-linecap="round" stroke-linejoin="round"/>
<path d="M328.9 324.6V347.2" stroke="#1E1E1E" stroke-width="5" stroke-linecap="round" stroke-linejoin="round"/>
<path d="M349.1 324.6V347.2" stroke="#1E1E1E" stroke-width="5" stroke-linecap="round" stroke-linejoin="round"/>
<path d="M369.2 324.6V347.2" stroke="#1E1E1E" stroke-width="5" stroke-linecap="round" stroke-linejoin="round"/>
<path d="M389.4 324.6V347.2" stroke="#1E1E1E" stroke-width="5" stroke-linecap="round" stroke-linejoin="round"/>
<path d="M396.7 347.6H160.3V361.9H396.7V347.6Z" fill="#FF7DAF" stroke="#1E1E1E" stroke-width="5" stroke-linecap="round" stroke-linejoin="round"/>
<path d="M393.7 149C393.7 149 392.6 170.6 363.4 170.6H193.8C164.6 170.6 163.5 149 163.5 149C193.8 171.1 217.4 118.2 217.4 118.2H339.9C339.8 118.3 363.4 171.1 393.7 149Z" fill="#EA4335" stroke="#1E1E1E" stroke-width="5" stroke-linecap="round" stroke-linejoin="round"/>
<path d="M239.2 268.1H249.6C250.6 274 253.5 279.5 257.7 283.7L258.2 284.2C259.3 285.2 260.4 286.1 261.6 287C265.1 289.5 269.1 291.1 273.3 291.8C275 292.1 276.7 292.2 278.4 292.3C280.1 292.3 281.8 292.1 283.5 291.8V324.5H273.2V302.2C271.6 302 270 301.7 268.4 301.3C267.9 301.2 267.3 301 266.8 300.9C266 300.6 265.2 300.4 264.4 300.1C264 299.9 263.6 299.8 263.2 299.6C262.4 299.3 261.5 298.9 260.7 298.5L259.7 298C258.9 297.6 258.2 297.2 257.4 296.7C256.3 296 255.2 295.3 254.2 294.4L224 324.6H216.7V317.3L246.9 287.1C244 283.3 241.8 279 240.4 274.5C240.2 274 240.1 273.5 240 272.9C239.8 271.3 239.4 269.7 239.2 268.1Z" fill="#4285F4" stroke="#1E1E1E" stroke-width="5" stroke-linecap="round" stroke-linejoin="round"/>
<path d="M224.2 201.4L254.4 231.6C255.6 230.6 256.9 229.8 258.3 228.9L259.7 228.1C260.3 227.8 260.8 227.5 261.4 227.2C262 226.9 262.6 226.7 263.2 226.4L263.7 226.2L264.6 225.8C265 225.6 265.4 225.5 265.8 225.4C266.2 225.3 266.7 225.1 267.2 224.9C269.2 224.3 271.3 223.9 273.4 223.6V234C269.2 234.7 265.2 236.4 261.7 238.8C260.3 239.8 259 240.9 257.8 242.1C256.6 243.3 255.5 244.7 254.5 246.1C252 249.6 250.4 253.6 249.7 257.8C249.4 259.5 249.2 261.2 249.3 262.9C249.3 264.6 249.5 266.3 249.8 268H217.1V257.7H239.4C239.6 256.1 239.9 254.5 240.3 252.9C240.4 252.4 240.6 251.9 240.7 251.3C241.3 249.2 242.1 247.2 243.1 245.3C243.3 244.9 243.5 244.5 243.7 244.1C244.1 243.3 244.5 242.6 245 241.9C245.2 241.5 245.5 241.2 245.7 240.8C245.9 240.4 246.2 240.1 246.4 239.7C246.6 239.3 246.9 239 247.2 238.7L217 208.5V201.2L224.2 201.4Z" fill="#EA4335" stroke="#1E1E1E" stroke-width="5" stroke-linecap="round" stroke-linejoin="round"/>
<path d="M307.4 257.8H340.1V268.1H317.8C317.6 269.7 317.3 271.3 316.9 272.9C316.8 273.4 316.6 273.9 316.5 274.5C316.1 275.7 315.7 277 315.2 278.2C314.9 279 314.5 279.9 314.1 280.7L313.6 281.7C313.3 282.2 313.1 282.7 312.8 283.1C312 284.5 311 285.8 310.1 287.1L340.3 317.3V324.6H333L302.8 294.4C302.5 294.7 302.1 294.9 301.8 295.2C301.5 295.5 301.1 295.7 300.7 296C300.3 296.3 300 296.5 299.6 296.7L298.5 297.4C297.9 297.8 297.2 298.1 296.6 298.4L295.9 298.7C295.2 299 294.6 299.3 293.9 299.6L292.7 300.1L292.4 300.2C291.8 300.4 291.2 300.6 290.6 300.8L290.3 300.9C289.8 301.1 289.3 301.2 288.7 301.3C287.1 301.7 285.5 302 283.9 302.2V291.8C289.8 290.8 295.3 287.9 299.5 283.6C300.7 282.4 301.8 281.1 302.8 279.7C306.2 274.8 308.1 268.9 308.1 262.9C307.9 261.2 307.7 259.5 307.4 257.8Z" fill="#F9AB00" stroke="#1E1E1E" stroke-width="5" stroke-linecap="round" stroke-linejoin="round"/>
<path d="M273.4 201.4H283.7V223.7L285 223.9C286.3 224.1 287.6 224.4 288.8 224.7L289.8 225L291.3 225.5C291.7 225.6 292.1 225.8 292.5 225.9L293.4 226.3C294.3 226.7 295.2 227.1 296 227.5C296.4 227.7 296.8 227.9 297.2 228.1L297.4 228.2L298.8 229C300.1 229.8 301.4 230.7 302.7 231.7L332.9 201.5H340.2V208.8L310 239C311 240.2 311.8 241.5 312.7 242.9C313 243.4 313.2 243.8 313.5 244.3C313.5 244.4 313.6 244.4 313.6 244.5C313.8 244.9 314 245.3 314.2 245.7C314.6 246.5 315 247.3 315.3 248.2C315.5 248.6 315.6 249 315.7 249.3C315.8 249.6 316 250.1 316.1 250.5C316.2 250.9 316.3 251.1 316.4 251.5C316.4 251.6 316.5 251.8 316.5 251.9C317.1 253.9 317.5 256 317.8 258.1H307.4C304.9 244.1 292.7 233.9 278.5 233.9C276.8 233.9 275.1 234.1 273.4 234.4V201.4Z" fill="#34A853" stroke="#1E1E1E" stroke-width="5" stroke-linecap="round" stroke-linejoin="round"/>
<path d="M216.9 201.4H192.1V324.6H216.9V201.4Z" fill="#FFD427" stroke="#1E1E1E" stroke-width="5" stroke-linecap="round" stroke-linejoin="round"/>
<path d="M364.9 201.4H340.1V324.6H364.9V201.4Z" fill="#FFD427" stroke="#1E1E1E" stroke-width="5" stroke-linecap="round" stroke-linejoin="round"/>
<path d="M216.9 361.9H167.6V497.4H216.9V361.9Z" fill="#F8D8D8" stroke="#1E1E1E" stroke-width="5" stroke-linecap="round" stroke-linejoin="round"/>
<path d="M389.4 361.9H340.1V497.4H389.4V361.9Z" fill="#F8D8D8" stroke="#1E1E1E" stroke-width="5" stroke-linecap="round" stroke-linejoin="round"/>
<path d="M416.9 173.8C416.9 173.8 415.6 201.4 380.5 201.4H176.7C141.6 201.4 140.3 173.8 140.3 173.8C176.7 195.9 193.2 170.6 193.2 170.6H364.1C363.9 170.6 380.5 195.9 416.9 173.8Z" fill="#F9AB00" stroke="#1E1E1E" stroke-width="5" stroke-linecap="round" stroke-linejoin="round"/>
<path d="M106.3 8.8999C106.3 19.4999 99.2999 28.0999 90.5999 28.0999C81.8999 28.0999 74.8999 19.4999 74.8999 8.8999" stroke="#1E1E1E" stroke-width="5" stroke-linejoin="round"/>
<path d="M28 9.60004V2.80005H59.3V9.80005" stroke="#1E1E1E" stroke-width="5" stroke-linejoin="round"/>
<path d="M122 9.60004V2.80005H153.3V9.80005" stroke="#1E1E1E" stroke-width="5" stroke-linejoin="round"/>
<path d="M200.2 8.8999C200.2 19.4999 193.2 28.0999 184.5 28.0999C175.8 28.0999 168.8 19.4999 168.8 8.8999" stroke="#1E1E1E" stroke-width="5" stroke-linejoin="round"/>
<path d="M215.9 9.60004V2.80005H247.2V9.80005" stroke="#1E1E1E" stroke-width="5" stroke-linejoin="round"/>
<path d="M294.2 8.8999C294.2 19.4999 287.2 28.0999 278.5 28.0999C269.8 28.0999 262.8 19.4999 262.8 8.8999" stroke="#1E1E1E" stroke-width="5" stroke-linejoin="round"/>
<path d="M309.8 9.60004V2.80005H341.1V9.80005" stroke="#1E1E1E" stroke-width="5" stroke-linejoin="round"/>
<path d="M388.1 8.8999C388.1 19.4999 381.1 28.0999 372.4 28.0999C363.7 28.0999 356.7 19.4999 356.7 8.8999" stroke="#1E1E1E" stroke-width="5" stroke-linejoin="round"/>
<path d="M403.7 9.60004V2.80005H435V9.80005" stroke="#1E1E1E" stroke-width="5" stroke-linejoin="round"/>
<path d="M482 8.8999C482 19.4999 475 28.0999 466.3 28.0999C457.6 28.0999 450.6 19.4999 450.6 8.8999" stroke="#1E1E1E" stroke-width="5" stroke-linejoin="round"/>
<path d="M497.7 9.60004V2.80005H529V9.80005" stroke="#1E1E1E" stroke-width="5" stroke-linejoin="round"/>
<path d="M8.8999 450.7C19.4999 450.7 28.0999 457.7 28.0999 466.4C28.0999 475.1 19.4999 482.1 8.8999 482.1" stroke="#1E1E1E" stroke-width="5" stroke-linejoin="round"/>
<path d="M9.59985 528.9H2.8999V497.6H9.8999" stroke="#1E1E1E" stroke-width="5" stroke-linejoin="round"/>
<path d="M9.59985 435H2.8999V403.7H9.8999" stroke="#1E1E1E" stroke-width="5" stroke-linejoin="round"/>
<path d="M8.8999 356.8C19.4999 356.8 28.0999 363.8 28.0999 372.5C28.0999 381.2 19.4999 388.2 8.8999 388.2" stroke="#1E1E1E" stroke-width="5" stroke-linejoin="round"/>
<path d="M9.59985 341.1H2.8999V309.8H9.8999" stroke="#1E1E1E" stroke-width="5" stroke-linejoin="round"/>
<path d="M8.8999 262.8C19.4999 262.8 28.0999 269.8 28.0999 278.5C28.0999 287.2 19.4999 294.2 8.8999 294.2" stroke="#1E1E1E" stroke-width="5" stroke-linejoin="round"/>
<path d="M9.59985 247.2H2.8999V215.9H9.8999" stroke="#1E1E1E" stroke-width="5" stroke-linejoin="round"/>
<path d="M8.8999 168.9C19.4999 168.9 28.0999 175.9 28.0999 184.6C28.0999 193.3 19.4999 200.3 8.8999 200.3" stroke="#1E1E1E" stroke-width="5" stroke-linejoin="round"/>
<path d="M9.59985 153.3H2.8999V121.9H9.8999" stroke="#1E1E1E" stroke-width="5" stroke-linejoin="round"/>
<path d="M8.8999 75C19.4999 75 28.0999 82 28.0999 90.7C28.0999 99.4 19.4999 106.4 8.8999 106.4" stroke="#1E1E1E" stroke-width="5" stroke-linejoin="round"/>
<path d="M9.59985 59.3H2.8999V28H9.8999" stroke="#1E1E1E" stroke-width="5" stroke-linejoin="round"/>
<path d="M548.1 106.3C537.5 106.3 528.9 99.2999 528.9 90.5999C528.9 81.8999 537.5 74.8999 548.1 74.8999" stroke="#1E1E1E" stroke-width="5" stroke-linejoin="round"/>
<path d="M547.4 28H554.1V59.3H547.1" stroke="#1E1E1E" stroke-width="5" stroke-linejoin="round"/>
<path d="M547.4 121.9H554.1V153.3H547.1" stroke="#1E1E1E" stroke-width="5" stroke-linejoin="round"/>
<path d="M548.1 200.2C537.5 200.2 528.9 193.2 528.9 184.5C528.9 175.8 537.5 168.8 548.1 168.8" stroke="#1E1E1E" stroke-width="5" stroke-linejoin="round"/>
<path d="M547.4 215.9H554.1V247.2H547.1" stroke="#1E1E1E" stroke-width="5" stroke-linejoin="round"/>
<path d="M548.1 294.1C537.5 294.1 528.9 287.1 528.9 278.4C528.9 269.7 537.5 262.7 548.1 262.7" stroke="#1E1E1E" stroke-width="5" stroke-linejoin="round"/>
<path d="M547.4 309.8H554.1V341.1H547.1" stroke="#1E1E1E" stroke-width="5" stroke-linejoin="round"/>
<path d="M548.1 388.1C537.5 388.1 528.9 381.1 528.9 372.4C528.9 363.7 537.5 356.7 548.1 356.7" stroke="#1E1E1E" stroke-width="5" stroke-linejoin="round"/>
<path d="M547.4 403.7H554.1V435H547.1" stroke="#1E1E1E" stroke-width="5" stroke-linejoin="round"/>
<path d="M548.1 482C537.5 482 528.9 475 528.9 466.3C528.9 457.6 537.5 450.6 548.1 450.6" stroke="#1E1E1E" stroke-width="5" stroke-linejoin="round"/>
<path d="M547.4 497.6H554.1V528.9H547.1" stroke="#1E1E1E" stroke-width="5" stroke-linejoin="round"/>
<path d="M450.7 548.1C450.7 537.5 457.7 528.9 466.4 528.9C475.1 528.9 482.1 537.5 482.1 548.1" stroke="#1E1E1E" stroke-width="5" stroke-linejoin="round"/>
<path d="M529 547.3V554.1H497.7V547.1" stroke="#1E1E1E" stroke-width="5" stroke-linejoin="round"/>
<path d="M435 547.3V554.1H403.7V547.1" stroke="#1E1E1E" stroke-width="5" stroke-linejoin="round"/>
<path d="M356.8 548.1C356.8 537.5 363.8 528.9 372.5 528.9C381.2 528.9 388.2 537.5 388.2 548.1" stroke="#1E1E1E" stroke-width="5" stroke-linejoin="round"/>
<path d="M341.1 547.3V554.1H309.8V547.1" stroke="#1E1E1E" stroke-width="5" stroke-linejoin="round"/>
<path d="M262.8 548.1C262.8 537.5 269.8 528.9 278.5 528.9C287.2 528.9 294.2 537.5 294.2 548.1" stroke="#1E1E1E" stroke-width="5" stroke-linejoin="round"/>
<path d="M247.2 547.3V554.1H215.9V547.1" stroke="#1E1E1E" stroke-width="5" stroke-linejoin="round"/>
<path d="M168.9 548.1C168.9 537.5 175.9 528.9 184.6 528.9C193.3 528.9 200.3 537.5 200.3 548.1" stroke="#1E1E1E" stroke-width="5" stroke-linejoin="round"/>
<path d="M153.3 547.3V554.1H122V547.1" stroke="#1E1E1E" stroke-width="5" stroke-linejoin="round"/>
<path d="M75 548.1C75 537.5 82 528.9 90.7 528.9C99.4 528.9 106.4 537.5 106.4 548.1" stroke="#1E1E1E" stroke-width="5" stroke-linejoin="round"/>
<path d="M59.3 547.3V554.1H28V547.1" stroke="#1E1E1E" stroke-width="5" stroke-linejoin="round"/>
</svg>
