<svg width="1580" height="820" viewBox="0 0 1580 820" fill="none" xmlns="http://www.w3.org/2000/svg">
<path d="M529 486.4H861.3" stroke="#1E1E1E" stroke-width="5" stroke-miterlimit="10"/>
<path d="M861.3 486.4C826.3 486.4 778.1 458.2 777.5 423.2" stroke="#1E1E1E" stroke-width="5" stroke-miterlimit="10"/>
<path d="M861.3 486.4C826.2 486.4 778 514.7 777.5 549.7" stroke="#1E1E1E" stroke-width="5" stroke-miterlimit="10"/>
<path d="M61.2 349.6C51.5 344.6 43.6 336.6 38.7 326.9C33.6 317 31 305 31 291C31 277.9 33.6 266.2 38.7 256C43.7 245.9 51.7 237.5 61.6 231.9C71.7 226.1 84 223.1 98.5 223.1C111.3 223.1 122.3 225.6 131.5 230.6C140.4 235.4 147.7 242.9 152.3 252C157 261.3 159.4 272.2 159.4 284.8C159.4 294.2 158.4 302 156.4 308.2C154.4 314.5 151.4 319.1 147.3 322.2C143.2 325.3 138 326.9 131.8 326.9C123.2 326.9 116.9 324.4 112.8 319.3C108.7 314.2 106.6 306.6 106.7 296.5L123.6 296.7C123.6 301.5 124.3 305 125.7 307.2C127.1 309.4 129.7 310.7 132.3 310.5C134.5 310.5 136.5 309.5 137.8 307.8C139.3 306 140.4 303.3 141.1 299.5C141.9 294.8 142.2 290 142.1 285.2C142.1 275.3 140.5 266.8 137.2 260C134.1 253.3 129 247.8 122.5 244.3C116 240.7 108 239 98.5 239C88.5 239 79.7 241.1 72.2 245.2C64.7 249.3 58.6 255.6 54.8 263.2C50.7 271 48.7 280.3 48.7 290.9C48.7 301.3 50.6 310.3 54.3 317.8C57.9 325.2 63.7 331.3 70.9 335.2C78.2 339.2 87.1 341.3 97.6 341.3C101.7 341.3 105.8 341 109.9 340.6C113.8 340.2 117.6 339.3 121.2 338L118.4 354.7C115.7 355.8 112.8 356.4 109.9 356.7C105.8 357.2 101.6 357.4 97.5 357.4C83.1 357.5 71.1 354.9 61.2 349.6ZM76.9 320.8C72.8 317.9 69.6 313.9 67.9 309.2C65.9 304.1 64.8 297.9 64.8 290.7C64.7 284.6 65.9 278.6 68.3 273C70.4 268.1 73.7 263.8 78 260.5C82.1 257.5 87.2 255.9 92.3 256C95.5 256 98.6 256.7 101.5 258.2C104.3 259.7 106.7 261.8 108.5 264.3C110.4 267 111.7 270.1 112.3 273.4L109.4 278.9C108.3 276.4 106.6 274.2 104.4 272.6C102.2 271.2 99.7 270.5 97.1 270.6C92.3 270.6 88.6 272.3 86 275.8C83.4 279.3 82.2 284.3 82.2 290.8C82.2 297.1 83.5 302 86 305.6C88.4 309.1 92.5 311.1 96.8 311C99.6 311 102.4 310.5 105 309.4C107.6 308.4 109.9 306.9 111.8 305L112.5 312.4C110.6 316.1 107.7 319.2 104.1 321.4C95.7 326.1 85.3 325.9 76.9 320.8ZM106.5 296.6V268.6L108.7 266.1L111.5 257.9H123.5V296.8L106.5 296.6Z" fill="#1E1E1E"/>
<path d="M181 333.1V202.3H225.2C239.1 202.3 251 205.1 261.1 210.6C270.9 215.9 278.9 223.9 284.3 233.6C289.7 243.4 292.4 254.8 292.4 267.7C292.4 280.6 289.7 292 284.3 301.8C279 311.6 270.9 319.6 261.1 324.8C251.1 330.3 239.1 333 225.2 333L181 333.1ZM205.7 309.7H224.2C233.8 309.7 241.9 308 248.3 304.5C254.5 301.2 259.6 296.1 262.8 289.8C266.1 282.9 267.8 275.3 267.6 267.7C267.6 259.2 266 251.8 262.8 245.5C259.6 239.2 254.5 234.1 248.3 230.9C241.8 227.4 233.8 225.7 224.2 225.7H205.8L205.7 309.7Z" fill="#1E1E1E"/>
<path d="M353.6 336C344.8 336.1 336.1 333.9 328.5 329.6C321.2 325.4 315.2 319.4 311.1 312.1C302.7 296.5 302.7 277.7 311 262C315 254.6 320.9 248.3 328 243.8C335.4 239.2 343.9 236.8 352.6 236.9C362.6 236.9 371 239 377.8 243.3C384.5 247.4 389.9 253.3 393.3 260.4C396.9 267.8 398.7 275.9 398.6 284.1C398.6 286.1 398.5 287.7 398.4 289.1C398.3 290.5 398.2 291.5 398 292.1H318V275.1H375.5C375.3 272.9 374.7 270.7 373.7 268.7C372.5 266.4 371 264.4 369.1 262.7C367 260.8 364.7 259.3 362.1 258.2C359.1 257 355.9 256.4 352.7 256.5C348.2 256.5 343.8 257.7 340 260.2C336.1 262.7 333 266.2 331 270.3C328.7 275.1 327.6 280.4 327.7 285.7C327.7 291.9 328.9 297.2 331.2 301.5C333.3 305.6 336.6 309.1 340.6 311.4C344.6 313.7 349.2 314.8 353.8 314.8C359.5 314.8 364.3 313.5 368.2 311C372 308.6 375.1 305.4 377.3 301.6L396.7 311.1C392.6 318.5 386.7 324.7 379.5 329.3C372.7 333.8 363.9 336 353.6 336Z" fill="#1E1E1E"/>
<path d="M439.3 333.1L399.8 240H427L450.6 300.6H452.1L476 240H502.9L463 333.2L439.3 333.1Z" fill="#1E1E1E"/>
<path d="M515.1 333.1V202.3H598V225.7H539.7V333.1H515.1ZM528.8 280.9V257.5H592.2V280.9H528.8Z" fill="#1E1E1E"/>
<path d="M654.5 336C645.7 336.1 637 333.9 629.4 329.6C622.1 325.4 616.1 319.4 612.1 312.1C603.7 296.5 603.7 277.7 612 262C616 254.6 621.9 248.3 629 243.8C636.4 239.2 644.9 236.8 653.7 236.9C663.7 236.9 672.1 239 678.9 243.3C685.6 247.4 691 253.3 694.4 260.4C698 267.8 699.8 275.9 699.7 284.1C699.7 286.1 699.6 287.7 699.5 289.1C699.4 290.5 699.2 291.5 699.1 292.1H619.1V275.1H676.6C676.4 272.9 675.8 270.7 674.8 268.7C673.6 266.4 672.1 264.4 670.2 262.7C665.7 258.6 659.8 256.4 653.8 256.5C649.3 256.5 644.9 257.7 641.1 260.2C637.2 262.7 634.1 266.2 632.1 270.3C629.8 275.1 628.7 280.4 628.8 285.7C628.8 291.9 630 297.2 632.3 301.5C634.4 305.6 637.7 309.1 641.7 311.4C645.7 313.7 650.3 314.8 654.9 314.8C660.6 314.8 665.4 313.5 669.3 311C673.1 308.6 676.2 305.4 678.4 301.6L697.8 311.1C693.7 318.5 687.8 324.7 680.6 329.3C673.6 333.8 664.9 336 654.5 336Z" fill="#1E1E1E"/>
<path d="M750.3 336C742.3 336 735.4 334.8 729.8 332.5C724.6 330.5 719.9 327.4 716 323.4C712.6 319.8 709.9 315.6 708.1 311L729.5 301.7C731.3 305.8 734.2 309.2 737.9 311.7C741.6 314 745.9 315.1 750.3 315C753.9 315.1 757.5 314.4 760.9 313.1C763.9 312.1 765.8 309.2 765.7 306.1C765.8 303.9 764.9 301.8 763.2 300.3C761.4 298.8 759.3 297.7 757.1 297C754.6 296.2 752.1 295.6 749.6 295.1L738.6 292.7C734.1 291.7 729.7 290 725.8 287.5C721.9 285.1 718.5 281.9 716 278C713.5 274.1 712.2 269.4 712.2 264.8C712.1 259.5 713.8 254.4 717 250.2C720.5 245.9 725 242.5 730.2 240.5C736 238.1 742.3 236.9 748.6 237C754.3 236.9 759.9 237.7 765.4 239.2C770.1 240.5 774.6 242.8 778.4 245.9C782.1 249 785.1 252.9 787.2 257.3L766.7 266.3C765.1 263 762.4 260.3 759.1 258.6C756 257.1 752.6 256.4 749.1 256.4C745 256.4 741.7 257.2 739.2 258.8C736.8 260.4 735.5 262.3 735.5 264.5C735.5 266.8 736.7 268.8 739.2 270.5C741.9 272.3 744.8 273.6 748 274.3L761.7 277.6C771 279.8 777.9 283.3 782.6 288.2C787.2 292.9 789.7 299.2 789.6 305.7C789.7 311.5 787.8 317.1 784.3 321.7C780.6 326.4 775.6 330.1 770 332.3C763.9 334.8 757.1 336.1 750.3 336Z" fill="#1E1E1E"/>
<path d="M797.3 260.4V240H814.5V260.5L797.3 260.4ZM844.4 334.6C834.8 334.6 827.2 331.8 821.7 326.3C816.2 320.8 813.5 313.1 813.5 303.4V213.7H837.4V299C837.4 303.5 838.3 306.8 840.1 309C841.9 311.2 844.9 312.2 849.1 312.2C851 312.2 852.8 311.9 854.6 311.4C856.8 310.6 859 309.5 861 308.2V331.6C858.4 332.6 855.6 333.3 852.9 333.9C850.2 334.4 847.3 334.6 844.4 334.6ZM836.6 260.4V240H860.4V260.5L836.6 260.4Z" fill="#1E1E1E"/>
<path d="M56.2 140.1C48.5 135.7 42.2 129.4 37.8 121.7C28.7 105.6 28.7 86 37.8 69.9C46.8 54.3 63.5 44.7 81.5 44.8C88.4 44.8 95.3 46 101.7 48.6C107.7 50.9 113 54.6 117.3 59.4L109.1 67.7C105.9 63.8 101.8 60.8 97.1 58.9C85.8 54.2 73 54.9 62.4 60.8C56.4 64.1 51.5 68.9 48 74.8C40.8 87.8 40.8 103.6 48 116.6C51.4 122.5 56.4 127.3 62.4 130.6C68.3 133.9 74.9 135.6 81.6 135.6C88.1 135.6 93.6 134.6 98 132.5C102.3 130.5 106.1 127.8 109.4 124.4C111.9 121.7 113.8 118.6 115.1 115.2C116.6 111.4 117.6 107.4 117.9 103.3H81.8V92.5H128.7C129.1 94.8 129.4 97.2 129.4 99.6C129.4 105.6 128.4 111.5 126.5 117.1C124.6 122.7 121.5 127.8 117.4 132C108.4 141.7 96.5 146.6 81.6 146.6C72.7 146.9 64 144.6 56.2 140.1Z" fill="#1E1E1E"/>
<path d="M157.2 141.9C151.8 138.7 147.4 134.1 144.5 128.5C138.4 116.8 138.4 102.9 144.5 91.2C147.4 85.7 151.9 81 157.2 77.8C168.6 71.3 182.6 71.3 194 77.8C199.4 81 203.8 85.6 206.7 91.2C212.8 102.9 212.8 116.8 206.7 128.5C203.8 134 199.4 138.6 194 141.9C182.6 148.5 168.6 148.5 157.2 141.9ZM187.5 133.1C191.2 130.9 194.3 127.7 196.4 123.9C200.9 115.1 200.9 104.7 196.4 95.8C194.3 92 191.3 88.8 187.5 86.6C183.9 84.5 179.8 83.4 175.6 83.4C166.9 83.4 158.8 88.1 154.7 95.8C150.3 104.6 150.3 115 154.7 123.9C161 135.4 175.5 139.7 187 133.4C187.2 133.3 187.4 133.2 187.5 133.1Z" fill="#1E1E1E"/>
<path d="M238.4 141.9C233 138.7 228.6 134.1 225.7 128.5C219.6 116.8 219.6 102.9 225.7 91.2C228.6 85.7 233.1 81.1 238.4 77.8C249.8 71.3 263.8 71.3 275.2 77.8C280.6 81 285 85.6 287.9 91.2C294 102.9 294 116.8 287.9 128.5C285 134 280.6 138.7 275.2 141.9C263.8 148.5 249.8 148.5 238.4 141.9ZM268.7 133.1C272.4 130.9 275.5 127.7 277.6 123.9C282.1 115.1 282.1 104.7 277.6 95.8C275.5 92 272.5 88.8 268.7 86.6C265.1 84.5 261 83.4 256.8 83.4C248.1 83.4 240 88.1 235.9 95.8C231.4 104.6 231.4 115 235.9 123.9C242.2 135.4 256.7 139.7 268.2 133.4C268.4 133.3 268.6 133.2 268.7 133.1Z" fill="#1E1E1E"/>
<path d="M316.3 170.5C311.4 167.2 307.6 162.3 305.6 156.7L316.2 152.2C317.6 156.2 320.3 159.6 323.8 161.9C327.6 164.4 332 165.8 336.5 165.7C343.7 165.7 349.2 163.6 353.2 159.4C357.2 155.2 359.1 149.3 359.1 141.7V134H358.6C356.2 137.7 352.9 140.6 349 142.6C344.7 144.9 339.8 146 334.9 145.9C329.1 146 323.4 144.4 318.5 141.3C313.5 138.1 309.4 133.7 306.7 128.4C300.9 116.5 300.9 102.5 306.7 90.6C309.4 85.3 313.5 80.8 318.5 77.6C323.4 74.5 329.1 72.9 334.9 73C339.8 72.9 344.7 74.1 349 76.3C352.9 78.3 356.2 81.4 358.6 85.1H359.1V75.2H370.1V142C370.1 153.2 367 161.7 360.8 167.5C354.6 173.3 346.5 176.3 336.4 176.3C328.3 176.3 321.6 174.3 316.3 170.5ZM347.9 132.4C351.4 130.2 354.2 127.1 356.1 123.4C358.2 119.1 359.3 114.3 359.2 109.5C359.3 104.7 358.3 99.9 356.1 95.5C354.3 91.8 351.4 88.7 347.9 86.6C340.8 82.5 332.1 82.5 325.1 86.7C321.6 88.9 318.7 92 316.8 95.7C314.7 100 313.6 104.8 313.7 109.6C313.6 114.4 314.6 119.2 316.8 123.6C318.6 127.3 321.5 130.4 325.1 132.6C328.6 134.6 332.5 135.7 336.5 135.7C340.5 135.6 344.5 134.5 347.9 132.4Z" fill="#1E1E1E"/>
<path d="M398.9 47.1V144.7H387.3V47.1H398.9Z" fill="#1E1E1E"/>
<path d="M428.5 142C423.2 138.8 419 134.3 416.2 128.9C413.2 123.1 411.7 116.6 411.8 110C411.7 103.6 413.2 97.3 416 91.5C418.6 86 422.7 81.3 427.9 78C433.2 74.6 439.3 72.9 445.6 73C451.8 72.8 457.9 74.4 463.3 77.6C468.3 80.6 472.3 85 474.8 90.2C477.6 95.9 478.9 102.2 478.8 108.6C478.8 109.8 478.7 111 478.5 112.1H423.5C423.6 116.8 424.9 121.4 427.3 125.5C429.4 129 432.4 131.8 436 133.7C439.4 135.5 443.2 136.4 447 136.4C456.1 136.4 462.9 132.2 467.6 123.9L477.4 128.7C474.6 134.1 470.4 138.7 465.2 142C460 145.3 453.8 147 446.5 147C440.1 146.9 433.9 145.3 428.5 142ZM463.9 93.8C462.3 90.8 460 88.2 457.1 86.4C454 84.4 450.1 83.4 445.4 83.4C440.3 83.3 435.3 85.2 431.5 88.6C427.6 92.3 425 97.1 424 102.4H466.4C466.1 99.5 465.3 96.5 463.9 93.8Z" fill="#1E1E1E"/>
<path d="M534.6 140.1C527 135.8 520.7 129.4 516.4 121.8C507.6 105.6 507.6 86.1 516.4 69.9C520.7 62.3 527 55.9 534.6 51.6C542.4 47.1 551.3 44.8 560.3 44.9C567.2 44.8 574 46.2 580.3 49C586.4 51.7 591.7 55.8 596 60.9L587.7 68.9C584.4 64.8 580.2 61.4 575.5 59.1C570.7 56.9 565.5 55.9 560.3 56C553.5 55.9 546.8 57.7 540.8 61C534.9 64.3 530 69.1 526.7 75C519.7 88.1 519.7 103.8 526.7 116.8C530 122.7 534.9 127.5 540.8 130.8C546.7 134.1 553.5 135.9 560.3 135.8C572.1 135.8 582.1 130.9 590.4 121.2L598.9 129.4C594.4 134.8 588.7 139.2 582.2 142.1C567 149 549.3 148.2 534.6 140.1Z" fill="#1E1E1E"/>
<path d="M623.4 47.1V144.7H611.8V47.1H623.4Z" fill="#1E1E1E"/>
<path d="M653.6 141.9C648.2 138.7 643.8 134.1 640.9 128.5C634.8 116.8 634.8 102.9 640.9 91.2C643.8 85.7 648.3 81.1 653.6 77.8C665 71.3 679 71.3 690.4 77.8C695.8 81 700.2 85.6 703.1 91.2C709.2 102.9 709.2 116.8 703.1 128.5C700.2 134 695.7 138.7 690.4 141.9C679 148.5 664.9 148.5 653.6 141.9ZM683.9 133.1C687.6 130.9 690.7 127.7 692.7 123.9C697.2 115.1 697.2 104.7 692.7 95.8C690.6 92 687.6 88.8 683.9 86.6C680.3 84.5 676.2 83.4 672 83.4C663.3 83.4 655.2 88.1 651 95.8C646.6 104.6 646.6 115 651 123.9C657.3 135.4 671.8 139.7 683.3 133.4C683.5 133.3 683.7 133.2 683.9 133.1Z" fill="#1E1E1E"/>
<path d="M726.5 139.5C722.1 134.6 719.9 127.7 719.9 118.9V75.2H731.5V117.2C731.5 123.8 733 128.7 736 131.8C739 134.9 743 136.4 748.1 136.4C751.8 136.5 755.5 135.4 758.5 133.3C761.5 131.2 764 128.4 765.6 125.1C767.3 121.8 768.1 118.2 768.1 114.5V75.2H779.7V144.7H768.7V134.6H768.2C766 138.3 762.9 141.3 759.1 143.3C755 145.6 750.4 146.8 745.8 146.8C737.3 146.8 730.9 144.4 726.5 139.5Z" fill="#1E1E1E"/>
<path d="M808.8 142C803.7 138.8 799.6 134.2 796.9 128.9C791.1 116.9 791.1 102.9 796.9 91C799.6 85.6 803.7 81 808.8 77.8C813.9 74.6 819.8 73 825.8 73C830.8 72.9 835.6 74.2 840 76.6C843.9 78.7 847.2 81.8 849.5 85.5H850L849.5 75.8V47H861.1V144.6H850.1V134.4H849.6C847.2 138.1 843.9 141.1 840.1 143.2C835.8 145.6 830.9 146.9 825.9 146.8C819.8 146.9 813.9 145.3 808.8 142ZM838.4 133C842 130.7 844.9 127.5 846.8 123.7C851.1 114.9 851.1 104.7 846.8 95.9C844.9 92.1 841.9 88.9 838.4 86.6C831.5 82.2 822.6 82.2 815.7 86.6C812.1 88.9 809.1 92.1 807.2 95.9C802.9 104.6 802.9 114.8 807.2 123.6C809.1 127.4 812.1 130.7 815.7 132.9C822.6 137.4 831.4 137.4 838.4 133Z" fill="#1E1E1E"/>
<path d="M91.2 564.9H397.8C440.9 564.9 475.9 529.9 475.9 486.8C475.9 443.7 440.9 408.7 397.8 408.7H91.2C48.1 408.7 13.1 443.7 13.1 486.8C13.1 529.9 48.1 564.9 91.2 564.9Z" fill="#FCE6A4" stroke="#101010" stroke-width="5" stroke-miterlimit="10"/>
<path d="M105.8 462.8V480.3H126.7V462.8H131.5V503.5H126.7V485H105.8V503.5H101V462.8H105.8Z" fill="#0F0F0F"/>
<path d="M142.4 503.1C140.7 502.3 139.4 501.1 138.5 499.7C137.6 498.2 137.1 496.6 137.1 494.7C137.1 491.6 138.3 489.2 140.6 487.5C142.9 485.8 145.8 484.9 149.3 484.9C151 484.9 152.7 485.1 154.2 485.5C155.7 485.9 156.8 486.3 157.6 486.8V485C157.6 482.8 156.8 481.1 155.3 479.8C153.8 478.5 151.9 477.8 149.6 477.8C148 477.8 146.5 478.1 145.1 478.9C143.7 479.6 142.6 480.6 141.8 481.8L138.2 479.1C139.3 477.4 140.9 476 142.9 475C144.9 474 147.1 473.5 149.5 473.5C153.4 473.5 156.5 474.5 158.8 476.6C161.1 478.7 162.1 481.5 162.1 485V503.3H157.5V499.2H157.3C156.5 500.6 155.2 501.8 153.6 502.8C151.9 503.8 150.1 504.3 148 504.3C146 504.4 144.1 504 142.4 503.1ZM153.1 498.9C154.5 498.1 155.6 497 156.5 495.6C157.3 494.2 157.7 492.7 157.7 491C156.8 490.4 155.7 489.9 154.3 489.5C153 489.1 151.6 488.9 150.1 488.9C147.5 488.9 145.5 489.4 144.1 490.5C142.7 491.6 142.1 493 142.1 494.8C142.1 496.4 142.7 497.7 143.9 498.7C145.1 499.7 146.6 500.2 148.5 500.2C150.2 500.1 151.7 499.7 153.1 498.9Z" fill="#0F0F0F"/>
<path d="M173.6 474.5V478.8H173.8C174.6 477.4 175.9 476.1 177.6 475.1C179.3 474.1 181.2 473.6 183.2 473.6C186.7 473.6 189.3 474.6 191.2 476.6C193.1 478.6 194 481.4 194 484.9V503.5H189.2V485.7C189.2 483 188.6 481.1 187.3 479.9C186 478.7 184.3 478.1 182 478.1C180.4 478.1 179.1 478.5 177.8 479.4C176.6 480.3 175.6 481.4 174.9 482.8C174.2 484.2 173.9 485.7 173.9 487.3V503.6H169V474.6L173.6 474.5Z" fill="#0F0F0F"/>
<path d="M206.5 502.3C204.2 500.9 202.5 499.1 201.2 496.7C199.9 494.4 199.3 491.8 199.3 488.9C199.3 486.1 199.9 483.5 201.2 481.1C202.5 478.8 204.2 476.9 206.5 475.5C208.8 474.1 211.3 473.5 214.2 473.5C217.1 473.5 219.6 474.2 221.9 475.5C224.2 476.9 225.9 478.7 227.2 481.1C228.5 483.4 229.1 486 229.1 488.9C229.1 491.7 228.5 494.3 227.2 496.7C225.9 499 224.2 500.9 221.9 502.3C219.6 503.7 217.1 504.3 214.2 504.3C211.3 504.3 208.8 503.7 206.5 502.3ZM219.1 498.7C220.6 497.8 221.9 496.5 222.8 494.9C223.7 493.2 224.2 491.3 224.2 489.1C224.2 486.9 223.7 484.9 222.8 483.3C221.9 481.6 220.6 480.4 219.1 479.5C217.6 478.6 215.9 478.2 214.1 478.2C212.3 478.2 210.7 478.6 209.1 479.5C207.5 480.4 206.3 481.7 205.4 483.3C204.5 485 204 486.9 204 489.1C204 491.3 204.5 493.3 205.4 494.9C206.3 496.6 207.6 497.8 209.1 498.7C210.7 499.6 212.3 500 214.1 500C215.9 500 217.6 499.6 219.1 498.7Z" fill="#0F0F0F"/>
<path d="M234.5 468.2C233.8 467.5 233.5 466.7 233.5 465.8C233.5 464.8 233.8 464 234.5 463.3C235.2 462.6 236 462.3 236.9 462.3C237.9 462.3 238.7 462.6 239.4 463.3C240.1 464 240.4 464.8 240.4 465.8C240.4 466.7 240.1 467.6 239.4 468.2C238.7 468.8 237.9 469.2 236.9 469.2C236 469.2 235.2 468.8 234.5 468.2ZM239.4 474.5V503.5H234.6V474.5H239.4Z" fill="#0F0F0F"/>
<path d="M273.3 484.1C275.2 482 276.5 480.4 277.2 479.2C277.9 478 278.2 476.6 278.2 474.9C278.2 473.8 277.9 472.7 277.3 471.7C276.7 470.7 275.9 469.9 274.8 469.2C273.7 468.5 272.3 468.3 270.8 468.3C268.8 468.3 267.1 468.9 265.9 470.1C264.7 471.3 263.8 472.6 263.5 474L259.1 472.2C259.4 471 260.1 469.7 261.1 468.4C262.1 467.1 263.4 466 265.1 465.1C266.8 464.2 268.7 463.7 271 463.7C273.4 463.7 275.5 464.2 277.3 465.2C279.1 466.2 280.6 467.6 281.6 469.3C282.6 471 283.1 472.8 283.1 474.8C283.1 478.8 281 482.9 276.9 487.1L265.3 498.8H283.6V503.4H259.1V498.6C266.5 491.2 271.3 486.3 273.3 484.1Z" fill="#0F0F0F"/>
<path d="M296.5 501.7C294.1 499.9 292.3 497.5 291 494.4C289.7 491.3 289.1 487.9 289.1 484.1C289.1 480.3 289.7 476.9 291 473.8C292.3 470.7 294.1 468.3 296.4 466.5C298.7 464.7 301.5 463.8 304.6 463.8C307.7 463.8 310.4 464.7 312.8 466.5C315.1 468.3 317 470.7 318.3 473.8C319.6 476.9 320.2 480.3 320.2 484.1C320.2 487.9 319.6 491.3 318.3 494.4C317 497.5 315.2 499.9 312.8 501.7C310.4 503.5 307.7 504.4 304.7 504.4C301.6 504.4 298.9 503.5 296.5 501.7ZM310.3 497.7C311.9 496.3 313.1 494.4 314 492.1C314.9 489.8 315.3 487 315.3 484.1C315.3 481.1 314.9 478.5 314 476.1C313.1 473.7 311.9 471.8 310.3 470.4C308.7 469 306.8 468.3 304.7 468.3C302.5 468.3 300.7 469 299.1 470.4C297.5 471.8 296.3 473.7 295.4 476.1C294.5 478.5 294.1 481.2 294.1 484.1C294.1 487.1 294.5 489.7 295.4 492.1C296.3 494.5 297.5 496.4 299.1 497.7C300.7 499 302.6 499.8 304.7 499.8C306.8 499.8 308.7 499.1 310.3 497.7Z" fill="#0F0F0F"/>
<path d="M339.3 484.1C341.2 482 342.5 480.4 343.2 479.2C343.9 478 344.2 476.6 344.2 474.9C344.2 473.8 343.9 472.7 343.3 471.7C342.7 470.7 341.9 469.9 340.8 469.2C339.7 468.5 338.3 468.3 336.8 468.3C334.8 468.3 333.1 468.9 331.9 470.1C330.7 471.3 329.8 472.6 329.5 474L325.1 472.2C325.4 471 326.1 469.7 327.1 468.4C328.1 467.1 329.4 466 331.1 465.1C332.8 464.2 334.7 463.7 337 463.7C339.4 463.7 341.5 464.2 343.3 465.2C345.1 466.2 346.6 467.6 347.6 469.3C348.6 471 349.1 472.8 349.1 474.8C349.1 478.8 347 482.9 342.9 487.1L331.3 498.8H349.6V503.4H325V498.6C332.4 491.2 337.2 486.3 339.3 484.1Z" fill="#0F0F0F"/>
<path d="M354.9 495.1V491.5L373.1 464.6H378.3V490.5H383.3V495H378.3V503.3H373.5V495L354.9 495.1ZM373.5 471.7H373.3L360.4 490.6H373.5V471.7Z" fill="#0F0F0F"/>
<path d="M1491.6 74.9H1031.6V534.9H1491.6V74.9Z" fill="#4285F4" stroke="#1E1E1E" stroke-width="5" stroke-linejoin="round"/>
<path d="M1352.1 224H1170.8V535H1352.1V224Z" fill="#F0F0F0" stroke="#1E1E1E" stroke-width="5" stroke-linecap="round" stroke-linejoin="round"/>
<path d="M1377.9 353.3H1145.2V377.1H1377.9V353.3Z" fill="#FFE7A5" stroke="#1E1E1E" stroke-width="5" stroke-linecap="round" stroke-linejoin="round"/>
<path d="M1145.2 353.3V377" stroke="#1E1E1E" stroke-width="5" stroke-linecap="round" stroke-linejoin="round"/>
<path d="M1208.7 353.3V377" stroke="#1E1E1E" stroke-width="5" stroke-linecap="round" stroke-linejoin="round"/>
<path d="M1166.4 353.3V377" stroke="#1E1E1E" stroke-width="5" stroke-linecap="round" stroke-linejoin="round"/>
<path d="M1187.5 353.3V377" stroke="#1E1E1E" stroke-width="5" stroke-linecap="round" stroke-linejoin="round"/>
<path d="M1229.8 353.3V377" stroke="#1E1E1E" stroke-width="5" stroke-linecap="round" stroke-linejoin="round"/>
<path d="M1251 353.3V377" stroke="#1E1E1E" stroke-width="5" stroke-linecap="round" stroke-linejoin="round"/>
<path d="M1272.1 353.3V377" stroke="#1E1E1E" stroke-width="5" stroke-linecap="round" stroke-linejoin="round"/>
<path d="M1293.3 353.3V377" stroke="#1E1E1E" stroke-width="5" stroke-linecap="round" stroke-linejoin="round"/>
<path d="M1314.5 353.3V377" stroke="#1E1E1E" stroke-width="5" stroke-linecap="round" stroke-linejoin="round"/>
<path d="M1335.6 353.3V377" stroke="#1E1E1E" stroke-width="5" stroke-linecap="round" stroke-linejoin="round"/>
<path d="M1356.8 353.3V377" stroke="#1E1E1E" stroke-width="5" stroke-linecap="round" stroke-linejoin="round"/>
<path d="M1377.9 353.3V377" stroke="#1E1E1E" stroke-width="5" stroke-linecap="round" stroke-linejoin="round"/>
<path d="M1385.7 377.5H1137.5V392.5H1385.7V377.5Z" fill="#FF7DAF" stroke="#1E1E1E" stroke-width="5" stroke-linecap="round" stroke-linejoin="round"/>
<path d="M1382.4 169C1382.4 169 1381.2 191.7 1350.6 191.7H1172.6C1141.9 191.7 1140.8 169 1140.8 169C1172.6 192.2 1197.4 136.7 1197.4 136.7H1326C1325.9 136.7 1350.7 192.2 1382.4 169Z" fill="#EA4335" stroke="#1E1E1E" stroke-width="5" stroke-linecap="round" stroke-linejoin="round"/>
<path d="M1220.3 294H1231.2C1232.3 300.2 1235.3 305.9 1239.8 310.4L1240.4 310.9C1241.5 312 1242.7 312.9 1244 313.8C1247.7 316.4 1251.8 318.1 1256.3 318.9C1258.1 319.2 1259.9 319.4 1261.7 319.4C1263.5 319.4 1265.3 319.2 1267.1 318.9V353.2H1256.3V329.8C1254.6 329.6 1252.9 329.3 1251.3 328.8L1249.6 328.3C1248.7 328 1247.9 327.8 1247 327.4C1246.6 327.2 1246.2 327.1 1245.7 326.9C1244.8 326.5 1243.9 326.1 1243.1 325.7L1242 325.1C1241.2 324.7 1240.4 324.2 1239.7 323.7C1238.5 323 1237.4 322.2 1236.3 321.3L1204.6 353H1197V345.4L1228.7 313.7C1227 311.5 1225.6 309.2 1224.4 306.7C1223.4 304.7 1222.6 302.6 1221.9 300.4C1221.7 299.9 1221.6 299.3 1221.4 298.8C1220.9 297.4 1220.6 295.7 1220.3 294Z" fill="#4285F4" stroke="#1E1E1E" stroke-width="5" stroke-linecap="round" stroke-linejoin="round"/>
<path d="M1204.5 224L1236.2 255.7C1237.5 254.7 1238.9 253.8 1240.3 252.9C1240.8 252.6 1241.3 252.3 1241.7 252.1C1242.1 251.9 1242.9 251.5 1243.5 251.2C1244.1 250.9 1244.7 250.6 1245.3 250.4L1245.9 250.2L1246.9 249.8C1247.3 249.6 1247.7 249.5 1248.2 249.3C1248.7 249.1 1249.2 249 1249.7 248.8C1251.8 248.2 1254 247.7 1256.2 247.4V258.3C1251.8 259.1 1247.6 260.8 1243.9 263.4C1242.4 264.4 1241 265.6 1239.8 266.9C1238.5 268.2 1237.4 269.6 1236.3 271.1C1233.7 274.7 1232 278.9 1231.2 283.3C1230.9 285.1 1230.7 286.9 1230.7 288.7C1230.7 290.5 1230.9 292.3 1231.2 294.1H1196.9V283.3H1220.3C1220.5 281.6 1220.9 279.9 1221.3 278.3C1221.5 277.7 1221.6 277.2 1221.8 276.7C1222.5 274.5 1223.3 272.4 1224.3 270.4L1224.9 269.2C1225.3 268.4 1225.8 267.6 1226.3 266.8C1226.6 266.4 1226.8 266 1227.1 265.6C1227.4 265.2 1227.6 264.8 1227.9 264.5C1228.2 264.2 1228.4 263.8 1228.7 263.4L1197 231.7V224H1204.5Z" fill="#EA4335" stroke="#1E1E1E" stroke-width="5" stroke-linecap="round" stroke-linejoin="round"/>
<path d="M1291.9 283.2H1326.2V294H1302.8C1302.6 295.7 1302.2 297.4 1301.8 299C1301.7 299.5 1301.5 300.1 1301.3 300.6C1300.9 301.9 1300.5 303.2 1299.9 304.4C1299.5 305.3 1299.1 306.2 1298.7 307L1298.1 308.1C1297.8 308.6 1297.5 309.1 1297.3 309.6C1296.4 311.1 1295.5 312.5 1294.4 313.8L1326.1 345.5V353.1H1318.5L1286.8 321.4L1285.7 322.2C1285.3 322.5 1284.9 322.7 1284.6 323L1283.4 323.8L1282.2 324.5C1281.5 324.9 1280.9 325.3 1280.2 325.6L1279.5 326C1278.8 326.3 1278.1 326.6 1277.4 326.9C1277 327.1 1276.6 327.2 1276.1 327.4L1275.7 327.5C1275 327.7 1274.4 328 1273.8 328.2L1273.5 328.3L1271.9 328.8C1270.3 329.2 1268.6 329.5 1266.9 329.8V319C1273.1 317.9 1278.8 314.9 1283.3 310.4C1289.1 304.6 1292.3 296.8 1292.3 288.6C1292.4 286.8 1292.2 285 1291.9 283.2Z" fill="#F9AB00" stroke="#1E1E1E" stroke-width="5" stroke-linecap="round" stroke-linejoin="round"/>
<path d="M1256.2 224H1267V247.4L1268.4 247.6C1269.8 247.8 1271.1 248.1 1272.4 248.5L1273.4 248.8C1273.9 249 1274.5 249.1 1275 249.3C1275.5 249.5 1275.9 249.6 1276.3 249.8L1277.3 250.2C1278.2 250.6 1279.2 251 1280.1 251.5L1281.3 252.1L1281.5 252.2C1282 252.5 1282.5 252.7 1282.9 253C1284.3 253.8 1285.7 254.8 1287 255.8L1318.7 224.1H1326.3V231.7L1294.6 263.4C1295.6 264.7 1296.5 266.1 1297.4 267.5C1297.7 268 1298 268.5 1298.2 268.9L1298.3 269.1C1298.5 269.5 1298.7 269.9 1298.9 270.3C1299.3 271.1 1299.7 272 1300.1 272.9C1300.3 273.3 1300.4 273.7 1300.6 274.1C1300.8 274.5 1300.9 275 1301.1 275.4C1301.3 275.8 1301.3 276.1 1301.4 276.4C1301.4 276.5 1301.5 276.7 1301.5 276.8C1302.1 278.9 1302.6 281.1 1302.9 283.3H1292C1291.2 278.9 1289.5 274.7 1286.9 271C1284.8 268 1282.3 265.5 1279.3 263.4C1275.6 260.8 1271.5 259.1 1267 258.3C1265.2 258 1263.4 257.8 1261.6 257.8C1259.8 257.8 1258 258 1256.2 258.3V224Z" fill="#34A853" stroke="#1E1E1E" stroke-width="5" stroke-linecap="round" stroke-linejoin="round"/>
<path d="M1196.9 224H1170.8V353.3H1196.9V224Z" fill="#FFD427" stroke="#1E1E1E" stroke-width="5" stroke-linecap="round" stroke-linejoin="round"/>
<path d="M1352.3 224H1326.2V353.3H1352.3V224Z" fill="#FFD427" stroke="#1E1E1E" stroke-width="5" stroke-linecap="round" stroke-linejoin="round"/>
<path d="M1196.9 392.4H1145.2V534.7H1196.9V392.4Z" fill="#F8D8D8" stroke="#1E1E1E" stroke-width="5" stroke-linecap="round" stroke-linejoin="round"/>
<path d="M1377.9 392.4H1326.2V534.7H1377.9V392.4Z" fill="#F8D8D8" stroke="#1E1E1E" stroke-width="5" stroke-linecap="round" stroke-linejoin="round"/>
<path d="M1406.8 195C1406.8 195 1405.4 224 1368.5 224H1154.6C1117.8 224 1116.3 195.1 1116.3 195.1C1154.5 218.3 1171.9 191.8 1171.9 191.8H1351.2C1351.2 191.8 1368.6 218.2 1406.8 195Z" fill="#F9AB00" stroke="#1E1E1E" stroke-width="5" stroke-linecap="round" stroke-linejoin="round"/>
<path d="M1080.8 21.9C1080.8 33 1073.4 42 1064.4 42C1055.4 42 1048 33 1048 21.9" stroke="#1E1E1E" stroke-width="5" stroke-linejoin="round"/>
<path d="M998.7 22.7V15.6H1031.6V22.9" stroke="#1E1E1E" stroke-width="5" stroke-linejoin="round"/>
<path d="M1097.3 22.7V15.6H1130.1V22.9" stroke="#1E1E1E" stroke-width="5" stroke-linejoin="round"/>
<path d="M1179.4 21.9C1179.4 33 1172 42 1163 42C1154 42 1146.6 33 1146.6 21.9" stroke="#1E1E1E" stroke-width="5" stroke-linejoin="round"/>
<path d="M1195.8 22.7V15.6H1228.7V22.9" stroke="#1E1E1E" stroke-width="5" stroke-linejoin="round"/>
<path d="M1278 21.9C1278 33 1270.7 42 1261.6 42C1252.5 42 1245.2 33 1245.2 21.9" stroke="#1E1E1E" stroke-width="5" stroke-linejoin="round"/>
<path d="M1294.4 22.7V15.6H1327.3V22.9" stroke="#1E1E1E" stroke-width="5" stroke-linejoin="round"/>
<path d="M1376.6 21.9C1376.6 33 1369.3 42 1360.2 42C1351.1 42 1343.8 33 1343.8 21.9" stroke="#1E1E1E" stroke-width="5" stroke-linejoin="round"/>
<path d="M1393 22.7V15.6H1425.9V22.9" stroke="#1E1E1E" stroke-width="5" stroke-linejoin="round"/>
<path d="M1475.2 21.9C1475.2 33 1467.9 42 1458.8 42C1449.7 42 1442.4 33 1442.4 21.9" stroke="#1E1E1E" stroke-width="5" stroke-linejoin="round"/>
<path d="M1491.6 22.7V15.6H1524.4V22.9" stroke="#1E1E1E" stroke-width="5" stroke-linejoin="round"/>
<path d="M978.6 485.6C989.7 485.6 998.7 492.9 998.7 502C998.7 511.1 989.7 518.4 978.6 518.4" stroke="#1E1E1E" stroke-width="5" stroke-linejoin="round"/>
<path d="M979.4 567.8H972.3V534.9H979.6" stroke="#1E1E1E" stroke-width="5" stroke-linejoin="round"/>
<path d="M979.4 469.2H972.3V436.3H979.6" stroke="#1E1E1E" stroke-width="5" stroke-linejoin="round"/>
<path d="M978.6 387.1C989.7 387.1 998.7 394.4 998.7 403.5C998.7 412.6 989.7 419.9 978.6 419.9" stroke="#1E1E1E" stroke-width="5" stroke-linejoin="round"/>
<path d="M979.4 370.6H972.3V337.8H979.6" stroke="#1E1E1E" stroke-width="5" stroke-linejoin="round"/>
<path d="M978.6 288.5C989.7 288.5 998.7 295.9 998.7 304.9C998.7 313.9 989.7 321.3 978.6 321.3" stroke="#1E1E1E" stroke-width="5" stroke-linejoin="round"/>
<path d="M979.4 272H972.3V239.2H979.6" stroke="#1E1E1E" stroke-width="5" stroke-linejoin="round"/>
<path d="M978.6 189.9C989.7 189.9 998.7 197.3 998.7 206.3C998.7 215.3 989.7 222.7 978.6 222.7" stroke="#1E1E1E" stroke-width="5" stroke-linejoin="round"/>
<path d="M979.4 173.5H972.3V140.6H979.6" stroke="#1E1E1E" stroke-width="5" stroke-linejoin="round"/>
<path d="M978.6 91.3C989.7 91.3 998.7 98.7 998.7 107.7C998.7 116.7 989.7 124.1 978.6 124.1" stroke="#1E1E1E" stroke-width="5" stroke-linejoin="round"/>
<path d="M979.4 74.9H972.3V42H979.6" stroke="#1E1E1E" stroke-width="5" stroke-linejoin="round"/>
<path d="M1544.6 124.2C1533.5 124.2 1524.5 116.8 1524.5 107.8C1524.5 98.8 1533.5 91.4 1544.6 91.4" stroke="#1E1E1E" stroke-width="5" stroke-linejoin="round"/>
<path d="M1543.8 42H1550.9V74.9H1543.5" stroke="#1E1E1E" stroke-width="5" stroke-linejoin="round"/>
<path d="M1543.8 140.6H1550.9V173.5H1543.5" stroke="#1E1E1E" stroke-width="5" stroke-linejoin="round"/>
<path d="M1544.6 222.8C1533.5 222.8 1524.5 215.4 1524.5 206.4C1524.5 197.4 1533.5 190 1544.6 190" stroke="#1E1E1E" stroke-width="5" stroke-linejoin="round"/>
<path d="M1543.8 239.2H1550.9V272H1543.5" stroke="#1E1E1E" stroke-width="5" stroke-linejoin="round"/>
<path d="M1544.6 321.3C1533.5 321.3 1524.5 313.9 1524.5 304.9C1524.5 295.9 1533.5 288.5 1544.6 288.5" stroke="#1E1E1E" stroke-width="5" stroke-linejoin="round"/>
<path d="M1543.8 337.8H1550.9V370.6H1543.5" stroke="#1E1E1E" stroke-width="5" stroke-linejoin="round"/>
<path d="M1544.6 419.9C1533.5 419.9 1524.5 412.5 1524.5 403.5C1524.5 394.5 1533.5 387.1 1544.6 387.1" stroke="#1E1E1E" stroke-width="5" stroke-linejoin="round"/>
<path d="M1543.8 436.3H1550.9V469.2H1543.5" stroke="#1E1E1E" stroke-width="5" stroke-linejoin="round"/>
<path d="M1544.6 518.5C1533.5 518.5 1524.5 511.1 1524.5 502.1C1524.5 493.1 1533.5 485.7 1544.6 485.7" stroke="#1E1E1E" stroke-width="5" stroke-linejoin="round"/>
<path d="M1543.8 534.9H1550.9V567.8H1543.5" stroke="#1E1E1E" stroke-width="5" stroke-linejoin="round"/>
<path d="M1442.3 587.9C1442.3 576.8 1449.7 567.8 1458.7 567.8C1467.7 567.8 1475.1 576.8 1475.1 587.9" stroke="#1E1E1E" stroke-width="5" stroke-linejoin="round"/>
<path d="M1524.4 587.1V594.2H1491.6V586.9" stroke="#1E1E1E" stroke-width="5" stroke-linejoin="round"/>
<path d="M1425.9 587.1V594.2H1393V586.9" stroke="#1E1E1E" stroke-width="5" stroke-linejoin="round"/>
<path d="M1343.7 587.9C1343.7 576.8 1351.1 567.8 1360.1 567.8C1369.1 567.8 1376.5 576.8 1376.5 587.9" stroke="#1E1E1E" stroke-width="5" stroke-linejoin="round"/>
<path d="M1327.3 587.1V594.2H1294.4V586.9" stroke="#1E1E1E" stroke-width="5" stroke-linejoin="round"/>
<path d="M1245.1 587.9C1245.1 576.8 1252.5 567.8 1261.5 567.8C1270.5 567.8 1277.9 576.8 1277.9 587.9" stroke="#1E1E1E" stroke-width="5" stroke-linejoin="round"/>
<path d="M1228.7 587.1V594.2H1195.8V586.9" stroke="#1E1E1E" stroke-width="5" stroke-linejoin="round"/>
<path d="M1146.6 587.9C1146.6 576.8 1153.9 567.8 1163 567.8C1172.1 567.8 1179.4 576.8 1179.4 587.9" stroke="#1E1E1E" stroke-width="5" stroke-linejoin="round"/>
<path d="M1130.1 587.1V594.2H1097.3V586.9" stroke="#1E1E1E" stroke-width="5" stroke-linejoin="round"/>
<path d="M1048 587.9C1048 576.8 1055.3 567.8 1064.4 567.8C1073.5 567.8 1080.8 576.8 1080.8 587.9" stroke="#1E1E1E" stroke-width="5" stroke-linejoin="round"/>
<path d="M1031.6 587.1V594.2H998.7V586.9" stroke="#1E1E1E" stroke-width="5" stroke-linejoin="round"/>
<path d="M1534.4 658.2C1540.9 659.4 1550.3 663.5 1550.2 677C1550 697.5 1550.7 712.8 1550.7 712.8C1550.7 712.8 1551.5 730.2 1566.9 731.3" stroke="#1E1E1E" stroke-width="5" stroke-linejoin="round"/>
<path d="M1534.4 804.4C1540.9 803.2 1550.3 799.1 1550.2 785.6C1550 765.1 1550.7 749.8 1550.7 749.8C1550.7 749.8 1551.5 732.4 1566.9 731.3" stroke="#1E1E1E" stroke-width="5" stroke-linejoin="round"/>
<path d="M46.6 804.4C40.1 803.2 30.7 799.1 30.8 785.6C31 765.1 30.3 749.8 30.3 749.8C30.3 749.8 29.4 732.4 14.1 731.3" stroke="#1E1E1E" stroke-width="5" stroke-linejoin="round"/>
<path d="M46.6 658.2C40.1 659.4 30.7 663.5 30.8 677C31 697.5 30.3 712.8 30.3 712.8C30.3 712.8 29.4 730.2 14.1 731.3" stroke="#1E1E1E" stroke-width="5" stroke-linejoin="round"/>
<path d="M993.1 684H1470.9C1482.9 684 1492.6 693.7 1492.6 705.7V759.9C1492.6 771.9 1482.9 781.6 1470.9 781.6H993.1C981.1 781.6 971.4 771.9 971.4 759.9V705.7C971.5 693.7 981.2 684 993.1 684Z" fill="#CEE5C1" stroke="#1E1E1E" stroke-width="5" stroke-miterlimit="10"/>
<path d="M1052.5 714.5L1067.6 738.5H1067.8L1067.6 732.7V714.5H1071.2V744.7H1067.5L1051.7 719.6H1051.5L1051.7 725.4V744.7H1048.1V714.5H1052.5Z" fill="#1E1E1E"/>
<path d="M1081.1 743.8C1079.4 742.8 1078.1 741.4 1077.2 739.7C1076.3 738 1075.8 736 1075.8 733.9C1075.8 731.8 1076.3 729.9 1077.2 728.1C1078.1 726.4 1079.5 725 1081.1 724C1082.8 723 1084.7 722.5 1086.8 722.5C1088.9 722.5 1090.8 723 1092.5 724C1094.2 725 1095.5 726.4 1096.4 728.1C1097.3 729.8 1097.8 731.8 1097.8 733.9C1097.8 736 1097.3 737.9 1096.4 739.7C1095.5 741.4 1094.1 742.8 1092.5 743.8C1090.8 744.8 1088.9 745.3 1086.8 745.3C1084.6 745.3 1082.7 744.8 1081.1 743.8ZM1090.4 741.1C1091.5 740.4 1092.4 739.5 1093.1 738.3C1093.8 737.1 1094.1 735.6 1094.1 734C1094.1 732.4 1093.8 730.9 1093.1 729.7C1092.4 728.5 1091.5 727.5 1090.4 726.9C1089.3 726.2 1088 725.9 1086.7 725.9C1085.4 725.9 1084.1 726.2 1083 726.9C1081.8 727.6 1080.9 728.5 1080.2 729.7C1079.5 730.9 1079.2 732.4 1079.2 734C1079.2 735.6 1079.5 737.1 1080.2 738.3C1080.9 739.5 1081.8 740.5 1083 741.1C1084.2 741.8 1085.4 742.1 1086.7 742.1C1088.1 742.1 1089.3 741.7 1090.4 741.1Z" fill="#1E1E1E"/>
<path d="M1102.8 723.1L1109.5 740.4H1109.6L1116.3 723.1H1120.1L1111.4 744.6H1107.8L1099.1 723.1H1102.8Z" fill="#1E1E1E"/>
<path d="M1126.4 743.8C1124.8 742.8 1123.5 741.5 1122.6 739.7C1121.7 738 1121.2 736 1121.2 733.9C1121.2 731.9 1121.6 729.9 1122.5 728.2C1123.4 726.4 1124.6 725 1126.2 724C1127.8 723 1129.6 722.4 1131.7 722.4C1133.8 722.4 1135.6 722.9 1137.2 723.8C1138.7 724.7 1139.9 726 1140.8 727.7C1141.6 729.4 1142 731.3 1142 733.4C1142 733.7 1142 734.1 1141.9 734.5H1124.9C1125 736.1 1125.4 737.5 1126.1 738.6C1126.8 739.7 1127.7 740.6 1128.8 741.1C1129.9 741.7 1131 741.9 1132.2 741.9C1135 741.9 1137.1 740.6 1138.6 738L1141.6 739.5C1140.7 741.2 1139.5 742.6 1137.9 743.6C1136.3 744.6 1134.4 745.1 1132.1 745.1C1129.9 745.3 1128 744.8 1126.4 743.8ZM1137.3 728.9C1136.8 728 1136.1 727.2 1135.2 726.6C1134.2 726 1133 725.7 1131.6 725.7C1129.9 725.7 1128.5 726.2 1127.3 727.3C1126.1 728.4 1125.3 729.8 1125 731.6H1138.1C1138 730.7 1137.8 729.8 1137.3 728.9Z" fill="#1E1E1E"/>
<path d="M1149.5 723.1V726.3H1149.7C1150.3 725.2 1151.2 724.3 1152.5 723.6C1153.7 722.9 1155 722.5 1156.4 722.5C1158 722.5 1159.3 722.9 1160.5 723.6C1161.7 724.4 1162.5 725.4 1163 726.6C1163.8 725.3 1164.8 724.3 1166 723.6C1167.2 722.9 1168.7 722.5 1170.4 722.5C1172.9 722.5 1174.7 723.2 1176 724.7C1177.3 726.2 1177.9 728.2 1177.9 730.8V744.6H1174.4V731.4C1174.4 729.4 1174 728 1173.2 727.1C1172.4 726.2 1171.2 725.8 1169.6 725.8C1168.5 725.8 1167.6 726.1 1166.7 726.7C1165.8 727.3 1165.2 728.1 1164.7 729.2C1164.2 730.2 1164 731.4 1164 732.6V744.7H1160.4V731.5C1160.4 729.5 1160 728 1159.2 727.1C1158.4 726.2 1157.2 725.8 1155.6 725.8C1154.5 725.8 1153.6 726.1 1152.7 726.8C1151.8 727.4 1151.2 728.3 1150.7 729.3C1150.2 730.4 1150 731.5 1150 732.7V744.7H1146.4V723.2L1149.5 723.1Z" fill="#1E1E1E"/>
<path d="M1189.5 744.1C1188.2 743.4 1187.2 742.5 1186.6 741.4H1186.4V744.6H1183V714.4H1186.6V723.3L1186.4 726.3H1186.6C1187.2 725.2 1188.2 724.3 1189.5 723.5C1190.8 722.7 1192.3 722.4 1193.9 722.4C1195.8 722.4 1197.6 722.9 1199.1 723.9C1200.7 724.9 1201.9 726.2 1202.8 728C1203.7 729.7 1204.2 731.7 1204.2 733.9C1204.2 736.1 1203.8 738.1 1202.9 739.8C1202 741.5 1200.8 742.9 1199.2 743.9C1197.6 744.9 1195.9 745.4 1194 745.4C1192.3 745.2 1190.8 744.8 1189.5 744.1ZM1197 740.9C1198.1 740.2 1199 739.3 1199.6 738C1200.2 736.8 1200.6 735.3 1200.6 733.7C1200.6 732.1 1200.3 730.6 1199.6 729.4C1198.9 728.2 1198.1 727.2 1197 726.5C1195.9 725.8 1194.7 725.5 1193.5 725.5C1192.2 725.5 1191.1 725.8 1190 726.5C1188.9 727.2 1188 728.1 1187.4 729.4C1186.7 730.6 1186.4 732.1 1186.4 733.7C1186.4 735.3 1186.7 736.8 1187.4 738C1188.1 739.2 1188.9 740.2 1190 740.9C1191.1 741.6 1192.3 741.9 1193.5 741.9C1194.7 742 1195.9 741.6 1197 740.9Z" fill="#1E1E1E"/>
<path d="M1212.4 743.7C1210.8 742.7 1209.5 741.4 1208.6 739.6C1207.7 737.9 1207.2 735.9 1207.2 733.8C1207.2 731.8 1207.6 729.8 1208.5 728.1C1209.4 726.3 1210.6 724.9 1212.2 723.9C1213.8 722.9 1215.6 722.3 1217.7 722.3C1219.8 722.3 1221.6 722.8 1223.2 723.7C1224.7 724.6 1225.9 725.9 1226.8 727.6C1227.6 729.3 1228 731.2 1228 733.3C1228 733.6 1228 734 1227.9 734.4H1210.9C1211 736 1211.4 737.4 1212.1 738.5C1212.8 739.6 1213.7 740.5 1214.8 741C1215.9 741.6 1217 741.8 1218.2 741.8C1221 741.8 1223.1 740.5 1224.6 737.9L1227.6 739.4C1226.7 741.1 1225.5 742.5 1223.9 743.5C1222.3 744.5 1220.4 745 1218.1 745C1215.8 745.2 1214 744.7 1212.4 743.7ZM1223.3 728.8C1222.8 727.9 1222.1 727.1 1221.2 726.5C1220.2 725.9 1219 725.6 1217.6 725.6C1215.9 725.6 1214.5 726.1 1213.3 727.2C1212.1 728.3 1211.4 729.7 1211 731.5H1224.1C1224 730.6 1223.8 729.7 1223.3 728.8Z" fill="#1E1E1E"/>
<path d="M1235.4 723V726.5H1235.6C1236 725.3 1236.8 724.3 1238 723.6C1239.2 722.8 1240.5 722.4 1241.8 722.4C1242.8 722.4 1243.6 722.5 1244.3 722.8V726.7C1243.4 726.3 1242.4 726 1241.3 726C1240.3 726 1239.3 726.3 1238.4 726.9C1237.5 727.5 1236.8 728.3 1236.3 729.3C1235.8 730.3 1235.5 731.4 1235.5 732.5V744.5H1231.9V723H1235.4Z" fill="#1E1E1E"/>
<path d="M1262.3 744.4C1261 743.9 1259.9 743.1 1258.9 742C1257.9 740.9 1257.1 739.6 1256.7 737.9L1259.9 736.5C1260.4 738.1 1261.1 739.4 1262.2 740.3C1263.3 741.2 1264.6 741.6 1266 741.6C1267.1 741.6 1268.1 741.4 1269 740.9C1269.9 740.4 1270.7 739.8 1271.2 739C1271.7 738.2 1272 737.3 1272 736.2C1272 735.2 1271.7 734.3 1271.2 733.5C1270.7 732.7 1269.9 732 1269 731.6C1268.1 731.1 1267 730.9 1265.9 730.9H1263.4V727.6H1265.6C1267.1 727.6 1268.4 727.2 1269.5 726.3C1270.5 725.4 1271.1 724.2 1271.1 722.8C1271.1 721.5 1270.6 720.4 1269.6 719.6C1268.6 718.8 1267.3 718.4 1265.8 718.4C1264.3 718.4 1263.2 718.8 1262.4 719.5C1261.6 720.3 1261 721.2 1260.6 722.3L1257.3 720.9C1257.8 719.4 1258.8 718 1260.2 716.8C1261.6 715.6 1263.5 715 1265.8 715C1267.5 715 1269 715.3 1270.4 716C1271.7 716.7 1272.8 717.6 1273.6 718.8C1274.4 720 1274.8 721.4 1274.8 722.8C1274.8 724.2 1274.4 725.6 1273.7 726.6C1272.9 727.6 1272 728.5 1270.9 729V729.2C1272.3 729.8 1273.5 730.7 1274.4 731.9C1275.3 733.1 1275.8 734.6 1275.8 736.2C1275.8 737.9 1275.4 739.4 1274.5 740.8C1273.6 742.1 1272.5 743.2 1271 744C1269.5 744.8 1267.9 745.1 1266.1 745.1C1264.8 745.1 1263.5 744.9 1262.3 744.4Z" fill="#1E1E1E"/>
<path d="M1285 743.1C1283.2 741.8 1281.9 740 1280.9 737.7C1279.9 735.4 1279.5 732.9 1279.5 730.1C1279.5 727.3 1280 724.7 1280.9 722.5C1281.8 720.3 1283.2 718.4 1284.9 717.1C1286.6 715.8 1288.7 715.1 1291 715.1C1293.3 715.1 1295.3 715.8 1297.1 717.1C1298.8 718.4 1300.2 720.2 1301.1 722.5C1302 724.8 1302.5 727.3 1302.5 730.1C1302.5 732.9 1302 735.5 1301.1 737.7C1300.1 740 1298.8 741.8 1297 743.1C1295.2 744.4 1293.2 745.1 1291 745.1C1288.8 745.1 1286.8 744.4 1285 743.1ZM1295.2 740.1C1296.4 739.1 1297.3 737.7 1297.9 735.9C1298.5 734.1 1298.9 732.1 1298.9 730C1298.9 727.8 1298.6 725.8 1297.9 724.1C1297.3 722.3 1296.3 720.9 1295.2 719.9C1294 718.9 1292.6 718.4 1291 718.4C1289.4 718.4 1288 718.9 1286.8 719.9C1285.6 720.9 1284.7 722.3 1284.1 724.1C1283.5 725.9 1283.2 727.9 1283.2 730C1283.2 732.2 1283.5 734.2 1284.2 735.9C1284.8 737.7 1285.7 739.1 1286.9 740.1C1288.1 741.1 1289.5 741.6 1291.1 741.6C1292.7 741.6 1294.1 741.2 1295.2 740.1Z" fill="#1E1E1E"/>
<path d="M1309.1 744.4C1308.6 744.3 1308.1 744 1307.7 743.6C1307.3 743.2 1307.1 742.6 1307.1 742C1307.1 741.3 1307.4 740.6 1307.9 740.1C1308.4 739.6 1309.1 739.3 1309.8 739.3C1310.6 739.3 1311.2 739.6 1311.7 740.1C1312.2 740.6 1312.5 741.2 1312.5 742C1312.5 742.5 1312.4 742.9 1312.2 743.4C1312 743.8 1311.7 744.3 1311.3 744.9L1308.5 749.1L1306.8 748L1309.1 744.4Z" fill="#1E1E1E"/>
<path d="M1337.1 730C1338.5 728.5 1339.5 727.2 1340 726.4C1340.5 725.5 1340.8 724.5 1340.8 723.2C1340.8 722.4 1340.6 721.6 1340.2 720.8C1339.8 720 1339.2 719.4 1338.3 719C1337.5 718.5 1336.5 718.3 1335.3 718.3C1333.8 718.3 1332.6 718.7 1331.6 719.6C1330.7 720.5 1330.1 721.4 1329.8 722.5L1326.6 721.2C1326.9 720.3 1327.3 719.4 1328.1 718.4C1328.8 717.4 1329.8 716.6 1331 715.9C1332.2 715.2 1333.7 714.9 1335.4 714.9C1337.2 714.9 1338.7 715.3 1340.1 716C1341.5 716.7 1342.5 717.8 1343.3 719C1344.1 720.3 1344.4 721.6 1344.4 723.1C1344.4 726 1342.9 729.1 1339.8 732.2L1331.2 740.9H1344.8V744.3H1326.6V740.7C1332 735.3 1335.5 731.7 1337.1 730Z" fill="#1E1E1E"/>
<path d="M1354.3 743C1352.5 741.7 1351.2 739.9 1350.3 737.6C1349.4 735.3 1348.9 732.8 1348.9 730C1348.9 727.2 1349.4 724.6 1350.3 722.4C1351.2 720.1 1352.6 718.3 1354.3 717C1356 715.7 1358.1 715 1360.4 715C1362.7 715 1364.7 715.7 1366.5 717C1368.2 718.3 1369.6 720.1 1370.6 722.4C1371.6 724.7 1372 727.2 1372 730C1372 732.8 1371.5 735.4 1370.6 737.6C1369.6 739.9 1368.3 741.7 1366.5 743C1364.7 744.3 1362.7 745 1360.5 745C1358 745 1356 744.4 1354.3 743ZM1364.5 740.1C1365.7 739.1 1366.6 737.7 1367.2 735.9C1367.8 734.1 1368.2 732.1 1368.2 730C1368.2 727.8 1367.9 725.8 1367.2 724.1C1366.6 722.3 1365.6 720.9 1364.5 719.9C1363.3 718.9 1361.9 718.4 1360.3 718.4C1358.7 718.4 1357.3 718.9 1356.1 719.9C1354.9 720.9 1354 722.3 1353.4 724.1C1352.8 725.9 1352.5 727.9 1352.5 730C1352.5 732.2 1352.8 734.2 1353.5 735.9C1354.1 737.7 1355 739.1 1356.2 740.1C1357.4 741.1 1358.8 741.6 1360.4 741.6C1361.9 741.6 1363.3 741.1 1364.5 740.1Z" fill="#1E1E1E"/>
<path d="M1386 729.9C1387.4 728.4 1388.4 727.1 1388.9 726.3C1389.4 725.5 1389.7 724.4 1389.7 723.1C1389.7 722.3 1389.5 721.5 1389.1 720.7C1388.7 719.9 1388.1 719.3 1387.2 718.9C1386.4 718.4 1385.4 718.2 1384.2 718.2C1382.7 718.2 1381.5 718.6 1380.5 719.5C1379.5 720.4 1379 721.3 1378.7 722.4L1375.5 721.1C1375.8 720.2 1376.2 719.3 1377 718.3C1377.7 717.3 1378.7 716.5 1379.9 715.8C1381.1 715.1 1382.6 714.8 1384.3 714.8C1386.1 714.8 1387.6 715.2 1389 715.9C1390.4 716.7 1391.4 717.7 1392.2 718.9C1393 720.2 1393.3 721.5 1393.3 723C1393.3 725.9 1391.8 729 1388.7 732.1L1380.1 740.8H1393.7V744.2H1375.5V740.6C1380.9 735.2 1384.4 731.6 1386 729.9Z" fill="#1E1E1E"/>
<path d="M1397.5 738.1V735.4L1411 715.5H1414.9V734.8H1418.6V738.2H1414.9V744.4H1411.4V738.2L1397.5 738.1ZM1411.3 720.7H1411.1L1401.6 734.7H1411.3V720.7Z" fill="#1E1E1E"/>
<path d="M894.7 764.2L828.8 698.4" stroke="#1E1E1E" stroke-width="5" stroke-linejoin="round"/>
<path d="M828.8 764.2L894.7 698.4" stroke="#1E1E1E" stroke-width="5" stroke-linejoin="round"/>
<path d="M861.8 777.9V684.8" stroke="#1E1E1E" stroke-width="5" stroke-linejoin="round"/>
<path d="M815.2 731.3H908.3" stroke="#1E1E1E" stroke-width="5" stroke-linejoin="round"/>
<path d="M140 777.4C168.056 777.4 190.8 756.536 190.8 730.8C190.8 705.064 168.056 684.2 140 684.2C111.944 684.2 89.2 705.064 89.2 730.8C89.2 756.536 111.944 777.4 140 777.4Z" stroke="#1E1E1E" stroke-width="5" stroke-linejoin="round"/>
<path d="M140 777.4C152.095 777.4 161.9 756.536 161.9 730.8C161.9 705.064 152.095 684.2 140 684.2C127.905 684.2 118.1 705.064 118.1 730.8C118.1 756.536 127.905 777.4 140 777.4Z" stroke="#1E1E1E" stroke-width="5" stroke-linejoin="round"/>
<path d="M92.8 713.5H187.2" stroke="#1E1E1E" stroke-width="5" stroke-linejoin="round"/>
<path d="M92.8 748H187.2" stroke="#1E1E1E" stroke-width="5" stroke-linejoin="round"/>
<path d="M258.5 716.6L297.7 688.5C305.9 682.6 317.4 684.5 323.3 692.7C329.2 700.9 327.3 712.4 319.1 718.3L279.9 746.4C271.7 752.3 260.2 750.4 254.3 742.2C248.4 733.9 250.3 722.5 258.5 716.6Z" fill="#EA4335" stroke="#1E1E1E" stroke-width="4.9812" stroke-miterlimit="9.9624"/>
<path d="M254.2 720.9C260.1 712.6 271.6 710.8 279.9 716.7L319.2 744.9C327.4 750.8 329.3 762.3 323.4 770.6C317.5 778.8 306 780.7 297.7 774.8L258.4 746.6C250.2 740.6 248.3 729.1 254.2 720.9Z" fill="#4285F4" stroke="#1E1E1E" stroke-width="5" stroke-miterlimit="10"/>
<path d="M357.3 745L396.6 716.8C404.8 710.9 416.3 712.8 422.3 721C428.2 729.2 426.3 740.7 418.1 746.7L378.8 774.9C370.6 780.8 359.1 778.9 353.1 770.7C347.2 762.4 349.1 750.9 357.3 745Z" fill="#F9AB00" stroke="#0D0D0D" stroke-width="5" stroke-miterlimit="10"/>
<path d="M353.2 692.6C359.1 684.3 370.6 682.5 378.9 688.4L418.2 716.6C426.4 722.5 428.3 734 422.4 742.3C416.5 750.5 405 752.4 396.7 746.5L357.4 718.3C349.1 712.4 347.2 700.9 353.2 692.6Z" fill="#34A853" stroke="#0D0D0D" stroke-width="5" stroke-miterlimit="10"/>
<path d="M705.5 685.1C688.6 684.6 672.7 693.4 664 707.9C663.5 708.8 662.3 709.1 661.5 708.5C661.2 708.3 661 708.1 660.9 707.9C647.6 685.6 618.7 678.3 596.4 691.7C589.7 695.7 584.2 701.3 580.2 707.9C579.7 708.8 578.5 709.1 577.7 708.5C577.4 708.3 577.2 708.1 577.1 707.9C568.4 693.4 552.5 684.6 535.6 685.1C511.1 685.7 490.3 706.6 489.9 731C489.7 756.9 510.6 778.1 536.5 778.2C553.1 778.3 568.6 769.6 577.1 755.3C577.6 754.4 578.8 754.2 579.6 754.7C579.9 754.9 580.1 755.1 580.2 755.3C593.5 777.6 622.4 784.9 644.7 771.5C651.4 767.5 656.9 761.9 660.9 755.3C661.4 754.4 662.6 754.2 663.4 754.7C663.7 754.9 663.9 755.1 664 755.3C677.3 777.5 706.1 784.8 728.4 771.5C742.7 763 751.3 747.6 751.2 731C750.9 706.6 730 685.7 705.5 685.1Z" fill="#F8D8D8" stroke="#1E1E1E" stroke-width="5" stroke-miterlimit="10"/>
</svg>
