<svg width="585" height="584" viewBox="0 0 585 584" fill="none" xmlns="http://www.w3.org/2000/svg">
<path d="M522.6 61.9H62.6001V521.9H522.6V61.9Z" fill="#4285F4" stroke="#1E1E1E" stroke-width="5" stroke-linejoin="round"/>
<path d="M383.1 211H201.8V522H383.1V211Z" fill="#F0F0F0" stroke="#1E1E1E" stroke-width="5" stroke-linecap="round" stroke-linejoin="round"/>
<path d="M408.9 340.3H176.2V364.1H408.9V340.3Z" fill="#FFE7A5" stroke="#1E1E1E" stroke-width="5" stroke-linecap="round" stroke-linejoin="round"/>
<path d="M176.2 340.3V364" stroke="#1E1E1E" stroke-width="5" stroke-linecap="round" stroke-linejoin="round"/>
<path d="M239.7 340.3V364" stroke="#1E1E1E" stroke-width="5" stroke-linecap="round" stroke-linejoin="round"/>
<path d="M197.4 340.3V364" stroke="#1E1E1E" stroke-width="5" stroke-linecap="round" stroke-linejoin="round"/>
<path d="M218.5 340.3V364" stroke="#1E1E1E" stroke-width="5" stroke-linecap="round" stroke-linejoin="round"/>
<path d="M260.8 340.3V364" stroke="#1E1E1E" stroke-width="5" stroke-linecap="round" stroke-linejoin="round"/>
<path d="M282 340.3V364" stroke="#1E1E1E" stroke-width="5" stroke-linecap="round" stroke-linejoin="round"/>
<path d="M303.1 340.3V364" stroke="#1E1E1E" stroke-width="5" stroke-linecap="round" stroke-linejoin="round"/>
<path d="M324.3 340.3V364" stroke="#1E1E1E" stroke-width="5" stroke-linecap="round" stroke-linejoin="round"/>
<path d="M345.5 340.3V364" stroke="#1E1E1E" stroke-width="5" stroke-linecap="round" stroke-linejoin="round"/>
<path d="M366.6 340.3V364" stroke="#1E1E1E" stroke-width="5" stroke-linecap="round" stroke-linejoin="round"/>
<path d="M387.8 340.3V364" stroke="#1E1E1E" stroke-width="5" stroke-linecap="round" stroke-linejoin="round"/>
<path d="M408.9 340.3V364" stroke="#1E1E1E" stroke-width="5" stroke-linecap="round" stroke-linejoin="round"/>
<path d="M416.7 364.5H168.5V379.5H416.7V364.5Z" fill="#FF7DAF" stroke="#1E1E1E" stroke-width="5" stroke-linecap="round" stroke-linejoin="round"/>
<path d="M413.4 156C413.4 156 412.2 178.7 381.6 178.7H203.6C172.9 178.7 171.8 156 171.8 156C203.6 179.2 228.4 123.7 228.4 123.7H357C356.9 123.7 381.7 179.2 413.4 156Z" fill="#EA4335" stroke="#1E1E1E" stroke-width="5" stroke-linecap="round" stroke-linejoin="round"/>
<path d="M251.3 281H262.2C263.3 287.2 266.3 292.9 270.8 297.4L271.4 297.9C272.5 299 273.7 299.9 275 300.8C278.7 303.4 282.8 305.1 287.3 305.9C289.1 306.2 290.9 306.4 292.7 306.4C294.5 306.4 296.3 306.2 298.1 305.9V340.2H287.3V316.8C285.6 316.6 283.9 316.3 282.3 315.8L280.6 315.3C279.7 315 278.9 314.8 278 314.4C277.6 314.2 277.2 314.1 276.7 313.9C275.8 313.5 274.9 313.1 274.1 312.7L273 312.1C272.2 311.7 271.4 311.2 270.7 310.7C269.5 310 268.4 309.2 267.3 308.3L235.6 340H228V332.4L259.7 300.7C258 298.5 256.6 296.2 255.4 293.7C254.4 291.7 253.6 289.6 252.9 287.4C252.7 286.9 252.6 286.3 252.4 285.8C251.9 284.4 251.6 282.7 251.3 281Z" fill="#4285F4" stroke="#1E1E1E" stroke-width="5" stroke-linecap="round" stroke-linejoin="round"/>
<path d="M235.5 211L267.2 242.7C268.5 241.7 269.9 240.8 271.3 239.9C271.8 239.6 272.3 239.3 272.7 239.1C273.1 238.9 273.9 238.5 274.5 238.2C275.1 237.9 275.7 237.6 276.3 237.4L276.9 237.2L277.9 236.8C278.3 236.6 278.7 236.5 279.2 236.3C279.7 236.1 280.2 236 280.7 235.8C282.8 235.2 285 234.7 287.2 234.4V245.3C282.8 246.1 278.6 247.8 274.9 250.4C273.4 251.4 272 252.6 270.8 253.9C269.5 255.2 268.4 256.6 267.3 258.1C264.7 261.7 263 265.9 262.2 270.3C261.9 272.1 261.7 273.9 261.7 275.7C261.7 277.5 261.9 279.3 262.2 281.1H227.9V270.3H251.3C251.5 268.6 251.9 266.9 252.3 265.3C252.5 264.7 252.6 264.2 252.8 263.7C253.5 261.5 254.3 259.4 255.3 257.4L255.9 256.2C256.3 255.4 256.8 254.6 257.3 253.8C257.6 253.4 257.8 253 258.1 252.6C258.4 252.2 258.6 251.8 258.9 251.5C259.2 251.2 259.4 250.8 259.7 250.4L228 218.7V211H235.5Z" fill="#EA4335" stroke="#1E1E1E" stroke-width="5" stroke-linecap="round" stroke-linejoin="round"/>
<path d="M322.9 270.2H357.2V281H333.8C333.6 282.7 333.2 284.4 332.8 286C332.7 286.5 332.5 287.1 332.3 287.6C331.9 288.9 331.5 290.2 330.9 291.4C330.5 292.3 330.1 293.2 329.7 294L329.1 295.1C328.8 295.6 328.5 296.1 328.3 296.6C327.4 298.1 326.5 299.5 325.4 300.8L357.1 332.5V340.1H349.5L317.8 308.4L316.7 309.2C316.3 309.5 315.9 309.7 315.6 310L314.4 310.8L313.2 311.5C312.5 311.9 311.9 312.3 311.2 312.6L310.5 313C309.8 313.3 309.1 313.6 308.4 313.9C308 314.1 307.6 314.2 307.1 314.4L306.7 314.5C306 314.7 305.4 315 304.8 315.2L304.5 315.3L302.9 315.8C301.3 316.2 299.6 316.5 297.9 316.8V306C304.1 304.9 309.8 301.9 314.3 297.4C320.1 291.6 323.3 283.8 323.3 275.6C323.4 273.8 323.2 272 322.9 270.2Z" fill="#F9AB00" stroke="#1E1E1E" stroke-width="5" stroke-linecap="round" stroke-linejoin="round"/>
<path d="M287.2 211H298V234.4L299.4 234.6C300.8 234.8 302.1 235.1 303.4 235.5L304.4 235.8C304.9 236 305.5 236.1 306 236.3C306.5 236.5 306.9 236.6 307.3 236.8L308.3 237.2C309.2 237.6 310.2 238 311.1 238.5L312.3 239.1L312.5 239.2C313 239.5 313.5 239.7 313.9 240C315.3 240.8 316.7 241.8 318 242.8L349.7 211.1H357.3V218.7L325.6 250.4C326.6 251.7 327.5 253.1 328.4 254.5C328.7 255 329 255.5 329.2 255.9L329.3 256.1C329.5 256.5 329.7 256.9 329.9 257.3C330.3 258.1 330.7 259 331.1 259.9C331.3 260.3 331.4 260.7 331.6 261.1C331.8 261.5 331.9 262 332.1 262.4C332.3 262.8 332.3 263.1 332.4 263.4C332.4 263.5 332.5 263.7 332.5 263.8C333.1 265.9 333.6 268.1 333.9 270.3H323C322.2 265.9 320.5 261.7 317.9 258C315.8 255 313.3 252.5 310.3 250.4C306.6 247.8 302.5 246.1 298 245.3C296.2 245 294.4 244.8 292.6 244.8C290.8 244.8 289 245 287.2 245.3V211Z" fill="#34A853" stroke="#1E1E1E" stroke-width="5" stroke-linecap="round" stroke-linejoin="round"/>
<path d="M227.9 211H201.8V340.3H227.9V211Z" fill="#FFD427" stroke="#1E1E1E" stroke-width="5" stroke-linecap="round" stroke-linejoin="round"/>
<path d="M383.3 211H357.2V340.3H383.3V211Z" fill="#FFD427" stroke="#1E1E1E" stroke-width="5" stroke-linecap="round" stroke-linejoin="round"/>
<path d="M227.9 379.4H176.2V521.7H227.9V379.4Z" fill="#F8D8D8" stroke="#1E1E1E" stroke-width="5" stroke-linecap="round" stroke-linejoin="round"/>
<path d="M408.9 379.4H357.2V521.7H408.9V379.4Z" fill="#F8D8D8" stroke="#1E1E1E" stroke-width="5" stroke-linecap="round" stroke-linejoin="round"/>
<path d="M437.8 182C437.8 182 436.4 211 399.5 211H185.6C148.8 211 147.3 182.1 147.3 182.1C185.5 205.3 202.9 178.8 202.9 178.8H382.2C382.2 178.8 399.6 205.2 437.8 182Z" fill="#F9AB00" stroke="#1E1E1E" stroke-width="5" stroke-linecap="round" stroke-linejoin="round"/>
<path d="M111.8 8.89999C111.8 20 104.4 29 95.4 29C86.4 29 79 20 79 8.89999" stroke="#1E1E1E" stroke-width="5" stroke-linejoin="round"/>
<path d="M29.7002 9.7V2.60001H62.6002V9.89999" stroke="#1E1E1E" stroke-width="5" stroke-linejoin="round"/>
<path d="M128.3 9.7V2.60001H161.1V9.89999" stroke="#1E1E1E" stroke-width="5" stroke-linejoin="round"/>
<path d="M210.4 8.89999C210.4 20 203 29 194 29C185 29 177.6 20 177.6 8.89999" stroke="#1E1E1E" stroke-width="5" stroke-linejoin="round"/>
<path d="M226.8 9.7V2.60001H259.7V9.89999" stroke="#1E1E1E" stroke-width="5" stroke-linejoin="round"/>
<path d="M309 8.89999C309 20 301.7 29 292.6 29C283.5 29 276.2 20 276.2 8.89999" stroke="#1E1E1E" stroke-width="5" stroke-linejoin="round"/>
<path d="M325.4 9.7V2.60001H358.3V9.89999" stroke="#1E1E1E" stroke-width="5" stroke-linejoin="round"/>
<path d="M407.6 8.89999C407.6 20 400.3 29 391.2 29C382.1 29 374.8 20 374.8 8.89999" stroke="#1E1E1E" stroke-width="5" stroke-linejoin="round"/>
<path d="M424 9.7V2.60001H456.9V9.89999" stroke="#1E1E1E" stroke-width="5" stroke-linejoin="round"/>
<path d="M506.2 8.89999C506.2 20 498.9 29 489.8 29C480.7 29 473.4 20 473.4 8.89999" stroke="#1E1E1E" stroke-width="5" stroke-linejoin="round"/>
<path d="M522.6 9.7V2.60001H555.4V9.89999" stroke="#1E1E1E" stroke-width="5" stroke-linejoin="round"/>
<path d="M9.6001 472.6C20.7001 472.6 29.7001 479.9 29.7001 489C29.7001 498.1 20.7001 505.4 9.6001 505.4" stroke="#1E1E1E" stroke-width="5" stroke-linejoin="round"/>
<path d="M10.3998 554.8H3.2998V521.9H10.5997" stroke="#1E1E1E" stroke-width="5" stroke-linejoin="round"/>
<path d="M10.3998 456.2H3.2998V423.3H10.5997" stroke="#1E1E1E" stroke-width="5" stroke-linejoin="round"/>
<path d="M9.6001 374.1C20.7001 374.1 29.7001 381.4 29.7001 390.5C29.7001 399.6 20.7001 406.9 9.6001 406.9" stroke="#1E1E1E" stroke-width="5" stroke-linejoin="round"/>
<path d="M10.3998 357.6H3.2998V324.8H10.5997" stroke="#1E1E1E" stroke-width="5" stroke-linejoin="round"/>
<path d="M9.6001 275.5C20.7001 275.5 29.7001 282.9 29.7001 291.9C29.7001 300.9 20.7001 308.3 9.6001 308.3" stroke="#1E1E1E" stroke-width="5" stroke-linejoin="round"/>
<path d="M10.3998 259H3.2998V226.2H10.5997" stroke="#1E1E1E" stroke-width="5" stroke-linejoin="round"/>
<path d="M9.6001 176.9C20.7001 176.9 29.7001 184.3 29.7001 193.3C29.7001 202.3 20.7001 209.7 9.6001 209.7" stroke="#1E1E1E" stroke-width="5" stroke-linejoin="round"/>
<path d="M10.3998 160.5H3.2998V127.6H10.5997" stroke="#1E1E1E" stroke-width="5" stroke-linejoin="round"/>
<path d="M9.6001 78.3C20.7001 78.3 29.7001 85.7 29.7001 94.7C29.7001 103.7 20.7001 111.1 9.6001 111.1" stroke="#1E1E1E" stroke-width="5" stroke-linejoin="round"/>
<path d="M10.3998 61.9H3.2998V29H10.5997" stroke="#1E1E1E" stroke-width="5" stroke-linejoin="round"/>
<path d="M575.6 111.2C564.5 111.2 555.5 103.8 555.5 94.8C555.5 85.8 564.5 78.4 575.6 78.4" stroke="#1E1E1E" stroke-width="5" stroke-linejoin="round"/>
<path d="M574.8 29H581.9V61.9H574.5" stroke="#1E1E1E" stroke-width="5" stroke-linejoin="round"/>
<path d="M574.8 127.6H581.9V160.5H574.5" stroke="#1E1E1E" stroke-width="5" stroke-linejoin="round"/>
<path d="M575.6 209.8C564.5 209.8 555.5 202.4 555.5 193.4C555.5 184.4 564.5 177 575.6 177" stroke="#1E1E1E" stroke-width="5" stroke-linejoin="round"/>
<path d="M574.8 226.2H581.9V259H574.5" stroke="#1E1E1E" stroke-width="5" stroke-linejoin="round"/>
<path d="M575.6 308.3C564.5 308.3 555.5 300.9 555.5 291.9C555.5 282.9 564.5 275.5 575.6 275.5" stroke="#1E1E1E" stroke-width="5" stroke-linejoin="round"/>
<path d="M574.8 324.8H581.9V357.6H574.5" stroke="#1E1E1E" stroke-width="5" stroke-linejoin="round"/>
<path d="M575.6 406.9C564.5 406.9 555.5 399.5 555.5 390.5C555.5 381.5 564.5 374.1 575.6 374.1" stroke="#1E1E1E" stroke-width="5" stroke-linejoin="round"/>
<path d="M574.8 423.3H581.9V456.2H574.5" stroke="#1E1E1E" stroke-width="5" stroke-linejoin="round"/>
<path d="M575.6 505.5C564.5 505.5 555.5 498.1 555.5 489.1C555.5 480.1 564.5 472.7 575.6 472.7" stroke="#1E1E1E" stroke-width="5" stroke-linejoin="round"/>
<path d="M574.8 521.9H581.9V554.8H574.5" stroke="#1E1E1E" stroke-width="5" stroke-linejoin="round"/>
<path d="M473.3 574.9C473.3 563.8 480.7 554.8 489.7 554.8C498.7 554.8 506.1 563.8 506.1 574.9" stroke="#1E1E1E" stroke-width="5" stroke-linejoin="round"/>
<path d="M555.4 574.1V581.2H522.6V573.9" stroke="#1E1E1E" stroke-width="5" stroke-linejoin="round"/>
<path d="M456.9 574.1V581.2H424V573.9" stroke="#1E1E1E" stroke-width="5" stroke-linejoin="round"/>
<path d="M374.7 574.9C374.7 563.8 382.1 554.8 391.1 554.8C400.1 554.8 407.5 563.8 407.5 574.9" stroke="#1E1E1E" stroke-width="5" stroke-linejoin="round"/>
<path d="M358.3 574.1V581.2H325.4V573.9" stroke="#1E1E1E" stroke-width="5" stroke-linejoin="round"/>
<path d="M276.1 574.9C276.1 563.8 283.5 554.8 292.5 554.8C301.5 554.8 308.9 563.8 308.9 574.9" stroke="#1E1E1E" stroke-width="5" stroke-linejoin="round"/>
<path d="M259.7 574.1V581.2H226.8V573.9" stroke="#1E1E1E" stroke-width="5" stroke-linejoin="round"/>
<path d="M177.6 574.9C177.6 563.8 184.9 554.8 194 554.8C203.1 554.8 210.4 563.8 210.4 574.9" stroke="#1E1E1E" stroke-width="5" stroke-linejoin="round"/>
<path d="M161.1 574.1V581.2H128.3V573.9" stroke="#1E1E1E" stroke-width="5" stroke-linejoin="round"/>
<path d="M79 574.9C79 563.8 86.3 554.8 95.4 554.8C104.5 554.8 111.8 563.8 111.8 574.9" stroke="#1E1E1E" stroke-width="5" stroke-linejoin="round"/>
<path d="M62.6002 574.1V581.2H29.7002V573.9" stroke="#1E1E1E" stroke-width="5" stroke-linejoin="round"/>
</svg>
