<svg width="1555" height="152" viewBox="0 0 1555 152" fill="none" xmlns="http://www.w3.org/2000/svg">
<path d="M1521.4 3.20001C1527.9 4.40001 1537.3 8.5 1537.2 22C1537 42.5 1537.7 57.8 1537.7 57.8C1537.7 57.8 1538.5 75.2 1553.9 76.3" stroke="#1E1E1E" stroke-width="5" stroke-linejoin="round"/>
<path d="M1521.4 149.4C1527.9 148.2 1537.3 144.1 1537.2 130.6C1537 110.1 1537.7 94.8 1537.7 94.8C1537.7 94.8 1538.5 77.4 1553.9 76.3" stroke="#1E1E1E" stroke-width="5" stroke-linejoin="round"/>
<path d="M33.6001 149.4C27.1001 148.2 17.7001 144.1 17.8001 130.6C18.0001 110.1 17.3001 94.8 17.3001 94.8C17.3001 94.8 16.4001 77.4 1.1001 76.3" stroke="#1E1E1E" stroke-width="5" stroke-linejoin="round"/>
<path d="M33.6001 3.20001C27.1001 4.40001 17.7001 8.5 17.8001 22C18.0001 42.5 17.3001 57.8 17.3001 57.8C17.3001 57.8 16.4001 75.2 1.1001 76.3" stroke="#1E1E1E" stroke-width="5" stroke-linejoin="round"/>
<path d="M980.1 29H1457.9C1469.9 29 1479.6 38.7 1479.6 50.7V104.9C1479.6 116.9 1469.9 126.6 1457.9 126.6H980.1C968.1 126.6 958.4 116.9 958.4 104.9V50.7C958.5 38.7 968.2 29 980.1 29Z" fill="#CEE5C1" stroke="#1E1E1E" stroke-width="5" stroke-miterlimit="10"/>
<path d="M1047.76 60.8807L1047.8 91.5207L1044.21 91.5244L1027.48 67.4847L1027.18 67.485L1027.21 91.5422L1023.5 91.5461L1023.47 60.9061L1027.06 60.9023L1043.84 85.0018L1044.14 85.0015L1044.11 60.8845L1047.76 60.8807ZM1064.08 91.9824C1062 91.9845 1060.18 91.4927 1058.62 90.5069C1057.06 89.5212 1055.84 88.141 1054.96 86.3666C1054.09 84.5921 1053.65 82.518 1053.65 80.1442C1053.65 77.7505 1054.08 75.6605 1054.95 73.8742C1055.82 72.0879 1057.04 70.7003 1058.59 69.7112C1060.16 68.7222 1061.98 68.2266 1064.05 68.2244C1066.13 68.2222 1067.94 68.714 1069.5 69.6998C1071.07 70.6856 1072.29 72.0707 1073.15 73.8551C1074.03 75.6396 1074.48 77.7286 1074.48 80.1224C1074.48 82.4962 1074.04 84.5712 1073.17 86.3475C1072.3 88.1238 1071.09 89.5065 1069.52 90.4955C1067.97 91.4846 1066.15 91.9802 1064.08 91.9824ZM1064.07 88.8106C1065.65 88.809 1066.95 88.4037 1067.96 87.5947C1068.98 86.7858 1069.73 85.7228 1070.22 84.4057C1070.71 83.0886 1070.95 81.6621 1070.95 80.1261C1070.95 78.5901 1070.7 77.1591 1070.21 75.8331C1069.72 74.507 1068.97 73.4356 1067.95 72.6188C1066.93 71.802 1065.63 71.3945 1064.06 71.3961C1062.48 71.3978 1061.18 71.808 1060.17 72.627C1059.15 73.4459 1058.4 74.5189 1057.91 75.8459C1057.42 77.173 1057.18 78.6045 1057.18 80.1405C1057.18 81.6765 1057.43 83.1025 1057.92 84.4186C1058.41 85.7346 1059.17 86.7961 1060.18 87.6029C1061.2 88.4097 1062.5 88.8123 1064.07 88.8106ZM1097.82 68.4882L1089.35 91.4771L1085.76 91.4809L1077.24 68.5098L1081.07 68.5058L1087.43 86.8113L1087.67 86.8111L1093.99 68.4923L1097.82 68.4882ZM1111.32 91.9329C1109.11 91.9352 1107.2 91.4485 1105.59 90.4727C1103.99 89.487 1102.76 88.1118 1101.89 86.3474C1101.03 84.5729 1100.6 82.5087 1100.6 80.1549C1100.59 77.801 1101.02 75.726 1101.88 73.9298C1102.74 72.1236 1103.95 70.716 1105.49 69.707C1107.05 68.688 1108.86 68.1775 1110.94 68.1753C1112.13 68.174 1113.32 68.3723 1114.48 68.77C1115.65 69.1678 1116.71 69.8149 1117.67 70.7116C1118.63 71.5983 1119.39 72.7744 1119.96 74.24C1120.53 75.7056 1120.82 77.5106 1120.82 79.655L1120.82 81.151L1103.11 81.1696L1103.11 78.1176L1117.23 78.1028C1117.23 76.8062 1116.97 75.6495 1116.45 74.6327C1115.94 73.6158 1115.21 72.8137 1114.26 72.2262C1113.32 71.6387 1112.22 71.3457 1110.94 71.347C1109.53 71.3485 1108.32 71.6988 1107.29 72.3981C1106.27 73.0874 1105.49 73.9858 1104.94 75.0935C1104.4 76.2012 1104.12 77.3884 1104.13 78.6551L1104.13 80.6898C1104.13 82.4253 1104.43 83.8961 1105.03 85.1023C1105.64 86.2986 1106.48 87.2103 1107.56 87.8375C1108.64 88.4548 1109.89 88.7627 1111.32 88.7612C1112.24 88.7602 1113.08 88.6297 1113.83 88.3696C1114.59 88.0995 1115.24 87.6998 1115.79 87.1706C1116.34 86.6315 1116.76 85.9628 1117.06 85.1645L1120.47 86.1185C1120.11 87.2758 1119.51 88.2938 1118.66 89.1724C1117.82 90.041 1116.77 90.7203 1115.52 91.2104C1114.28 91.6904 1112.88 91.9313 1111.32 91.9329ZM1126.21 91.4385L1126.18 68.4585L1129.59 68.455L1129.6 72.0456L1129.9 72.0453C1130.37 70.818 1131.15 69.8647 1132.21 69.1853C1133.28 68.496 1134.56 68.1506 1136.06 68.149C1137.57 68.1474 1138.83 68.4902 1139.84 69.1773C1140.86 69.8545 1141.65 70.8062 1142.22 72.0324L1142.46 72.0321C1143.05 70.8446 1143.93 69.9011 1145.11 69.2017C1146.28 68.4924 1147.7 68.1368 1149.34 68.1351C1151.4 68.1329 1153.08 68.7745 1154.39 70.0598C1155.69 71.3351 1156.35 73.3242 1156.35 76.0271L1156.37 91.407L1152.84 91.4107L1152.82 76.0308C1152.82 74.3352 1152.35 73.1239 1151.43 72.3968C1150.5 71.6696 1149.4 71.3067 1148.15 71.308C1146.53 71.3097 1145.28 71.7998 1144.39 72.7782C1143.51 73.7466 1143.06 74.9738 1143.07 76.4599L1143.08 91.4209L1139.49 91.4246L1139.48 75.6857C1139.47 74.3791 1139.05 73.3273 1138.2 72.5303C1137.35 71.7233 1136.26 71.3205 1134.92 71.3219C1134 71.3229 1133.15 71.5681 1132.35 72.0577C1131.56 72.5472 1130.92 73.2261 1130.44 74.0944C1129.96 74.9526 1129.72 75.9453 1129.72 77.0724L1129.74 91.4349L1126.21 91.4385ZM1163.3 91.3997L1163.27 60.7597L1166.8 60.756L1166.81 72.0665L1167.11 72.0662C1167.37 71.6669 1167.73 71.1579 1168.19 70.539C1168.66 69.9102 1169.32 69.3509 1170.19 68.8613C1171.07 68.3617 1172.25 68.1111 1173.75 68.1095C1175.69 68.1075 1177.39 68.5894 1178.87 69.5554C1180.35 70.5213 1181.5 71.8915 1182.33 73.666C1183.16 75.4405 1183.57 77.5346 1183.58 79.9483C1183.58 82.3819 1183.17 84.4919 1182.34 86.2781C1181.52 88.0543 1180.37 89.4319 1178.91 90.4109C1177.44 91.3799 1175.75 91.8654 1173.83 91.8674C1172.36 91.869 1171.18 91.6258 1170.29 91.138C1169.4 90.6403 1168.72 90.0775 1168.24 89.4496C1167.76 88.8118 1167.39 88.2835 1167.13 87.8649L1166.71 87.8653L1166.71 91.3961L1163.3 91.3997ZM1166.76 79.9061C1166.76 81.6415 1167.02 83.1723 1167.53 84.4983C1168.04 85.8143 1168.78 86.8458 1169.76 87.5929C1170.74 88.3299 1171.94 88.6977 1173.35 88.6962C1174.83 88.6947 1176.06 88.3044 1177.05 87.5254C1178.04 86.7364 1178.79 85.6784 1179.29 84.3513C1179.79 83.0143 1180.05 81.5279 1180.05 79.8922C1180.04 78.2764 1179.79 76.8204 1179.29 75.5243C1178.8 74.2183 1178.06 73.1867 1177.06 72.4298C1176.07 71.6628 1174.83 71.2801 1173.33 71.2817C1171.9 71.2832 1170.69 71.6485 1169.72 72.3776C1168.74 73.0968 1168 74.1049 1167.5 75.402C1167.01 76.6892 1166.76 78.1905 1166.76 79.9061ZM1198.63 91.8415C1196.41 91.8438 1194.5 91.3571 1192.89 90.3813C1191.3 89.3955 1190.06 88.0204 1189.19 86.2559C1188.33 84.4815 1187.9 82.4173 1187.9 80.0635C1187.9 77.7096 1188.32 75.6346 1189.18 73.8384C1190.05 72.0322 1191.25 70.6246 1192.8 69.6156C1194.35 68.5966 1196.17 68.086 1198.24 68.0839C1199.44 68.0826 1200.62 68.2809 1201.79 68.6786C1202.95 69.0763 1204.02 69.7235 1204.98 70.6202C1205.93 71.5069 1206.7 72.683 1207.27 74.1486C1207.84 75.6141 1208.13 77.4191 1208.13 79.5635L1208.13 81.0596L1190.42 81.0782L1190.41 78.0261L1204.54 78.0114C1204.53 76.7147 1204.27 75.558 1203.75 74.5412C1203.24 73.5244 1202.51 72.7223 1201.57 72.1348C1200.63 71.5473 1199.52 71.2542 1198.24 71.2556C1196.84 71.2571 1195.62 71.6074 1194.6 72.3067C1193.58 72.9959 1192.8 73.8944 1192.25 75.0021C1191.7 76.1098 1191.43 77.297 1191.43 78.5637L1191.43 80.5984C1191.43 82.3338 1191.73 83.8047 1192.33 85.0109C1192.94 86.2071 1193.79 87.1189 1194.87 87.7461C1195.94 88.3634 1197.2 88.6712 1198.62 88.6697C1199.55 88.6688 1200.39 88.5382 1201.13 88.2781C1201.89 88.008 1202.55 87.6084 1203.09 87.0792C1203.64 86.54 1204.06 85.8713 1204.36 85.0731L1207.78 86.027C1207.42 87.1844 1206.81 88.2024 1205.97 89.081C1205.12 89.9496 1204.07 90.6289 1202.83 91.1189C1201.58 91.599 1200.18 91.8398 1198.63 91.8415ZM1213.51 91.3471L1213.49 68.3671L1216.9 68.3635L1216.9 71.8345L1217.14 71.8342C1217.56 70.6968 1218.32 69.7734 1219.41 69.0641C1220.51 68.3548 1221.74 67.9994 1223.12 67.998C1223.38 67.9977 1223.7 68.0023 1224.09 68.0119C1224.48 68.0215 1224.78 68.0361 1224.98 68.0559L1224.98 71.6465C1224.86 71.6167 1224.59 71.5721 1224.16 71.5127C1223.74 71.4433 1223.29 71.4089 1222.83 71.4094C1221.71 71.4105 1220.71 71.646 1219.83 72.1157C1218.97 72.5754 1218.28 73.2144 1217.77 74.0328C1217.27 74.8412 1217.03 75.7641 1217.03 76.8014L1217.04 91.3434L1213.51 91.3471ZM1251.33 91.7264C1249.35 91.7285 1247.59 91.3912 1246.05 90.7146C1244.51 90.038 1243.29 89.0967 1242.38 87.8908C1241.48 86.675 1240.99 85.2641 1240.91 83.6584L1244.68 83.6545C1244.76 84.6418 1245.1 85.4942 1245.7 86.2117C1246.3 86.9193 1247.08 87.467 1248.05 87.855C1249.02 88.2429 1250.09 88.4363 1251.27 88.4351C1252.58 88.4337 1253.75 88.2031 1254.77 87.7432C1255.78 87.2833 1256.58 86.6442 1257.16 85.8257C1257.73 85.0072 1258.02 84.0594 1258.02 82.9822C1258.02 81.8552 1257.74 80.863 1257.18 80.0059C1256.62 79.1387 1255.8 78.4613 1254.73 77.9738C1253.65 77.4862 1252.33 77.2432 1250.77 77.2448L1248.32 77.2474L1248.32 73.956L1250.77 73.9534C1251.99 73.9521 1253.06 73.7316 1253.97 73.2918C1254.9 72.8519 1255.62 72.2328 1256.14 71.4343C1256.67 70.6359 1256.93 69.698 1256.93 68.6208C1256.93 67.5836 1256.7 66.6812 1256.24 65.9136C1255.78 65.1461 1255.13 64.5484 1254.29 64.1204C1253.46 63.6923 1252.49 63.4789 1251.36 63.4801C1250.3 63.4812 1249.3 63.6768 1248.37 64.0667C1247.44 64.4467 1246.68 65.0011 1246.1 65.7298C1245.51 66.4485 1245.19 67.3166 1245.14 68.334L1241.55 68.3377C1241.61 66.7319 1242.09 65.325 1243 64.1172C1243.9 62.8995 1245.09 61.9507 1246.55 61.2709C1248.03 60.5911 1249.65 60.2503 1251.42 60.2485C1253.31 60.2465 1254.94 60.6288 1256.29 61.3954C1257.65 62.152 1258.69 63.1533 1259.42 64.3992C1260.15 65.6452 1260.52 66.9913 1260.52 68.4376C1260.52 70.1631 1260.07 71.6347 1259.16 72.8525C1258.27 74.0702 1257.05 74.9143 1255.5 75.3847L1255.5 75.6241C1257.44 75.9412 1258.95 76.7625 1260.04 78.0879C1261.13 79.4033 1261.67 81.0335 1261.67 82.9784C1261.67 84.644 1261.22 86.1406 1260.32 87.4681C1259.42 88.7856 1258.19 89.8242 1256.64 90.5838C1255.08 91.3435 1253.31 91.7243 1251.33 91.7264ZM1277.79 91.6987C1275.54 91.7011 1273.62 91.0897 1272.03 89.8645C1270.45 88.6294 1269.23 86.8404 1268.39 84.4974C1267.55 82.1444 1267.13 79.3023 1267.13 75.971C1267.12 72.6596 1267.54 69.8315 1268.37 67.4868C1269.22 65.132 1270.43 63.3355 1272.02 62.097C1273.61 60.8486 1275.53 60.2232 1277.76 60.2209C1280 60.2186 1281.91 60.8399 1283.49 62.085C1285.09 63.3201 1286.31 65.1142 1287.15 67.4671C1288 69.8101 1288.43 72.6373 1288.43 75.9486C1288.43 79.28 1288.02 82.123 1287.18 84.4777C1286.35 86.8225 1285.14 88.6141 1283.55 89.8525C1281.97 91.0809 1280.05 91.6964 1277.79 91.6987ZM1277.79 88.4073C1280.03 88.405 1281.76 87.326 1282.99 85.1703C1284.23 83.0146 1284.84 79.942 1284.84 75.9524C1284.84 73.2993 1284.55 71.0405 1283.98 69.176C1283.42 67.3115 1282.61 65.891 1281.55 64.9147C1280.5 63.9383 1279.24 63.4509 1277.76 63.4525C1275.55 63.4548 1273.82 64.5487 1272.58 66.7343C1271.33 68.91 1270.71 71.9876 1270.72 75.9672C1270.72 78.6203 1271 80.8741 1271.56 82.7287C1272.12 84.5832 1272.93 85.9937 1273.97 86.9601C1275.03 87.9265 1276.31 88.4089 1277.79 88.4073ZM1298.38 87.0692L1298.15 88.6852C1297.98 89.8224 1297.72 91.0395 1297.37 92.3365C1297.03 93.6335 1296.68 94.8556 1296.31 96.003C1295.95 97.1504 1295.64 98.0634 1295.4 98.7418L1292.71 98.7447C1292.84 98.1062 1293.01 97.2632 1293.22 96.2157C1293.42 95.1682 1293.63 93.9961 1293.84 92.6993C1294.06 91.4124 1294.24 90.0956 1294.38 88.749L1294.55 87.0732L1298.38 87.0692ZM1316.72 91.239L1316.72 88.5461L1326.82 77.4644C1328 76.1665 1328.98 75.0385 1329.75 74.0801C1330.51 73.1119 1331.08 72.2036 1331.45 71.3555C1331.83 70.4973 1332.02 69.5995 1332.02 68.6619C1332.01 67.5847 1331.75 66.6524 1331.23 65.865C1330.72 65.0776 1330.03 64.4699 1329.14 64.042C1328.25 63.614 1327.25 63.4006 1326.14 63.4018C1324.97 63.403 1323.94 63.6485 1323.06 64.1381C1322.2 64.6178 1321.52 65.2917 1321.05 66.16C1320.58 67.0282 1320.34 68.0458 1320.35 69.2127L1316.82 69.2164C1316.81 67.4211 1317.23 65.8448 1318.05 64.4875C1318.88 63.1301 1320 62.0717 1321.43 61.3122C1322.87 60.5527 1324.48 60.172 1326.26 60.1701C1328.06 60.1682 1329.65 60.5456 1331.03 61.3021C1332.42 62.0587 1333.51 63.0799 1334.3 64.3657C1335.09 65.6515 1335.48 67.0824 1335.49 68.6583C1335.49 69.7853 1335.28 70.8877 1334.88 71.9653C1334.48 73.0329 1333.78 74.2255 1332.79 75.5431C1331.8 76.8508 1330.43 78.448 1328.68 80.3349L1321.8 87.7029L1321.8 87.9423L1336.04 87.9274L1336.05 91.2188L1316.72 91.239ZM1352.22 91.6208C1349.97 91.6231 1348.05 91.0117 1346.46 89.7866C1344.87 88.5515 1343.66 86.7624 1342.82 84.4194C1341.98 82.0665 1341.56 79.2243 1341.55 75.893C1341.55 72.5817 1341.97 69.7536 1342.8 67.4089C1343.65 65.0541 1344.86 63.2575 1346.45 62.0191C1348.04 60.7707 1349.95 60.1453 1352.19 60.143C1354.42 60.1406 1356.33 60.762 1357.92 62.0071C1359.52 63.2422 1360.74 65.0362 1361.58 67.3892C1362.43 69.7322 1362.85 72.5594 1362.86 75.8707C1362.86 79.202 1362.44 82.045 1361.61 84.3998C1360.77 86.7445 1359.56 88.5361 1357.98 89.7745C1356.39 91.003 1354.48 91.6184 1352.22 91.6208ZM1352.22 88.3294C1354.45 88.327 1356.19 87.248 1357.42 85.0924C1358.66 82.9367 1359.27 79.8641 1359.27 75.8745C1359.26 73.2214 1358.98 70.9626 1358.41 69.0981C1357.85 67.2335 1357.04 65.8131 1355.98 64.8367C1354.93 63.8604 1353.67 63.373 1352.19 63.3745C1349.98 63.3768 1348.25 64.4708 1347 66.6564C1345.76 68.832 1345.14 71.9096 1345.14 75.8893C1345.15 78.5423 1345.43 80.7962 1345.99 82.6507C1346.55 84.5053 1347.35 85.9158 1348.4 86.8821C1349.46 87.8485 1350.73 88.3309 1352.22 88.3294ZM1368.56 91.1848L1368.56 88.4918L1378.66 77.4101C1379.84 76.1122 1380.82 74.9842 1381.59 74.0259C1382.35 73.0576 1382.92 72.1494 1383.29 71.3012C1383.67 70.443 1383.86 69.5452 1383.85 68.6076C1383.85 67.5304 1383.59 66.5981 1383.07 65.8107C1382.56 65.0233 1381.87 64.4156 1380.98 63.9877C1380.09 63.5597 1379.09 63.3464 1377.98 63.3475C1376.81 63.3487 1375.78 63.5942 1374.9 64.0838C1374.04 64.5635 1373.36 65.2374 1372.89 66.1057C1372.42 66.9739 1372.18 67.9915 1372.19 69.1584L1368.66 69.1621C1368.65 67.3668 1369.07 65.7905 1369.89 64.4332C1370.72 63.0758 1371.84 62.0174 1373.27 61.2579C1374.71 60.4984 1376.32 60.1177 1378.1 60.1158C1379.9 60.1139 1381.49 60.4913 1382.87 61.2479C1384.26 62.0044 1385.35 63.0256 1386.14 64.3114C1386.93 65.5972 1387.32 67.0281 1387.33 68.604C1387.33 69.731 1387.12 70.8334 1386.72 71.911C1386.32 72.9786 1385.62 74.1712 1384.62 75.4889C1383.64 76.7965 1382.27 78.3937 1380.52 80.2807L1373.64 87.6486L1373.64 87.888L1387.88 87.8731L1387.89 91.1645L1368.56 91.1848ZM1392.68 84.8759L1392.68 81.8239L1406.12 60.5054L1408.34 60.5031L1408.34 65.2307L1406.85 65.2323L1396.69 81.3409L1396.69 81.5803L1414.82 81.5613L1414.83 84.8527L1392.68 84.8759ZM1407.11 91.1444L1407.11 83.9332L1407.1 82.5119L1407.08 60.5044L1410.61 60.5007L1410.64 91.1407L1407.11 91.1444Z" fill="#1E1E1E"/>
<path d="M881.7 109.2L815.8 43.4" stroke="#1E1E1E" stroke-width="5" stroke-linejoin="round"/>
<path d="M815.8 109.2L881.7 43.4" stroke="#1E1E1E" stroke-width="5" stroke-linejoin="round"/>
<path d="M848.8 122.9V29.8" stroke="#1E1E1E" stroke-width="5" stroke-linejoin="round"/>
<path d="M802.2 76.3H895.3" stroke="#1E1E1E" stroke-width="5" stroke-linejoin="round"/>
<path d="M127 122.4C155.056 122.4 177.8 101.536 177.8 75.8C177.8 50.0635 155.056 29.2 127 29.2C98.9439 29.2 76.2 50.0635 76.2 75.8C76.2 101.536 98.9439 122.4 127 122.4Z" stroke="#1E1E1E" stroke-width="5" stroke-linejoin="round"/>
<path d="M127 122.4C139.095 122.4 148.9 101.536 148.9 75.8C148.9 50.0635 139.095 29.2 127 29.2C114.905 29.2 105.1 50.0635 105.1 75.8C105.1 101.536 114.905 122.4 127 122.4Z" stroke="#1E1E1E" stroke-width="5" stroke-linejoin="round"/>
<path d="M79.8 58.5H174.2" stroke="#1E1E1E" stroke-width="5" stroke-linejoin="round"/>
<path d="M79.8 93H174.2" stroke="#1E1E1E" stroke-width="5" stroke-linejoin="round"/>
<path d="M245.5 61.6L284.7 33.5C292.9 27.6 304.4 29.5 310.3 37.7C316.2 45.9 314.3 57.4 306.1 63.3L266.9 91.4C258.7 97.3 247.2 95.4 241.3 87.2C235.4 78.9 237.3 67.5 245.5 61.6Z" fill="#EA4335" stroke="#1E1E1E" stroke-width="4.9812" stroke-miterlimit="9.9624"/>
<path d="M241.2 65.9C247.1 57.6 258.6 55.8 266.9 61.7L306.2 89.9C314.4 95.8 316.3 107.3 310.4 115.6C304.5 123.8 293 125.7 284.7 119.8L245.4 91.5999C237.2 85.5999 235.3 74.1 241.2 65.9Z" fill="#4285F4" stroke="#1E1E1E" stroke-width="5" stroke-miterlimit="10"/>
<path d="M344.3 90L383.6 61.8C391.8 55.9 403.3 57.8 409.3 66C415.2 74.2 413.3 85.7 405.1 91.7L365.8 119.9C357.6 125.8 346.1 123.9 340.1 115.7C334.2 107.4 336.1 95.9 344.3 90Z" fill="#F9AB00" stroke="#0D0D0D" stroke-width="5" stroke-miterlimit="10"/>
<path d="M340.2 37.6C346.1 29.3 357.6 27.5 365.9 33.4L405.2 61.6C413.4 67.5 415.3 79 409.4 87.3C403.5 95.5 392 97.4 383.7 91.5L344.4 63.3C336.1 57.4 334.2 45.9 340.2 37.6Z" fill="#34A853" stroke="#0D0D0D" stroke-width="5" stroke-miterlimit="10"/>
<path d="M692.5 30.1C675.6 29.6 659.7 38.4 651 52.9C650.5 53.8 649.3 54.1 648.5 53.5C648.2 53.3 648 53.1 647.9 52.9C634.6 30.6 605.7 23.3 583.4 36.7C576.7 40.7 571.2 46.3 567.2 52.9C566.7 53.8 565.5 54.1 564.7 53.5C564.4 53.3 564.2 53.1 564.1 52.9C555.4 38.4 539.5 29.6 522.6 30.1C498.1 30.7 477.3 51.6 476.9 76C476.7 101.9 497.6 123.1 523.5 123.2C540.1 123.3 555.6 114.6 564.1 100.3C564.6 99.4 565.8 99.2 566.6 99.7C566.9 99.9 567.1 100.1 567.2 100.3C580.5 122.6 609.4 129.9 631.7 116.5C638.4 112.5 643.9 106.9 647.9 100.3C648.4 99.4 649.6 99.2 650.4 99.7C650.7 99.9 650.9 100.1 651 100.3C664.3 122.5 693.1 129.8 715.4 116.5C729.7 108 738.3 92.6 738.2 76C737.9 51.6 717 30.7 692.5 30.1Z" fill="#F8D8D8" stroke="#1E1E1E" stroke-width="5" stroke-miterlimit="10"/>
</svg>
