<svg width="852" height="524" viewBox="0 0 852 524" fill="none" xmlns="http://www.w3.org/2000/svg">
<path d="M519 442.4H851.3" stroke="#1E1E1E" stroke-width="5" stroke-miterlimit="10"/>
<path d="M851.3 442.4C816.3 442.4 768.1 414.2 767.5 379.2" stroke="#1E1E1E" stroke-width="5" stroke-miterlimit="10"/>
<path d="M851.3 442.4C816.2 442.4 768 470.7 767.5 505.7" stroke="#1E1E1E" stroke-width="5" stroke-miterlimit="10"/>
<path d="M51.2 305.6C41.5 300.6 33.6 292.6 28.7 282.9C23.6 273 21 261 21 247C21 233.9 23.6 222.2 28.7 212C33.7 201.9 41.7 193.5 51.6 187.9C61.7 182.1 74 179.1 88.5 179.1C101.3 179.1 112.3 181.6 121.5 186.6C130.4 191.4 137.7 198.9 142.3 208C147 217.3 149.4 228.2 149.4 240.8C149.4 250.2 148.4 258 146.4 264.2C144.4 270.5 141.4 275.1 137.3 278.2C133.2 281.3 128 282.9 121.8 282.9C113.2 282.9 106.9 280.4 102.8 275.3C98.7 270.2 96.6 262.6 96.7 252.5L113.6 252.7C113.6 257.5 114.3 261 115.7 263.2C117.1 265.4 119.7 266.7 122.3 266.5C124.5 266.5 126.5 265.5 127.8 263.8C129.3 262 130.4 259.3 131.1 255.5C131.9 250.8 132.2 246 132.1 241.2C132.1 231.3 130.5 222.8 127.2 216C124.1 209.3 119 203.8 112.5 200.3C106 196.7 98 195 88.5 195C78.5 195 69.7 197.1 62.2 201.2C54.7 205.3 48.6 211.6 44.8 219.2C40.7 227 38.7 236.3 38.7 246.9C38.7 257.3 40.6 266.3 44.3 273.8C47.9 281.2 53.7 287.3 60.9 291.2C68.2 295.2 77.1 297.3 87.6 297.3C91.7 297.3 95.8 297 99.9 296.6C103.8 296.2 107.6 295.3 111.2 294L108.4 310.7C105.7 311.8 102.8 312.4 99.9 312.7C95.8 313.2 91.6 313.4 87.5 313.4C73.1 313.5 61.1 310.9 51.2 305.6ZM66.9 276.8C62.8 273.9 59.6 269.9 57.9 265.2C55.9 260.1 54.8 253.9 54.8 246.7C54.7 240.6 55.9 234.6 58.3 229C60.4 224.1 63.7 219.8 68 216.5C72.1 213.5 77.2 211.9 82.3 212C85.5 212 88.6 212.7 91.5 214.2C94.3 215.7 96.7 217.8 98.5 220.3C100.4 223 101.7 226.1 102.3 229.4L99.4 234.9C98.3 232.4 96.6 230.2 94.4 228.6C92.2 227.2 89.7 226.5 87.1 226.6C82.3 226.6 78.6 228.3 76 231.8C73.4 235.3 72.2 240.3 72.2 246.8C72.2 253.1 73.5 258 76 261.6C78.4 265.1 82.5 267.1 86.8 267C89.6 267 92.4 266.5 95 265.4C97.6 264.4 99.9 262.9 101.8 261L102.5 268.4C100.6 272.1 97.7 275.2 94.1 277.4C85.7 282.1 75.3 281.9 66.9 276.8ZM96.5 252.6V224.6L98.7 222.1L101.5 213.9H113.5V252.8L96.5 252.6Z" fill="#1E1E1E"/>
<path d="M171 289.1V158.3H215.2C229.1 158.3 241 161.1 251.1 166.6C260.9 171.9 268.9 179.9 274.3 189.6C279.7 199.4 282.4 210.8 282.4 223.7C282.4 236.6 279.7 248 274.3 257.8C269 267.6 260.9 275.6 251.1 280.8C241.1 286.3 229.1 289 215.2 289L171 289.1ZM195.7 265.7H214.2C223.8 265.7 231.9 264 238.3 260.5C244.5 257.2 249.6 252.1 252.8 245.8C256.1 238.9 257.8 231.3 257.6 223.7C257.6 215.2 256 207.8 252.8 201.5C249.6 195.2 244.5 190.1 238.3 186.9C231.8 183.4 223.8 181.7 214.2 181.7H195.8L195.7 265.7Z" fill="#1E1E1E"/>
<path d="M343.6 292C334.8 292.1 326.1 289.9 318.5 285.6C311.2 281.4 305.2 275.4 301.1 268.1C292.7 252.5 292.7 233.7 301 218C305 210.6 310.9 204.3 318 199.8C325.4 195.2 333.9 192.8 342.6 192.9C352.6 192.9 361 195 367.8 199.3C374.5 203.4 379.9 209.3 383.3 216.4C386.9 223.8 388.7 231.9 388.6 240.1C388.6 242.1 388.5 243.7 388.4 245.1C388.3 246.5 388.2 247.5 388 248.1H308V231.1H365.5C365.3 228.9 364.7 226.7 363.7 224.7C362.5 222.4 361 220.4 359.1 218.7C357 216.8 354.7 215.3 352.1 214.2C349.1 213 345.9 212.4 342.7 212.5C338.2 212.5 333.8 213.7 330 216.2C326.1 218.7 323 222.2 321 226.3C318.7 231.1 317.6 236.4 317.7 241.7C317.7 247.9 318.9 253.2 321.2 257.5C323.3 261.6 326.6 265.1 330.6 267.4C334.6 269.7 339.2 270.8 343.8 270.8C349.5 270.8 354.3 269.5 358.2 267C362 264.6 365.1 261.4 367.3 257.6L386.7 267.1C382.6 274.5 376.7 280.7 369.5 285.3C362.7 289.8 353.9 292 343.6 292Z" fill="#1E1E1E"/>
<path d="M429.3 289.1L389.8 196H417L440.6 256.6H442.1L466 196H492.9L453 289.2L429.3 289.1Z" fill="#1E1E1E"/>
<path d="M505.1 289.1V158.3H588V181.7H529.7V289.1H505.1ZM518.8 236.9V213.5H582.2V236.9H518.8Z" fill="#1E1E1E"/>
<path d="M644.5 292C635.7 292.1 627 289.9 619.4 285.6C612.1 281.4 606.1 275.4 602.1 268.1C593.7 252.5 593.7 233.7 602 218C606 210.6 611.9 204.3 619 199.8C626.4 195.2 634.9 192.8 643.7 192.9C653.7 192.9 662.1 195 668.9 199.3C675.6 203.4 681 209.3 684.4 216.4C688 223.8 689.8 231.9 689.7 240.1C689.7 242.1 689.6 243.7 689.5 245.1C689.4 246.5 689.2 247.5 689.1 248.1H609.1V231.1H666.6C666.4 228.9 665.8 226.7 664.8 224.7C663.6 222.4 662.1 220.4 660.2 218.7C655.7 214.6 649.8 212.4 643.8 212.5C639.3 212.5 634.9 213.7 631.1 216.2C627.2 218.7 624.1 222.2 622.1 226.3C619.8 231.1 618.7 236.4 618.8 241.7C618.8 247.9 620 253.2 622.3 257.5C624.4 261.6 627.7 265.1 631.7 267.4C635.7 269.7 640.3 270.8 644.9 270.8C650.6 270.8 655.4 269.5 659.3 267C663.1 264.6 666.2 261.4 668.4 257.6L687.8 267.1C683.7 274.5 677.8 280.7 670.6 285.3C663.6 289.8 654.9 292 644.5 292Z" fill="#1E1E1E"/>
<path d="M740.3 292C732.3 292 725.4 290.8 719.8 288.5C714.6 286.5 709.9 283.4 706 279.4C702.6 275.8 699.9 271.6 698.1 267L719.5 257.7C721.3 261.8 724.2 265.2 727.9 267.7C731.6 270 735.9 271.1 740.3 271C743.9 271.1 747.5 270.4 750.9 269.1C753.9 268.1 755.8 265.2 755.7 262.1C755.8 259.9 754.9 257.8 753.2 256.3C751.4 254.8 749.3 253.7 747.1 253C744.6 252.2 742.1 251.6 739.6 251.1L728.6 248.7C724.1 247.7 719.7 246 715.8 243.5C711.9 241.1 708.5 237.9 706 234C703.5 230.1 702.2 225.4 702.2 220.8C702.1 215.5 703.8 210.4 707 206.2C710.5 201.9 715 198.5 720.2 196.5C726 194.1 732.3 192.9 738.6 193C744.3 192.9 749.9 193.7 755.4 195.2C760.1 196.5 764.6 198.8 768.4 201.9C772.1 205 775.1 208.9 777.2 213.3L756.7 222.3C755.1 219 752.4 216.3 749.1 214.6C746 213.1 742.6 212.4 739.1 212.4C735 212.4 731.7 213.2 729.2 214.8C726.8 216.4 725.5 218.3 725.5 220.5C725.5 222.8 726.7 224.8 729.2 226.5C731.9 228.3 734.8 229.6 738 230.3L751.7 233.6C761 235.8 767.9 239.3 772.6 244.2C777.2 248.9 779.7 255.2 779.6 261.7C779.7 267.5 777.8 273.1 774.3 277.7C770.6 282.4 765.6 286.1 760 288.3C753.9 290.8 747.1 292.1 740.3 292Z" fill="#1E1E1E"/>
<path d="M787.3 216.4V196H804.5V216.5L787.3 216.4ZM834.4 290.6C824.8 290.6 817.2 287.8 811.7 282.3C806.2 276.8 803.5 269.1 803.5 259.4V169.7H827.4V255C827.4 259.5 828.3 262.8 830.1 265C831.9 267.2 834.9 268.2 839.1 268.2C841 268.2 842.8 267.9 844.6 267.4C846.8 266.6 849 265.5 851 264.2V287.6C848.4 288.6 845.6 289.3 842.9 289.9C840.2 290.4 837.3 290.6 834.4 290.6ZM826.6 216.4V196H850.4V216.5L826.6 216.4Z" fill="#1E1E1E"/>
<path d="M46.2001 96.1C38.5001 91.7 32.2001 85.4 27.8001 77.7C18.7001 61.6 18.7001 42 27.8001 25.9C36.8001 10.3 53.5001 0.699999 71.5001 0.799999C78.4001 0.799999 85.3001 2 91.7001 4.6C97.7001 6.9 103 10.6 107.3 15.4L99.1001 23.7C95.9001 19.8 91.8001 16.8 87.1001 14.9C75.8001 10.2 63.0001 10.9 52.4001 16.8C46.4001 20.1 41.5001 24.9 38.0001 30.8C30.8001 43.8 30.8001 59.6 38.0001 72.6C41.4001 78.5 46.4001 83.3 52.4001 86.6C58.3001 89.9 64.9001 91.6 71.6001 91.6C78.1001 91.6 83.6001 90.6 88.0001 88.5C92.3001 86.5 96.1001 83.8 99.4001 80.4C101.9 77.7 103.8 74.6 105.1 71.2C106.6 67.4 107.6 63.4 107.9 59.3H71.8001V48.5H118.7C119.1 50.8 119.4 53.2 119.4 55.6C119.4 61.6 118.4 67.5 116.5 73.1C114.6 78.7 111.5 83.8 107.4 88C98.4001 97.7 86.5001 102.6 71.6001 102.6C62.7001 102.9 54.0001 100.6 46.2001 96.1Z" fill="#1E1E1E"/>
<path d="M147.2 97.9C141.8 94.7 137.4 90.1 134.5 84.5C128.4 72.8 128.4 58.9 134.5 47.2C137.4 41.7 141.9 37 147.2 33.8C158.6 27.3 172.6 27.3 184 33.8C189.4 37 193.8 41.6 196.7 47.2C202.8 58.9 202.8 72.8 196.7 84.5C193.8 90 189.4 94.6 184 97.9C172.6 104.5 158.6 104.5 147.2 97.9ZM177.5 89.1C181.2 86.9 184.3 83.7 186.4 79.9C190.9 71.1 190.9 60.7 186.4 51.8C184.3 48 181.3 44.8 177.5 42.6C173.9 40.5 169.8 39.4 165.6 39.4C156.9 39.4 148.8 44.1 144.7 51.8C140.3 60.6 140.3 71 144.7 79.9C151 91.4 165.5 95.7 177 89.4C177.2 89.3 177.4 89.2 177.5 89.1Z" fill="#1E1E1E"/>
<path d="M228.4 97.9C223 94.7 218.6 90.1 215.7 84.5C209.6 72.8 209.6 58.9 215.7 47.2C218.6 41.7 223.1 37.1 228.4 33.8C239.8 27.3 253.8 27.3 265.2 33.8C270.6 37 275 41.6 277.9 47.2C284 58.9 284 72.8 277.9 84.5C275 90 270.6 94.7 265.2 97.9C253.8 104.5 239.8 104.5 228.4 97.9ZM258.7 89.1C262.4 86.9 265.5 83.7 267.6 79.9C272.1 71.1 272.1 60.7 267.6 51.8C265.5 48 262.5 44.8 258.7 42.6C255.1 40.5 251 39.4 246.8 39.4C238.1 39.4 230 44.1 225.9 51.8C221.4 60.6 221.4 71 225.9 79.9C232.2 91.4 246.7 95.7 258.2 89.4C258.4 89.3 258.6 89.2 258.7 89.1Z" fill="#1E1E1E"/>
<path d="M306.3 126.5C301.4 123.2 297.6 118.3 295.6 112.7L306.2 108.2C307.6 112.2 310.3 115.6 313.8 117.9C317.6 120.4 322 121.8 326.5 121.7C333.7 121.7 339.2 119.6 343.2 115.4C347.2 111.2 349.1 105.3 349.1 97.7V90H348.6C346.2 93.7 342.9 96.6 339 98.6C334.7 100.9 329.8 102 324.9 101.9C319.1 102 313.4 100.4 308.5 97.3C303.5 94.1 299.4 89.7 296.7 84.4C290.9 72.5 290.9 58.5 296.7 46.6C299.4 41.3 303.5 36.8 308.5 33.6C313.4 30.5 319.1 28.9 324.9 29C329.8 28.9 334.7 30.1 339 32.3C342.9 34.3 346.2 37.4 348.6 41.1H349.1V31.2H360.1V98C360.1 109.2 357 117.7 350.8 123.5C344.6 129.3 336.5 132.3 326.4 132.3C318.3 132.3 311.6 130.3 306.3 126.5ZM337.9 88.4C341.4 86.2 344.2 83.1 346.1 79.4C348.2 75.1 349.3 70.3 349.2 65.5C349.3 60.7 348.3 55.9 346.1 51.5C344.3 47.8 341.4 44.7 337.9 42.6C330.8 38.5 322.1 38.5 315.1 42.7C311.6 44.9 308.7 48 306.8 51.7C304.7 56 303.6 60.8 303.7 65.6C303.6 70.4 304.6 75.2 306.8 79.6C308.6 83.3 311.5 86.4 315.1 88.6C318.6 90.6 322.5 91.7 326.5 91.7C330.5 91.6 334.5 90.5 337.9 88.4Z" fill="#1E1E1E"/>
<path d="M388.9 3.10001V100.7H377.3V3.10001H388.9Z" fill="#1E1E1E"/>
<path d="M418.5 98C413.2 94.8 409 90.3 406.2 84.9C403.2 79.1 401.7 72.6 401.8 66C401.7 59.6 403.2 53.3 406 47.5C408.6 42 412.7 37.3 417.9 34C423.2 30.6 429.3 28.9 435.6 29C441.8 28.8 447.9 30.4 453.3 33.6C458.3 36.6 462.3 41 464.8 46.2C467.6 51.9 468.9 58.2 468.8 64.6C468.8 65.8 468.7 67 468.5 68.1H413.5C413.6 72.8 414.9 77.4 417.3 81.5C419.4 85 422.4 87.8 426 89.7C429.4 91.5 433.2 92.4 437 92.4C446.1 92.4 452.9 88.2 457.6 79.9L467.4 84.7C464.6 90.1 460.4 94.7 455.2 98C450 101.3 443.8 103 436.5 103C430.1 102.9 423.9 101.3 418.5 98ZM453.9 49.8C452.3 46.8 450 44.2 447.1 42.4C444 40.4 440.1 39.4 435.4 39.4C430.3 39.3 425.3 41.2 421.5 44.6C417.6 48.3 415 53.1 414 58.4H456.4C456.1 55.5 455.3 52.5 453.9 49.8Z" fill="#1E1E1E"/>
<path d="M524.6 96.1C517 91.8 510.7 85.4 506.4 77.8C497.6 61.6 497.6 42.1 506.4 25.9C510.7 18.3 517 11.9 524.6 7.6C532.4 3.1 541.3 0.799993 550.3 0.899993C557.2 0.799993 564 2.2 570.3 5C576.4 7.7 581.7 11.8 586 16.9L577.7 24.9C574.4 20.8 570.2 17.4 565.5 15.1C560.7 12.9 555.5 11.9 550.3 12C543.5 11.9 536.8 13.7 530.8 17C524.9 20.3 520 25.1 516.7 31C509.7 44.1 509.7 59.8 516.7 72.8C520 78.7 524.9 83.5 530.8 86.8C536.7 90.1 543.5 91.9 550.3 91.8C562.1 91.8 572.1 86.9 580.4 77.2L588.9 85.4C584.4 90.8 578.7 95.2 572.2 98.1C557 105 539.3 104.2 524.6 96.1Z" fill="#1E1E1E"/>
<path d="M613.4 3.10001V100.7H601.8V3.10001H613.4Z" fill="#1E1E1E"/>
<path d="M643.6 97.9C638.2 94.7 633.8 90.1 630.9 84.5C624.8 72.8 624.8 58.9 630.9 47.2C633.8 41.7 638.3 37.1 643.6 33.8C655 27.3 669 27.3 680.4 33.8C685.8 37 690.2 41.6 693.1 47.2C699.2 58.9 699.2 72.8 693.1 84.5C690.2 90 685.7 94.7 680.4 97.9C669 104.5 654.9 104.5 643.6 97.9ZM673.9 89.1C677.6 86.9 680.7 83.7 682.7 79.9C687.2 71.1 687.2 60.7 682.7 51.8C680.6 48 677.6 44.8 673.9 42.6C670.3 40.5 666.2 39.4 662 39.4C653.3 39.4 645.2 44.1 641 51.8C636.6 60.6 636.6 71 641 79.9C647.3 91.4 661.8 95.7 673.3 89.4C673.5 89.3 673.7 89.2 673.9 89.1Z" fill="#1E1E1E"/>
<path d="M716.5 95.5C712.1 90.6 709.9 83.7 709.9 74.9V31.2H721.5V73.2C721.5 79.8 723 84.7 726 87.8C729 90.9 733 92.4 738.1 92.4C741.8 92.5 745.5 91.4 748.5 89.3C751.5 87.2 754 84.4 755.6 81.1C757.3 77.8 758.1 74.2 758.1 70.5V31.2H769.7V100.7H758.7V90.6H758.2C756 94.3 752.9 97.3 749.1 99.3C745 101.6 740.4 102.8 735.8 102.8C727.3 102.8 720.9 100.4 716.5 95.5Z" fill="#1E1E1E"/>
<path d="M798.8 98C793.7 94.8 789.6 90.2 786.9 84.9C781.1 72.9 781.1 58.9 786.9 47C789.6 41.6 793.7 37 798.8 33.8C803.9 30.6 809.8 29 815.8 29C820.8 28.9 825.6 30.2 830 32.6C833.9 34.7 837.2 37.8 839.5 41.5H840L839.5 31.8V3H851.1V100.6H840.1V90.4H839.6C837.2 94.1 833.9 97.1 830.1 99.2C825.8 101.6 820.9 102.9 815.9 102.8C809.8 102.9 803.9 101.3 798.8 98ZM828.4 89C832 86.7 834.9 83.5 836.8 79.7C841.1 70.9 841.1 60.7 836.8 51.9C834.9 48.1 831.9 44.9 828.4 42.6C821.5 38.2 812.6 38.2 805.7 42.6C802.1 44.9 799.1 48.1 797.2 51.9C792.9 60.6 792.9 70.8 797.2 79.6C799.1 83.4 802.1 86.7 805.7 88.9C812.6 93.4 821.4 93.4 828.4 89Z" fill="#1E1E1E"/>
<path d="M81.2001 520.9H387.8C430.9 520.9 465.9 485.9 465.9 442.8C465.9 399.7 430.9 364.7 387.8 364.7H81.2001C38.1001 364.7 3.1001 399.7 3.1001 442.8C3.1001 485.9 38.1001 520.9 81.2001 520.9Z" fill="#FCE6A4" stroke="#101010" stroke-width="5" stroke-miterlimit="10"/>
<path d="M84.4805 462.7V421.405H89.481V439.794H111.499V421.405H116.5V462.7H111.499V444.23H89.481V462.7H84.4805ZM134.98 463.426C133.017 463.426 131.236 463.056 129.636 462.317C128.037 461.564 126.766 460.482 125.825 459.071C124.884 457.646 124.414 455.925 124.414 453.909C124.414 452.134 124.764 450.696 125.463 449.594C126.161 448.478 127.096 447.604 128.265 446.973C129.435 446.341 130.725 445.87 132.137 445.561C133.561 445.239 134.993 444.983 136.431 444.795C138.313 444.553 139.839 444.372 141.008 444.251C142.191 444.116 143.052 443.894 143.589 443.585C144.14 443.276 144.416 442.738 144.416 441.972V441.811C144.416 439.821 143.872 438.275 142.783 437.173C141.707 436.071 140.074 435.52 137.883 435.52C135.611 435.52 133.83 436.017 132.54 437.012C131.249 438.007 130.342 439.069 129.818 440.198L125.301 438.585C126.108 436.703 127.183 435.238 128.527 434.189C129.885 433.127 131.364 432.388 132.963 431.971C134.576 431.541 136.163 431.326 137.722 431.326C138.717 431.326 139.859 431.447 141.15 431.689C142.453 431.917 143.71 432.394 144.92 433.12C146.143 433.846 147.158 434.942 147.965 436.407C148.771 437.872 149.175 439.835 149.175 442.295V462.7H144.416V458.506H144.174C143.851 459.178 143.314 459.897 142.561 460.664C141.808 461.43 140.807 462.082 139.557 462.619C138.307 463.157 136.781 463.426 134.98 463.426ZM135.705 459.151C137.587 459.151 139.174 458.782 140.464 458.042C141.768 457.303 142.749 456.349 143.408 455.179C144.08 454.01 144.416 452.78 144.416 451.489V447.134C144.214 447.376 143.771 447.598 143.085 447.799C142.413 447.987 141.634 448.156 140.746 448.303C139.873 448.438 139.019 448.559 138.186 448.666C137.366 448.76 136.7 448.841 136.189 448.908C134.953 449.07 133.797 449.332 132.721 449.695C131.659 450.044 130.799 450.575 130.14 451.288C129.495 451.987 129.173 452.941 129.173 454.151C129.173 455.804 129.784 457.054 131.007 457.901C132.244 458.735 133.81 459.151 135.705 459.151ZM162.619 444.069V462.7H157.86V431.729H162.457V436.568H162.86C163.586 434.996 164.689 433.732 166.167 432.778C167.646 431.81 169.555 431.326 171.894 431.326C173.991 431.326 175.826 431.756 177.398 432.616C178.971 433.463 180.194 434.754 181.068 436.488C181.942 438.208 182.379 440.386 182.379 443.021V462.7H177.62V443.343C177.62 440.91 176.988 439.015 175.725 437.657C174.461 436.286 172.727 435.6 170.523 435.6C169.004 435.6 167.646 435.93 166.45 436.588C165.267 437.247 164.332 438.208 163.647 439.472C162.961 440.735 162.619 442.268 162.619 444.069ZM203.656 463.345C200.86 463.345 198.407 462.68 196.296 461.349C194.199 460.018 192.559 458.157 191.376 455.764C190.207 453.371 189.622 450.575 189.622 447.376C189.622 444.15 190.207 441.334 191.376 438.927C192.559 436.521 194.199 434.653 196.296 433.322C198.407 431.991 200.86 431.326 203.656 431.326C206.452 431.326 208.898 431.991 210.995 433.322C213.106 434.653 214.746 436.521 215.915 438.927C217.098 441.334 217.69 444.15 217.69 447.376C217.69 450.575 217.098 453.371 215.915 455.764C214.746 458.157 213.106 460.018 210.995 461.349C208.898 462.68 206.452 463.345 203.656 463.345ZM203.656 459.071C205.78 459.071 207.527 458.526 208.898 457.437C210.27 456.349 211.284 454.917 211.943 453.143C212.602 451.368 212.931 449.446 212.931 447.376C212.931 445.306 212.602 443.377 211.943 441.589C211.284 439.801 210.27 438.356 208.898 437.254C207.527 436.152 205.78 435.6 203.656 435.6C201.532 435.6 199.785 436.152 198.414 437.254C197.042 438.356 196.028 439.801 195.369 441.589C194.71 443.377 194.381 445.306 194.381 447.376C194.381 449.446 194.71 451.368 195.369 453.143C196.028 454.917 197.042 456.349 198.414 457.437C199.785 458.526 201.532 459.071 203.656 459.071ZM224.954 462.7V431.729H229.712V462.7H224.954ZM227.373 426.567C226.446 426.567 225.646 426.251 224.974 425.62C224.315 424.988 223.986 424.228 223.986 423.341C223.986 422.454 224.315 421.694 224.974 421.063C225.646 420.431 226.446 420.115 227.373 420.115C228.301 420.115 229.094 420.431 229.752 421.063C230.425 421.694 230.761 422.454 230.761 423.341C230.761 424.228 230.425 424.988 229.752 425.62C229.094 426.251 228.301 426.567 227.373 426.567ZM254.316 462.7V459.071L267.947 444.15C269.546 442.402 270.864 440.883 271.899 439.593C272.934 438.289 273.7 437.066 274.197 435.923C274.708 434.767 274.964 433.557 274.964 432.294C274.964 430.842 274.614 429.585 273.915 428.523C273.23 427.461 272.289 426.641 271.092 426.063C269.896 425.485 268.552 425.196 267.06 425.196C265.473 425.196 264.089 425.526 262.906 426.184C261.737 426.829 260.829 427.737 260.184 428.906C259.552 430.076 259.236 431.447 259.236 433.02H254.478C254.478 430.6 255.036 428.476 256.151 426.648C257.267 424.82 258.786 423.395 260.708 422.373C262.644 421.352 264.815 420.841 267.221 420.841C269.641 420.841 271.785 421.352 273.653 422.373C275.522 423.395 276.987 424.773 278.049 426.507C279.111 428.241 279.642 430.17 279.642 432.294C279.642 433.813 279.366 435.298 278.815 436.75C278.277 438.188 277.336 439.794 275.992 441.569C274.661 443.33 272.813 445.481 270.447 448.021L261.172 457.941V458.264H280.367V462.7H254.316ZM302.164 463.265C299.126 463.265 296.538 462.438 294.401 460.784C292.264 459.118 290.631 456.705 289.501 453.546C288.372 450.373 287.808 446.542 287.808 442.053C287.808 437.59 288.372 433.779 289.501 430.62C290.644 427.448 292.284 425.028 294.421 423.361C296.572 421.681 299.153 420.841 302.164 420.841C305.175 420.841 307.749 421.681 309.887 423.361C312.037 425.028 313.677 427.448 314.806 430.62C315.949 433.779 316.52 437.59 316.52 442.053C316.52 446.542 315.956 450.373 314.827 453.546C313.697 456.705 312.064 459.118 309.927 460.784C307.79 462.438 305.202 463.265 302.164 463.265ZM302.164 458.829C305.175 458.829 307.514 457.377 309.181 454.473C310.848 451.57 311.681 447.43 311.681 442.053C311.681 438.477 311.298 435.432 310.532 432.919C309.779 430.405 308.69 428.49 307.265 427.172C305.854 425.855 304.153 425.196 302.164 425.196C299.18 425.196 296.848 426.668 295.167 429.612C293.487 432.542 292.647 436.689 292.647 442.053C292.647 445.628 293.023 448.666 293.776 451.167C294.529 453.667 295.611 455.569 297.022 456.873C298.447 458.177 300.161 458.829 302.164 458.829ZM324.182 462.7V459.071L337.813 444.15C339.412 442.402 340.73 440.883 341.765 439.593C342.8 438.289 343.566 437.066 344.063 435.923C344.574 434.767 344.83 433.557 344.83 432.294C344.83 430.842 344.48 429.585 343.781 428.523C343.096 427.461 342.155 426.641 340.958 426.063C339.762 425.485 338.418 425.196 336.926 425.196C335.339 425.196 333.955 425.526 332.772 426.184C331.603 426.829 330.695 427.737 330.05 428.906C329.418 430.076 329.102 431.447 329.102 433.02H324.344C324.344 430.6 324.902 428.476 326.017 426.648C327.133 424.82 328.652 423.395 330.574 422.373C332.51 421.352 334.681 420.841 337.087 420.841C339.507 420.841 341.651 421.352 343.519 422.373C345.388 423.395 346.853 424.773 347.915 426.507C348.977 428.241 349.508 430.17 349.508 432.294C349.508 433.813 349.232 435.298 348.681 436.75C348.143 438.188 347.202 439.794 345.858 441.569C344.527 443.33 342.679 445.481 340.313 448.021L331.038 457.941V458.264H350.233V462.7H324.182ZM356.706 454.231V450.118L374.853 421.405H377.837V427.777H375.821L362.11 449.473V449.795H386.548V454.231H356.706ZM376.143 462.7V452.981V451.066V421.405H380.902V462.7H376.143Z" fill="#0F0F0F"/>
</svg>
