<svg width="1560" height="781" viewBox="0 0 1560 781" fill="none" xmlns="http://www.w3.org/2000/svg">
<path d="M518.9 473.601H851.2" stroke="#1E1E1E" stroke-width="5" stroke-miterlimit="10"/>
<path d="M851.2 473.601C816.2 473.601 768 445.401 767.4 410.401" stroke="#1E1E1E" stroke-width="5" stroke-miterlimit="10"/>
<path d="M851.2 473.601C816.1 473.601 767.9 501.901 767.4 536.901" stroke="#1E1E1E" stroke-width="5" stroke-miterlimit="10"/>
<path d="M51.0999 336.801C41.3999 331.801 33.4999 323.801 28.5999 314.101C23.4999 304.201 20.8999 292.201 20.8999 278.201C20.8999 265.101 23.4999 253.401 28.5999 243.201C33.5999 233.101 41.5999 224.701 51.4999 219.101C61.5999 213.301 73.8999 210.301 88.3999 210.301C101.2 210.301 112.2 212.801 121.4 217.801C130.3 222.601 137.6 230.101 142.2 239.201C146.9 248.501 149.3 259.401 149.3 272.001C149.3 281.401 148.3 289.201 146.3 295.401C144.3 301.701 141.3 306.301 137.2 309.401C133.1 312.501 127.9 314.101 121.7 314.101C113.1 314.101 106.8 311.601 102.7 306.501C98.5999 301.401 96.4999 293.801 96.5999 283.701L113.5 283.901C113.5 288.701 114.2 292.201 115.6 294.401C117 296.601 119.6 297.901 122.2 297.701C124.4 297.701 126.4 296.701 127.7 295.001C129.2 293.201 130.3 290.501 131 286.701C131.8 282.001 132.1 277.201 132 272.401C132 262.501 130.4 254.001 127.1 247.201C124 240.501 118.9 235.001 112.4 231.501C105.9 227.901 97.8999 226.201 88.3999 226.201C78.3999 226.201 69.5999 228.301 62.0999 232.401C54.5999 236.501 48.4999 242.801 44.6999 250.401C40.5999 258.201 38.5999 267.501 38.5999 278.101C38.5999 288.501 40.4999 297.501 44.1999 305.001C47.7999 312.401 53.5999 318.501 60.7999 322.401C68.0999 326.401 76.9999 328.501 87.4999 328.501C91.5999 328.501 95.6999 328.201 99.7999 327.801C103.7 327.401 107.5 326.501 111.1 325.201L108.3 341.901C105.6 343.001 102.7 343.601 99.7999 343.901C95.6999 344.401 91.4999 344.601 87.3999 344.601C72.9999 344.701 60.9999 342.101 51.0999 336.801ZM66.7999 308.001C62.6999 305.101 59.4999 301.101 57.7999 296.401C55.7999 291.301 54.6999 285.101 54.6999 277.901C54.5999 271.801 55.7999 265.801 58.1999 260.201C60.2999 255.301 63.5999 251.001 67.8999 247.701C71.9999 244.701 77.0999 243.101 82.1999 243.201C85.3999 243.201 88.4999 243.901 91.3999 245.401C94.1999 246.901 96.5999 249.001 98.3999 251.501C100.3 254.201 101.6 257.301 102.2 260.601L99.2999 266.101C98.1999 263.601 96.4999 261.401 94.2999 259.801C92.0999 258.401 89.5999 257.701 86.9999 257.801C82.1999 257.801 78.4999 259.501 75.8999 263.001C73.2999 266.501 72.0999 271.501 72.0999 278.001C72.0999 284.301 73.3999 289.201 75.8999 292.801C78.2999 296.301 82.3999 298.301 86.6999 298.201C89.4999 298.201 92.2999 297.701 94.8999 296.601C97.4999 295.601 99.7999 294.101 101.7 292.201L102.4 299.601C100.5 303.301 97.5999 306.401 93.9999 308.601C85.5999 313.301 75.1999 313.101 66.7999 308.001ZM96.3999 283.801V255.801L98.5999 253.301L101.4 245.101H113.4V284.001L96.3999 283.801Z" fill="#1E1E1E"/>
<path d="M170.9 320.301V189.501H215.1C229 189.501 240.9 192.301 251 197.801C260.8 203.101 268.8 211.101 274.2 220.801C279.6 230.601 282.3 242.001 282.3 254.901C282.3 267.801 279.6 279.201 274.2 289.001C268.9 298.801 260.8 306.801 251 312.001C241 317.501 229 320.201 215.1 320.201L170.9 320.301ZM195.6 296.901H214.1C223.7 296.901 231.8 295.201 238.2 291.701C244.4 288.401 249.5 283.301 252.7 277.001C256 270.101 257.7 262.501 257.5 254.901C257.5 246.401 255.9 239.001 252.7 232.701C249.5 226.401 244.4 221.301 238.2 218.101C231.7 214.601 223.7 212.901 214.1 212.901H195.7L195.6 296.901Z" fill="#1E1E1E"/>
<path d="M343.5 323.201C334.7 323.301 326 321.101 318.4 316.801C311.1 312.601 305.1 306.601 301 299.301C292.6 283.701 292.6 264.901 300.9 249.201C304.9 241.801 310.8 235.501 317.9 231.001C325.3 226.401 333.8 224.001 342.5 224.101C352.5 224.101 360.9 226.201 367.7 230.501C374.4 234.601 379.8 240.501 383.2 247.601C386.8 255.001 388.6 263.101 388.5 271.301C388.5 273.301 388.4 274.901 388.3 276.301C388.2 277.701 388.1 278.701 387.9 279.301H307.9V262.301H365.4C365.2 260.101 364.6 257.901 363.6 255.901C362.4 253.601 360.9 251.601 359 249.901C356.9 248.001 354.6 246.501 352 245.401C349 244.201 345.8 243.601 342.6 243.701C338.1 243.701 333.7 244.901 329.9 247.401C326 249.901 322.9 253.401 320.9 257.501C318.6 262.301 317.5 267.601 317.6 272.901C317.6 279.101 318.8 284.401 321.1 288.701C323.2 292.801 326.5 296.301 330.5 298.601C334.5 300.901 339.1 302.001 343.7 302.001C349.4 302.001 354.2 300.701 358.1 298.201C361.9 295.801 365 292.601 367.2 288.801L386.6 298.301C382.5 305.701 376.6 311.901 369.4 316.501C362.6 321.001 353.8 323.201 343.5 323.201Z" fill="#1E1E1E"/>
<path d="M429.2 320.301L389.7 227.201H416.9L440.5 287.801H442L465.9 227.201H492.8L452.9 320.401L429.2 320.301Z" fill="#1E1E1E"/>
<path d="M505 320.301V189.501H587.9V212.901H529.6V320.301H505ZM518.7 268.101V244.701H582.1V268.101H518.7Z" fill="#1E1E1E"/>
<path d="M644.4 323.201C635.6 323.301 626.9 321.101 619.3 316.801C612 312.601 606 306.601 602 299.301C593.6 283.701 593.6 264.901 601.9 249.201C605.9 241.801 611.8 235.501 618.9 231.001C626.3 226.401 634.8 224.001 643.6 224.101C653.6 224.101 662 226.201 668.8 230.501C675.5 234.601 680.9 240.501 684.3 247.601C687.9 255.001 689.7 263.101 689.6 271.301C689.6 273.301 689.5 274.901 689.4 276.301C689.3 277.701 689.1 278.701 689 279.301H609V262.301H666.5C666.3 260.101 665.7 257.901 664.7 255.901C663.5 253.601 662 251.601 660.1 249.901C655.6 245.801 649.7 243.601 643.7 243.701C639.2 243.701 634.8 244.901 631 247.401C627.1 249.901 624 253.401 622 257.501C619.7 262.301 618.6 267.601 618.7 272.901C618.7 279.101 619.9 284.401 622.2 288.701C624.3 292.801 627.6 296.301 631.6 298.601C635.6 300.901 640.2 302.001 644.8 302.001C650.5 302.001 655.3 300.701 659.2 298.201C663 295.801 666.1 292.601 668.3 288.801L687.7 298.301C683.6 305.701 677.7 311.901 670.5 316.501C663.5 321.001 654.8 323.201 644.4 323.201Z" fill="#1E1E1E"/>
<path d="M740.2 323.201C732.2 323.201 725.3 322.001 719.7 319.701C714.5 317.701 709.8 314.601 705.9 310.601C702.5 307.001 699.8 302.801 698 298.201L719.4 288.901C721.2 293.001 724.1 296.401 727.8 298.901C731.5 301.201 735.8 302.301 740.2 302.201C743.8 302.301 747.4 301.601 750.8 300.301C753.8 299.301 755.7 296.401 755.6 293.301C755.7 291.101 754.8 289.001 753.1 287.501C751.3 286.001 749.2 284.901 747 284.201C744.5 283.401 742 282.801 739.5 282.301L728.5 279.901C724 278.901 719.6 277.201 715.7 274.701C711.8 272.301 708.4 269.101 705.9 265.201C703.4 261.301 702.1 256.601 702.1 252.001C702 246.701 703.7 241.601 706.9 237.401C710.4 233.101 714.9 229.701 720.1 227.701C725.9 225.301 732.2 224.101 738.5 224.201C744.2 224.101 749.8 224.901 755.3 226.401C760 227.701 764.5 230.001 768.3 233.101C772 236.201 775 240.101 777.1 244.501L756.6 253.501C755 250.201 752.3 247.501 749 245.801C745.9 244.301 742.5 243.601 739 243.601C734.9 243.601 731.6 244.401 729.1 246.001C726.7 247.601 725.4 249.501 725.4 251.701C725.4 254.001 726.6 256.001 729.1 257.701C731.8 259.501 734.7 260.801 737.9 261.501L751.6 264.801C760.9 267.001 767.8 270.501 772.5 275.401C777.1 280.101 779.6 286.401 779.5 292.901C779.6 298.701 777.7 304.301 774.2 308.901C770.5 313.601 765.5 317.301 759.9 319.501C753.8 322.001 747 323.301 740.2 323.201Z" fill="#1E1E1E"/>
<path d="M787.2 247.601V227.201H804.4V247.701L787.2 247.601ZM834.3 321.801C824.7 321.801 817.1 319.001 811.6 313.501C806.1 308.001 803.4 300.301 803.4 290.601V200.901H827.3V286.201C827.3 290.701 828.2 294.001 830 296.201C831.8 298.401 834.8 299.401 839 299.401C840.9 299.401 842.7 299.101 844.5 298.601C846.7 297.801 848.9 296.701 850.9 295.401V318.801C848.3 319.801 845.5 320.501 842.8 321.101C840.1 321.601 837.2 321.801 834.3 321.801ZM826.5 247.601V227.201H850.3V247.701L826.5 247.601Z" fill="#1E1E1E"/>
<path d="M46.1 127.301C38.4 122.901 32.1 116.601 27.7 108.901C18.6 92.8008 18.6 73.2008 27.7 57.1008C36.7 41.5008 53.4 31.9008 71.4 32.0008C78.3 32.0008 85.2 33.2008 91.6 35.8008C97.6 38.1008 102.9 41.8008 107.2 46.6008L99 54.9008C95.8 51.0008 91.7 48.0008 87 46.1008C75.7 41.4008 62.9 42.1008 52.3 48.0008C46.3 51.3008 41.4 56.1008 37.9 62.0008C30.7 75.0008 30.7 90.8008 37.9 103.801C41.3 109.701 46.3 114.501 52.3 117.801C58.2 121.101 64.8 122.801 71.5 122.801C78 122.801 83.5 121.801 87.9 119.701C92.2 117.701 96 115.001 99.3 111.601C101.8 108.901 103.7 105.801 105 102.401C106.5 98.6008 107.5 94.6008 107.8 90.5008H71.7V79.7008H118.6C119 82.0008 119.3 84.4008 119.3 86.8008C119.3 92.8008 118.3 98.7008 116.4 104.301C114.5 109.901 111.4 115.001 107.3 119.201C98.3 128.901 86.4 133.801 71.5 133.801C62.6 134.101 53.9 131.801 46.1 127.301Z" fill="#1E1E1E"/>
<path d="M147.1 129.101C141.7 125.901 137.3 121.301 134.4 115.701C128.3 104.001 128.3 90.1008 134.4 78.4008C137.3 72.9008 141.8 68.2008 147.1 65.0008C158.5 58.5008 172.5 58.5008 183.9 65.0008C189.3 68.2008 193.7 72.8008 196.6 78.4008C202.7 90.1008 202.7 104.001 196.6 115.701C193.7 121.201 189.3 125.801 183.9 129.101C172.5 135.701 158.5 135.701 147.1 129.101ZM177.4 120.301C181.1 118.101 184.2 114.901 186.3 111.101C190.8 102.301 190.8 91.9008 186.3 83.0008C184.2 79.2008 181.2 76.0008 177.4 73.8008C173.8 71.7008 169.7 70.6008 165.5 70.6008C156.8 70.6008 148.7 75.3008 144.6 83.0008C140.2 91.8008 140.2 102.201 144.6 111.101C150.9 122.601 165.4 126.901 176.9 120.601C177.1 120.501 177.3 120.401 177.4 120.301Z" fill="#1E1E1E"/>
<path d="M228.3 129.101C222.9 125.901 218.5 121.301 215.6 115.701C209.5 104.001 209.5 90.1008 215.6 78.4008C218.5 72.9008 223 68.3008 228.3 65.0008C239.7 58.5008 253.7 58.5008 265.1 65.0008C270.5 68.2008 274.9 72.8008 277.8 78.4008C283.9 90.1008 283.9 104.001 277.8 115.701C274.9 121.201 270.5 125.901 265.1 129.101C253.7 135.701 239.7 135.701 228.3 129.101ZM258.6 120.301C262.3 118.101 265.4 114.901 267.5 111.101C272 102.301 272 91.9008 267.5 83.0008C265.4 79.2008 262.4 76.0008 258.6 73.8008C255 71.7008 250.9 70.6008 246.7 70.6008C238 70.6008 229.9 75.3008 225.8 83.0008C221.3 91.8008 221.3 102.201 225.8 111.101C232.1 122.601 246.6 126.901 258.1 120.601C258.3 120.501 258.5 120.401 258.6 120.301Z" fill="#1E1E1E"/>
<path d="M306.2 157.701C301.3 154.401 297.5 149.501 295.5 143.901L306.1 139.401C307.5 143.401 310.2 146.801 313.7 149.101C317.5 151.601 321.9 153.001 326.4 152.901C333.6 152.901 339.1 150.801 343.1 146.601C347.1 142.401 349 136.501 349 128.901V121.201H348.5C346.1 124.901 342.8 127.801 338.9 129.801C334.6 132.101 329.7 133.201 324.8 133.101C319 133.201 313.3 131.601 308.4 128.501C303.4 125.301 299.3 120.901 296.6 115.601C290.8 103.701 290.8 89.7008 296.6 77.8008C299.3 72.5008 303.4 68.0008 308.4 64.8008C313.3 61.7008 319 60.1008 324.8 60.2008C329.7 60.1008 334.6 61.3008 338.9 63.5008C342.8 65.5008 346.1 68.6008 348.5 72.3008H349V62.4008H360V129.201C360 140.401 356.9 148.901 350.7 154.701C344.5 160.501 336.4 163.501 326.3 163.501C318.2 163.501 311.5 161.501 306.2 157.701ZM337.8 119.601C341.3 117.401 344.1 114.301 346 110.601C348.1 106.301 349.2 101.501 349.1 96.7008C349.2 91.9008 348.2 87.1008 346 82.7008C344.2 79.0008 341.3 75.9008 337.8 73.8008C330.7 69.7008 322 69.7008 315 73.9008C311.5 76.1008 308.6 79.2008 306.7 82.9008C304.6 87.2008 303.5 92.0008 303.6 96.8008C303.5 101.601 304.5 106.401 306.7 110.801C308.5 114.501 311.4 117.601 315 119.801C318.5 121.801 322.4 122.901 326.4 122.901C330.4 122.801 334.4 121.701 337.8 119.601Z" fill="#1E1E1E"/>
<path d="M388.8 34.3008V131.901H377.2V34.3008H388.8Z" fill="#1E1E1E"/>
<path d="M418.4 129.201C413.1 126.001 408.9 121.501 406.1 116.101C403.1 110.301 401.6 103.801 401.7 97.2008C401.6 90.8008 403.1 84.5008 405.9 78.7008C408.5 73.2008 412.6 68.5008 417.8 65.2008C423.1 61.8008 429.2 60.1008 435.5 60.2008C441.7 60.0008 447.8 61.6008 453.2 64.8008C458.2 67.8008 462.2 72.2008 464.7 77.4008C467.5 83.1008 468.8 89.4008 468.7 95.8008C468.7 97.0008 468.6 98.2008 468.4 99.3008H413.4C413.5 104.001 414.8 108.601 417.2 112.701C419.3 116.201 422.3 119.001 425.9 120.901C429.3 122.701 433.1 123.601 436.9 123.601C446 123.601 452.8 119.401 457.5 111.101L467.3 115.901C464.5 121.301 460.3 125.901 455.1 129.201C449.9 132.501 443.7 134.201 436.4 134.201C430 134.101 423.8 132.501 418.4 129.201ZM453.8 81.0008C452.2 78.0008 449.9 75.4008 447 73.6008C443.9 71.6008 440 70.6008 435.3 70.6008C430.2 70.5008 425.2 72.4008 421.4 75.8008C417.5 79.5008 414.9 84.3008 413.9 89.6008H456.3C456 86.7008 455.2 83.7008 453.8 81.0008Z" fill="#1E1E1E"/>
<path d="M524.5 127.301C516.9 123.001 510.6 116.601 506.3 109.001C497.5 92.8008 497.5 73.3008 506.3 57.1008C510.6 49.5008 516.9 43.1008 524.5 38.8008C532.3 34.3008 541.2 32.0008 550.2 32.1008C557.1 32.0008 563.9 33.4008 570.2 36.2008C576.3 38.9008 581.6 43.0008 585.9 48.1008L577.6 56.1008C574.3 52.0008 570.1 48.6008 565.4 46.3008C560.6 44.1008 555.4 43.1008 550.2 43.2008C543.4 43.1008 536.7 44.9008 530.7 48.2008C524.8 51.5008 519.9 56.3008 516.6 62.2008C509.6 75.3008 509.6 91.0008 516.6 104.001C519.9 109.901 524.8 114.701 530.7 118.001C536.6 121.301 543.4 123.101 550.2 123.001C562 123.001 572 118.101 580.3 108.401L588.8 116.601C584.3 122.001 578.6 126.401 572.1 129.301C556.9 136.201 539.2 135.401 524.5 127.301Z" fill="#1E1E1E"/>
<path d="M613.3 34.3008V131.901H601.7V34.3008H613.3Z" fill="#1E1E1E"/>
<path d="M643.5 129.101C638.1 125.901 633.7 121.301 630.8 115.701C624.7 104.001 624.7 90.1008 630.8 78.4008C633.7 72.9008 638.2 68.3008 643.5 65.0008C654.9 58.5008 668.9 58.5008 680.3 65.0008C685.7 68.2008 690.1 72.8008 693 78.4008C699.1 90.1008 699.1 104.001 693 115.701C690.1 121.201 685.6 125.901 680.3 129.101C668.9 135.701 654.8 135.701 643.5 129.101ZM673.8 120.301C677.5 118.101 680.6 114.901 682.6 111.101C687.1 102.301 687.1 91.9008 682.6 83.0008C680.5 79.2008 677.5 76.0008 673.8 73.8008C670.2 71.7008 666.1 70.6008 661.9 70.6008C653.2 70.6008 645.1 75.3008 640.9 83.0008C636.5 91.8008 636.5 102.201 640.9 111.101C647.2 122.601 661.7 126.901 673.2 120.601C673.4 120.501 673.6 120.401 673.8 120.301Z" fill="#1E1E1E"/>
<path d="M716.4 126.701C712 121.801 709.8 114.901 709.8 106.101V62.4008H721.4V104.401C721.4 111.001 722.9 115.901 725.9 119.001C728.9 122.101 732.9 123.601 738 123.601C741.7 123.701 745.4 122.601 748.4 120.501C751.4 118.401 753.9 115.601 755.5 112.301C757.2 109.001 758 105.401 758 101.701V62.4008H769.6V131.901H758.6V121.801H758.1C755.9 125.501 752.8 128.501 749 130.501C744.9 132.801 740.3 134.001 735.7 134.001C727.2 134.001 720.8 131.601 716.4 126.701Z" fill="#1E1E1E"/>
<path d="M798.7 129.201C793.6 126.001 789.5 121.401 786.8 116.101C781 104.101 781 90.1008 786.8 78.2008C789.5 72.8008 793.6 68.2008 798.7 65.0008C803.8 61.8008 809.7 60.2008 815.7 60.2008C820.7 60.1008 825.5 61.4008 829.9 63.8008C833.8 65.9008 837.1 69.0008 839.4 72.7008H839.9L839.4 63.0008V34.2008H851V131.801H840V121.601H839.5C837.1 125.301 833.8 128.301 830 130.401C825.7 132.801 820.8 134.101 815.8 134.001C809.7 134.101 803.8 132.501 798.7 129.201ZM828.3 120.201C831.9 117.901 834.8 114.701 836.7 110.901C841 102.101 841 91.9008 836.7 83.1008C834.8 79.3008 831.8 76.1008 828.3 73.8008C821.4 69.4008 812.5 69.4008 805.6 73.8008C802 76.1008 799 79.3008 797.1 83.1008C792.8 91.8008 792.8 102.001 797.1 110.801C799 114.601 802 117.901 805.6 120.101C812.5 124.601 821.3 124.601 828.3 120.201Z" fill="#1E1E1E"/>
<path d="M81.1 552.101H387.7C430.8 552.101 465.8 517.101 465.8 474.001C465.8 430.901 430.8 395.901 387.7 395.901H81.1C38 395.901 3 430.901 3 474.001C3 517.101 38 552.101 81.1 552.101Z" fill="#FCE6A4" stroke="#101010" stroke-width="5" stroke-miterlimit="10"/>
<path d="M84.3804 493.901V452.606H89.3809V470.995H111.399V452.606H116.4V493.901H111.399V475.431H89.3809V493.901H84.3804ZM134.88 494.627C132.917 494.627 131.136 494.257 129.536 493.518C127.937 492.765 126.666 491.683 125.725 490.271C124.784 488.847 124.314 487.126 124.314 485.11C124.314 483.335 124.663 481.897 125.362 480.795C126.061 479.679 126.996 478.805 128.165 478.173C129.335 477.542 130.625 477.071 132.036 476.762C133.461 476.439 134.893 476.184 136.331 475.996C138.213 475.754 139.739 475.572 140.908 475.451C142.091 475.317 142.952 475.095 143.489 474.786C144.04 474.477 144.316 473.939 144.316 473.173V473.012C144.316 471.022 143.772 469.476 142.683 468.374C141.607 467.272 139.974 466.721 137.783 466.721C135.511 466.721 133.73 467.218 132.44 468.213C131.149 469.207 130.242 470.269 129.718 471.398L125.201 469.785C126.008 467.904 127.083 466.438 128.427 465.39C129.785 464.328 131.264 463.589 132.863 463.172C134.476 462.742 136.062 462.527 137.622 462.527C138.616 462.527 139.759 462.648 141.049 462.89C142.353 463.118 143.61 463.595 144.82 464.321C146.043 465.047 147.058 466.143 147.865 467.608C148.671 469.073 149.075 471.036 149.075 473.495V493.901H144.316V489.707H144.074C143.751 490.379 143.214 491.098 142.461 491.864C141.708 492.63 140.707 493.282 139.457 493.82C138.206 494.358 136.681 494.627 134.88 494.627ZM135.605 490.352C137.487 490.352 139.073 489.982 140.364 489.243C141.668 488.504 142.649 487.549 143.308 486.38C143.98 485.21 144.316 483.98 144.316 482.69V478.335C144.114 478.577 143.671 478.798 142.985 479C142.313 479.188 141.533 479.356 140.646 479.504C139.772 479.639 138.919 479.76 138.085 479.867C137.266 479.961 136.6 480.042 136.089 480.109C134.853 480.27 133.697 480.532 132.621 480.895C131.559 481.245 130.699 481.776 130.04 482.488C129.395 483.187 129.072 484.142 129.072 485.352C129.072 487.005 129.684 488.255 130.907 489.102C132.144 489.935 133.71 490.352 135.605 490.352ZM162.518 475.27V493.901H157.76V462.93H162.357V467.769H162.76C163.486 466.196 164.589 464.933 166.067 463.978C167.546 463.011 169.455 462.527 171.794 462.527C173.891 462.527 175.725 462.957 177.298 463.817C178.871 464.664 180.094 465.954 180.968 467.688C181.842 469.409 182.279 471.587 182.279 474.221V493.901H177.52V474.544C177.52 472.111 176.888 470.216 175.625 468.858C174.361 467.487 172.627 466.801 170.422 466.801C168.903 466.801 167.546 467.131 166.349 467.789C165.167 468.448 164.232 469.409 163.547 470.673C162.861 471.936 162.518 473.469 162.518 475.27ZM203.556 494.546C200.76 494.546 198.307 493.881 196.196 492.55C194.099 491.219 192.459 489.357 191.276 486.965C190.107 484.572 189.522 481.776 189.522 478.577C189.522 475.351 190.107 472.534 191.276 470.128C192.459 467.722 194.099 465.854 196.196 464.523C198.307 463.192 200.76 462.527 203.556 462.527C206.352 462.527 208.798 463.192 210.895 464.523C213.006 465.854 214.646 467.722 215.815 470.128C216.998 472.534 217.59 475.351 217.59 478.577C217.59 481.776 216.998 484.572 215.815 486.965C214.646 489.357 213.006 491.219 210.895 492.55C208.798 493.881 206.352 494.546 203.556 494.546ZM203.556 490.271C205.68 490.271 207.427 489.727 208.798 488.638C210.169 487.549 211.184 486.118 211.843 484.343C212.502 482.569 212.831 480.647 212.831 478.577C212.831 476.507 212.502 474.578 211.843 472.79C211.184 471.002 210.169 469.557 208.798 468.455C207.427 467.352 205.68 466.801 203.556 466.801C201.432 466.801 199.685 467.352 198.313 468.455C196.942 469.557 195.927 471.002 195.269 472.79C194.61 474.578 194.281 476.507 194.281 478.577C194.281 480.647 194.61 482.569 195.269 484.343C195.927 486.118 196.942 487.549 198.313 488.638C199.685 489.727 201.432 490.271 203.556 490.271ZM224.853 493.901V462.93H229.612V493.901H224.853ZM227.273 457.768C226.346 457.768 225.546 457.452 224.874 456.82C224.215 456.189 223.886 455.429 223.886 454.542C223.886 453.655 224.215 452.895 224.874 452.263C225.546 451.632 226.346 451.316 227.273 451.316C228.201 451.316 228.994 451.632 229.652 452.263C230.324 452.895 230.66 453.655 230.66 454.542C230.66 455.429 230.324 456.189 229.652 456.82C228.994 457.452 228.201 457.768 227.273 457.768ZM254.216 493.901V490.271L267.847 475.351C269.446 473.603 270.764 472.084 271.799 470.794C272.834 469.49 273.6 468.266 274.097 467.124C274.608 465.968 274.864 464.758 274.864 463.494C274.864 462.043 274.514 460.786 273.815 459.724C273.13 458.662 272.189 457.842 270.992 457.264C269.796 456.686 268.452 456.397 266.96 456.397C265.373 456.397 263.989 456.726 262.806 457.385C261.636 458.03 260.729 458.938 260.084 460.107C259.452 461.276 259.136 462.648 259.136 464.22H254.378C254.378 461.801 254.935 459.677 256.051 457.849C257.167 456.021 258.686 454.596 260.608 453.574C262.544 452.552 264.715 452.042 267.121 452.042C269.54 452.042 271.684 452.552 273.553 453.574C275.421 454.596 276.887 455.974 277.949 457.708C279.011 459.442 279.541 461.371 279.541 463.494C279.541 465.013 279.266 466.499 278.715 467.951C278.177 469.389 277.236 470.995 275.892 472.77C274.561 474.531 272.713 476.681 270.347 479.222L261.072 489.142V489.465H280.267V493.901H254.216ZM302.064 494.465C299.026 494.465 296.438 493.639 294.301 491.985C292.164 490.318 290.531 487.906 289.401 484.747C288.272 481.574 287.708 477.743 287.708 473.254C287.708 468.791 288.272 464.98 289.401 461.821C290.544 458.649 292.184 456.229 294.321 454.562C296.472 452.882 299.053 452.042 302.064 452.042C305.075 452.042 307.649 452.882 309.787 454.562C311.937 456.229 313.577 458.649 314.706 461.821C315.849 464.98 316.42 468.791 316.42 473.254C316.42 477.743 315.856 481.574 314.727 484.747C313.597 487.906 311.964 490.318 309.827 491.985C307.69 493.639 305.102 494.465 302.064 494.465ZM302.064 490.029C305.075 490.029 307.414 488.578 309.081 485.674C310.748 482.771 311.581 478.63 311.581 473.254C311.581 469.678 311.198 466.633 310.432 464.12C309.679 461.606 308.59 459.69 307.165 458.373C305.754 457.056 304.053 456.397 302.064 456.397C299.08 456.397 296.748 457.869 295.067 460.813C293.387 463.743 292.547 467.89 292.547 473.254C292.547 476.829 292.923 479.867 293.676 482.367C294.429 484.868 295.511 486.77 296.922 488.074C298.347 489.377 300.061 490.029 302.064 490.029ZM324.082 493.901V490.271L337.713 475.351C339.312 473.603 340.63 472.084 341.665 470.794C342.7 469.49 343.466 468.266 343.963 467.124C344.474 465.968 344.73 464.758 344.73 463.494C344.73 462.043 344.38 460.786 343.681 459.724C342.996 458.662 342.055 457.842 340.858 457.264C339.662 456.686 338.318 456.397 336.826 456.397C335.239 456.397 333.855 456.726 332.672 457.385C331.502 458.03 330.595 458.938 329.95 460.107C329.318 461.276 329.002 462.648 329.002 464.22H324.244C324.244 461.801 324.801 459.677 325.917 457.849C327.033 456.021 328.552 454.596 330.474 453.574C332.41 452.552 334.581 452.042 336.987 452.042C339.406 452.042 341.55 452.552 343.419 453.574C345.287 454.596 346.753 455.974 347.815 457.708C348.877 459.442 349.407 461.371 349.407 463.494C349.407 465.013 349.132 466.499 348.581 467.951C348.043 469.389 347.102 470.995 345.758 472.77C344.427 474.531 342.579 476.681 340.213 479.222L330.938 489.142V489.465H350.133V493.901H324.082ZM356.606 485.432V481.319L374.753 452.606H377.737V458.978H375.721L362.01 480.674V480.996H386.448V485.432H356.606ZM376.043 493.901V484.182V482.267V452.606H380.802V493.901H376.043Z" fill="#0F0F0F"/>
<path d="M1497.3 62.3H1037.3V522.3H1497.3V62.3Z" fill="#4285F4" stroke="#1E1E1E" stroke-width="5" stroke-linejoin="round"/>
<path d="M1357.8 211.4H1176.5V522.4H1357.8V211.4Z" fill="#F0F0F0" stroke="#1E1E1E" stroke-width="5" stroke-linecap="round" stroke-linejoin="round"/>
<path d="M1383.6 340.7H1150.9V364.5H1383.6V340.7Z" fill="#FFE7A5" stroke="#1E1E1E" stroke-width="5" stroke-linecap="round" stroke-linejoin="round"/>
<path d="M1150.9 340.7V364.4" stroke="#1E1E1E" stroke-width="5" stroke-linecap="round" stroke-linejoin="round"/>
<path d="M1214.4 340.7V364.4" stroke="#1E1E1E" stroke-width="5" stroke-linecap="round" stroke-linejoin="round"/>
<path d="M1172.1 340.7V364.4" stroke="#1E1E1E" stroke-width="5" stroke-linecap="round" stroke-linejoin="round"/>
<path d="M1193.2 340.7V364.4" stroke="#1E1E1E" stroke-width="5" stroke-linecap="round" stroke-linejoin="round"/>
<path d="M1235.5 340.7V364.4" stroke="#1E1E1E" stroke-width="5" stroke-linecap="round" stroke-linejoin="round"/>
<path d="M1256.7 340.7V364.4" stroke="#1E1E1E" stroke-width="5" stroke-linecap="round" stroke-linejoin="round"/>
<path d="M1277.8 340.7V364.4" stroke="#1E1E1E" stroke-width="5" stroke-linecap="round" stroke-linejoin="round"/>
<path d="M1299 340.7V364.4" stroke="#1E1E1E" stroke-width="5" stroke-linecap="round" stroke-linejoin="round"/>
<path d="M1320.2 340.7V364.4" stroke="#1E1E1E" stroke-width="5" stroke-linecap="round" stroke-linejoin="round"/>
<path d="M1341.3 340.7V364.4" stroke="#1E1E1E" stroke-width="5" stroke-linecap="round" stroke-linejoin="round"/>
<path d="M1362.5 340.7V364.4" stroke="#1E1E1E" stroke-width="5" stroke-linecap="round" stroke-linejoin="round"/>
<path d="M1383.6 340.7V364.4" stroke="#1E1E1E" stroke-width="5" stroke-linecap="round" stroke-linejoin="round"/>
<path d="M1391.4 364.9H1143.2V379.9H1391.4V364.9Z" fill="#FF7DAF" stroke="#1E1E1E" stroke-width="5" stroke-linecap="round" stroke-linejoin="round"/>
<path d="M1388.1 156.4C1388.1 156.4 1386.9 179.1 1356.3 179.1H1178.3C1147.6 179.1 1146.5 156.4 1146.5 156.4C1178.3 179.6 1203.1 124.1 1203.1 124.1H1331.7C1331.6 124.1 1356.4 179.6 1388.1 156.4Z" fill="#EA4335" stroke="#1E1E1E" stroke-width="5" stroke-linecap="round" stroke-linejoin="round"/>
<path d="M1226 281.4H1236.9C1238 287.6 1241 293.3 1245.5 297.8L1246.1 298.3C1247.2 299.4 1248.4 300.3 1249.7 301.2C1253.4 303.8 1257.5 305.5 1262 306.3C1263.8 306.6 1265.6 306.8 1267.4 306.8C1269.2 306.8 1271 306.6 1272.8 306.3V340.6H1262V317.2C1260.3 317 1258.6 316.7 1257 316.2L1255.3 315.7C1254.4 315.4 1253.6 315.2 1252.7 314.8C1252.3 314.6 1251.9 314.5 1251.4 314.3C1250.5 313.9 1249.6 313.5 1248.8 313.1L1247.7 312.5C1246.9 312.1 1246.1 311.6 1245.4 311.1C1244.2 310.4 1243.1 309.6 1242 308.7L1210.3 340.4H1202.7V332.8L1234.4 301.1C1232.7 298.9 1231.3 296.6 1230.1 294.1C1229.1 292.1 1228.3 290 1227.6 287.8C1227.4 287.3 1227.3 286.7 1227.1 286.2C1226.6 284.8 1226.3 283.1 1226 281.4Z" fill="#4285F4" stroke="#1E1E1E" stroke-width="5" stroke-linecap="round" stroke-linejoin="round"/>
<path d="M1210.2 211.4L1241.9 243.1C1243.2 242.1 1244.6 241.2 1246 240.3C1246.5 240 1247 239.7 1247.4 239.5C1247.8 239.3 1248.6 238.9 1249.2 238.6C1249.8 238.3 1250.4 238 1251 237.8L1251.6 237.6L1252.6 237.2C1253 237 1253.4 236.9 1253.9 236.7C1254.4 236.5 1254.9 236.4 1255.4 236.2C1257.5 235.6 1259.7 235.1 1261.9 234.8V245.7C1257.5 246.5 1253.3 248.2 1249.6 250.8C1248.1 251.8 1246.7 253 1245.5 254.3C1244.2 255.6 1243.1 257 1242 258.5C1239.4 262.1 1237.7 266.3 1236.9 270.7C1236.6 272.5 1236.4 274.3 1236.4 276.1C1236.4 277.9 1236.6 279.7 1236.9 281.5H1202.6V270.7H1226C1226.2 269 1226.6 267.3 1227 265.7C1227.2 265.1 1227.3 264.6 1227.5 264.1C1228.2 261.9 1229 259.8 1230 257.8L1230.6 256.6C1231 255.8 1231.5 255 1232 254.2C1232.3 253.8 1232.5 253.4 1232.8 253C1233.1 252.6 1233.3 252.2 1233.6 251.9C1233.9 251.6 1234.1 251.2 1234.4 250.8L1202.7 219.1V211.4H1210.2Z" fill="#EA4335" stroke="#1E1E1E" stroke-width="5" stroke-linecap="round" stroke-linejoin="round"/>
<path d="M1297.6 270.6H1331.9V281.4H1308.5C1308.3 283.1 1307.9 284.8 1307.5 286.4C1307.4 286.9 1307.2 287.5 1307 288C1306.6 289.3 1306.2 290.6 1305.6 291.8C1305.2 292.7 1304.8 293.6 1304.4 294.4L1303.8 295.5C1303.5 296 1303.2 296.5 1303 297C1302.1 298.5 1301.2 299.9 1300.1 301.2L1331.8 332.9V340.5H1324.2L1292.5 308.8L1291.4 309.6C1291 309.9 1290.6 310.1 1290.3 310.4L1289.1 311.2L1287.9 311.9C1287.2 312.3 1286.6 312.7 1285.9 313L1285.2 313.4C1284.5 313.7 1283.8 314 1283.1 314.3C1282.7 314.5 1282.3 314.6 1281.8 314.8L1281.4 314.9C1280.7 315.1 1280.1 315.4 1279.5 315.6L1279.2 315.7L1277.6 316.2C1276 316.6 1274.3 316.9 1272.6 317.2V306.4C1278.8 305.3 1284.5 302.3 1289 297.8C1294.8 292 1298 284.2 1298 276C1298.1 274.2 1297.9 272.4 1297.6 270.6Z" fill="#F9AB00" stroke="#1E1E1E" stroke-width="5" stroke-linecap="round" stroke-linejoin="round"/>
<path d="M1261.9 211.4H1272.7V234.8L1274.1 235C1275.5 235.2 1276.8 235.5 1278.1 235.9L1279.1 236.2C1279.6 236.4 1280.2 236.5 1280.7 236.7C1281.2 236.9 1281.6 237 1282 237.2L1283 237.6C1283.9 238 1284.9 238.4 1285.8 238.9L1287 239.5L1287.2 239.6C1287.7 239.9 1288.2 240.1 1288.6 240.4C1290 241.2 1291.4 242.2 1292.7 243.2L1324.4 211.5H1332V219.1L1300.3 250.8C1301.3 252.1 1302.2 253.5 1303.1 254.9C1303.4 255.4 1303.7 255.9 1303.9 256.3L1304 256.5C1304.2 256.9 1304.4 257.3 1304.6 257.7C1305 258.5 1305.4 259.4 1305.8 260.3C1306 260.7 1306.1 261.1 1306.3 261.5C1306.5 261.9 1306.6 262.4 1306.8 262.8C1307 263.2 1307 263.5 1307.1 263.8C1307.1 263.9 1307.2 264.1 1307.2 264.2C1307.8 266.3 1308.3 268.5 1308.6 270.7H1297.7C1296.9 266.3 1295.2 262.1 1292.6 258.4C1290.5 255.4 1288 252.9 1285 250.8C1281.3 248.2 1277.2 246.5 1272.7 245.7C1270.9 245.4 1269.1 245.2 1267.3 245.2C1265.5 245.2 1263.7 245.4 1261.9 245.7V211.4Z" fill="#34A853" stroke="#1E1E1E" stroke-width="5" stroke-linecap="round" stroke-linejoin="round"/>
<path d="M1202.6 211.4H1176.5V340.7H1202.6V211.4Z" fill="#FFD427" stroke="#1E1E1E" stroke-width="5" stroke-linecap="round" stroke-linejoin="round"/>
<path d="M1358 211.4H1331.9V340.7H1358V211.4Z" fill="#FFD427" stroke="#1E1E1E" stroke-width="5" stroke-linecap="round" stroke-linejoin="round"/>
<path d="M1202.6 379.8H1150.9V522.1H1202.6V379.8Z" fill="#F8D8D8" stroke="#1E1E1E" stroke-width="5" stroke-linecap="round" stroke-linejoin="round"/>
<path d="M1383.6 379.8H1331.9V522.1H1383.6V379.8Z" fill="#F8D8D8" stroke="#1E1E1E" stroke-width="5" stroke-linecap="round" stroke-linejoin="round"/>
<path d="M1412.5 182.4C1412.5 182.4 1411.1 211.4 1374.2 211.4H1160.3C1123.5 211.4 1122 182.5 1122 182.5C1160.2 205.7 1177.6 179.2 1177.6 179.2H1356.9C1356.9 179.2 1374.3 205.6 1412.5 182.4Z" fill="#F9AB00" stroke="#1E1E1E" stroke-width="5" stroke-linecap="round" stroke-linejoin="round"/>
<path d="M1086.5 9.29999C1086.5 20.4 1079.1 29.4 1070.1 29.4C1061.1 29.4 1053.7 20.4 1053.7 9.29999" stroke="#1E1E1E" stroke-width="5" stroke-linejoin="round"/>
<path d="M1004.4 10.1V3H1037.3V10.3" stroke="#1E1E1E" stroke-width="5" stroke-linejoin="round"/>
<path d="M1103 10.1V3H1135.8V10.3" stroke="#1E1E1E" stroke-width="5" stroke-linejoin="round"/>
<path d="M1185.1 9.29999C1185.1 20.4 1177.7 29.4 1168.7 29.4C1159.7 29.4 1152.3 20.4 1152.3 9.29999" stroke="#1E1E1E" stroke-width="5" stroke-linejoin="round"/>
<path d="M1201.5 10.1V3H1234.4V10.3" stroke="#1E1E1E" stroke-width="5" stroke-linejoin="round"/>
<path d="M1283.7 9.29999C1283.7 20.4 1276.4 29.4 1267.3 29.4C1258.2 29.4 1250.9 20.4 1250.9 9.29999" stroke="#1E1E1E" stroke-width="5" stroke-linejoin="round"/>
<path d="M1300.1 10.1V3H1333V10.3" stroke="#1E1E1E" stroke-width="5" stroke-linejoin="round"/>
<path d="M1382.3 9.29999C1382.3 20.4 1375 29.4 1365.9 29.4C1356.8 29.4 1349.5 20.4 1349.5 9.29999" stroke="#1E1E1E" stroke-width="5" stroke-linejoin="round"/>
<path d="M1398.7 10.1V3H1431.6V10.3" stroke="#1E1E1E" stroke-width="5" stroke-linejoin="round"/>
<path d="M1480.9 9.29999C1480.9 20.4 1473.6 29.4 1464.5 29.4C1455.4 29.4 1448.1 20.4 1448.1 9.29999" stroke="#1E1E1E" stroke-width="5" stroke-linejoin="round"/>
<path d="M1497.3 10.1V3H1530.1V10.3" stroke="#1E1E1E" stroke-width="5" stroke-linejoin="round"/>
<path d="M984.3 473C995.4 473 1004.4 480.3 1004.4 489.4C1004.4 498.5 995.4 505.8 984.3 505.8" stroke="#1E1E1E" stroke-width="5" stroke-linejoin="round"/>
<path d="M985.1 555.2H978V522.3H985.3" stroke="#1E1E1E" stroke-width="5" stroke-linejoin="round"/>
<path d="M985.1 456.6H978V423.7H985.3" stroke="#1E1E1E" stroke-width="5" stroke-linejoin="round"/>
<path d="M984.3 374.5C995.4 374.5 1004.4 381.8 1004.4 390.9C1004.4 400 995.4 407.3 984.3 407.3" stroke="#1E1E1E" stroke-width="5" stroke-linejoin="round"/>
<path d="M985.1 358H978V325.2H985.3" stroke="#1E1E1E" stroke-width="5" stroke-linejoin="round"/>
<path d="M984.3 275.9C995.4 275.9 1004.4 283.3 1004.4 292.3C1004.4 301.3 995.4 308.7 984.3 308.7" stroke="#1E1E1E" stroke-width="5" stroke-linejoin="round"/>
<path d="M985.1 259.4H978V226.6H985.3" stroke="#1E1E1E" stroke-width="5" stroke-linejoin="round"/>
<path d="M984.3 177.3C995.4 177.3 1004.4 184.7 1004.4 193.7C1004.4 202.7 995.4 210.1 984.3 210.1" stroke="#1E1E1E" stroke-width="5" stroke-linejoin="round"/>
<path d="M985.1 160.9H978V128H985.3" stroke="#1E1E1E" stroke-width="5" stroke-linejoin="round"/>
<path d="M984.3 78.7C995.4 78.7 1004.4 86.1 1004.4 95.1C1004.4 104.1 995.4 111.5 984.3 111.5" stroke="#1E1E1E" stroke-width="5" stroke-linejoin="round"/>
<path d="M985.1 62.3H978V29.4H985.3" stroke="#1E1E1E" stroke-width="5" stroke-linejoin="round"/>
<path d="M1550.3 111.6C1539.2 111.6 1530.2 104.2 1530.2 95.2C1530.2 86.2 1539.2 78.8 1550.3 78.8" stroke="#1E1E1E" stroke-width="5" stroke-linejoin="round"/>
<path d="M1549.5 29.4H1556.6V62.3H1549.2" stroke="#1E1E1E" stroke-width="5" stroke-linejoin="round"/>
<path d="M1549.5 128H1556.6V160.9H1549.2" stroke="#1E1E1E" stroke-width="5" stroke-linejoin="round"/>
<path d="M1550.3 210.2C1539.2 210.2 1530.2 202.8 1530.2 193.8C1530.2 184.8 1539.2 177.4 1550.3 177.4" stroke="#1E1E1E" stroke-width="5" stroke-linejoin="round"/>
<path d="M1549.5 226.6H1556.6V259.4H1549.2" stroke="#1E1E1E" stroke-width="5" stroke-linejoin="round"/>
<path d="M1550.3 308.7C1539.2 308.7 1530.2 301.3 1530.2 292.3C1530.2 283.3 1539.2 275.9 1550.3 275.9" stroke="#1E1E1E" stroke-width="5" stroke-linejoin="round"/>
<path d="M1549.5 325.2H1556.6V358H1549.2" stroke="#1E1E1E" stroke-width="5" stroke-linejoin="round"/>
<path d="M1550.3 407.3C1539.2 407.3 1530.2 399.9 1530.2 390.9C1530.2 381.9 1539.2 374.5 1550.3 374.5" stroke="#1E1E1E" stroke-width="5" stroke-linejoin="round"/>
<path d="M1549.5 423.7H1556.6V456.6H1549.2" stroke="#1E1E1E" stroke-width="5" stroke-linejoin="round"/>
<path d="M1550.3 505.9C1539.2 505.9 1530.2 498.5 1530.2 489.5C1530.2 480.5 1539.2 473.1 1550.3 473.1" stroke="#1E1E1E" stroke-width="5" stroke-linejoin="round"/>
<path d="M1549.5 522.3H1556.6V555.2H1549.2" stroke="#1E1E1E" stroke-width="5" stroke-linejoin="round"/>
<path d="M1448 575.3C1448 564.2 1455.4 555.2 1464.4 555.2C1473.4 555.2 1480.8 564.2 1480.8 575.3" stroke="#1E1E1E" stroke-width="5" stroke-linejoin="round"/>
<path d="M1530.1 574.5V581.6H1497.3V574.3" stroke="#1E1E1E" stroke-width="5" stroke-linejoin="round"/>
<path d="M1431.6 574.5V581.6H1398.7V574.3" stroke="#1E1E1E" stroke-width="5" stroke-linejoin="round"/>
<path d="M1349.4 575.3C1349.4 564.2 1356.8 555.2 1365.8 555.2C1374.8 555.2 1382.2 564.2 1382.2 575.3" stroke="#1E1E1E" stroke-width="5" stroke-linejoin="round"/>
<path d="M1333 574.5V581.6H1300.1V574.3" stroke="#1E1E1E" stroke-width="5" stroke-linejoin="round"/>
<path d="M1250.8 575.3C1250.8 564.2 1258.2 555.2 1267.2 555.2C1276.2 555.2 1283.6 564.2 1283.6 575.3" stroke="#1E1E1E" stroke-width="5" stroke-linejoin="round"/>
<path d="M1234.4 574.5V581.6H1201.5V574.3" stroke="#1E1E1E" stroke-width="5" stroke-linejoin="round"/>
<path d="M1152.3 575.3C1152.3 564.2 1159.6 555.2 1168.7 555.2C1177.8 555.2 1185.1 564.2 1185.1 575.3" stroke="#1E1E1E" stroke-width="5" stroke-linejoin="round"/>
<path d="M1135.8 574.5V581.6H1103V574.3" stroke="#1E1E1E" stroke-width="5" stroke-linejoin="round"/>
<path d="M1053.7 575.3C1053.7 564.2 1061 555.2 1070.1 555.2C1079.2 555.2 1086.5 564.2 1086.5 575.3" stroke="#1E1E1E" stroke-width="5" stroke-linejoin="round"/>
<path d="M1037.3 574.5V581.6H1004.4V574.3" stroke="#1E1E1E" stroke-width="5" stroke-linejoin="round"/>
<path d="M1524.4 632.2C1530.9 633.4 1540.3 637.5 1540.2 651C1540 671.5 1540.7 686.8 1540.7 686.8C1540.7 686.8 1541.5 704.2 1556.9 705.3" stroke="#1E1E1E" stroke-width="5" stroke-linejoin="round"/>
<path d="M1524.4 778.4C1530.9 777.2 1540.3 773.1 1540.2 759.6C1540 739.1 1540.7 723.8 1540.7 723.8C1540.7 723.8 1541.5 706.4 1556.9 705.3" stroke="#1E1E1E" stroke-width="5" stroke-linejoin="round"/>
<path d="M36.6001 778.4C30.1001 777.2 20.7001 773.1 20.8001 759.6C21.0001 739.1 20.3001 723.8 20.3001 723.8C20.3001 723.8 19.4001 706.4 4.1001 705.3" stroke="#1E1E1E" stroke-width="5" stroke-linejoin="round"/>
<path d="M36.6001 632.2C30.1001 633.4 20.7001 637.5 20.8001 651C21.0001 671.5 20.3001 686.8 20.3001 686.8C20.3001 686.8 19.4001 704.2 4.1001 705.3" stroke="#1E1E1E" stroke-width="5" stroke-linejoin="round"/>
<path d="M983.1 658H1460.9C1472.9 658 1482.6 667.7 1482.6 679.7V733.9C1482.6 745.9 1472.9 755.6 1460.9 755.6H983.1C971.1 755.6 961.4 745.9 961.4 733.9V679.7C961.5 667.7 971.2 658 983.1 658Z" fill="#CEE5C1" stroke="#1E1E1E" stroke-width="5" stroke-miterlimit="10"/>
<path d="M1050.76 689.881L1050.8 720.521L1047.21 720.524L1030.48 696.485L1030.18 696.485L1030.21 720.542L1026.5 720.546L1026.47 689.906L1030.06 689.902L1046.84 714.002L1047.14 714.001L1047.11 689.884L1050.76 689.881ZM1067.08 720.982C1065 720.984 1063.18 720.493 1061.62 719.507C1060.06 718.521 1058.84 717.141 1057.96 715.367C1057.09 713.592 1056.65 711.518 1056.65 709.144C1056.65 706.75 1057.08 704.66 1057.95 702.874C1058.82 701.088 1060.04 699.7 1061.59 698.711C1063.16 697.722 1064.98 697.227 1067.05 697.224C1069.13 697.222 1070.94 697.714 1072.5 698.7C1074.07 699.686 1075.29 701.071 1076.15 702.855C1077.03 704.639 1077.48 706.729 1077.48 709.122C1077.48 711.496 1077.04 713.571 1076.17 715.347C1075.3 717.124 1074.09 718.506 1072.52 719.495C1070.97 720.485 1069.15 720.98 1067.08 720.982ZM1067.07 717.811C1068.65 717.809 1069.95 717.404 1070.96 716.595C1071.98 715.786 1072.73 714.723 1073.22 713.406C1073.71 712.089 1073.95 710.662 1073.95 709.126C1073.95 707.59 1073.7 706.159 1073.21 704.833C1072.72 703.507 1071.97 702.436 1070.95 701.619C1069.93 700.802 1068.63 700.394 1067.06 700.396C1065.48 700.398 1064.18 700.808 1063.17 701.627C1062.15 702.446 1061.4 703.519 1060.91 704.846C1060.42 706.173 1060.18 707.604 1060.18 709.14C1060.18 710.676 1060.43 712.102 1060.92 713.419C1061.41 714.735 1062.17 715.796 1063.18 716.603C1064.2 717.41 1065.5 717.812 1067.07 717.811ZM1100.82 697.488L1092.35 720.477L1088.76 720.481L1080.24 697.51L1084.07 697.506L1090.43 715.811L1090.67 715.811L1096.99 697.492L1100.82 697.488ZM1114.32 720.933C1112.11 720.935 1110.2 720.448 1108.59 719.473C1106.99 718.487 1105.76 717.112 1104.89 715.347C1104.03 713.573 1103.6 711.509 1103.6 709.155C1103.59 706.801 1104.02 704.726 1104.88 702.93C1105.74 701.124 1106.95 699.716 1108.49 698.707C1110.05 697.688 1111.86 697.177 1113.94 697.175C1115.13 697.174 1116.32 697.372 1117.48 697.77C1118.65 698.168 1119.71 698.815 1120.67 699.712C1121.63 700.598 1122.39 701.774 1122.96 703.24C1123.53 704.706 1123.82 706.51 1123.82 708.655L1123.82 710.151L1106.11 710.17L1106.11 707.118L1120.23 707.103C1120.23 705.806 1119.97 704.649 1119.45 703.633C1118.94 702.616 1118.21 701.814 1117.26 701.226C1116.32 700.639 1115.22 700.346 1113.94 700.347C1112.53 700.348 1111.32 700.699 1110.29 701.398C1109.27 702.087 1108.49 702.986 1107.94 704.093C1107.4 705.201 1107.12 706.388 1107.13 707.655L1107.13 709.69C1107.13 711.425 1107.43 712.896 1108.03 714.102C1108.64 715.298 1109.48 716.21 1110.56 716.837C1111.64 717.455 1112.89 717.763 1114.32 717.761C1115.24 717.76 1116.08 717.63 1116.83 717.369C1117.59 717.099 1118.24 716.7 1118.79 716.171C1119.34 715.631 1119.76 714.963 1120.06 714.164L1123.47 715.118C1123.11 716.276 1122.51 717.294 1121.66 718.172C1120.82 719.041 1119.77 719.72 1118.52 720.21C1117.28 720.69 1115.88 720.931 1114.32 720.933ZM1129.21 720.438L1129.18 697.458L1132.59 697.455L1132.6 701.046L1132.9 701.045C1133.37 699.818 1134.15 698.865 1135.21 698.185C1136.28 697.496 1137.56 697.15 1139.06 697.149C1140.57 697.147 1141.83 697.49 1142.84 698.177C1143.86 698.854 1144.65 699.806 1145.22 701.032L1145.46 701.032C1146.05 699.845 1146.93 698.901 1148.11 698.202C1149.28 697.492 1150.7 697.137 1152.34 697.135C1154.4 697.133 1156.08 697.774 1157.39 699.06C1158.69 700.335 1159.35 702.324 1159.35 705.027L1159.37 720.407L1155.84 720.411L1155.82 705.031C1155.82 703.335 1155.35 702.124 1154.43 701.397C1153.5 700.67 1152.4 700.307 1151.15 700.308C1149.53 700.31 1148.28 700.8 1147.39 701.778C1146.51 702.746 1146.06 703.974 1146.07 705.46L1146.08 720.421L1142.49 720.425L1142.48 704.686C1142.47 703.379 1142.05 702.327 1141.2 701.53C1140.35 700.723 1139.26 700.32 1137.92 700.322C1137 700.323 1136.15 700.568 1135.35 701.058C1134.56 701.547 1133.92 702.226 1133.44 703.094C1132.96 703.953 1132.72 704.945 1132.72 706.072L1132.74 720.435L1129.21 720.438ZM1166.3 720.4L1166.27 689.76L1169.8 689.756L1169.81 701.066L1170.11 701.066C1170.37 700.667 1170.73 700.158 1171.19 699.539C1171.66 698.91 1172.32 698.351 1173.19 697.861C1174.07 697.362 1175.25 697.111 1176.75 697.109C1178.69 697.107 1180.39 697.589 1181.87 698.555C1183.35 699.521 1184.5 700.891 1185.33 702.666C1186.16 704.44 1186.57 706.535 1186.58 708.948C1186.58 711.382 1186.17 713.492 1185.34 715.278C1184.52 717.054 1183.37 718.432 1181.91 719.411C1180.44 720.38 1178.75 720.865 1176.83 720.867C1175.36 720.869 1174.18 720.626 1173.29 720.138C1172.4 719.64 1171.72 719.077 1171.24 718.45C1170.76 717.812 1170.39 717.283 1170.13 716.865L1169.71 716.865L1169.71 720.396L1166.3 720.4ZM1169.76 708.906C1169.76 710.641 1170.02 712.172 1170.53 713.498C1171.04 714.814 1171.78 715.846 1172.76 716.593C1173.74 717.33 1174.94 717.698 1176.35 717.696C1177.83 717.695 1179.06 717.304 1180.05 716.525C1181.04 715.736 1181.79 714.678 1182.29 713.351C1182.79 712.014 1183.05 710.528 1183.05 708.892C1183.04 707.276 1182.79 705.82 1182.29 704.524C1181.8 703.218 1181.06 702.187 1180.06 701.43C1179.07 700.663 1177.83 700.28 1176.33 700.282C1174.9 700.283 1173.69 700.648 1172.72 701.378C1171.74 702.097 1171 703.105 1170.5 704.402C1170.01 705.689 1169.76 707.19 1169.76 708.906ZM1201.63 720.841C1199.41 720.844 1197.5 720.357 1195.89 719.381C1194.3 718.395 1193.06 717.02 1192.19 715.256C1191.33 713.481 1190.9 711.417 1190.9 709.063C1190.9 706.71 1191.32 704.635 1192.18 702.838C1193.05 701.032 1194.25 699.625 1195.8 698.616C1197.35 697.597 1199.17 697.086 1201.24 697.084C1202.44 697.083 1203.62 697.281 1204.79 697.679C1205.95 698.076 1207.02 698.723 1207.98 699.62C1208.93 700.507 1209.7 701.683 1210.27 703.149C1210.84 704.614 1211.13 706.419 1211.13 708.563L1211.13 710.06L1193.42 710.078L1193.41 707.026L1207.54 707.011C1207.53 705.715 1207.27 704.558 1206.75 703.541C1206.24 702.524 1205.51 701.722 1204.57 701.135C1203.63 700.547 1202.52 700.254 1201.24 700.256C1199.84 700.257 1198.62 700.607 1197.6 701.307C1196.58 701.996 1195.8 702.894 1195.25 704.002C1194.7 705.11 1194.43 706.297 1194.43 707.564L1194.43 709.598C1194.43 711.334 1194.73 712.805 1195.33 714.011C1195.94 715.207 1196.79 716.119 1197.87 716.746C1198.94 717.363 1200.2 717.671 1201.62 717.67C1202.55 717.669 1203.39 717.538 1204.13 717.278C1204.89 717.008 1205.55 716.608 1206.09 716.079C1206.64 715.54 1207.06 714.871 1207.36 714.073L1210.78 715.027C1210.42 716.184 1209.81 717.202 1208.97 718.081C1208.12 718.95 1207.07 719.629 1205.83 720.119C1204.58 720.599 1203.18 720.84 1201.63 720.841ZM1216.51 720.347L1216.49 697.367L1219.9 697.363L1219.9 700.834L1220.14 700.834C1220.56 699.697 1221.32 698.773 1222.41 698.064C1223.51 697.355 1224.74 696.999 1226.12 696.998C1226.38 696.998 1226.7 697.002 1227.09 697.012C1227.48 697.021 1227.78 697.036 1227.98 697.056L1227.98 700.646C1227.86 700.617 1227.59 700.572 1227.16 700.513C1226.74 700.443 1226.29 700.409 1225.83 700.409C1224.71 700.41 1223.71 700.646 1222.83 701.116C1221.97 701.575 1221.28 702.214 1220.77 703.033C1220.27 703.841 1220.03 704.764 1220.03 705.801L1220.04 720.343L1216.51 720.347ZM1254.33 720.726C1252.35 720.728 1250.59 720.391 1249.05 719.715C1247.51 719.038 1246.29 718.097 1245.38 716.891C1244.48 715.675 1243.99 714.264 1243.91 712.658L1247.68 712.654C1247.76 713.642 1248.1 714.494 1248.7 715.212C1249.3 715.919 1250.08 716.467 1251.05 716.855C1252.02 717.243 1253.09 717.436 1254.27 717.435C1255.58 717.434 1256.75 717.203 1257.77 716.743C1258.78 716.283 1259.58 715.644 1260.16 714.826C1260.73 714.007 1261.02 713.059 1261.02 711.982C1261.02 710.855 1260.74 709.863 1260.18 709.006C1259.62 708.139 1258.8 707.461 1257.73 706.974C1256.65 706.486 1255.33 706.243 1253.77 706.245L1251.32 706.247L1251.32 702.956L1253.77 702.953C1254.99 702.952 1256.06 702.732 1256.97 702.292C1257.9 701.852 1258.62 701.233 1259.14 700.434C1259.67 699.636 1259.93 698.698 1259.93 697.621C1259.93 696.583 1259.7 695.681 1259.24 694.914C1258.78 694.146 1258.13 693.548 1257.29 693.12C1256.46 692.692 1255.49 692.479 1254.36 692.48C1253.3 692.481 1252.3 692.677 1251.37 693.067C1250.44 693.447 1249.68 694.001 1249.1 694.73C1248.51 695.448 1248.19 696.317 1248.14 697.334L1244.55 697.338C1244.61 695.732 1245.09 694.325 1246 693.117C1246.9 691.899 1248.09 690.951 1249.55 690.271C1251.03 689.591 1252.65 689.25 1254.42 689.248C1256.31 689.246 1257.94 689.629 1259.29 690.395C1260.65 691.152 1261.69 692.153 1262.42 693.399C1263.15 694.645 1263.52 695.991 1263.52 697.437C1263.52 699.163 1263.07 700.635 1262.16 701.852C1261.27 703.07 1260.05 703.914 1258.5 704.385L1258.5 704.624C1260.44 704.941 1261.95 705.762 1263.04 707.088C1264.13 708.403 1264.67 710.033 1264.67 711.978C1264.67 713.644 1264.22 715.141 1263.32 716.468C1262.42 717.786 1261.19 718.824 1259.64 719.584C1258.08 720.343 1256.31 720.724 1254.33 720.726ZM1280.79 720.699C1278.54 720.701 1276.62 720.09 1275.03 718.864C1273.45 717.629 1272.23 715.84 1271.39 713.497C1270.55 711.144 1270.13 708.302 1270.13 704.971C1270.12 701.66 1270.54 698.831 1271.37 696.487C1272.22 694.132 1273.43 692.335 1275.02 691.097C1276.61 689.849 1278.53 689.223 1280.76 689.221C1283 689.218 1284.91 689.84 1286.49 691.085C1288.09 692.32 1289.31 694.114 1290.15 696.467C1291 698.81 1291.43 701.637 1291.43 704.949C1291.43 708.28 1291.02 711.123 1290.18 713.478C1289.35 715.822 1288.14 717.614 1286.55 718.852C1284.97 720.081 1283.05 720.696 1280.79 720.699ZM1280.79 717.407C1283.03 717.405 1284.76 716.326 1285.99 714.17C1287.23 712.015 1287.84 708.942 1287.84 704.952C1287.84 702.299 1287.55 700.04 1286.98 698.176C1286.42 696.311 1285.61 694.891 1284.55 693.915C1283.5 692.938 1282.24 692.451 1280.76 692.452C1278.55 692.455 1276.82 693.549 1275.58 695.734C1274.33 697.91 1273.71 700.988 1273.72 704.967C1273.72 707.62 1274 709.874 1274.56 711.729C1275.12 713.583 1275.93 714.994 1276.97 715.96C1278.03 716.926 1279.31 717.409 1280.79 717.407ZM1301.38 716.069L1301.15 717.685C1300.98 718.822 1300.72 720.039 1300.37 721.336C1300.03 722.633 1299.68 723.856 1299.31 725.003C1298.95 726.15 1298.64 727.063 1298.4 727.742L1295.71 727.745C1295.84 727.106 1296.01 726.263 1296.22 725.216C1296.42 724.168 1296.63 722.996 1296.84 721.699C1297.06 720.412 1297.24 719.096 1297.38 717.749L1297.55 716.073L1301.38 716.069ZM1319.72 720.239L1319.72 717.546L1329.82 706.464C1331 705.166 1331.98 704.038 1332.75 703.08C1333.51 702.112 1334.08 701.204 1334.45 700.355C1334.83 699.497 1335.02 698.599 1335.02 697.662C1335.01 696.585 1334.75 695.652 1334.23 694.865C1333.72 694.078 1333.03 693.47 1332.14 693.042C1331.25 692.614 1330.25 692.401 1329.14 692.402C1327.97 692.403 1326.94 692.648 1326.06 693.138C1325.2 693.618 1324.52 694.292 1324.05 695.16C1323.58 696.028 1323.34 697.046 1323.35 698.213L1319.82 698.216C1319.81 696.421 1320.23 694.845 1321.05 693.487C1321.88 692.13 1323 691.072 1324.43 690.312C1325.87 689.553 1327.48 689.172 1329.26 689.17C1331.06 689.168 1332.65 689.546 1334.03 690.302C1335.42 691.059 1336.51 692.08 1337.3 693.366C1338.09 694.651 1338.48 696.082 1338.49 697.658C1338.49 698.785 1338.28 699.888 1337.88 700.965C1337.48 702.033 1336.78 703.225 1335.79 704.543C1334.8 705.851 1333.43 707.448 1331.68 709.335L1324.8 716.703L1324.8 716.942L1339.04 716.927L1339.05 720.219L1319.72 720.239ZM1355.22 720.621C1352.97 720.623 1351.05 720.012 1349.46 718.787C1347.87 717.551 1346.66 715.762 1345.82 713.419C1344.98 711.066 1344.56 708.224 1344.55 704.893C1344.55 701.582 1344.97 698.754 1345.8 696.409C1346.65 694.054 1347.86 692.257 1349.45 691.019C1351.04 689.771 1352.95 689.145 1355.19 689.143C1357.42 689.141 1359.33 689.762 1360.92 691.007C1362.52 692.242 1363.74 694.036 1364.58 696.389C1365.43 698.732 1365.85 701.559 1365.86 704.871C1365.86 708.202 1365.44 711.045 1364.61 713.4C1363.77 715.744 1362.56 717.536 1360.98 718.774C1359.39 720.003 1357.48 720.618 1355.22 720.621ZM1355.22 717.329C1357.45 717.327 1359.19 716.248 1360.42 714.092C1361.66 711.937 1362.27 708.864 1362.27 704.874C1362.26 702.221 1361.98 699.963 1361.41 698.098C1360.85 696.233 1360.04 694.813 1358.98 693.837C1357.93 692.86 1356.67 692.373 1355.19 692.374C1352.98 692.377 1351.25 693.471 1350 695.656C1348.76 697.832 1348.14 700.91 1348.14 704.889C1348.15 707.542 1348.43 709.796 1348.99 711.651C1349.55 713.505 1350.35 714.916 1351.4 715.882C1352.46 716.848 1353.73 717.331 1355.22 717.329ZM1371.56 720.185L1371.56 717.492L1381.66 706.41C1382.84 705.112 1383.82 703.984 1384.59 703.026C1385.35 702.058 1385.92 701.149 1386.29 700.301C1386.67 699.443 1386.86 698.545 1386.85 697.608C1386.85 696.53 1386.59 695.598 1386.07 694.811C1385.56 694.023 1384.87 693.416 1383.98 692.988C1383.09 692.56 1382.09 692.346 1380.98 692.347C1379.81 692.349 1378.78 692.594 1377.9 693.084C1377.04 693.563 1376.36 694.237 1375.89 695.106C1375.42 695.974 1375.18 696.991 1375.19 698.158L1371.66 698.162C1371.65 696.367 1372.07 694.79 1372.89 693.433C1373.72 692.076 1374.84 691.017 1376.27 690.258C1377.71 689.498 1379.32 689.118 1381.1 689.116C1382.9 689.114 1384.49 689.491 1385.87 690.248C1387.26 691.004 1388.35 692.026 1389.14 693.311C1389.93 694.597 1390.32 696.028 1390.33 697.604C1390.33 698.731 1390.12 699.833 1389.72 700.911C1389.32 701.979 1388.62 703.171 1387.62 704.489C1386.64 705.796 1385.27 707.394 1383.52 709.281L1376.64 716.649L1376.64 716.888L1390.88 716.873L1390.89 720.164L1371.56 720.185ZM1395.68 713.876L1395.68 710.824L1409.12 689.505L1411.34 689.503L1411.34 694.231L1409.85 694.232L1399.69 710.341L1399.69 710.58L1417.82 710.561L1417.83 713.853L1395.68 713.876ZM1410.11 720.144L1410.11 712.933L1410.1 711.512L1410.08 689.504L1413.61 689.501L1413.64 720.141L1410.11 720.144Z" fill="#1E1E1E"/>
<path d="M884.7 738.2L818.8 672.4" stroke="#1E1E1E" stroke-width="5" stroke-linejoin="round"/>
<path d="M818.8 738.2L884.7 672.4" stroke="#1E1E1E" stroke-width="5" stroke-linejoin="round"/>
<path d="M851.8 751.9V658.8" stroke="#1E1E1E" stroke-width="5" stroke-linejoin="round"/>
<path d="M805.2 705.3H898.3" stroke="#1E1E1E" stroke-width="5" stroke-linejoin="round"/>
<path d="M130 751.4C158.056 751.4 180.8 730.536 180.8 704.8C180.8 679.063 158.056 658.2 130 658.2C101.944 658.2 79.2 679.063 79.2 704.8C79.2 730.536 101.944 751.4 130 751.4Z" stroke="#1E1E1E" stroke-width="5" stroke-linejoin="round"/>
<path d="M130 751.4C142.095 751.4 151.9 730.536 151.9 704.8C151.9 679.063 142.095 658.2 130 658.2C117.905 658.2 108.1 679.063 108.1 704.8C108.1 730.536 117.905 751.4 130 751.4Z" stroke="#1E1E1E" stroke-width="5" stroke-linejoin="round"/>
<path d="M82.8 687.5H177.2" stroke="#1E1E1E" stroke-width="5" stroke-linejoin="round"/>
<path d="M82.8 722H177.2" stroke="#1E1E1E" stroke-width="5" stroke-linejoin="round"/>
<path d="M248.5 690.6L287.7 662.5C295.9 656.6 307.4 658.5 313.3 666.7C319.2 674.9 317.3 686.4 309.1 692.3L269.9 720.4C261.7 726.3 250.2 724.4 244.3 716.2C238.4 707.9 240.3 696.5 248.5 690.6Z" fill="#EA4335" stroke="#1E1E1E" stroke-width="4.9812" stroke-miterlimit="9.9624"/>
<path d="M244.2 694.9C250.1 686.6 261.6 684.8 269.9 690.7L309.2 718.9C317.4 724.8 319.3 736.3 313.4 744.6C307.5 752.8 296 754.7 287.7 748.8L248.4 720.6C240.2 714.6 238.3 703.1 244.2 694.9Z" fill="#4285F4" stroke="#1E1E1E" stroke-width="5" stroke-miterlimit="10"/>
<path d="M347.3 719L386.6 690.8C394.8 684.9 406.3 686.8 412.3 695C418.2 703.2 416.3 714.7 408.1 720.7L368.8 748.9C360.6 754.8 349.1 752.9 343.1 744.7C337.2 736.4 339.1 724.9 347.3 719Z" fill="#F9AB00" stroke="#0D0D0D" stroke-width="5" stroke-miterlimit="10"/>
<path d="M343.2 666.6C349.1 658.3 360.6 656.5 368.9 662.4L408.2 690.6C416.4 696.5 418.3 708 412.4 716.3C406.5 724.5 395 726.4 386.7 720.5L347.4 692.3C339.1 686.4 337.2 674.9 343.2 666.6Z" fill="#34A853" stroke="#0D0D0D" stroke-width="5" stroke-miterlimit="10"/>
<path d="M695.5 659.1C678.6 658.6 662.7 667.4 654 681.9C653.5 682.8 652.3 683.1 651.5 682.5C651.2 682.3 651 682.1 650.9 681.9C637.6 659.6 608.7 652.3 586.4 665.7C579.7 669.7 574.2 675.3 570.2 681.9C569.7 682.8 568.5 683.1 567.7 682.5C567.4 682.3 567.2 682.1 567.1 681.9C558.4 667.4 542.5 658.6 525.6 659.1C501.1 659.7 480.3 680.6 479.9 705C479.7 730.9 500.6 752.1 526.5 752.2C543.1 752.3 558.6 743.6 567.1 729.3C567.6 728.4 568.8 728.2 569.6 728.7C569.9 728.9 570.1 729.1 570.2 729.3C583.5 751.6 612.4 758.9 634.7 745.5C641.4 741.5 646.9 735.9 650.9 729.3C651.4 728.4 652.6 728.2 653.4 728.7C653.7 728.9 653.9 729.1 654 729.3C667.3 751.5 696.1 758.8 718.4 745.5C732.7 737 741.3 721.6 741.2 705C740.9 680.6 720 659.7 695.5 659.1Z" fill="#F8D8D8" stroke="#1E1E1E" stroke-width="5" stroke-miterlimit="10"/>
</svg>
