<svg width="1690" height="1122" viewBox="0 0 1690 1122" fill="none" xmlns="http://www.w3.org/2000/svg">
<path d="M7.9999 282.4H27.7999C34.8999 282.4 40.5999 288.1 40.5999 295.2V412.9C40.5999 448.2 69.2999 476.9 104.6 476.9H155.8C158.6 476.9 160.9 474.6 160.9 471.8V400C160.9 397.2 158.6 394.9 155.8 394.9H116.5C109.4 394.9 103.7 389.2 103.7 382.1V97.6001C103.7 90.5001 109.4 84.8 116.5 84.8H155.8C158.6 84.8 160.9 82.5 160.9 79.7V7.90004C160.9 5.10004 158.6 2.80005 155.8 2.80005H104.6C69.2999 2.80005 40.5999 31.5 40.5999 66.8V184.4C40.5999 191.5 34.8999 197.2 27.7999 197.2H7.9999C5.1999 197.2 2.8999 199.5 2.8999 202.3V277.3C2.8999 280.1 5.1999 282.4 7.9999 282.4Z" fill="#F9AB00" stroke="#1E1E1E" stroke-width="4" stroke-miterlimit="10"/>
<path d="M1681.7 197.3H1661.9C1654.8 197.3 1649.1 191.6 1649.1 184.5V66.8C1649.1 31.5 1620.4 2.80005 1585.1 2.80005H1534C1531.2 2.80005 1528.9 5.10004 1528.9 7.90004V79.7C1528.9 82.5 1531.2 84.8 1534 84.8H1573.3C1580.4 84.8 1586.1 90.5001 1586.1 97.6001V382C1586.1 389.1 1580.4 394.8 1573.3 394.8H1534C1531.2 394.8 1528.9 397.1 1528.9 399.9V471.7C1528.9 474.5 1531.2 476.8 1534 476.8H1585.2C1620.5 476.8 1649.2 448.1 1649.2 412.8V295.3C1649.2 288.2 1654.9 282.5 1662 282.5H1681.8C1684.6 282.5 1686.9 280.2 1686.9 277.4V202.4C1686.9 199.5 1684.6 197.2 1681.7 197.3C1681.8 197.2 1681.8 197.2 1681.7 197.3Z" fill="#F9AB00"/>
<path d="M1681.7 197.3H1661.9C1654.8 197.3 1649.1 191.6 1649.1 184.5V66.8C1649.1 31.5 1620.4 2.80005 1585.1 2.80005H1534C1531.2 2.80005 1528.9 5.10004 1528.9 7.90004V79.7C1528.9 82.5 1531.2 84.8 1534 84.8H1573.3C1580.4 84.8 1586.1 90.5001 1586.1 97.6001V382C1586.1 389.1 1580.4 394.8 1573.3 394.8H1534C1531.2 394.8 1528.9 397.1 1528.9 399.9V471.7C1528.9 474.5 1531.2 476.8 1534 476.8H1585.2C1620.5 476.8 1649.2 448.1 1649.2 412.8V295.3C1649.2 288.2 1654.9 282.5 1662 282.5H1681.8C1684.6 282.5 1686.9 280.2 1686.9 277.4V202.4C1686.9 199.5 1684.6 197.2 1681.7 197.3ZM1681.7 197.3C1681.8 197.2 1681.8 197.2 1681.7 197.3Z" stroke="#1E1E1E" stroke-width="4" stroke-miterlimit="10"/>
<path d="M378.6 17.8C360.4 7.80005 338.8 2.80005 313.7 2.80005H233.9V239.1H313.8C338.9 239.1 360.5 234.1 378.7 224.2C396.4 214.7 411 200.3 420.6 182.6C430.4 164.8 435.3 144.2 435.3 120.9C435.3 97.6 430.4 77.1 420.6 59.4C410.8 41.8 396.3 27.4 378.6 17.8ZM381.6 160.9C375.8 172.3 366.7 181.6 355.4 187.5C343.7 193.8 329.2 196.9 311.8 196.9H278.4V45.1001H311.7C329.1 45.1001 343.6 48.2 355.3 54.5C366.6 60.4 375.7 69.6 381.5 80.9C387.3 92.2 390.2 105.6 390.2 121C390.3 136.1 387.4 149.4 381.6 160.9Z" fill="#1E1E1E"/>
<path d="M588.6 77.1C576.3 69.4 561.1 65.6 543.1 65.5C526.4 65.5 511.5 69.6 498.6 77.9C485.7 86 475.2 97.3 467.9 110.7C460.4 124.3 456.6 139.7 456.7 155.2C456.7 172.4 460.5 187.6 468.1 201.1C475.5 214.3 486.3 225.3 499.4 232.8C512.7 240.5 527.9 244.3 544.8 244.3C563.5 244.3 579.2 240.3 592 232.3C604.9 224.1 615.6 212.8 623 199.5L588 182.3C584 189.2 578.3 195 571.5 199.3C564.5 203.8 555.8 206.1 545.4 206.1C537 206.2 528.8 204.1 521.5 200C514.2 195.8 508.3 189.6 504.5 182.2C501.7 176.9 499.9 171.1 499.1 165.2H625.3C625.5 164.1 625.7 162.3 626 159.8C626.3 157.3 626.3 154.2 626.3 150.7C626.3 135.1 623.1 120.8 616.7 108C610.4 95.2 600.7 84.5 588.6 77.1ZM500.8 134.5C501.7 131.5 502.8 128.6 504.2 125.8C507.9 118.3 513.5 112 520.5 107.5C527.3 103.1 535.3 100.8 543.4 100.9C549.2 100.8 555 101.9 560.4 104C565.1 105.9 569.4 108.7 573.1 112.1C576.5 115.2 579.3 118.9 581.4 123C583.3 126.6 584.4 130.5 584.7 134.5H500.8Z" fill="#1E1E1E"/>
<path d="M721.8 180.3H719.2L676.6 70.8H627.5L698.7 239.1H741.6L813.6 70.8H765L721.8 180.3Z" fill="#1E1E1E"/>
<path d="M834.8 239.1H879.4V144.7H974.1V102.5H879.4V45.1001H984.7V2.80005H834.8V239.1Z" fill="#1E1E1E"/>
<path d="M1129.7 77.1C1117.4 69.4 1102.2 65.6 1084.2 65.5C1067.5 65.5 1052.6 69.6 1039.6 77.9C1026.7 86 1016.2 97.3 1008.9 110.7C1001.4 124.3 997.6 139.7 997.7 155.2C997.7 172.4 1001.5 187.6 1009.1 201.1C1016.5 214.3 1027.3 225.3 1040.4 232.8C1053.7 240.5 1068.9 244.3 1085.8 244.3C1104.5 244.3 1120.2 240.3 1133 232.3C1145.9 224.1 1156.6 212.8 1164 199.5L1129 182.3C1125 189.2 1119.3 195 1112.5 199.3C1105.5 203.8 1096.8 206.1 1086.4 206.1C1078 206.2 1069.8 204.1 1062.5 200C1055.2 195.8 1049.3 189.6 1045.5 182.2C1042.7 176.9 1040.9 171.1 1040.1 165.2H1166.3C1166.5 164.1 1166.7 162.3 1167 159.8C1167.3 157.3 1167.3 154.2 1167.3 150.7C1167.3 135.1 1164.1 120.8 1157.7 108C1151.5 95.2 1141.7 84.5 1129.7 77.1ZM1041.8 134.5C1042.7 131.5 1043.8 128.6 1045.2 125.8C1048.9 118.3 1054.5 112 1061.5 107.5C1068.3 103.1 1076.3 100.8 1084.4 100.9C1090.2 100.8 1096 101.9 1101.4 104C1106.1 105.9 1110.4 108.7 1114.1 112.1C1117.5 115.2 1120.3 118.9 1122.4 123C1124.3 126.6 1125.4 130.5 1125.7 134.5H1041.8Z" fill="#1E1E1E"/>
<path d="M1278.8 138.8L1254 132.9C1248.3 131.6 1243 129.2 1238.2 126C1233.8 122.9 1231.6 119.3 1231.6 115.1C1231.6 111.1 1233.8 107.7 1238.2 104.9C1242.6 102.1 1248.5 100.6 1256 100.6C1262.2 100.6 1268.4 101.9 1274 104.6C1279.6 107.3 1284.2 111.9 1287.7 118.5L1324.7 102.3C1321 94.2999 1315.6 87.2999 1308.9 81.6999C1302 76.1999 1294 72.0999 1285.5 69.6999C1275.6 66.8999 1265.4 65.5999 1255.1 65.6999C1243.7 65.5999 1232.5 67.6999 1221.9 71.9999C1211.9 76.1999 1204 81.9999 1198.1 89.4999C1192.3 96.9999 1189.2 106.4 1189.4 115.9C1189.2 124.4 1191.6 132.7 1196.2 139.8C1200.7 146.8 1206.8 152.6 1213.9 157C1221 161.4 1228.8 164.6 1237 166.4L1256.8 170.7C1261.4 171.6 1265.9 172.7 1270.3 174.2C1274.3 175.4 1278.1 177.5 1281.3 180.1C1284.3 182.7 1285.9 186.5 1285.8 190.5C1285.8 196.7 1282.9 200.9 1277.2 203.2C1271.1 205.6 1264.6 206.8 1258.1 206.7C1249.5 206.7 1242 204.7 1235.7 200.6C1229.3 196.5 1224.3 190.5 1220.5 182.6L1181.9 199.4C1185.1 207.7 1189.9 215.4 1196.1 221.8C1202.5 228.6 1210.8 234.1 1221 238.3C1231.2 242.5 1243.6 244.6 1258.1 244.6C1270.4 244.8 1282.7 242.5 1294.1 237.8C1304.9 233.3 1313.5 226.9 1319.8 218.7C1326.2 210.4 1329.6 200.3 1329.4 189.8C1329.6 178 1325 166.5 1316.7 158.1C1308.1 149.1 1295.5 142.7 1278.8 138.8Z" fill="#1E1E1E"/>
<path d="M1445.7 199.6C1442.5 200.6 1439.2 201.1 1435.8 201.1C1428.3 201.1 1422.9 199.2 1419.6 195.3C1416.3 191.5 1414.7 185.5 1414.7 177.3V107.7H1455.9V70.7H1414.7V23.2H1371.5V70.7H1342.1V107.7H1371.5V185.3C1371.5 202.9 1376.4 216.7 1386.3 226.7C1396.2 236.7 1409.8 241.7 1427.2 241.7C1432.4 241.7 1437.5 241.2 1442.5 240.2C1447.5 239.2 1452.4 237.8 1457.2 236.1V193.8C1453.6 196.2 1449.7 198.2 1445.7 199.6Z" fill="#1E1E1E"/>
<path d="M320.5 476.8H1367.6C1415.8 476.8 1454.9 437.7 1454.9 389.5C1454.9 341.3 1415.8 302.2 1367.6 302.2H320.5C272.3 302.2 233.2 341.3 233.2 389.5C233.2 437.8 272.2 476.8 320.5 476.8Z" fill="white" stroke="#1E1E1E" stroke-width="4" stroke-linejoin="round"/>
<path d="M610.5 417.2C605.8 417.2 601.5 416.1 597.7 413.9C593.9 411.7 590.7 408.6 588.4 404.6C586.1 400.6 584.9 396 584.9 390.8C584.9 385.6 586.1 381 588.4 377C590.7 373 593.8 369.9 597.7 367.7C601.6 365.5 605.9 364.4 610.5 364.4C614.3 364.4 617.6 365.1 620.5 366.5C623.4 367.9 626.1 370 628.5 373L634 367.7C631.1 364.3 627.6 361.7 623.6 359.9C619.6 358.1 615.2 357.2 610.4 357.2C604.2 357.2 598.5 358.7 593.4 361.6C588.3 364.5 584.3 368.6 581.4 373.7C578.5 378.8 577 384.5 577 390.8C577 397.1 578.5 402.8 581.4 407.9C584.3 413 588.3 417 593.4 420C598.5 423 604.2 424.4 610.4 424.4C615.6 424.4 620.4 423.4 624.8 421.3C629.2 419.2 632.9 416.4 635.8 412.9L630.2 407.5C624.9 414 618.3 417.2 610.5 417.2Z" fill="#4285F4"/>
<path d="M652.1 358.8H644.5V423.1H652.1V358.8Z" fill="#4285F4"/>
<path d="M696.2 379.1C692.6 376.9 688.6 375.9 684.1 375.9C679.6 375.9 675.6 377 672 379.1C668.4 381.2 665.6 384.2 663.6 387.9C661.6 391.6 660.6 395.7 660.6 400.2C660.6 404.7 661.6 408.8 663.6 412.5C665.6 416.2 668.4 419.1 672 421.3C675.6 423.5 679.6 424.5 684.1 424.5C688.6 424.5 692.6 423.4 696.2 421.3C699.8 419.2 702.6 416.2 704.6 412.5C706.6 408.8 707.6 404.7 707.6 400.2C707.6 395.7 706.6 391.6 704.6 387.9C702.6 384.2 699.8 381.2 696.2 379.1ZM697.8 409.4C696.3 412 694.4 414.1 692 415.5C689.6 416.9 687 417.6 684.1 417.6C681.2 417.6 678.6 416.9 676.2 415.5C673.8 414.1 671.8 412.1 670.3 409.4C668.8 406.7 668.1 403.7 668.1 400.1C668.1 396.5 668.8 393.5 670.3 390.8C671.8 388.1 673.7 386.1 676.2 384.7C678.7 383.3 681.3 382.6 684.1 382.6C686.9 382.6 689.5 383.3 692 384.7C694.5 386.1 696.4 388.1 697.8 390.8C699.2 393.5 700 396.5 700 400.1C700 403.7 699.3 406.8 697.8 409.4Z" fill="#4285F4"/>
<path d="M747.5 403.1C747.5 405.6 746.9 407.9 745.8 410.1C744.7 412.3 743.1 414.1 741.1 415.5C739.1 416.9 736.8 417.6 734.2 417.6C730.8 417.6 728.2 416.6 726.2 414.5C724.2 412.4 723.2 409.3 723.2 404.9V377.2H715.6V406C715.6 411.8 717.1 416.3 720 419.6C722.9 422.9 727.1 424.5 732.6 424.5C735.7 424.5 738.6 423.7 741.4 422.2C744.2 420.7 746.2 418.7 747.4 416.4H747.8V423H755.1V377.2H747.5V403.1Z" fill="#4285F4"/>
<path d="M801.2 358.8V377.8L801.6 384.2H801.2C799.8 381.9 797.7 379.9 794.9 378.3C792.1 376.7 789 375.9 785.6 375.9C781.5 375.9 777.7 376.9 774.4 379C771.1 381.1 768.5 384 766.5 387.7C764.5 391.4 763.6 395.6 763.6 400.2C763.6 404.9 764.6 409 766.5 412.7C768.4 416.4 771 419.3 774.4 421.4C777.8 423.5 781.5 424.5 785.6 424.5C789.1 424.5 792.2 423.7 794.9 422.1C797.6 420.5 799.8 418.6 801.2 416.3H801.6V423H808.9V358.7H801.2V358.8ZM799.4 409.3C798 411.9 796.1 414 793.8 415.4C791.5 416.8 789 417.6 786.3 417.6C783.7 417.6 781.2 416.9 778.8 415.4C776.4 413.9 774.6 411.9 773.2 409.2C771.8 406.5 771.1 403.5 771.1 400.1C771.1 396.7 771.8 393.6 773.2 391C774.6 388.4 776.5 386.3 778.8 384.8C781.1 383.3 783.6 382.6 786.3 382.6C789 382.6 791.5 383.3 793.8 384.8C796.1 386.3 798 388.3 799.4 390.9C800.8 393.5 801.5 396.6 801.5 400.1C801.5 403.6 800.8 406.7 799.4 409.3Z" fill="#4285F4"/>
<path d="M934.3 386.5H901.2V358.8H893.6V423.1H901.2V393.8H934.3V423.1H941.9V358.8H934.3V386.5Z" fill="#0F0F0F"/>
<path d="M970.6 375.8C966.8 375.8 963.3 376.6 960.1 378.1C956.9 379.7 954.4 381.8 952.6 384.6L958.4 388.9C959.7 386.9 961.4 385.4 963.6 384.3C965.8 383.2 968.1 382.6 970.7 382.6C974.4 382.6 977.4 383.6 979.8 385.7C982.2 387.8 983.4 390.5 983.4 393.9V396.7C982.1 395.9 980.3 395.2 978 394.6C975.6 394 973.1 393.7 970.3 393.7C964.7 393.7 960.1 395.1 956.5 397.8C952.8 400.5 951 404.3 951 409.2C951 412.1 951.7 414.8 953.2 417.1C954.7 419.4 956.7 421.2 959.3 422.5C961.9 423.8 964.9 424.5 968.3 424.5C971.6 424.5 974.6 423.7 977.2 422.2C979.8 420.6 981.8 418.8 983.1 416.5H983.5V423.1H990.8V394.1C990.8 388.5 989 384 985.5 380.8C981.7 377.5 976.8 375.8 970.6 375.8ZM981.3 410.5C980 412.7 978.2 414.5 976 415.8C973.8 417.1 971.4 417.8 968.8 417.8C965.9 417.8 963.4 417 961.5 415.5C959.6 413.9 958.6 411.9 958.6 409.4C958.6 406.6 959.7 404.4 961.8 402.7C963.9 401 967.1 400.1 971.3 400.1C973.6 400.1 975.9 400.4 977.9 401C980 401.6 981.8 402.4 983.2 403.3C983.3 405.9 982.6 408.3 981.3 410.5Z" fill="#0F0F0F"/>
<path d="M1023.6 375.8C1020.5 375.8 1017.6 376.6 1014.8 378.2C1012 379.8 1010 381.7 1008.8 384H1008.4V377.3H1001.1V423.1H1008.7V397.3C1008.7 394.8 1009.2 392.5 1010.3 390.2C1011.4 387.9 1012.9 386.1 1014.8 384.8C1016.7 383.5 1018.9 382.7 1021.4 382.7C1024.9 382.7 1027.7 383.7 1029.8 385.6C1031.9 387.5 1032.9 390.6 1032.9 394.9V423.1H1040.5V393.7C1040.5 388.2 1039 383.8 1036.1 380.6C1033.2 377.4 1029.1 375.8 1023.6 375.8Z" fill="#0F0F0F"/>
<path d="M1084.8 379.1C1081.2 376.9 1077.2 375.9 1072.7 375.9C1068.2 375.9 1064.2 377 1060.6 379.1C1057 381.2 1054.2 384.2 1052.2 387.9C1050.2 391.6 1049.2 395.7 1049.2 400.2C1049.2 404.7 1050.2 408.8 1052.2 412.5C1054.2 416.2 1057 419.1 1060.6 421.3C1064.2 423.5 1068.2 424.5 1072.7 424.5C1077.2 424.5 1081.2 423.4 1084.8 421.3C1088.4 419.2 1091.2 416.2 1093.2 412.5C1095.2 408.8 1096.2 404.7 1096.2 400.2C1096.2 395.7 1095.2 391.6 1093.2 387.9C1091.2 384.1 1088.4 381.2 1084.8 379.1ZM1086.4 409.4C1084.9 412 1083 414.1 1080.6 415.5C1078.2 416.9 1075.6 417.6 1072.7 417.6C1069.9 417.6 1067.2 416.9 1064.8 415.5C1062.3 414.1 1060.4 412.1 1058.9 409.4C1057.4 406.8 1056.7 403.7 1056.7 400.1C1056.7 396.5 1057.4 393.5 1058.9 390.8C1060.4 388.2 1062.3 386.1 1064.8 384.7C1067.3 383.3 1069.9 382.6 1072.7 382.6C1075.5 382.6 1078.1 383.3 1080.6 384.7C1083.1 386.1 1085 388.1 1086.4 390.8C1087.9 393.4 1088.6 396.5 1088.6 400.1C1088.6 403.7 1087.8 406.8 1086.4 409.4Z" fill="#0F0F0F"/>
<path d="M1112.6 359.4C1111.6 358.4 1110.2 357.8 1108.7 357.8C1107.2 357.8 1105.9 358.3 1104.8 359.4C1103.7 360.5 1103.2 361.8 1103.2 363.3C1103.2 364.8 1103.7 366.1 1104.8 367.2C1105.9 368.3 1107.2 368.8 1108.7 368.8C1110.3 368.8 1111.6 368.3 1112.6 367.2C1113.6 366.1 1114.2 364.8 1114.2 363.3C1114.2 361.8 1113.6 360.5 1112.6 359.4Z" fill="#0F0F0F"/>
<path d="M1112.5 377.3H1104.9V423.1H1112.5V377.3Z" fill="#0F0F0F"/>
<path d="M850.5 405.9C855.415 405.9 859.4 401.915 859.4 397C859.4 392.085 855.415 388.1 850.5 388.1C845.585 388.1 841.6 392.085 841.6 397C841.6 401.915 845.585 405.9 850.5 405.9Z" fill="#0F0F0F"/>
<path d="M611 1031.2L683.9 1104.1" stroke="#1E1E1E" stroke-width="5" stroke-linejoin="round"/>
<path d="M683.9 1031.2L611 1104.1" stroke="#1E1E1E" stroke-width="5" stroke-linejoin="round"/>
<path d="M647.4 1016.1V1119.2" stroke="#1E1E1E" stroke-width="5" stroke-linejoin="round"/>
<path d="M699 1067.7H595.9" stroke="#1E1E1E" stroke-width="5" stroke-linejoin="round"/>
<path d="M814.1 1119.2C832.9 1119.7 850.4 1110 860 1093.9C860.6 1092.9 861.9 1092.6 862.8 1093.2C863.1 1093.4 863.3 1093.6 863.5 1093.9C878.3 1118.6 910.3 1126.6 934.9 1111.8C942.2 1107.4 948.4 1101.3 952.8 1093.9C953.3 1092.9 954.5 1092.6 955.5 1093.1C955.8 1093.3 956.1 1093.6 956.3 1093.9C965.9 1110 983.5 1119.6 1002.2 1119.2C1029.3 1118.5 1052.4 1095.4 1052.8 1068.4C1053 1039.7 1029.9 1016.3 1001.2 1016.1C982.8 1016 965.7 1025.6 956.2 1041.4C955.7 1042.4 954.4 1042.7 953.5 1042.2C953.2 1042 952.9 1041.8 952.7 1041.4C937.9 1016.7 905.9 1008.7 881.3 1023.5C874 1027.9 867.8 1034 863.4 1041.4C862.9 1042.4 861.6 1042.7 860.7 1042.2C860.4 1042 860.1 1041.7 859.9 1041.4C845.2 1016.8 813.3 1008.7 788.7 1023.4C772.9 1032.8 763.3 1049.9 763.4 1068.4C764 1095.3 787 1118.5 814.1 1119.2Z" fill="#F8D8D8" stroke="#1E1E1E" stroke-width="5" stroke-miterlimit="10"/>
<path d="M14.1001 642.8C11.3001 641.2 9.1001 639 7.5001 636.2C5.9001 633.4 5.1001 630.3 5.1001 626.9C5.1001 623.5 5.9001 620.4 7.5001 617.6C9.1001 614.8 11.3001 612.6 14.1001 611C16.9001 609.4 19.9001 608.6 23.2001 608.6C25.8001 608.6 28.2001 609.1 30.5001 610C32.8001 610.9 34.6001 612.2 36.1001 613.9L33.2001 616.9C32.1001 615.5 30.6001 614.5 28.9001 613.7C27.2001 613 25.3001 612.6 23.3001 612.6C20.9001 612.6 18.6001 613.2 16.4001 614.4C14.2001 615.6 12.5001 617.3 11.2001 619.4C9.9001 621.6 9.3001 624.1 9.3001 626.9C9.3001 629.7 9.9001 632.2 11.2001 634.4C12.5001 636.6 14.2001 638.2 16.4001 639.4C18.6001 640.6 20.8001 641.2 23.3001 641.2C25.6001 641.2 27.6001 640.8 29.2001 640.1C30.8001 639.4 32.1001 638.4 33.3001 637.2C34.1001 636.3 34.8001 635.2 35.4001 633.9C35.9001 632.6 36.2001 631.2 36.4001 629.6H23.4001V625.7H40.2001C40.4001 626.6 40.4001 627.5 40.4001 628.2C40.4001 630.4 40.1001 632.4 39.4001 634.5C38.7001 636.5 37.6001 638.3 36.1001 639.9C32.9001 643.4 28.6001 645.1 23.2001 645.1C19.9001 645.2 16.9001 644.4 14.1001 642.8Z" fill="#1E1E1E"/>
<path d="M50.1002 643.5C48.1002 642.3 46.6002 640.7 45.5002 638.7C44.4002 636.7 43.9001 634.4 43.9001 632C43.9001 629.6 44.4002 627.3 45.5002 625.3C46.6002 623.3 48.1002 621.7 50.1002 620.5C52.1002 619.3 54.3001 618.7 56.7001 618.7C59.1001 618.7 61.3002 619.3 63.3002 620.5C65.3002 621.7 66.8001 623.3 67.9001 625.3C69.0001 627.3 69.5002 629.6 69.5002 632C69.5002 634.4 69.0001 636.7 67.9001 638.7C66.8001 640.7 65.3002 642.3 63.3002 643.5C61.3002 644.7 59.1001 645.3 56.7001 645.3C54.3001 645.2 52.1002 644.7 50.1002 643.5ZM61.0002 640.3C62.3002 639.5 63.4001 638.4 64.2001 637C65.0001 635.6 65.4001 633.9 65.4001 632C65.4001 630.1 65.0001 628.4 64.2001 627C63.4001 625.6 62.3002 624.5 61.0002 623.7C59.7002 622.9 58.3001 622.6 56.7001 622.6C55.1001 622.6 53.7001 623 52.4001 623.7C51.1001 624.5 50.0001 625.6 49.2001 627C48.4001 628.4 48.0002 630.1 48.0002 632C48.0002 633.9 48.4001 635.6 49.2001 637C50.0001 638.4 51.1001 639.5 52.4001 640.3C53.7001 641.1 55.2001 641.4 56.7001 641.4C58.2001 641.4 59.7002 641.1 61.0002 640.3Z" fill="#1E1E1E"/>
<path d="M78.7 643.5C76.7 642.3 75.2 640.7 74.1 638.7C73 636.7 72.5 634.4 72.5 632C72.5 629.6 73 627.3 74.1 625.3C75.2 623.3 76.7 621.7 78.7 620.5C80.7 619.3 82.9 618.7 85.3 618.7C87.7 618.7 89.9 619.3 91.9 620.5C93.9 621.7 95.4 623.3 96.5 625.3C97.6 627.3 98.1 629.6 98.1 632C98.1 634.4 97.6 636.7 96.5 638.7C95.4 640.7 93.9 642.3 91.9 643.5C89.9 644.7 87.7 645.3 85.3 645.3C82.9 645.3 80.7 644.7 78.7 643.5ZM89.6 640.3C90.9 639.5 92 638.4 92.8 637C93.6 635.6 94 633.9 94 632C94 630.1 93.6 628.4 92.8 627C92 625.6 90.9 624.5 89.6 623.7C88.3 622.9 86.9 622.6 85.3 622.6C83.8 622.6 82.3 623 81 623.7C79.7 624.5 78.6 625.6 77.8 627C77 628.4 76.6 630.1 76.6 632C76.6 633.9 77 635.6 77.8 637C78.6 638.4 79.7 639.5 81 640.3C82.3 641.1 83.8 641.4 85.3 641.4C86.9 641.5 88.3 641.1 89.6 640.3Z" fill="#1E1E1E"/>
<path d="M106.3 653.7C104.4 652.3 103.1 650.7 102.5 648.8L106.3 647.2C106.8 648.6 107.7 649.8 109 650.7C110.3 651.6 111.8 652 113.6 652C116.2 652 118.2 651.2 119.6 649.8C121 648.3 121.7 646.2 121.7 643.4V640.6H121.5C120.7 641.9 119.5 642.9 118.1 643.7C116.7 644.5 114.9 644.9 113 644.9C110.8 644.9 108.9 644.3 107.1 643.2C105.3 642.1 103.9 640.5 102.9 638.6C101.9 636.6 101.3 634.3 101.3 631.8C101.3 629.3 101.8 627 102.9 625C103.9 623 105.4 621.4 107.1 620.3C108.8 619.2 110.8 618.6 113 618.6C114.9 618.6 116.6 619 118.1 619.8C119.6 620.6 120.7 621.6 121.5 623H121.7V619.4H125.7V643.4C125.7 647.4 124.6 650.5 122.4 652.6C120.2 654.7 117.3 655.8 113.6 655.8C110.6 655.8 108.2 655.1 106.3 653.7ZM117.6 640.1C118.8 639.4 119.8 638.3 120.5 636.9C121.2 635.5 121.6 633.8 121.6 631.9C121.6 629.9 121.2 628.3 120.5 626.9C119.8 625.5 118.8 624.4 117.6 623.7C116.4 623 115 622.6 113.5 622.6C112 622.6 110.6 623 109.4 623.7C108.2 624.5 107.2 625.5 106.4 626.9C105.7 628.3 105.3 630 105.3 631.9C105.3 633.8 105.7 635.5 106.4 636.9C107.1 638.3 108.1 639.4 109.4 640.1C110.6 640.8 112 641.2 113.5 641.2C115 641.2 116.4 640.8 117.6 640.1Z" fill="#1E1E1E"/>
<path d="M135.5 609.5V644.5H131.3V609.5H135.5Z" fill="#1E1E1E"/>
<path d="M145.9 643.5C144 642.4 142.5 640.8 141.5 638.8C140.4 636.8 139.9 634.5 139.9 632C139.9 629.6 140.4 627.4 141.4 625.4C142.4 623.4 143.8 621.7 145.7 620.5C147.5 619.3 149.7 618.7 152 618.7C154.4 618.7 156.6 619.2 158.4 620.3C160.2 621.4 161.6 622.9 162.5 624.8C163.4 626.7 163.9 628.9 163.9 631.4C163.9 631.8 163.9 632.2 163.8 632.7H144C144.1 634.6 144.6 636.2 145.4 637.5C146.2 638.8 147.2 639.8 148.5 640.4C149.8 641.1 151.1 641.4 152.4 641.4C155.7 641.4 158.1 639.9 159.8 636.9L163.3 638.6C162.3 640.6 160.8 642.2 158.9 643.4C157 644.6 154.8 645.2 152.2 645.2C149.9 645.2 147.8 644.7 145.9 643.5ZM158.6 626.2C158.1 625.2 157.3 624.3 156.2 623.6C155.1 622.9 153.7 622.5 152 622.5C150 622.5 148.4 623.1 147 624.4C145.6 625.7 144.7 627.3 144.3 629.4H159.5C159.4 628.3 159.1 627.3 158.6 626.2Z" fill="#1E1E1E"/>
<path d="M56.1 656.7C59.7 656.7 62.8 657.4 65.5 658.9C68.2 660.4 70.2 662.4 71.7 665.1C73.2 667.8 73.9 670.8 73.9 674.2C73.9 677.6 73.2 680.7 71.7 683.3C70.3 685.9 68.2 688 65.5 689.5C62.8 691 59.7 691.7 56.1 691.7H45.5V656.7H56.1ZM66 684.2C68.4 681.8 69.6 678.5 69.6 674.2C69.6 669.9 68.4 666.6 66 664.2C63.6 661.8 60.3 660.6 56.1 660.6H49.7V687.7H56.1C60.3 687.8 63.5 686.6 66 684.2Z" fill="#1E1E1E"/>
<path d="M83.5 690.8C81.6 689.7 80.1 688.1 79.1 686.1C78 684.1 77.5 681.8 77.5 679.3C77.5 676.9 78 674.7 79 672.7C80 670.7 81.4 669 83.3 667.8C85.1 666.6 87.3 666 89.6 666C92 666 94.2 666.5 96 667.6C97.8 668.7 99.2 670.2 100.1 672.1C101 674 101.5 676.2 101.5 678.7C101.5 679.1 101.5 679.5 101.4 680H81.6C81.7 681.9 82.2 683.5 83 684.8C83.8 686.1 84.8 687.1 86.1 687.7C87.4 688.4 88.7 688.7 90 688.7C93.3 688.7 95.7 687.2 97.4 684.2L100.9 685.9C99.9 687.9 98.4 689.5 96.5 690.7C94.6 691.9 92.4 692.5 89.8 692.5C87.5 692.5 85.3 692 83.5 690.8ZM96.2 673.5C95.7 672.5 94.9 671.6 93.8 670.9C92.7 670.2 91.3 669.8 89.6 669.8C87.6 669.8 86 670.4 84.6 671.7C83.2 673 82.3 674.6 81.9 676.7H97C97 675.6 96.7 674.5 96.2 673.5Z" fill="#1E1E1E"/>
<path d="M106.6 666.8L114.3 686.8H114.4L122.2 666.8H126.6L116.4 691.7H112.2L102.1 666.8H106.6Z" fill="#1E1E1E"/>
<path d="M133.1 690.8C131.2 689.7 129.7 688.1 128.7 686.1C127.6 684.1 127.1 681.8 127.1 679.3C127.1 676.9 127.6 674.7 128.6 672.7C129.6 670.7 131 669 132.9 667.8C134.7 666.6 136.9 666 139.2 666C141.6 666 143.8 666.5 145.6 667.6C147.4 668.7 148.8 670.2 149.7 672.1C150.6 674 151.1 676.2 151.1 678.7C151.1 679.1 151.1 679.5 151 680H131.2C131.3 681.9 131.8 683.5 132.6 684.8C133.4 686.1 134.4 687.1 135.7 687.7C137 688.4 138.3 688.7 139.6 688.7C142.9 688.7 145.3 687.2 147 684.2L150.5 685.9C149.5 687.9 148 689.5 146.1 690.7C144.2 691.9 142 692.5 139.4 692.5C137.1 692.5 135 692 133.1 690.8ZM145.8 673.5C145.3 672.5 144.5 671.6 143.4 670.9C142.3 670.2 140.9 669.8 139.2 669.8C137.2 669.8 135.6 670.4 134.2 671.7C132.8 673 131.9 674.6 131.5 676.7H146.7C146.6 675.6 146.3 674.5 145.8 673.5Z" fill="#1E1E1E"/>
<path d="M159.6 656.7V691.7H155.4V656.7H159.6Z" fill="#1E1E1E"/>
<path d="M170.2 690.8C168.2 689.6 166.7 688 165.6 686C164.5 684 164 681.7 164 679.3C164 676.9 164.5 674.6 165.6 672.6C166.7 670.6 168.2 669 170.2 667.8C172.2 666.6 174.4 666 176.8 666C179.2 666 181.4 666.6 183.4 667.8C185.4 669 186.9 670.6 188 672.6C189.1 674.6 189.6 676.9 189.6 679.3C189.6 681.7 189.1 684 188 686C186.9 688 185.4 689.6 183.4 690.8C181.4 692 179.2 692.6 176.8 692.6C174.4 692.5 172.2 691.9 170.2 690.8ZM181.1 687.6C182.4 686.8 183.5 685.7 184.3 684.3C185.1 682.9 185.5 681.2 185.5 679.3C185.5 677.4 185.1 675.7 184.3 674.3C183.5 672.9 182.4 671.8 181.1 671C179.8 670.2 178.4 669.9 176.8 669.9C175.2 669.9 173.8 670.3 172.5 671C171.2 671.8 170.1 672.9 169.3 674.3C168.5 675.7 168.1 677.4 168.1 679.3C168.1 681.2 168.5 682.9 169.3 684.3C170.1 685.7 171.2 686.8 172.5 687.6C173.8 688.4 175.3 688.7 176.8 688.7C178.3 688.7 179.8 688.4 181.1 687.6Z" fill="#1E1E1E"/>
<path d="M197.9 666.8V670.5H198.1C198.9 669.2 200 668.2 201.5 667.3C203 666.4 204.7 666 206.6 666C208.8 666 210.9 666.6 212.7 667.7C214.5 668.8 215.9 670.4 217 672.4C218 674.4 218.6 676.7 218.6 679.2C218.6 681.7 218.1 684 217 686C216 688 214.5 689.6 212.7 690.7C210.9 691.8 208.9 692.4 206.6 692.4C204.7 692.4 203 692 201.5 691.1C200 690.2 198.9 689.2 198.1 687.9H197.9L198.1 691.3V702.1H193.9V666.6H197.9V666.8ZM210.2 687.6C211.5 686.8 212.5 685.7 213.2 684.3C213.9 682.9 214.3 681.2 214.3 679.3C214.3 677.4 213.9 675.7 213.2 674.3C212.4 672.9 211.4 671.8 210.2 671C208.9 670.2 207.6 669.8 206.1 669.8C204.6 669.8 203.3 670.2 202 671C200.7 671.8 199.7 672.9 199 674.3C198.2 675.7 197.9 677.4 197.9 679.3C197.9 681.2 198.3 682.9 199 684.3C199.8 685.7 200.8 686.8 202 687.6C203.2 688.4 204.6 688.8 206.1 688.8C207.6 688.8 208.9 688.4 210.2 687.6Z" fill="#1E1E1E"/>
<path d="M227.6 690.8C225.7 689.7 224.2 688.1 223.2 686.1C222.1 684.1 221.6 681.8 221.6 679.3C221.6 676.9 222.1 674.7 223.1 672.7C224.1 670.7 225.5 669 227.4 667.8C229.2 666.6 231.4 666 233.7 666C236.1 666 238.3 666.5 240.1 667.6C241.9 668.7 243.3 670.2 244.2 672.1C245.1 674 245.6 676.2 245.6 678.7C245.6 679.1 245.6 679.5 245.5 680H225.7C225.8 681.9 226.3 683.5 227.1 684.8C227.9 686.1 228.9 687.1 230.2 687.7C231.5 688.4 232.8 688.7 234.1 688.7C237.4 688.7 239.8 687.2 241.5 684.2L245 685.9C244 687.9 242.5 689.5 240.6 690.7C238.7 691.9 236.5 692.5 233.9 692.5C231.6 692.5 229.5 692 227.6 690.8ZM240.3 673.5C239.8 672.5 239 671.6 237.9 670.9C236.8 670.2 235.4 669.8 233.7 669.8C231.7 669.8 230.1 670.4 228.7 671.7C227.3 673 226.4 674.6 226 676.7H241.2C241.1 675.6 240.9 674.5 240.3 673.5Z" fill="#1E1E1E"/>
<path d="M253.9 666.8V670.8H254.1C254.6 669.4 255.5 668.3 256.9 667.4C258.3 666.5 259.8 666.1 261.3 666.1C262.4 666.1 263.4 666.3 264.2 666.6V671.1C263.2 670.6 262 670.3 260.7 670.3C259.5 670.3 258.4 670.6 257.4 671.3C256.4 672 255.6 672.9 255 674.1C254.4 675.3 254.1 676.5 254.1 677.8V691.7H250V666.8H253.9Z" fill="#1E1E1E"/>
<path d="M167.2 738.1C164.4 736.5 162.2 734.3 160.6 731.5C159 728.7 158.2 725.6 158.2 722.2C158.2 718.8 159 715.7 160.6 712.9C162.2 710.1 164.4 707.9 167.2 706.3C170 704.7 173 703.9 176.3 703.9C178.9 703.9 181.3 704.4 183.6 705.3C185.9 706.2 187.7 707.5 189.2 709.2L186.3 712.2C185.2 710.8 183.7 709.8 182 709C180.3 708.3 178.4 707.9 176.4 707.9C174 707.9 171.7 708.5 169.5 709.7C167.3 710.9 165.6 712.6 164.3 714.7C163 716.9 162.4 719.4 162.4 722.2C162.4 725 163 727.5 164.3 729.7C165.6 731.9 167.3 733.5 169.5 734.7C171.7 735.9 173.9 736.5 176.4 736.5C178.7 736.5 180.7 736.1 182.3 735.4C183.9 734.7 185.2 733.7 186.4 732.5C187.2 731.6 187.9 730.5 188.5 729.2C189 727.9 189.3 726.5 189.5 724.9H176.5V721H193.3C193.5 721.9 193.5 722.8 193.5 723.5C193.5 725.7 193.2 727.7 192.5 729.8C191.8 731.8 190.7 733.6 189.2 735.2C186 738.7 181.7 740.4 176.3 740.4C173 740.5 169.9 739.7 167.2 738.1Z" fill="#1E1E1E"/>
<path d="M202.4 714.8V718.8H202.6C203.1 717.4 204 716.3 205.4 715.4C206.8 714.5 208.3 714.1 209.8 714.1C210.9 714.1 211.9 714.3 212.7 714.6V719.1C211.7 718.6 210.5 718.3 209.2 718.3C208 718.3 206.9 718.6 205.9 719.3C204.9 720 204.1 720.9 203.5 722.1C202.9 723.3 202.6 724.5 202.6 725.8V739.7H198.4V714.8H202.4Z" fill="#1E1E1E"/>
<path d="M220.4 738.7C218.4 737.5 216.9 735.9 215.8 733.9C214.7 731.9 214.2 729.6 214.2 727.2C214.2 724.8 214.7 722.5 215.8 720.5C216.9 718.5 218.4 716.9 220.4 715.7C222.4 714.5 224.6 713.9 227 713.9C229.4 713.9 231.6 714.5 233.6 715.7C235.6 716.9 237.1 718.5 238.2 720.5C239.3 722.5 239.8 724.8 239.8 727.2C239.8 729.6 239.3 731.9 238.2 733.9C237.1 735.9 235.6 737.5 233.6 738.7C231.6 739.9 229.4 740.5 227 740.5C224.6 740.5 222.4 739.9 220.4 738.7ZM231.3 735.6C232.6 734.8 233.7 733.7 234.5 732.3C235.3 730.9 235.7 729.2 235.7 727.3C235.7 725.4 235.3 723.7 234.5 722.3C233.7 720.9 232.6 719.8 231.3 719C230 718.2 228.6 717.9 227 717.9C225.4 717.9 224 718.3 222.7 719C221.4 719.8 220.3 720.9 219.5 722.3C218.7 723.7 218.3 725.4 218.3 727.3C218.3 729.2 218.7 730.9 219.5 732.3C220.3 733.7 221.4 734.8 222.7 735.6C224 736.4 225.5 736.7 227 736.7C228.5 736.7 230 736.3 231.3 735.6Z" fill="#1E1E1E"/>
<path d="M246.4 737.9C244.8 736.1 244 733.7 244 730.5V714.8H248.2V729.9C248.2 732.3 248.7 734 249.8 735.1C250.9 736.2 252.3 736.8 254.2 736.8C255.6 736.8 256.8 736.4 257.9 735.7C259 734.9 259.8 734 260.4 732.8C261 731.6 261.3 730.3 261.3 729V714.9H265.5V739.8H261.5V736.2H261.3C260.6 737.4 259.5 738.5 258 739.3C256.5 740.1 254.9 740.6 253.2 740.6C250.3 740.5 248 739.6 246.4 737.9Z" fill="#1E1E1E"/>
<path d="M275.1 714.8V718.5H275.3C276 717.2 277.2 716.2 278.7 715.3C280.2 714.4 281.9 714 283.8 714C286 714 288.1 714.6 289.9 715.7C291.7 716.8 293.1 718.4 294.2 720.4C295.2 722.4 295.8 724.7 295.8 727.2C295.8 729.7 295.3 732 294.2 734C293.2 736 291.7 737.6 289.9 738.7C288.1 739.8 286.1 740.4 283.8 740.4C281.9 740.4 280.2 740 278.7 739.1C277.2 738.2 276.1 737.2 275.3 735.9H275.1L275.3 739.3V750.1H271.1V714.6H275.1V714.8ZM287.4 735.6C288.7 734.8 289.7 733.7 290.4 732.3C291.2 730.9 291.5 729.2 291.5 727.3C291.5 725.4 291.1 723.7 290.4 722.3C289.7 720.9 288.6 719.8 287.4 719C286.1 718.2 284.8 717.8 283.3 717.8C281.8 717.8 280.5 718.2 279.2 719C277.9 719.8 276.9 720.9 276.2 722.3C275.4 723.7 275.1 725.4 275.1 727.3C275.1 729.2 275.5 730.9 276.2 732.3C277 733.7 278 734.8 279.2 735.6C280.4 736.4 281.8 736.8 283.3 736.8C284.8 736.7 286.1 736.3 287.4 735.6Z" fill="#1E1E1E"/>
<path d="M301.9 738.6C300.1 737.3 298.8 735.7 298.1 733.8L301.8 732.1C302.4 733.6 303.3 734.8 304.6 735.6C305.8 736.4 307.2 736.8 308.6 736.8C310.2 736.8 311.5 736.5 312.6 735.8C313.7 735.2 314.3 734.3 314.3 733.1C314.3 732.1 313.9 731.2 313 730.6C312.1 730 310.7 729.4 308.8 729L305.8 728.2C303.8 727.7 302.2 726.9 300.9 725.7C299.6 724.5 299 723 299 721.2C299 719.8 299.4 718.5 300.3 717.4C301.2 716.3 302.3 715.5 303.7 714.9C305.1 714.3 306.7 714 308.3 714C310.5 714 312.4 714.5 314.1 715.4C315.8 716.3 317 717.7 317.7 719.4L314.1 721.1C313 718.9 311 717.8 308.2 717.8C306.8 717.8 305.6 718.1 304.6 718.8C303.6 719.4 303.1 720.2 303.1 721.2C303.1 722.1 303.5 722.9 304.2 723.4C304.9 723.9 306 724.4 307.4 724.8L311 725.7C313.4 726.3 315.3 727.2 316.5 728.5C317.7 729.7 318.4 731.2 318.4 733C318.4 734.5 318 735.9 317.1 737C316.2 738.2 315 739 313.5 739.7C312 740.3 310.3 740.6 308.5 740.6C305.9 740.5 303.7 739.9 301.9 738.6Z" fill="#1E1E1E"/>
<path d="M373.3 648.1L449.1 593.6C465 582.2 487.2 585.8 498.6 601.7C510 617.6 506.4 639.8 490.5 651.2L414.7 705.7C398.8 717.1 376.6 713.5 365.2 697.6C353.7 681.7 357.3 659.5 373.3 648.1Z" fill="#EA4335" stroke="#1E1E1E" stroke-width="5" stroke-miterlimit="10"/>
<path d="M365.2 656.1C376.6 640.2 398.8 636.5 414.7 648L490.5 702.5C506.4 713.9 510.1 736.1 498.6 752C487.2 767.9 465 771.6 449.1 760.1L373.3 705.6C357.4 694.2 353.7 672 365.2 656.1Z" fill="#4285F4" stroke="#1E1E1E" stroke-width="5" stroke-miterlimit="10"/>
<path d="M556.5 702.6L632.3 648.1C648.2 636.7 670.4 640.3 681.8 656.2C693.2 672.1 689.6 694.3 673.7 705.7L597.9 760.2C582 771.6 559.8 768 548.4 752.1C536.9 736.2 540.6 714 556.5 702.6Z" fill="#F9AB00" stroke="#0D0D0D" stroke-width="5" stroke-miterlimit="10"/>
<path d="M548.4 601.6C559.8 585.7 582 582 597.9 593.5L673.7 648C689.6 659.4 693.3 681.6 681.8 697.5C670.4 713.4 648.2 717.1 632.3 705.6L556.5 651.1C540.6 639.7 537 617.5 548.4 601.6Z" fill="#34A853" stroke="#0D0D0D" stroke-width="5" stroke-miterlimit="10"/>
<path d="M782.1 751.4H748.7V597.2H783.2" stroke="#1E1E1E" stroke-width="5" stroke-linejoin="round"/>
<path d="M1018.4 597.2H1052.9V751.4H1018.4" stroke="#1E1E1E" stroke-width="5" stroke-linejoin="round"/>
<path d="M900.8 750.7C946.805 750.7 984.1 716.494 984.1 674.3C984.1 632.105 946.805 597.9 900.8 597.9C854.795 597.9 817.5 632.105 817.5 674.3C817.5 716.494 854.795 750.7 900.8 750.7Z" stroke="#1E1E1E" stroke-width="5" stroke-linejoin="round"/>
<path d="M900.8 750.7C920.627 750.7 936.7 716.494 936.7 674.3C936.7 632.105 920.627 597.9 900.8 597.9C880.973 597.9 864.9 632.105 864.9 674.3C864.9 716.494 880.973 750.7 900.8 750.7Z" stroke="#1E1E1E" stroke-width="5" stroke-linejoin="round"/>
<path d="M823.4 646H978.2" stroke="#1E1E1E" stroke-width="5" stroke-linejoin="round"/>
<path d="M823.4 702.5H978.2" stroke="#1E1E1E" stroke-width="5" stroke-linejoin="round"/>
<path d="M3.8999 890.8H358.2" stroke="#1E1E1E" stroke-width="5" stroke-miterlimit="10"/>
<path d="M358.2 890.8C324.9 890.8 279.3 864 278.7 830.8" stroke="#1E1E1E" stroke-width="5" stroke-miterlimit="10"/>
<path d="M358.2 890.8C324.9 890.8 279.2 917.6 278.7 950.8" stroke="#1E1E1E" stroke-width="5" stroke-miterlimit="10"/>
<path d="M436.5 831.4L1031.2 830.8C1043.2 830.8 1052.9 840.5 1052.9 852.4L1053 928.5C1053 940.5 1043.3 950.2 1031.4 950.2L436.7 950.8C424.7 950.8 415 941.1 415 929.2L414.9 853.1C414.8 841.1 424.5 831.4 436.5 831.4Z" fill="#CEE5C1" stroke="#1E1E1E" stroke-width="5" stroke-miterlimit="10"/>
<path d="M524.302 870.961L524.341 908.474L519.945 908.479L499.473 879.047L499.107 879.047L499.137 908.5L494.595 908.505L494.556 870.993L498.952 870.988L519.497 900.493L519.864 900.493L519.833 870.966L524.302 870.961ZM544.275 909.039C541.735 909.042 539.506 908.44 537.588 907.233C535.681 906.026 534.19 904.336 533.113 902.164C532.048 899.991 531.515 897.452 531.512 894.546C531.508 891.615 532.037 889.056 533.097 886.869C534.169 884.683 535.657 882.984 537.561 881.773C539.477 880.562 541.705 879.955 544.245 879.952C546.785 879.95 549.008 880.552 550.914 881.759C552.832 882.966 554.324 884.661 555.389 886.846C556.465 889.031 557.005 891.588 557.008 894.519C557.011 897.425 556.477 899.966 555.405 902.141C554.344 904.315 552.856 906.008 550.941 907.219C549.037 908.43 546.815 909.037 544.275 909.039ZM544.271 905.156C546.2 905.154 547.787 904.658 549.032 903.668C550.276 902.677 551.197 901.376 551.794 899.763C552.39 898.151 552.688 896.404 552.686 894.524C552.684 892.643 552.383 890.891 551.783 889.268C551.183 887.644 550.259 886.332 549.013 885.332C547.766 884.332 546.178 883.833 544.249 883.835C542.319 883.838 540.732 884.34 539.488 885.342C538.243 886.345 537.323 887.659 536.726 889.283C536.13 890.908 535.832 892.661 535.834 894.541C535.836 896.422 536.137 898.168 536.737 899.779C537.337 901.39 538.261 902.69 539.507 903.678C540.754 904.665 542.342 905.158 544.271 905.156ZM585.591 880.275L575.216 908.421L570.82 908.425L560.387 880.302L565.076 880.297L572.866 902.708L573.159 902.708L580.902 880.28L585.591 880.275ZM602.115 908.979C599.404 908.982 597.065 908.386 595.098 907.191C593.143 905.984 591.633 904.301 590.568 902.14C589.516 899.968 588.988 897.441 588.985 894.559C588.982 891.677 589.504 889.137 590.552 886.937C591.612 884.726 593.088 883.003 594.98 881.768C596.883 880.52 599.105 879.895 601.645 879.892C603.11 879.891 604.557 880.133 605.987 880.62C607.416 881.107 608.717 881.9 609.891 882.997C611.064 884.083 612 885.523 612.698 887.317C613.396 889.112 613.746 891.321 613.749 893.947L613.751 895.779L592.064 895.801L592.06 892.065L609.351 892.047C609.349 890.459 609.03 889.043 608.394 887.798C607.77 886.553 606.877 885.571 605.716 884.852C604.568 884.133 603.212 883.774 601.649 883.775C599.927 883.777 598.438 884.206 597.181 885.062C595.936 885.906 594.979 887.006 594.309 888.362C593.639 889.718 593.304 891.172 593.306 892.723L593.308 895.214C593.311 897.339 593.679 899.139 594.413 900.616C595.16 902.081 596.193 903.197 597.512 903.965C598.832 904.721 600.365 905.097 602.111 905.096C603.246 905.094 604.272 904.935 605.188 904.616C606.115 904.286 606.915 903.796 607.586 903.148C608.256 902.488 608.775 901.67 609.14 900.692L613.317 901.86C612.879 903.277 612.142 904.523 611.105 905.599C610.068 906.663 608.787 907.494 607.261 908.094C605.735 908.682 604.02 908.977 602.115 908.979ZM620.339 908.374L620.31 880.239L624.486 880.235L624.491 884.631L624.857 884.63C625.442 883.128 626.387 881.961 627.693 881.129C628.998 880.285 630.567 879.862 632.399 879.86C634.255 879.858 635.8 880.278 637.034 881.119C638.281 881.948 639.253 883.113 639.95 884.614L640.243 884.614C640.962 883.16 642.042 882.005 643.482 881.149C644.922 880.28 646.649 879.845 648.664 879.843C651.179 879.84 653.238 880.626 654.839 882.199C656.441 883.761 657.243 886.196 657.246 889.505L657.266 908.335L652.943 908.339L652.924 889.51C652.921 887.434 652.352 885.951 651.215 885.061C650.079 884.17 648.741 883.726 647.203 883.728C645.225 883.73 643.693 884.33 642.607 885.528C641.522 886.713 640.98 888.216 640.982 890.035L641.001 908.352L636.605 908.357L636.585 889.087C636.583 887.488 636.063 886.2 635.024 885.224C633.985 884.236 632.647 883.743 631.011 883.745C629.887 883.746 628.837 884.046 627.861 884.645C626.897 885.245 626.116 886.076 625.519 887.139C624.934 888.19 624.642 889.405 624.644 890.785L624.662 908.369L620.339 908.374ZM665.756 908.326L665.717 870.813L670.039 870.809L670.054 884.656L670.42 884.656C670.737 884.167 671.176 883.544 671.737 882.786C672.31 882.016 673.128 881.332 674.189 880.732C675.263 880.12 676.716 879.814 678.548 879.812C680.917 879.809 683.005 880.399 684.814 881.582C686.622 882.764 688.035 884.442 689.05 886.615C690.066 888.787 690.576 891.351 690.579 894.306C690.582 897.286 690.078 899.869 689.067 902.056C688.055 904.23 686.653 905.917 684.859 907.115C683.065 908.302 680.996 908.896 678.652 908.899C676.844 908.901 675.397 908.603 674.309 908.006C673.222 907.396 672.385 906.707 671.798 905.939C671.211 905.158 670.758 904.511 670.44 903.998L669.928 903.999L669.932 908.322L665.756 908.326ZM669.991 894.254C669.993 896.379 670.306 898.253 670.931 899.877C671.555 901.488 672.466 902.751 673.664 903.665C674.862 904.568 676.327 905.018 678.061 905.016C679.869 905.014 681.376 904.536 682.584 903.583C683.804 902.617 684.719 901.321 685.328 899.697C685.949 898.06 686.258 896.24 686.256 894.237C686.254 892.259 685.947 890.477 685.335 888.89C684.734 887.291 683.823 886.028 682.601 885.101C681.391 884.162 679.871 883.693 678.039 883.695C676.281 883.697 674.803 884.144 673.608 885.037C672.412 885.918 671.51 887.152 670.901 888.74C670.292 890.316 669.988 892.154 669.991 894.254ZM709.002 908.867C706.292 908.87 703.952 908.274 701.985 907.079C700.03 905.872 698.52 904.189 697.456 902.028C696.403 899.856 695.875 897.329 695.872 894.447C695.869 891.565 696.392 889.025 697.44 886.826C698.5 884.614 699.976 882.891 701.867 881.656C703.771 880.408 705.992 879.783 708.532 879.78C709.998 879.779 711.445 880.021 712.874 880.508C714.303 880.995 715.605 881.788 716.778 882.886C717.952 883.971 718.887 885.411 719.585 887.205C720.283 889 720.633 891.21 720.636 893.835L720.638 895.667L698.951 895.689L698.947 891.953L716.238 891.935C716.236 890.347 715.917 888.931 715.281 887.686C714.657 886.441 713.765 885.459 712.604 884.74C711.455 884.021 710.099 883.662 708.536 883.663C706.815 883.665 705.325 884.094 704.068 884.95C702.824 885.794 701.866 886.894 701.196 888.25C700.526 889.606 700.192 891.06 700.193 892.611L700.196 895.102C700.198 897.227 700.566 899.027 701.301 900.504C702.047 901.969 703.08 903.085 704.4 903.853C705.719 904.609 707.252 904.986 708.998 904.984C710.134 904.983 711.16 904.823 712.075 904.504C713.003 904.174 713.802 903.684 714.473 903.036C715.144 902.376 715.662 901.558 716.027 900.58L720.205 901.748C719.767 903.165 719.029 904.411 717.992 905.487C716.956 906.551 715.674 907.382 714.148 907.982C712.623 908.57 710.907 908.865 709.002 908.867ZM727.227 908.262L727.197 880.127L731.374 880.123L731.378 884.372L731.671 884.372C732.183 882.979 733.11 881.849 734.452 880.98C735.794 880.112 737.308 879.677 738.993 879.675C739.311 879.675 739.707 879.68 740.184 879.692C740.66 879.704 741.02 879.722 741.264 879.746L741.269 884.142C741.122 884.106 740.787 884.051 740.261 883.978C739.748 883.893 739.205 883.851 738.631 883.852C737.263 883.853 736.043 884.141 734.969 884.716C733.907 885.279 733.065 886.062 732.443 887.064C731.834 888.053 731.53 889.183 731.531 890.453L731.55 908.257L727.227 908.262ZM773.528 908.726C771.11 908.729 768.954 908.316 767.061 907.487C765.179 906.659 763.682 905.506 762.569 904.03C761.469 902.541 760.869 900.814 760.769 898.848L765.385 898.843C765.484 900.052 765.9 901.096 766.634 901.974C767.367 902.841 768.326 903.511 769.511 903.986C770.696 904.461 772.009 904.698 773.45 904.696C775.062 904.695 776.49 904.412 777.735 903.849C778.98 903.286 779.956 902.504 780.664 901.502C781.371 900.5 781.724 899.339 781.722 898.02C781.721 896.641 781.378 895.426 780.693 894.376C780.008 893.315 779.006 892.486 777.686 891.889C776.367 891.292 774.755 890.994 772.85 890.996L769.846 890.999L769.842 886.97L772.846 886.966C774.335 886.965 775.642 886.695 776.764 886.156C777.9 885.618 778.784 884.86 779.418 883.882C780.064 882.905 780.387 881.757 780.385 880.438C780.384 879.168 780.102 878.063 779.539 877.123C778.976 876.184 778.182 875.452 777.156 874.928C776.142 874.404 774.945 874.142 773.565 874.144C772.27 874.145 771.049 874.385 769.902 874.862C768.767 875.327 767.84 876.006 767.12 876.898C766.401 877.778 766.011 878.841 765.951 880.087L761.555 880.091C761.626 878.125 762.217 876.403 763.326 874.924C764.436 873.433 765.888 872.271 767.682 871.439C769.489 870.607 771.472 870.19 773.634 870.187C775.954 870.185 777.945 870.653 779.607 871.592C781.268 872.518 782.546 873.744 783.439 875.269C784.332 876.795 784.779 878.443 784.781 880.213C784.783 882.326 784.229 884.128 783.12 885.619C782.022 887.109 780.528 888.143 778.635 888.719L778.636 889.012C781.005 889.4 782.856 890.406 784.189 892.028C785.522 893.639 786.189 895.635 786.192 898.016C786.194 900.055 785.64 901.887 784.531 903.513C783.433 905.126 781.933 906.397 780.029 907.327C778.125 908.257 775.958 908.723 773.528 908.726ZM805.93 908.692C803.17 908.695 800.819 907.946 798.876 906.447C796.933 904.934 795.447 902.744 794.418 899.875C793.389 896.995 792.873 893.515 792.868 889.437C792.864 885.382 793.373 881.92 794.396 879.049C795.431 876.166 796.918 873.967 798.858 872.451C800.811 870.922 803.154 870.156 805.89 870.154C808.625 870.151 810.964 870.912 812.907 872.436C814.863 873.948 816.355 876.144 817.384 879.025C818.425 881.894 818.947 885.355 818.951 889.409C818.956 893.488 818.446 896.968 817.424 899.851C816.401 902.722 814.92 904.916 812.98 906.432C811.04 907.936 808.69 908.689 805.93 908.692ZM805.926 904.662C808.661 904.66 810.784 903.339 812.296 900.699C813.807 898.06 814.56 894.298 814.555 889.414C814.552 886.166 814.201 883.4 813.503 881.117C812.816 878.835 811.825 877.096 810.53 875.9C809.246 874.705 807.701 874.108 805.894 874.11C803.183 874.113 801.066 875.452 799.542 878.128C798.019 880.792 797.259 884.56 797.264 889.432C797.268 892.68 797.613 895.439 798.299 897.71C798.985 899.981 799.97 901.707 801.253 902.891C802.549 904.074 804.106 904.664 805.926 904.662ZM831.137 903.024L830.846 905.003C830.64 906.395 830.324 907.885 829.898 909.473C829.485 911.061 829.053 912.557 828.603 913.962C828.152 915.367 827.781 916.484 827.489 917.315L824.192 917.318C824.35 916.537 824.556 915.505 824.811 914.222C825.066 912.94 825.321 911.505 825.576 909.917C825.843 908.342 826.061 906.729 826.23 905.081L826.448 903.029L831.137 903.024ZM853.585 908.129L853.582 904.832L865.95 891.265C867.401 889.676 868.596 888.295 869.535 887.122C870.474 885.936 871.169 884.824 871.62 883.786C872.083 882.735 872.314 881.636 872.313 880.488C872.311 879.169 871.993 878.028 871.357 877.064C870.733 876.1 869.877 875.356 868.79 874.832C867.702 874.308 866.481 874.047 865.126 874.048C863.685 874.05 862.427 874.35 861.353 874.949C860.292 875.537 859.468 876.362 858.883 877.425C858.31 878.488 858.025 879.734 858.026 881.162L853.703 881.167C853.701 878.969 854.206 877.039 855.218 875.377C856.229 873.715 857.608 872.42 859.353 871.49C861.111 870.56 863.082 870.094 865.268 870.091C867.466 870.089 869.414 870.551 871.113 871.477C872.811 872.404 874.143 873.654 875.11 875.228C876.076 876.802 876.56 878.554 876.562 880.484C876.564 881.863 876.315 883.213 875.815 884.532C875.328 885.839 874.475 887.3 873.256 888.913C872.048 890.514 870.371 892.469 868.225 894.779L859.808 903.8L859.809 904.093L877.246 904.075L877.25 908.105L853.585 908.129ZM897.051 908.597C894.292 908.6 891.94 907.851 889.997 906.351C888.054 904.839 886.568 902.649 885.539 899.78C884.51 896.899 883.994 893.42 883.99 889.341C883.985 885.287 884.495 881.825 885.517 878.954C886.552 876.071 888.04 873.871 889.98 872.355C891.932 870.827 894.276 870.061 897.011 870.058C899.746 870.055 902.086 870.816 904.029 872.34C905.984 873.853 907.476 876.049 908.505 878.93C909.546 881.798 910.068 885.26 910.073 889.314C910.077 893.392 909.568 896.873 908.545 899.756C907.522 902.627 906.041 904.82 904.101 906.336C902.161 907.84 899.811 908.594 897.051 908.597ZM897.047 904.567C899.782 904.564 901.906 903.243 903.417 900.604C904.929 897.965 905.682 894.203 905.677 889.318C905.673 886.07 905.322 883.305 904.624 881.022C903.938 878.739 902.947 877 901.651 875.805C900.368 874.609 898.822 874.013 897.015 874.015C894.304 874.017 892.187 875.357 890.663 878.033C889.14 880.696 888.381 884.464 888.386 889.336C888.389 892.585 888.734 895.344 889.42 897.615C890.106 899.885 891.091 901.612 892.374 902.795C893.67 903.978 895.228 904.569 897.047 904.567ZM917.053 908.063L917.049 904.766L929.417 891.198C930.869 889.609 932.064 888.228 933.003 887.055C933.942 885.87 934.637 884.758 935.088 883.719C935.551 882.669 935.781 881.569 935.78 880.422C935.779 879.103 935.46 877.961 934.824 876.997C934.2 876.033 933.345 875.289 932.257 874.765C931.17 874.241 929.949 873.98 928.593 873.982C927.152 873.983 925.895 874.284 924.821 874.883C923.759 875.47 922.936 876.295 922.351 877.358C921.778 878.421 921.492 879.667 921.494 881.096L917.171 881.1C917.169 878.902 917.673 876.973 918.685 875.311C919.697 873.649 921.076 872.353 922.821 871.423C924.578 870.493 926.55 870.027 928.736 870.025C930.934 870.023 932.882 870.485 934.58 871.411C936.278 872.337 937.611 873.587 938.577 875.162C939.543 876.736 940.028 878.488 940.03 880.417C940.031 881.797 939.782 883.147 939.283 884.466C938.796 885.773 937.943 887.233 936.723 888.846C935.516 890.447 933.839 892.403 931.692 894.713L923.276 903.734L923.276 904.027L940.714 904.008L940.718 908.038L917.053 908.063ZM946.59 900.339L946.586 896.602L963.043 870.502L965.754 870.499L965.76 876.287L963.929 876.289L951.494 896.011L951.494 896.304L973.694 896.281L973.698 900.31L946.59 900.339ZM964.255 908.013L964.246 899.185L964.244 897.445L964.216 870.501L968.538 870.496L968.578 908.009L964.255 908.013Z" fill="#1E1E1E"/>
<path d="M267.4 1027.2C267.4 1071.9 237.8 1108.2 201.3 1108.2C164.8 1108.2 135.2 1072 135.2 1027.2" stroke="#1E1E1E" stroke-width="5" stroke-linejoin="round"/>
<path d="M135.1 1027.2C135.1 1071.9 105.5 1108.2 68.9999 1108.2C32.4999 1108.2 2.8999 1072 2.8999 1027.2" stroke="#1E1E1E" stroke-width="5" stroke-linejoin="round"/>
<path d="M399.7 1027.2C399.7 1071.9 370.1 1108.2 333.6 1108.2C297.1 1108.2 267.5 1072 267.5 1027.2" stroke="#1E1E1E" stroke-width="5" stroke-linejoin="round"/>
<path d="M532 1027.2C532 1071.9 502.4 1108.2 465.9 1108.2C429.4 1108.2 399.8 1072 399.8 1027.2" stroke="#1E1E1E" stroke-width="5" stroke-linejoin="round"/>
<path d="M1630.6 613.3H1192.3V1051.6H1630.6V613.3Z" fill="#4285F4" stroke="#1E1E1E" stroke-width="5" stroke-linejoin="round"/>
<path d="M1497.8 755.4H1325.1V1051.7H1497.8V755.4Z" fill="#F0F0F0" stroke="#1E1E1E" stroke-width="5" stroke-linecap="round" stroke-linejoin="round"/>
<path d="M1522.3 878.6H1300.6V901.3H1522.3V878.6Z" fill="#FFE7A5" stroke="#1E1E1E" stroke-width="5" stroke-linecap="round" stroke-linejoin="round"/>
<path d="M1300.6 878.6V901.2" stroke="#1E1E1E" stroke-width="5" stroke-linecap="round" stroke-linejoin="round"/>
<path d="M1361.1 878.6V901.2" stroke="#1E1E1E" stroke-width="5" stroke-linecap="round" stroke-linejoin="round"/>
<path d="M1320.8 878.6V901.2" stroke="#1E1E1E" stroke-width="5" stroke-linecap="round" stroke-linejoin="round"/>
<path d="M1340.9 878.6V901.2" stroke="#1E1E1E" stroke-width="5" stroke-linecap="round" stroke-linejoin="round"/>
<path d="M1381.3 878.6V901.2" stroke="#1E1E1E" stroke-width="5" stroke-linecap="round" stroke-linejoin="round"/>
<path d="M1401.4 878.6V901.2" stroke="#1E1E1E" stroke-width="5" stroke-linecap="round" stroke-linejoin="round"/>
<path d="M1421.6 878.6V901.2" stroke="#1E1E1E" stroke-width="5" stroke-linecap="round" stroke-linejoin="round"/>
<path d="M1441.7 878.6V901.2" stroke="#1E1E1E" stroke-width="5" stroke-linecap="round" stroke-linejoin="round"/>
<path d="M1461.9 878.6V901.2" stroke="#1E1E1E" stroke-width="5" stroke-linecap="round" stroke-linejoin="round"/>
<path d="M1482.1 878.6V901.2" stroke="#1E1E1E" stroke-width="5" stroke-linecap="round" stroke-linejoin="round"/>
<path d="M1502.2 878.6V901.2" stroke="#1E1E1E" stroke-width="5" stroke-linecap="round" stroke-linejoin="round"/>
<path d="M1522.4 878.6V901.2" stroke="#1E1E1E" stroke-width="5" stroke-linecap="round" stroke-linejoin="round"/>
<path d="M1529.7 901.6H1293.3V915.9H1529.7V901.6Z" fill="#FF7DAF" stroke="#1E1E1E" stroke-width="5" stroke-linecap="round" stroke-linejoin="round"/>
<path d="M1526.7 703C1526.7 703 1525.6 724.6 1496.4 724.6H1326.8C1297.6 724.6 1296.5 703 1296.5 703C1326.8 725.1 1350.4 672.2 1350.4 672.2H1472.9C1472.8 672.3 1496.4 725.1 1526.7 703Z" fill="#EA4335" stroke="#1E1E1E" stroke-width="5" stroke-linecap="round" stroke-linejoin="round"/>
<path d="M1372.2 822.1H1382.6C1383.6 828 1386.5 833.5 1390.7 837.7L1391.2 838.2C1392.3 839.2 1393.4 840.1 1394.6 841C1398.1 843.5 1402.1 845.1 1406.3 845.8C1408 846.1 1409.7 846.2 1411.4 846.3C1413.1 846.3 1414.8 846.1 1416.5 845.8V878.5H1406.2V856.2C1404.6 856 1403 855.7 1401.4 855.3C1400.9 855.2 1400.3 855 1399.8 854.9C1399 854.6 1398.2 854.4 1397.4 854.1C1397 853.9 1396.6 853.8 1396.2 853.6C1395.4 853.3 1394.5 852.9 1393.7 852.5L1392.7 852C1391.9 851.6 1391.2 851.2 1390.4 850.7C1389.3 850 1388.2 849.3 1387.2 848.4L1357 878.6H1349.7V871.3L1379.9 841.1C1377 837.3 1374.8 833 1373.4 828.5C1373.2 828 1373.1 827.5 1373 826.9C1372.8 825.3 1372.4 823.7 1372.2 822.1Z" fill="#4285F4" stroke="#1E1E1E" stroke-width="5" stroke-linecap="round" stroke-linejoin="round"/>
<path d="M1357.2 755.4L1387.4 785.6C1388.6 784.6 1389.9 783.8 1391.3 782.9L1392.7 782.1C1393.3 781.8 1393.8 781.5 1394.4 781.2C1395 780.9 1395.6 780.7 1396.2 780.4L1396.7 780.2L1397.6 779.8C1398 779.6 1398.4 779.5 1398.8 779.4C1399.2 779.3 1399.7 779.1 1400.2 778.9C1402.2 778.3 1404.3 777.9 1406.4 777.6V788C1402.2 788.7 1398.2 790.4 1394.7 792.8C1393.3 793.8 1392 794.9 1390.8 796.1C1389.6 797.3 1388.5 798.7 1387.5 800.1C1385 803.6 1383.4 807.6 1382.7 811.8C1382.4 813.5 1382.2 815.2 1382.3 816.9C1382.3 818.6 1382.5 820.3 1382.8 822H1350.1V811.7H1372.4C1372.6 810.1 1372.9 808.5 1373.3 806.9C1373.4 806.4 1373.6 805.9 1373.7 805.3C1374.3 803.2 1375.1 801.2 1376.1 799.3C1376.3 798.9 1376.5 798.5 1376.7 798.1C1377.1 797.3 1377.5 796.6 1378 795.9C1378.2 795.5 1378.5 795.2 1378.7 794.8C1378.9 794.4 1379.2 794.1 1379.4 793.7C1379.6 793.3 1379.9 793 1380.2 792.7L1350 762.5V755.2L1357.2 755.4Z" fill="#EA4335" stroke="#1E1E1E" stroke-width="5" stroke-linecap="round" stroke-linejoin="round"/>
<path d="M1440.4 811.8H1473.1V822.1H1450.8C1450.6 823.7 1450.3 825.3 1449.9 826.9C1449.8 827.4 1449.6 827.9 1449.5 828.5C1449.1 829.7 1448.7 831 1448.2 832.2C1447.9 833 1447.5 833.9 1447.1 834.7L1446.6 835.7C1446.3 836.2 1446.1 836.7 1445.8 837.1C1445 838.5 1444 839.8 1443.1 841.1L1473.3 871.3V878.6H1466L1435.8 848.4C1435.5 848.7 1435.1 848.9 1434.8 849.2C1434.5 849.5 1434.1 849.7 1433.7 850C1433.3 850.3 1433 850.5 1432.6 850.7L1431.5 851.4C1430.9 851.8 1430.2 852.1 1429.6 852.4L1428.9 852.7C1428.2 853 1427.6 853.3 1426.9 853.6L1425.7 854.1L1425.4 854.2C1424.8 854.4 1424.2 854.6 1423.6 854.8L1423.3 854.9C1422.8 855.1 1422.3 855.2 1421.7 855.3C1420.1 855.7 1418.5 856 1416.9 856.2V845.8C1422.8 844.8 1428.3 841.9 1432.5 837.6C1433.7 836.4 1434.8 835.1 1435.8 833.7C1439.2 828.8 1441.1 822.9 1441.1 816.9C1440.9 815.2 1440.7 813.5 1440.4 811.8Z" fill="#F9AB00" stroke="#1E1E1E" stroke-width="5" stroke-linecap="round" stroke-linejoin="round"/>
<path d="M1406.4 755.4H1416.7V777.7L1418 777.9C1419.3 778.1 1420.6 778.4 1421.8 778.7L1422.8 779L1424.3 779.5C1424.7 779.6 1425.1 779.8 1425.5 779.9L1426.4 780.3C1427.3 780.7 1428.2 781.1 1429 781.5C1429.4 781.7 1429.8 781.9 1430.2 782.1L1430.4 782.2L1431.8 783C1433.1 783.8 1434.4 784.7 1435.7 785.7L1465.9 755.5H1473.2V762.8L1443 793C1444 794.2 1444.8 795.5 1445.7 796.9C1446 797.4 1446.2 797.8 1446.5 798.3C1446.5 798.4 1446.6 798.4 1446.6 798.5C1446.8 798.9 1447 799.3 1447.2 799.7C1447.6 800.5 1448 801.3 1448.3 802.2C1448.5 802.6 1448.6 803 1448.7 803.3C1448.8 803.6 1449 804.1 1449.1 804.5C1449.2 804.9 1449.3 805.1 1449.4 805.5C1449.4 805.6 1449.5 805.8 1449.5 805.9C1450.1 807.9 1450.5 810 1450.8 812.1H1440.4C1437.9 798.1 1425.7 787.9 1411.5 787.9C1409.8 787.9 1408.1 788.1 1406.4 788.4V755.4Z" fill="#34A853" stroke="#1E1E1E" stroke-width="5" stroke-linecap="round" stroke-linejoin="round"/>
<path d="M1349.9 755.4H1325.1V878.6H1349.9V755.4Z" fill="#FFD427" stroke="#1E1E1E" stroke-width="5" stroke-linecap="round" stroke-linejoin="round"/>
<path d="M1497.9 755.4H1473.1V878.6H1497.9V755.4Z" fill="#FFD427" stroke="#1E1E1E" stroke-width="5" stroke-linecap="round" stroke-linejoin="round"/>
<path d="M1349.9 915.9H1300.6V1051.4H1349.9V915.9Z" fill="#F8D8D8" stroke="#1E1E1E" stroke-width="5" stroke-linecap="round" stroke-linejoin="round"/>
<path d="M1522.4 915.9H1473.1V1051.4H1522.4V915.9Z" fill="#F8D8D8" stroke="#1E1E1E" stroke-width="5" stroke-linecap="round" stroke-linejoin="round"/>
<path d="M1549.9 727.8C1549.9 727.8 1548.6 755.4 1513.5 755.4H1309.7C1274.6 755.4 1273.3 727.8 1273.3 727.8C1309.7 749.9 1326.2 724.6 1326.2 724.6H1497.1C1496.9 724.6 1513.5 749.9 1549.9 727.8Z" fill="#F9AB00" stroke="#1E1E1E" stroke-width="5" stroke-linecap="round" stroke-linejoin="round"/>
<path d="M1239.3 562.9C1239.3 573.5 1232.3 582.1 1223.6 582.1C1214.9 582.1 1207.9 573.5 1207.9 562.9" stroke="#1E1E1E" stroke-width="5" stroke-linejoin="round"/>
<path d="M1161 563.6V556.8H1192.3V563.8" stroke="#1E1E1E" stroke-width="5" stroke-linejoin="round"/>
<path d="M1255 563.6V556.8H1286.3V563.8" stroke="#1E1E1E" stroke-width="5" stroke-linejoin="round"/>
<path d="M1333.2 562.9C1333.2 573.5 1326.2 582.1 1317.5 582.1C1308.8 582.1 1301.8 573.5 1301.8 562.9" stroke="#1E1E1E" stroke-width="5" stroke-linejoin="round"/>
<path d="M1348.9 563.6V556.8H1380.2V563.8" stroke="#1E1E1E" stroke-width="5" stroke-linejoin="round"/>
<path d="M1427.2 562.9C1427.2 573.5 1420.2 582.1 1411.5 582.1C1402.8 582.1 1395.8 573.5 1395.8 562.9" stroke="#1E1E1E" stroke-width="5" stroke-linejoin="round"/>
<path d="M1442.8 563.6V556.8H1474.1V563.8" stroke="#1E1E1E" stroke-width="5" stroke-linejoin="round"/>
<path d="M1521.1 562.9C1521.1 573.5 1514.1 582.1 1505.4 582.1C1496.7 582.1 1489.7 573.5 1489.7 562.9" stroke="#1E1E1E" stroke-width="5" stroke-linejoin="round"/>
<path d="M1536.7 563.6V556.8H1568V563.8" stroke="#1E1E1E" stroke-width="5" stroke-linejoin="round"/>
<path d="M1615 562.9C1615 573.5 1608 582.1 1599.3 582.1C1590.6 582.1 1583.6 573.5 1583.6 562.9" stroke="#1E1E1E" stroke-width="5" stroke-linejoin="round"/>
<path d="M1630.7 563.6V556.8H1662V563.8" stroke="#1E1E1E" stroke-width="5" stroke-linejoin="round"/>
<path d="M1141.9 1004.7C1152.5 1004.7 1161.1 1011.7 1161.1 1020.4C1161.1 1029.1 1152.5 1036.1 1141.9 1036.1" stroke="#1E1E1E" stroke-width="5" stroke-linejoin="round"/>
<path d="M1142.6 1082.9H1135.9V1051.6H1142.9" stroke="#1E1E1E" stroke-width="5" stroke-linejoin="round"/>
<path d="M1142.6 989H1135.9V957.7H1142.9" stroke="#1E1E1E" stroke-width="5" stroke-linejoin="round"/>
<path d="M1141.9 910.8C1152.5 910.8 1161.1 917.8 1161.1 926.5C1161.1 935.2 1152.5 942.2 1141.9 942.2" stroke="#1E1E1E" stroke-width="5" stroke-linejoin="round"/>
<path d="M1142.6 895.1H1135.9V863.8H1142.9" stroke="#1E1E1E" stroke-width="5" stroke-linejoin="round"/>
<path d="M1141.9 816.8C1152.5 816.8 1161.1 823.8 1161.1 832.5C1161.1 841.2 1152.5 848.2 1141.9 848.2" stroke="#1E1E1E" stroke-width="5" stroke-linejoin="round"/>
<path d="M1142.6 801.2H1135.9V769.9H1142.9" stroke="#1E1E1E" stroke-width="5" stroke-linejoin="round"/>
<path d="M1141.9 722.9C1152.5 722.9 1161.1 729.9 1161.1 738.6C1161.1 747.3 1152.5 754.3 1141.9 754.3" stroke="#1E1E1E" stroke-width="5" stroke-linejoin="round"/>
<path d="M1142.6 707.3H1135.9V675.9H1142.9" stroke="#1E1E1E" stroke-width="5" stroke-linejoin="round"/>
<path d="M1141.9 629C1152.5 629 1161.1 636 1161.1 644.7C1161.1 653.4 1152.5 660.4 1141.9 660.4" stroke="#1E1E1E" stroke-width="5" stroke-linejoin="round"/>
<path d="M1142.6 613.3H1135.9V582H1142.9" stroke="#1E1E1E" stroke-width="5" stroke-linejoin="round"/>
<path d="M1681.1 660.3C1670.5 660.3 1661.9 653.3 1661.9 644.6C1661.9 635.9 1670.5 628.9 1681.1 628.9" stroke="#1E1E1E" stroke-width="5" stroke-linejoin="round"/>
<path d="M1680.4 582H1687.1V613.3H1680.1" stroke="#1E1E1E" stroke-width="5" stroke-linejoin="round"/>
<path d="M1680.4 675.9H1687.1V707.3H1680.1" stroke="#1E1E1E" stroke-width="5" stroke-linejoin="round"/>
<path d="M1681.1 754.2C1670.5 754.2 1661.9 747.2 1661.9 738.5C1661.9 729.8 1670.5 722.8 1681.1 722.8" stroke="#1E1E1E" stroke-width="5" stroke-linejoin="round"/>
<path d="M1680.4 769.9H1687.1V801.2H1680.1" stroke="#1E1E1E" stroke-width="5" stroke-linejoin="round"/>
<path d="M1681.1 848.1C1670.5 848.1 1661.9 841.1 1661.9 832.4C1661.9 823.7 1670.5 816.7 1681.1 816.7" stroke="#1E1E1E" stroke-width="5" stroke-linejoin="round"/>
<path d="M1680.4 863.8H1687.1V895.1H1680.1" stroke="#1E1E1E" stroke-width="5" stroke-linejoin="round"/>
<path d="M1681.1 942.1C1670.5 942.1 1661.9 935.1 1661.9 926.4C1661.9 917.7 1670.5 910.7 1681.1 910.7" stroke="#1E1E1E" stroke-width="5" stroke-linejoin="round"/>
<path d="M1680.4 957.7H1687.1V989H1680.1" stroke="#1E1E1E" stroke-width="5" stroke-linejoin="round"/>
<path d="M1681.1 1036C1670.5 1036 1661.9 1029 1661.9 1020.3C1661.9 1011.6 1670.5 1004.6 1681.1 1004.6" stroke="#1E1E1E" stroke-width="5" stroke-linejoin="round"/>
<path d="M1680.4 1051.6H1687.1V1082.9H1680.1" stroke="#1E1E1E" stroke-width="5" stroke-linejoin="round"/>
<path d="M1583.7 1102.1C1583.7 1091.5 1590.7 1082.9 1599.4 1082.9C1608.1 1082.9 1615.1 1091.5 1615.1 1102.1" stroke="#1E1E1E" stroke-width="5" stroke-linejoin="round"/>
<path d="M1662 1101.3V1108.1H1630.7V1101.1" stroke="#1E1E1E" stroke-width="5" stroke-linejoin="round"/>
<path d="M1568 1101.3V1108.1H1536.7V1101.1" stroke="#1E1E1E" stroke-width="5" stroke-linejoin="round"/>
<path d="M1489.8 1102.1C1489.8 1091.5 1496.8 1082.9 1505.5 1082.9C1514.2 1082.9 1521.2 1091.5 1521.2 1102.1" stroke="#1E1E1E" stroke-width="5" stroke-linejoin="round"/>
<path d="M1474.1 1101.3V1108.1H1442.8V1101.1" stroke="#1E1E1E" stroke-width="5" stroke-linejoin="round"/>
<path d="M1395.8 1102.1C1395.8 1091.5 1402.8 1082.9 1411.5 1082.9C1420.2 1082.9 1427.2 1091.5 1427.2 1102.1" stroke="#1E1E1E" stroke-width="5" stroke-linejoin="round"/>
<path d="M1380.2 1101.3V1108.1H1348.9V1101.1" stroke="#1E1E1E" stroke-width="5" stroke-linejoin="round"/>
<path d="M1301.9 1102.1C1301.9 1091.5 1308.9 1082.9 1317.6 1082.9C1326.3 1082.9 1333.3 1091.5 1333.3 1102.1" stroke="#1E1E1E" stroke-width="5" stroke-linejoin="round"/>
<path d="M1286.3 1101.3V1108.1H1255V1101.1" stroke="#1E1E1E" stroke-width="5" stroke-linejoin="round"/>
<path d="M1208 1102.1C1208 1091.5 1215 1082.9 1223.7 1082.9C1232.4 1082.9 1239.4 1091.5 1239.4 1102.1" stroke="#1E1E1E" stroke-width="5" stroke-linejoin="round"/>
<path d="M1192.3 1101.3V1108.1H1161V1101.1" stroke="#1E1E1E" stroke-width="5" stroke-linejoin="round"/>
</svg>
