<svg width="1056" height="538" viewBox="0 0 1056 538" fill="none" xmlns="http://www.w3.org/2000/svg">
<path d="M611 447.2L683.9 520.1" stroke="#1E1E1E" stroke-width="5" stroke-linejoin="round"/>
<path d="M683.9 447.2L611 520.1" stroke="#1E1E1E" stroke-width="5" stroke-linejoin="round"/>
<path d="M647.4 432.1V535.2" stroke="#1E1E1E" stroke-width="5" stroke-linejoin="round"/>
<path d="M699 483.7H595.9" stroke="#1E1E1E" stroke-width="5" stroke-linejoin="round"/>
<path d="M814.1 535.2C832.9 535.7 850.4 526 860 509.9C860.6 508.9 861.9 508.6 862.8 509.2C863.1 509.4 863.3 509.6 863.5 509.9C878.3 534.6 910.3 542.6 934.9 527.8C942.2 523.4 948.4 517.3 952.8 509.9C953.3 508.9 954.5 508.6 955.5 509.1C955.8 509.3 956.1 509.6 956.3 509.9C965.9 526 983.5 535.6 1002.2 535.2C1029.3 534.5 1052.4 511.4 1052.8 484.4C1053 455.7 1029.9 432.3 1001.2 432.1C982.8 432 965.7 441.6 956.2 457.4C955.7 458.4 954.4 458.7 953.5 458.2C953.2 458 952.9 457.8 952.7 457.4C937.9 432.7 905.9 424.7 881.3 439.5C874 443.9 867.8 450 863.4 457.4C862.9 458.4 861.6 458.7 860.7 458.2C860.4 458 860.1 457.7 859.9 457.4C845.2 432.8 813.3 424.7 788.7 439.4C772.9 448.8 763.3 465.9 763.4 484.4C764 511.3 787 534.5 814.1 535.2Z" fill="#F8D8D8" stroke="#1E1E1E" stroke-width="5" stroke-miterlimit="10"/>
<path d="M14.1001 58.8001C11.3001 57.2001 9.1001 55.0001 7.5001 52.2001C5.9001 49.4001 5.1001 46.3001 5.1001 42.9001C5.1001 39.5001 5.9001 36.4001 7.5001 33.6001C9.1001 30.8001 11.3001 28.6001 14.1001 27.0001C16.9001 25.4001 19.9001 24.6001 23.2001 24.6001C25.8001 24.6001 28.2001 25.1001 30.5001 26.0001C32.8001 26.9001 34.6001 28.2001 36.1001 29.9001L33.2001 32.9001C32.1001 31.5001 30.6001 30.5001 28.9001 29.7001C27.2001 29.0001 25.3001 28.6001 23.3001 28.6001C20.9001 28.6001 18.6001 29.2001 16.4001 30.4001C14.2001 31.6001 12.5001 33.3001 11.2001 35.4001C9.9001 37.6001 9.3001 40.1001 9.3001 42.9001C9.3001 45.7001 9.9001 48.2001 11.2001 50.4001C12.5001 52.6001 14.2001 54.2001 16.4001 55.4001C18.6001 56.6001 20.8001 57.2001 23.3001 57.2001C25.6001 57.2001 27.6001 56.8001 29.2001 56.1001C30.8001 55.4001 32.1001 54.4001 33.3001 53.2001C34.1001 52.3001 34.8001 51.2001 35.4001 49.9001C35.9001 48.6001 36.2001 47.2001 36.4001 45.6001H23.4001V41.7001H40.2001C40.4001 42.6001 40.4001 43.5001 40.4001 44.2001C40.4001 46.4001 40.1001 48.4001 39.4001 50.5001C38.7001 52.5001 37.6001 54.3001 36.1001 55.9001C32.9001 59.4001 28.6001 61.1001 23.2001 61.1001C19.9001 61.2001 16.9001 60.4001 14.1001 58.8001Z" fill="#1E1E1E"/>
<path d="M50.1002 59.5002C48.1002 58.3002 46.6002 56.7002 45.5002 54.7002C44.4002 52.7002 43.9001 50.4002 43.9001 48.0002C43.9001 45.6002 44.4002 43.3002 45.5002 41.3002C46.6002 39.3002 48.1002 37.7002 50.1002 36.5002C52.1002 35.3002 54.3001 34.7002 56.7001 34.7002C59.1001 34.7002 61.3002 35.3002 63.3002 36.5002C65.3002 37.7002 66.8001 39.3002 67.9001 41.3002C69.0001 43.3002 69.5002 45.6002 69.5002 48.0002C69.5002 50.4002 69.0001 52.7002 67.9001 54.7002C66.8001 56.7002 65.3002 58.3002 63.3002 59.5002C61.3002 60.7002 59.1001 61.3002 56.7001 61.3002C54.3001 61.2002 52.1002 60.7002 50.1002 59.5002ZM61.0002 56.3002C62.3002 55.5002 63.4001 54.4002 64.2001 53.0002C65.0001 51.6002 65.4001 49.9002 65.4001 48.0002C65.4001 46.1002 65.0001 44.4002 64.2001 43.0002C63.4001 41.6002 62.3002 40.5002 61.0002 39.7002C59.7002 38.9002 58.3001 38.6002 56.7001 38.6002C55.1001 38.6002 53.7001 39.0002 52.4001 39.7002C51.1001 40.5002 50.0001 41.6002 49.2001 43.0002C48.4001 44.4002 48.0002 46.1002 48.0002 48.0002C48.0002 49.9002 48.4001 51.6002 49.2001 53.0002C50.0001 54.4002 51.1001 55.5002 52.4001 56.3002C53.7001 57.1002 55.2001 57.4002 56.7001 57.4002C58.2001 57.4002 59.7002 57.1002 61.0002 56.3002Z" fill="#1E1E1E"/>
<path d="M78.7 59.5002C76.7 58.3002 75.2 56.7002 74.1 54.7002C73 52.7002 72.5 50.4002 72.5 48.0002C72.5 45.6002 73 43.3002 74.1 41.3002C75.2 39.3002 76.7 37.7002 78.7 36.5002C80.7 35.3002 82.9 34.7002 85.3 34.7002C87.7 34.7002 89.9 35.3002 91.9 36.5002C93.9 37.7002 95.4 39.3002 96.5 41.3002C97.6 43.3002 98.1 45.6002 98.1 48.0002C98.1 50.4002 97.6 52.7002 96.5 54.7002C95.4 56.7002 93.9 58.3002 91.9 59.5002C89.9 60.7002 87.7 61.3002 85.3 61.3002C82.9 61.3002 80.7 60.7002 78.7 59.5002ZM89.6 56.3002C90.9 55.5002 92 54.4002 92.8 53.0002C93.6 51.6002 94 49.9002 94 48.0002C94 46.1002 93.6 44.4002 92.8 43.0002C92 41.6002 90.9 40.5002 89.6 39.7002C88.3 38.9002 86.9 38.6002 85.3 38.6002C83.8 38.6002 82.3 39.0002 81 39.7002C79.7 40.5002 78.6 41.6002 77.8 43.0002C77 44.4002 76.6 46.1002 76.6 48.0002C76.6 49.9002 77 51.6002 77.8 53.0002C78.6 54.4002 79.7 55.5002 81 56.3002C82.3 57.1002 83.8 57.4002 85.3 57.4002C86.9 57.5002 88.3 57.1002 89.6 56.3002Z" fill="#1E1E1E"/>
<path d="M106.3 69.7001C104.4 68.3001 103.1 66.7001 102.5 64.8001L106.3 63.2001C106.8 64.6001 107.7 65.8001 109 66.7001C110.3 67.6001 111.8 68.0001 113.6 68.0001C116.2 68.0001 118.2 67.2001 119.6 65.8001C121 64.3001 121.7 62.2001 121.7 59.4001V56.6001H121.5C120.7 57.9001 119.5 58.9001 118.1 59.7001C116.7 60.5001 114.9 60.9001 113 60.9001C110.8 60.9001 108.9 60.3001 107.1 59.2001C105.3 58.1001 103.9 56.5001 102.9 54.6001C101.9 52.6001 101.3 50.3001 101.3 47.8001C101.3 45.3001 101.8 43.0001 102.9 41.0001C103.9 39.0001 105.4 37.4001 107.1 36.3001C108.8 35.2001 110.8 34.6001 113 34.6001C114.9 34.6001 116.6 35.0001 118.1 35.8001C119.6 36.6001 120.7 37.6001 121.5 39.0001H121.7V35.4001H125.7V59.4001C125.7 63.4001 124.6 66.5001 122.4 68.6001C120.2 70.7001 117.3 71.8001 113.6 71.8001C110.6 71.8001 108.2 71.1001 106.3 69.7001ZM117.6 56.1001C118.8 55.4001 119.8 54.3001 120.5 52.9001C121.2 51.5001 121.6 49.8001 121.6 47.9001C121.6 45.9001 121.2 44.3001 120.5 42.9001C119.8 41.5001 118.8 40.4001 117.6 39.7001C116.4 39.0001 115 38.6001 113.5 38.6001C112 38.6001 110.6 39.0001 109.4 39.7001C108.2 40.5001 107.2 41.5001 106.4 42.9001C105.7 44.3001 105.3 46.0001 105.3 47.9001C105.3 49.8001 105.7 51.5001 106.4 52.9001C107.1 54.3001 108.1 55.4001 109.4 56.1001C110.6 56.8001 112 57.2001 113.5 57.2001C115 57.2001 116.4 56.8001 117.6 56.1001Z" fill="#1E1E1E"/>
<path d="M135.5 25.5V60.5H131.3V25.5H135.5Z" fill="#1E1E1E"/>
<path d="M145.9 59.5002C144 58.4002 142.5 56.8002 141.5 54.8002C140.4 52.8002 139.9 50.5002 139.9 48.0002C139.9 45.6002 140.4 43.4002 141.4 41.4002C142.4 39.4002 143.8 37.7002 145.7 36.5002C147.5 35.3002 149.7 34.7002 152 34.7002C154.4 34.7002 156.6 35.2002 158.4 36.3002C160.2 37.4002 161.6 38.9002 162.5 40.8002C163.4 42.7002 163.9 44.9002 163.9 47.4002C163.9 47.8002 163.9 48.2002 163.8 48.7002H144C144.1 50.6002 144.6 52.2002 145.4 53.5002C146.2 54.8002 147.2 55.8002 148.5 56.4002C149.8 57.1002 151.1 57.4002 152.4 57.4002C155.7 57.4002 158.1 55.9002 159.8 52.9002L163.3 54.6002C162.3 56.6002 160.8 58.2002 158.9 59.4002C157 60.6002 154.8 61.2002 152.2 61.2002C149.9 61.2002 147.8 60.7002 145.9 59.5002ZM158.6 42.2002C158.1 41.2002 157.3 40.3002 156.2 39.6002C155.1 38.9002 153.7 38.5002 152 38.5002C150 38.5002 148.4 39.1002 147 40.4002C145.6 41.7002 144.7 43.3002 144.3 45.4002H159.5C159.4 44.3002 159.1 43.3002 158.6 42.2002Z" fill="#1E1E1E"/>
<path d="M56.1 72.7002C59.7 72.7002 62.8 73.4002 65.5 74.9002C68.2 76.4002 70.2 78.4002 71.7 81.1002C73.2 83.8002 73.9 86.8002 73.9 90.2002C73.9 93.6002 73.2 96.7002 71.7 99.3002C70.3 101.9 68.2 104 65.5 105.5C62.8 107 59.7 107.7 56.1 107.7H45.5V72.7002H56.1ZM66 100.2C68.4 97.8002 69.6 94.5002 69.6 90.2002C69.6 85.9002 68.4 82.6002 66 80.2002C63.6 77.8002 60.3 76.6002 56.1 76.6002H49.7V103.7H56.1C60.3 103.8 63.5 102.6 66 100.2Z" fill="#1E1E1E"/>
<path d="M83.5 106.8C81.6 105.7 80.1 104.1 79.1 102.1C78 100.1 77.5 97.8 77.5 95.3C77.5 92.9 78 90.7 79 88.7C80 86.7 81.4 85 83.3 83.8C85.1 82.6 87.3 82 89.6 82C92 82 94.2 82.5 96 83.6C97.8 84.7 99.2 86.2 100.1 88.1C101 90 101.5 92.2 101.5 94.7C101.5 95.1 101.5 95.5 101.4 96H81.6C81.7 97.9 82.2 99.5 83 100.8C83.8 102.1 84.8 103.1 86.1 103.7C87.4 104.4 88.7 104.7 90 104.7C93.3 104.7 95.7 103.2 97.4 100.2L100.9 101.9C99.9 103.9 98.4 105.5 96.5 106.7C94.6 107.9 92.4 108.5 89.8 108.5C87.5 108.5 85.3 108 83.5 106.8ZM96.2 89.5C95.7 88.5 94.9 87.6 93.8 86.9C92.7 86.2 91.3 85.8 89.6 85.8C87.6 85.8 86 86.4 84.6 87.7C83.2 89 82.3 90.6 81.9 92.7H97C97 91.6 96.7 90.5 96.2 89.5Z" fill="#1E1E1E"/>
<path d="M106.6 82.8L114.3 102.8H114.4L122.2 82.8H126.6L116.4 107.7H112.2L102.1 82.8H106.6Z" fill="#1E1E1E"/>
<path d="M133.1 106.8C131.2 105.7 129.7 104.1 128.7 102.1C127.6 100.1 127.1 97.8 127.1 95.3C127.1 92.9 127.6 90.7 128.6 88.7C129.6 86.7 131 85 132.9 83.8C134.7 82.6 136.9 82 139.2 82C141.6 82 143.8 82.5 145.6 83.6C147.4 84.7 148.8 86.2 149.7 88.1C150.6 90 151.1 92.2 151.1 94.7C151.1 95.1 151.1 95.5 151 96H131.2C131.3 97.9 131.8 99.5 132.6 100.8C133.4 102.1 134.4 103.1 135.7 103.7C137 104.4 138.3 104.7 139.6 104.7C142.9 104.7 145.3 103.2 147 100.2L150.5 101.9C149.5 103.9 148 105.5 146.1 106.7C144.2 107.9 142 108.5 139.4 108.5C137.1 108.5 135 108 133.1 106.8ZM145.8 89.5C145.3 88.5 144.5 87.6 143.4 86.9C142.3 86.2 140.9 85.8 139.2 85.8C137.2 85.8 135.6 86.4 134.2 87.7C132.8 89 131.9 90.6 131.5 92.7H146.7C146.6 91.6 146.3 90.5 145.8 89.5Z" fill="#1E1E1E"/>
<path d="M159.6 72.7002V107.7H155.4V72.7002H159.6Z" fill="#1E1E1E"/>
<path d="M170.2 106.8C168.2 105.6 166.7 104 165.6 102C164.5 100 164 97.7 164 95.3C164 92.9 164.5 90.6 165.6 88.6C166.7 86.6 168.2 85 170.2 83.8C172.2 82.6 174.4 82 176.8 82C179.2 82 181.4 82.6 183.4 83.8C185.4 85 186.9 86.6 188 88.6C189.1 90.6 189.6 92.9 189.6 95.3C189.6 97.7 189.1 100 188 102C186.9 104 185.4 105.6 183.4 106.8C181.4 108 179.2 108.6 176.8 108.6C174.4 108.5 172.2 107.9 170.2 106.8ZM181.1 103.6C182.4 102.8 183.5 101.7 184.3 100.3C185.1 98.9 185.5 97.2 185.5 95.3C185.5 93.4 185.1 91.7 184.3 90.3C183.5 88.9 182.4 87.8 181.1 87C179.8 86.2 178.4 85.9 176.8 85.9C175.2 85.9 173.8 86.3 172.5 87C171.2 87.8 170.1 88.9 169.3 90.3C168.5 91.7 168.1 93.4 168.1 95.3C168.1 97.2 168.5 98.9 169.3 100.3C170.1 101.7 171.2 102.8 172.5 103.6C173.8 104.4 175.3 104.7 176.8 104.7C178.3 104.7 179.8 104.4 181.1 103.6Z" fill="#1E1E1E"/>
<path d="M197.9 82.8V86.5H198.1C198.9 85.2 200 84.2 201.5 83.3C203 82.4 204.7 82 206.6 82C208.8 82 210.9 82.6 212.7 83.7C214.5 84.8 215.9 86.4 217 88.4C218 90.4 218.6 92.7 218.6 95.2C218.6 97.7 218.1 100 217 102C216 104 214.5 105.6 212.7 106.7C210.9 107.8 208.9 108.4 206.6 108.4C204.7 108.4 203 108 201.5 107.1C200 106.2 198.9 105.2 198.1 103.9H197.9L198.1 107.3V118.1H193.9V82.6H197.9V82.8ZM210.2 103.6C211.5 102.8 212.5 101.7 213.2 100.3C213.9 98.9 214.3 97.2 214.3 95.3C214.3 93.4 213.9 91.7 213.2 90.3C212.4 88.9 211.4 87.8 210.2 87C208.9 86.2 207.6 85.8 206.1 85.8C204.6 85.8 203.3 86.2 202 87C200.7 87.8 199.7 88.9 199 90.3C198.2 91.7 197.9 93.4 197.9 95.3C197.9 97.2 198.3 98.9 199 100.3C199.8 101.7 200.8 102.8 202 103.6C203.2 104.4 204.6 104.8 206.1 104.8C207.6 104.8 208.9 104.4 210.2 103.6Z" fill="#1E1E1E"/>
<path d="M227.6 106.8C225.7 105.7 224.2 104.1 223.2 102.1C222.1 100.1 221.6 97.8 221.6 95.3C221.6 92.9 222.1 90.7 223.1 88.7C224.1 86.7 225.5 85 227.4 83.8C229.2 82.6 231.4 82 233.7 82C236.1 82 238.3 82.5 240.1 83.6C241.9 84.7 243.3 86.2 244.2 88.1C245.1 90 245.6 92.2 245.6 94.7C245.6 95.1 245.6 95.5 245.5 96H225.7C225.8 97.9 226.3 99.5 227.1 100.8C227.9 102.1 228.9 103.1 230.2 103.7C231.5 104.4 232.8 104.7 234.1 104.7C237.4 104.7 239.8 103.2 241.5 100.2L245 101.9C244 103.9 242.5 105.5 240.6 106.7C238.7 107.9 236.5 108.5 233.9 108.5C231.6 108.5 229.5 108 227.6 106.8ZM240.3 89.5C239.8 88.5 239 87.6 237.9 86.9C236.8 86.2 235.4 85.8 233.7 85.8C231.7 85.8 230.1 86.4 228.7 87.7C227.3 89 226.4 90.6 226 92.7H241.2C241.1 91.6 240.9 90.5 240.3 89.5Z" fill="#1E1E1E"/>
<path d="M253.9 82.8001V86.8001H254.1C254.6 85.4001 255.5 84.3001 256.9 83.4001C258.3 82.5001 259.8 82.1001 261.3 82.1001C262.4 82.1001 263.4 82.3001 264.2 82.6001V87.1001C263.2 86.6001 262 86.3001 260.7 86.3001C259.5 86.3001 258.4 86.6001 257.4 87.3001C256.4 88.0001 255.6 88.9001 255 90.1001C254.4 91.3001 254.1 92.5001 254.1 93.8001V107.7H250V82.8001H253.9Z" fill="#1E1E1E"/>
<path d="M167.2 154.1C164.4 152.5 162.2 150.3 160.6 147.5C159 144.7 158.2 141.6 158.2 138.2C158.2 134.8 159 131.7 160.6 128.9C162.2 126.1 164.4 123.9 167.2 122.3C170 120.7 173 119.9 176.3 119.9C178.9 119.9 181.3 120.4 183.6 121.3C185.9 122.2 187.7 123.5 189.2 125.2L186.3 128.2C185.2 126.8 183.7 125.8 182 125C180.3 124.3 178.4 123.9 176.4 123.9C174 123.9 171.7 124.5 169.5 125.7C167.3 126.9 165.6 128.6 164.3 130.7C163 132.9 162.4 135.4 162.4 138.2C162.4 141 163 143.5 164.3 145.7C165.6 147.9 167.3 149.5 169.5 150.7C171.7 151.9 173.9 152.5 176.4 152.5C178.7 152.5 180.7 152.1 182.3 151.4C183.9 150.7 185.2 149.7 186.4 148.5C187.2 147.6 187.9 146.5 188.5 145.2C189 143.9 189.3 142.5 189.5 140.9H176.5V137H193.3C193.5 137.9 193.5 138.8 193.5 139.5C193.5 141.7 193.2 143.7 192.5 145.8C191.8 147.8 190.7 149.6 189.2 151.2C186 154.7 181.7 156.4 176.3 156.4C173 156.5 169.9 155.7 167.2 154.1Z" fill="#1E1E1E"/>
<path d="M202.4 130.8V134.8H202.6C203.1 133.4 204 132.3 205.4 131.4C206.8 130.5 208.3 130.1 209.8 130.1C210.9 130.1 211.9 130.3 212.7 130.6V135.1C211.7 134.6 210.5 134.3 209.2 134.3C208 134.3 206.9 134.6 205.9 135.3C204.9 136 204.1 136.9 203.5 138.1C202.9 139.3 202.6 140.5 202.6 141.8V155.7H198.4V130.8H202.4Z" fill="#1E1E1E"/>
<path d="M220.4 154.7C218.4 153.5 216.9 151.9 215.8 149.9C214.7 147.9 214.2 145.6 214.2 143.2C214.2 140.8 214.7 138.5 215.8 136.5C216.9 134.5 218.4 132.9 220.4 131.7C222.4 130.5 224.6 129.9 227 129.9C229.4 129.9 231.6 130.5 233.6 131.7C235.6 132.9 237.1 134.5 238.2 136.5C239.3 138.5 239.8 140.8 239.8 143.2C239.8 145.6 239.3 147.9 238.2 149.9C237.1 151.9 235.6 153.5 233.6 154.7C231.6 155.9 229.4 156.5 227 156.5C224.6 156.5 222.4 155.9 220.4 154.7ZM231.3 151.6C232.6 150.8 233.7 149.7 234.5 148.3C235.3 146.9 235.7 145.2 235.7 143.3C235.7 141.4 235.3 139.7 234.5 138.3C233.7 136.9 232.6 135.8 231.3 135C230 134.2 228.6 133.9 227 133.9C225.4 133.9 224 134.3 222.7 135C221.4 135.8 220.3 136.9 219.5 138.3C218.7 139.7 218.3 141.4 218.3 143.3C218.3 145.2 218.7 146.9 219.5 148.3C220.3 149.7 221.4 150.8 222.7 151.6C224 152.4 225.5 152.7 227 152.7C228.5 152.7 230 152.3 231.3 151.6Z" fill="#1E1E1E"/>
<path d="M246.4 153.9C244.8 152.1 244 149.7 244 146.5V130.8H248.2V145.9C248.2 148.3 248.7 150 249.8 151.1C250.9 152.2 252.3 152.8 254.2 152.8C255.6 152.8 256.8 152.4 257.9 151.7C259 150.9 259.8 150 260.4 148.8C261 147.6 261.3 146.3 261.3 145V130.9H265.5V155.8H261.5V152.2H261.3C260.6 153.4 259.5 154.5 258 155.3C256.5 156.1 254.9 156.6 253.2 156.6C250.3 156.5 248 155.6 246.4 153.9Z" fill="#1E1E1E"/>
<path d="M275.1 130.8V134.5H275.3C276 133.2 277.2 132.2 278.7 131.3C280.2 130.4 281.9 130 283.8 130C286 130 288.1 130.6 289.9 131.7C291.7 132.8 293.1 134.4 294.2 136.4C295.2 138.4 295.8 140.7 295.8 143.2C295.8 145.7 295.3 148 294.2 150C293.2 152 291.7 153.6 289.9 154.7C288.1 155.8 286.1 156.4 283.8 156.4C281.9 156.4 280.2 156 278.7 155.1C277.2 154.2 276.1 153.2 275.3 151.9H275.1L275.3 155.3V166.1H271.1V130.6H275.1V130.8ZM287.4 151.6C288.7 150.8 289.7 149.7 290.4 148.3C291.2 146.9 291.5 145.2 291.5 143.3C291.5 141.4 291.1 139.7 290.4 138.3C289.7 136.9 288.6 135.8 287.4 135C286.1 134.2 284.8 133.8 283.3 133.8C281.8 133.8 280.5 134.2 279.2 135C277.9 135.8 276.9 136.9 276.2 138.3C275.4 139.7 275.1 141.4 275.1 143.3C275.1 145.2 275.5 146.9 276.2 148.3C277 149.7 278 150.8 279.2 151.6C280.4 152.4 281.8 152.8 283.3 152.8C284.8 152.7 286.1 152.3 287.4 151.6Z" fill="#1E1E1E"/>
<path d="M301.9 154.6C300.1 153.3 298.8 151.7 298.1 149.8L301.8 148.1C302.4 149.6 303.3 150.8 304.6 151.6C305.8 152.4 307.2 152.8 308.6 152.8C310.2 152.8 311.5 152.5 312.6 151.8C313.7 151.2 314.3 150.3 314.3 149.1C314.3 148.1 313.9 147.2 313 146.6C312.1 146 310.7 145.4 308.8 145L305.8 144.2C303.8 143.7 302.2 142.9 300.9 141.7C299.6 140.5 299 139 299 137.2C299 135.8 299.4 134.5 300.3 133.4C301.2 132.3 302.3 131.5 303.7 130.9C305.1 130.3 306.7 130 308.3 130C310.5 130 312.4 130.5 314.1 131.4C315.8 132.3 317 133.7 317.7 135.4L314.1 137.1C313 134.9 311 133.8 308.2 133.8C306.8 133.8 305.6 134.1 304.6 134.8C303.6 135.4 303.1 136.2 303.1 137.2C303.1 138.1 303.5 138.9 304.2 139.4C304.9 139.9 306 140.4 307.4 140.8L311 141.7C313.4 142.3 315.3 143.2 316.5 144.5C317.7 145.7 318.4 147.2 318.4 149C318.4 150.5 318 151.9 317.1 153C316.2 154.2 315 155 313.5 155.7C312 156.3 310.3 156.6 308.5 156.6C305.9 156.5 303.7 155.9 301.9 154.6Z" fill="#1E1E1E"/>
<path d="M373.3 64.1001L449.1 9.60011C465 -1.79989 487.2 1.80015 498.6 17.7001C510 33.6001 506.4 55.8001 490.5 67.2001L414.7 121.7C398.8 133.1 376.6 129.5 365.2 113.6C353.7 97.7001 357.3 75.5001 373.3 64.1001Z" fill="#EA4335" stroke="#1E1E1E" stroke-width="5" stroke-miterlimit="10"/>
<path d="M365.2 72.1C376.6 56.2 398.8 52.5 414.7 64L490.5 118.5C506.4 129.9 510.1 152.1 498.6 168C487.2 183.9 465 187.6 449.1 176.1L373.3 121.6C357.4 110.2 353.7 88 365.2 72.1Z" fill="#4285F4" stroke="#1E1E1E" stroke-width="5" stroke-miterlimit="10"/>
<path d="M556.5 118.6L632.3 64.1001C648.2 52.7001 670.4 56.3001 681.8 72.2001C693.2 88.1001 689.6 110.3 673.7 121.7L597.9 176.2C582 187.6 559.8 184 548.4 168.1C536.9 152.2 540.6 130 556.5 118.6Z" fill="#F9AB00" stroke="#0D0D0D" stroke-width="5" stroke-miterlimit="10"/>
<path d="M548.4 17.6C559.8 1.69997 582 -2.00001 597.9 9.49999L673.7 64C689.6 75.4 693.3 97.6 681.8 113.5C670.4 129.4 648.2 133.1 632.3 121.6L556.5 67.1C540.6 55.7 537 33.5 548.4 17.6Z" fill="#34A853" stroke="#0D0D0D" stroke-width="5" stroke-miterlimit="10"/>
<path d="M782.1 167.4H748.7V13.2H783.2" stroke="#1E1E1E" stroke-width="5" stroke-linejoin="round"/>
<path d="M1018.4 13.2H1052.9V167.4H1018.4" stroke="#1E1E1E" stroke-width="5" stroke-linejoin="round"/>
<path d="M900.8 166.7C946.805 166.7 984.1 132.494 984.1 90.2999C984.1 48.1053 946.805 13.8999 900.8 13.8999C854.795 13.8999 817.5 48.1053 817.5 90.2999C817.5 132.494 854.795 166.7 900.8 166.7Z" stroke="#1E1E1E" stroke-width="5" stroke-linejoin="round"/>
<path d="M900.8 166.7C920.627 166.7 936.7 132.494 936.7 90.2999C936.7 48.1053 920.627 13.8999 900.8 13.8999C880.973 13.8999 864.9 48.1053 864.9 90.2999C864.9 132.494 880.973 166.7 900.8 166.7Z" stroke="#1E1E1E" stroke-width="5" stroke-linejoin="round"/>
<path d="M823.4 62H978.2" stroke="#1E1E1E" stroke-width="5" stroke-linejoin="round"/>
<path d="M823.4 118.5H978.2" stroke="#1E1E1E" stroke-width="5" stroke-linejoin="round"/>
<path d="M3.8999 306.8H358.2" stroke="#1E1E1E" stroke-width="5" stroke-miterlimit="10"/>
<path d="M358.2 306.8C324.9 306.8 279.3 280 278.7 246.8" stroke="#1E1E1E" stroke-width="5" stroke-miterlimit="10"/>
<path d="M358.2 306.8C324.9 306.8 279.2 333.6 278.7 366.8" stroke="#1E1E1E" stroke-width="5" stroke-miterlimit="10"/>
<path d="M436.5 247.4L1031.2 246.8C1043.2 246.8 1052.9 256.5 1052.9 268.4L1053 344.5C1053 356.5 1043.3 366.2 1031.4 366.2L436.7 366.8C424.7 366.8 415 357.1 415 345.2L414.9 269.1C414.8 257.1 424.5 247.4 436.5 247.4Z" fill="#CEE5C1" stroke="#1E1E1E" stroke-width="5" stroke-miterlimit="10"/>
<path d="M524.302 286.961L524.341 324.474L519.945 324.479L499.473 295.047L499.107 295.047L499.137 324.5L494.595 324.505L494.556 286.993L498.952 286.988L519.497 316.493L519.864 316.493L519.833 286.966L524.302 286.961ZM544.275 325.039C541.735 325.042 539.506 324.44 537.588 323.233C535.681 322.026 534.19 320.336 533.113 318.164C532.048 315.991 531.515 313.452 531.512 310.546C531.508 307.615 532.037 305.056 533.097 302.869C534.169 300.683 535.657 298.984 537.561 297.773C539.477 296.562 541.705 295.955 544.245 295.952C546.785 295.95 549.008 296.552 550.914 297.759C552.832 298.966 554.324 300.661 555.389 302.846C556.465 305.031 557.005 307.588 557.008 310.519C557.011 313.425 556.477 315.966 555.405 318.141C554.344 320.315 552.856 322.008 550.941 323.219C549.037 324.43 546.815 325.037 544.275 325.039ZM544.271 321.156C546.2 321.154 547.787 320.658 549.032 319.668C550.276 318.677 551.197 317.376 551.794 315.763C552.39 314.151 552.688 312.404 552.686 310.524C552.684 308.643 552.383 306.891 551.783 305.268C551.183 303.644 550.259 302.332 549.013 301.332C547.766 300.332 546.178 299.833 544.249 299.835C542.319 299.838 540.732 300.34 539.488 301.342C538.243 302.345 537.323 303.659 536.726 305.283C536.13 306.908 535.832 308.661 535.834 310.541C535.836 312.422 536.137 314.168 536.737 315.779C537.337 317.39 538.261 318.69 539.507 319.678C540.754 320.665 542.342 321.158 544.271 321.156ZM585.591 296.275L575.216 324.421L570.82 324.425L560.387 296.302L565.076 296.297L572.866 318.708L573.159 318.708L580.902 296.28L585.591 296.275ZM602.115 324.979C599.404 324.982 597.065 324.386 595.098 323.191C593.143 321.984 591.633 320.301 590.568 318.14C589.516 315.968 588.988 313.441 588.985 310.559C588.982 307.677 589.504 305.137 590.552 302.937C591.612 300.726 593.088 299.003 594.98 297.768C596.883 296.52 599.105 295.895 601.645 295.892C603.11 295.891 604.557 296.133 605.987 296.62C607.416 297.107 608.717 297.9 609.891 298.997C611.064 300.083 612 301.523 612.698 303.317C613.396 305.112 613.746 307.321 613.749 309.947L613.751 311.779L592.064 311.801L592.06 308.065L609.351 308.047C609.349 306.459 609.03 305.043 608.394 303.798C607.77 302.553 606.877 301.571 605.716 300.852C604.568 300.133 603.212 299.774 601.649 299.775C599.927 299.777 598.438 300.206 597.181 301.062C595.936 301.906 594.979 303.006 594.309 304.362C593.639 305.718 593.304 307.172 593.306 308.723L593.308 311.214C593.311 313.339 593.679 315.139 594.413 316.616C595.16 318.081 596.193 319.197 597.512 319.965C598.832 320.721 600.365 321.097 602.111 321.096C603.246 321.094 604.272 320.935 605.188 320.616C606.115 320.286 606.915 319.796 607.586 319.148C608.256 318.488 608.775 317.67 609.14 316.692L613.317 317.86C612.879 319.277 612.142 320.523 611.105 321.599C610.068 322.663 608.787 323.494 607.261 324.094C605.735 324.682 604.02 324.977 602.115 324.979ZM620.339 324.374L620.31 296.239L624.486 296.235L624.491 300.631L624.857 300.63C625.442 299.128 626.387 297.961 627.693 297.129C628.998 296.285 630.567 295.862 632.399 295.86C634.255 295.858 635.8 296.278 637.034 297.119C638.281 297.948 639.253 299.113 639.95 300.614L640.243 300.614C640.962 299.16 642.042 298.005 643.482 297.149C644.922 296.28 646.649 295.845 648.664 295.843C651.179 295.84 653.238 296.626 654.839 298.199C656.441 299.761 657.243 302.196 657.246 305.505L657.266 324.335L652.943 324.339L652.924 305.51C652.921 303.434 652.352 301.951 651.215 301.061C650.079 300.17 648.741 299.726 647.203 299.728C645.225 299.73 643.693 300.33 642.607 301.528C641.522 302.713 640.98 304.216 640.982 306.035L641.001 324.352L636.605 324.357L636.585 305.087C636.583 303.488 636.063 302.2 635.024 301.224C633.985 300.236 632.647 299.743 631.011 299.745C629.887 299.746 628.837 300.046 627.861 300.645C626.897 301.245 626.116 302.076 625.519 303.139C624.934 304.19 624.642 305.405 624.644 306.785L624.662 324.369L620.339 324.374ZM665.756 324.326L665.717 286.813L670.039 286.809L670.054 300.656L670.42 300.656C670.737 300.167 671.176 299.544 671.737 298.786C672.31 298.016 673.128 297.332 674.189 296.732C675.263 296.12 676.716 295.814 678.548 295.812C680.917 295.809 683.005 296.399 684.814 297.582C686.622 298.764 688.035 300.442 689.05 302.615C690.066 304.787 690.576 307.351 690.579 310.306C690.582 313.286 690.078 315.869 689.067 318.056C688.055 320.23 686.653 321.917 684.859 323.115C683.065 324.302 680.996 324.896 678.652 324.899C676.844 324.901 675.397 324.603 674.309 324.006C673.222 323.396 672.385 322.707 671.798 321.939C671.211 321.158 670.758 320.511 670.44 319.998L669.928 319.999L669.932 324.322L665.756 324.326ZM669.991 310.254C669.993 312.379 670.306 314.253 670.931 315.877C671.555 317.488 672.466 318.751 673.664 319.665C674.862 320.568 676.327 321.018 678.061 321.016C679.869 321.014 681.376 320.536 682.584 319.583C683.804 318.617 684.719 317.321 685.328 315.697C685.949 314.06 686.258 312.24 686.256 310.237C686.254 308.259 685.947 306.477 685.335 304.89C684.734 303.291 683.823 302.028 682.601 301.101C681.391 300.162 679.871 299.693 678.039 299.695C676.281 299.697 674.803 300.144 673.608 301.037C672.412 301.918 671.51 303.152 670.901 304.74C670.292 306.316 669.988 308.154 669.991 310.254ZM709.002 324.867C706.292 324.87 703.952 324.274 701.985 323.079C700.03 321.872 698.52 320.189 697.456 318.028C696.403 315.856 695.875 313.329 695.872 310.447C695.869 307.565 696.392 305.025 697.44 302.826C698.5 300.614 699.976 298.891 701.867 297.656C703.771 296.408 705.992 295.783 708.532 295.78C709.998 295.779 711.445 296.021 712.874 296.508C714.303 296.995 715.605 297.788 716.778 298.886C717.952 299.971 718.887 301.411 719.585 303.205C720.283 305 720.633 307.21 720.636 309.835L720.638 311.667L698.951 311.689L698.947 307.953L716.238 307.935C716.236 306.347 715.917 304.931 715.281 303.686C714.657 302.441 713.765 301.459 712.604 300.74C711.455 300.021 710.099 299.662 708.536 299.663C706.815 299.665 705.325 300.094 704.068 300.95C702.824 301.794 701.866 302.894 701.196 304.25C700.526 305.606 700.192 307.06 700.193 308.611L700.196 311.102C700.198 313.227 700.566 315.027 701.301 316.504C702.047 317.969 703.08 319.085 704.4 319.853C705.719 320.609 707.252 320.986 708.998 320.984C710.134 320.983 711.16 320.823 712.075 320.504C713.003 320.174 713.802 319.684 714.473 319.036C715.144 318.376 715.662 317.558 716.027 316.58L720.205 317.748C719.767 319.165 719.029 320.411 717.992 321.487C716.956 322.551 715.674 323.382 714.148 323.982C712.623 324.57 710.907 324.865 709.002 324.867ZM727.227 324.262L727.197 296.127L731.374 296.123L731.378 300.372L731.671 300.372C732.183 298.979 733.11 297.849 734.452 296.98C735.794 296.112 737.308 295.677 738.993 295.675C739.311 295.675 739.707 295.68 740.184 295.692C740.66 295.704 741.02 295.722 741.264 295.746L741.269 300.142C741.122 300.106 740.787 300.051 740.261 299.978C739.748 299.893 739.205 299.851 738.631 299.852C737.263 299.853 736.043 300.141 734.969 300.716C733.907 301.279 733.065 302.062 732.443 303.064C731.834 304.053 731.53 305.183 731.531 306.453L731.55 324.257L727.227 324.262ZM773.528 324.726C771.11 324.729 768.954 324.316 767.061 323.487C765.179 322.659 763.682 321.506 762.569 320.03C761.469 318.541 760.869 316.814 760.769 314.848L765.385 314.843C765.484 316.052 765.9 317.096 766.634 317.974C767.367 318.841 768.326 319.511 769.511 319.986C770.696 320.461 772.009 320.698 773.45 320.696C775.062 320.695 776.49 320.412 777.735 319.849C778.98 319.286 779.956 318.504 780.664 317.502C781.371 316.5 781.724 315.339 781.722 314.02C781.721 312.641 781.378 311.426 780.693 310.376C780.008 309.315 779.006 308.486 777.686 307.889C776.367 307.292 774.755 306.994 772.85 306.996L769.846 306.999L769.842 302.97L772.846 302.966C774.335 302.965 775.642 302.695 776.764 302.156C777.9 301.618 778.784 300.86 779.418 299.882C780.064 298.905 780.387 297.757 780.385 296.438C780.384 295.168 780.102 294.063 779.539 293.123C778.976 292.184 778.182 291.452 777.156 290.928C776.142 290.404 774.945 290.142 773.565 290.144C772.27 290.145 771.049 290.385 769.902 290.862C768.767 291.327 767.84 292.006 767.12 292.898C766.401 293.778 766.011 294.841 765.951 296.087L761.555 296.091C761.626 294.125 762.217 292.403 763.326 290.924C764.436 289.433 765.888 288.271 767.682 287.439C769.489 286.607 771.472 286.19 773.634 286.187C775.954 286.185 777.945 286.653 779.607 287.592C781.268 288.518 782.546 289.744 783.439 291.269C784.332 292.795 784.779 294.443 784.781 296.213C784.783 298.326 784.229 300.128 783.12 301.619C782.022 303.109 780.528 304.143 778.635 304.719L778.636 305.012C781.005 305.4 782.856 306.406 784.189 308.028C785.522 309.639 786.189 311.635 786.192 314.016C786.194 316.055 785.64 317.887 784.531 319.513C783.433 321.126 781.933 322.397 780.029 323.327C778.125 324.257 775.958 324.723 773.528 324.726ZM805.93 324.692C803.17 324.695 800.819 323.946 798.876 322.447C796.933 320.934 795.447 318.744 794.418 315.875C793.389 312.995 792.873 309.515 792.868 305.437C792.864 301.382 793.373 297.92 794.396 295.049C795.431 292.166 796.918 289.967 798.858 288.451C800.811 286.922 803.154 286.156 805.89 286.154C808.625 286.151 810.964 286.912 812.907 288.436C814.863 289.948 816.355 292.144 817.384 295.025C818.425 297.894 818.947 301.355 818.951 305.409C818.956 309.488 818.446 312.968 817.424 315.851C816.401 318.722 814.92 320.916 812.98 322.432C811.04 323.936 808.69 324.689 805.93 324.692ZM805.926 320.662C808.661 320.66 810.784 319.339 812.296 316.699C813.807 314.06 814.56 310.298 814.555 305.414C814.552 302.166 814.201 299.4 813.503 297.117C812.816 294.835 811.825 293.096 810.53 291.9C809.246 290.705 807.701 290.108 805.894 290.11C803.183 290.113 801.066 291.452 799.542 294.128C798.019 296.792 797.259 300.56 797.264 305.432C797.268 308.68 797.613 311.439 798.299 313.71C798.985 315.981 799.97 317.707 801.253 318.891C802.549 320.074 804.106 320.664 805.926 320.662ZM831.137 319.024L830.846 321.003C830.64 322.395 830.324 323.885 829.898 325.473C829.485 327.061 829.053 328.557 828.603 329.962C828.152 331.367 827.781 332.484 827.489 333.315L824.192 333.318C824.35 332.537 824.556 331.505 824.811 330.222C825.066 328.94 825.321 327.505 825.576 325.917C825.843 324.342 826.061 322.729 826.23 321.081L826.448 319.029L831.137 319.024ZM853.585 324.129L853.582 320.832L865.95 307.265C867.401 305.676 868.596 304.295 869.535 303.122C870.474 301.936 871.169 300.824 871.62 299.786C872.083 298.735 872.314 297.636 872.313 296.488C872.311 295.169 871.993 294.028 871.357 293.064C870.733 292.1 869.877 291.356 868.79 290.832C867.702 290.308 866.481 290.047 865.126 290.048C863.685 290.05 862.427 290.35 861.353 290.949C860.292 291.537 859.468 292.362 858.883 293.425C858.31 294.488 858.025 295.734 858.026 297.162L853.703 297.167C853.701 294.969 854.206 293.039 855.218 291.377C856.229 289.715 857.608 288.42 859.353 287.49C861.111 286.56 863.082 286.094 865.268 286.091C867.466 286.089 869.414 286.551 871.113 287.477C872.811 288.404 874.143 289.654 875.11 291.228C876.076 292.802 876.56 294.554 876.562 296.484C876.564 297.863 876.315 299.213 875.815 300.532C875.328 301.839 874.475 303.3 873.256 304.913C872.048 306.514 870.371 308.469 868.225 310.779L859.808 319.8L859.809 320.093L877.246 320.075L877.25 324.105L853.585 324.129ZM897.051 324.597C894.292 324.6 891.94 323.851 889.997 322.351C888.054 320.839 886.568 318.649 885.539 315.78C884.51 312.899 883.994 309.42 883.99 305.341C883.985 301.287 884.495 297.825 885.517 294.954C886.552 292.071 888.04 289.871 889.98 288.355C891.932 286.827 894.276 286.061 897.011 286.058C899.746 286.055 902.086 286.816 904.029 288.34C905.984 289.853 907.476 292.049 908.505 294.93C909.546 297.798 910.068 301.26 910.073 305.314C910.077 309.392 909.568 312.873 908.545 315.756C907.522 318.627 906.041 320.82 904.101 322.336C902.161 323.84 899.811 324.594 897.051 324.597ZM897.047 320.567C899.782 320.564 901.906 319.243 903.417 316.604C904.929 313.965 905.682 310.203 905.677 305.318C905.673 302.07 905.322 299.305 904.624 297.022C903.938 294.739 902.947 293 901.651 291.805C900.368 290.609 898.822 290.013 897.015 290.015C894.304 290.017 892.187 291.357 890.663 294.033C889.14 296.696 888.381 300.464 888.386 305.336C888.389 308.585 888.734 311.344 889.42 313.615C890.106 315.885 891.091 317.612 892.374 318.795C893.67 319.978 895.228 320.569 897.047 320.567ZM917.053 324.063L917.049 320.766L929.417 307.198C930.869 305.609 932.064 304.228 933.003 303.055C933.942 301.87 934.637 300.758 935.088 299.719C935.551 298.669 935.781 297.569 935.78 296.422C935.779 295.103 935.46 293.961 934.824 292.997C934.2 292.033 933.345 291.289 932.257 290.765C931.17 290.241 929.949 289.98 928.593 289.982C927.152 289.983 925.895 290.284 924.821 290.883C923.759 291.47 922.936 292.295 922.351 293.358C921.778 294.421 921.492 295.667 921.494 297.096L917.171 297.1C917.169 294.902 917.673 292.973 918.685 291.311C919.697 289.649 921.076 288.353 922.821 287.423C924.578 286.493 926.55 286.027 928.736 286.025C930.934 286.023 932.882 286.485 934.58 287.411C936.278 288.337 937.611 289.587 938.577 291.162C939.543 292.736 940.028 294.488 940.03 296.417C940.031 297.797 939.782 299.147 939.283 300.466C938.796 301.773 937.943 303.233 936.723 304.846C935.516 306.447 933.839 308.403 931.692 310.713L923.276 319.734L923.276 320.027L940.714 320.008L940.718 324.038L917.053 324.063ZM946.59 316.339L946.586 312.602L963.043 286.502L965.754 286.499L965.76 292.287L963.929 292.289L951.494 312.011L951.494 312.304L973.694 312.281L973.698 316.31L946.59 316.339ZM964.255 324.013L964.246 315.185L964.244 313.445L964.216 286.501L968.538 286.496L968.578 324.009L964.255 324.013Z" fill="#1E1E1E"/>
<path d="M267.4 443.2C267.4 487.9 237.8 524.2 201.3 524.2C164.8 524.2 135.2 488 135.2 443.2" stroke="#1E1E1E" stroke-width="5" stroke-linejoin="round"/>
<path d="M135.1 443.2C135.1 487.9 105.5 524.2 68.9999 524.2C32.4999 524.2 2.8999 488 2.8999 443.2" stroke="#1E1E1E" stroke-width="5" stroke-linejoin="round"/>
<path d="M399.7 443.2C399.7 487.9 370.1 524.2 333.6 524.2C297.1 524.2 267.5 488 267.5 443.2" stroke="#1E1E1E" stroke-width="5" stroke-linejoin="round"/>
<path d="M532 443.2C532 487.9 502.4 524.2 465.9 524.2C429.4 524.2 399.8 488 399.8 443.2" stroke="#1E1E1E" stroke-width="5" stroke-linejoin="round"/>
</svg>
